M48
INCH
T1C00.016
T2C00.016
T3C00.035
T4C00.041
T5C00.051
%
T001
X00711Y00585
X00711Y00625
X00751Y00585
X00751Y00625
X00751Y00664
X00790Y00585
X00790Y00625
X00790Y00664
X01105Y00585
X01105Y00625
X01144Y00585
X01144Y00625
X01144Y00664
X01184Y00585
X01184Y00625
X01184Y00664
X01499Y00585
X01499Y00625
X01538Y00585
X01538Y00625
X01538Y00664
X01577Y00585
X01577Y00625
X01577Y00664
T002
X00207Y00536
X00207Y00575
X00333Y00733
X00377Y00646
X00377Y00690
X00377Y00729
X00424Y00764
X00424Y00969
X00487Y00871
X00593Y00969
X00751Y01127
X00790Y01127
X00837Y00764
X00837Y00969
X00896Y00871
X00979Y00969
X01022Y01333
X01023Y01270
X01108Y01095
X01142Y01094
X01227Y00768
X01227Y00969
X01287Y01091
X01290Y00871
X01373Y00969
X01632Y00686
X01632Y00827
X01691Y00654
X01691Y00796
X01751Y00623
X01751Y00764
T003
X00305Y00151
X00305Y00250
T004
X00087Y00460
X00087Y00560
X00087Y00660
X00087Y00760
X00087Y00860
X00087Y00960
X00087Y01060
X00087Y01160
X00087Y01260
X00087Y01360
X01887Y00460
X01887Y00560
X01887Y00660
X01887Y00760
X01887Y00860
X01887Y00960
X01887Y01060
X01887Y01160
X01887Y01260
X01887Y01360
T005
X00787Y00152
X00987Y00152
X01187Y00152
X01599Y00154
X01799Y00154
M30
