%FSLAX23Y23*%
%MOIN*%
G04 EasyPC Gerber Version 15.0.4 Build 3016 *
%ADD74R,0.06000X0.06000*%
%ADD10C,0.00500*%
%ADD81C,0.01000*%
%ADD79C,0.01969*%
%ADD99C,0.02165*%
%ADD23C,0.02756*%
%ADD24C,0.03200*%
%ADD75C,0.06000*%
%ADD72C,0.06500*%
%ADD73C,0.09055*%
X0Y0D02*
D02*
D10*
X1946Y1611D02*
X1894D01*
G75*
G02X1880I-7J44*
G01*
X1782*
X1747Y1576*
X1743Y1426*
X1774Y1391*
X1859*
G75*
G02X1887Y1401I28J-35*
G01*
G75*
G02Y1311J-45*
G01*
G75*
G02X1884Y1311I0J45*
G01*
Y1301*
G75*
G02X1887Y1301I2J-45*
G01*
G75*
G02Y1211J-45*
G01*
G75*
G02X1884Y1211I0J45*
G01*
Y1201*
G75*
G02X1887Y1201I2J-45*
G01*
G75*
G02Y1111J-45*
G01*
G75*
G02X1884Y1111I0J45*
G01*
Y1101*
G75*
G02X1887Y1101I2J-45*
G01*
G75*
G02Y1011J-45*
G01*
G75*
G02X1884Y1011I0J45*
G01*
Y1001*
G75*
G02X1887Y1001I2J-45*
G01*
G75*
G02Y911J-45*
G01*
G75*
G02X1884Y911I0J45*
G01*
Y901*
G75*
G02X1887Y901I2J-45*
G01*
G75*
G02Y811J-45*
G01*
G75*
G02X1884Y811I0J45*
G01*
Y801*
G75*
G02X1887Y801I2J-45*
G01*
G75*
G02Y711J-45*
G01*
G75*
G02X1858Y722J45*
G01*
X916*
Y993*
X877Y1040*
X825*
X810Y1025*
Y997*
X857Y974*
Y680*
X1946*
Y1611*
X1887Y1511D02*
G75*
G02Y1601J45D01*
G01*
G75*
G02Y1511J-45*
G01*
Y1411D02*
G75*
G02Y1501J45D01*
G01*
G75*
G02Y1411J-45*
G01*
X1746Y1556D02*
G36*
X1743Y1456D01*
X1842*
G75*
G02X1887Y1501I45*
G01*
G75*
G02X1932Y1456J-45*
G01*
X1946*
Y1556*
X1932*
G75*
G02X1887Y1511I-45*
G01*
G75*
G02X1842Y1556J45*
G01*
X1746*
G37*
X1842D02*
G36*
G75*
G02X1887Y1601I45D01*
G01*
G75*
G02X1932Y1556J-45*
G01*
X1946*
Y1611*
X1894*
G75*
G02X1880I-7J44*
G01*
X1782*
X1747Y1576*
X1746Y1556*
X1842*
G37*
X1743Y1456D02*
G36*
X1743Y1426D01*
X1774Y1391*
X1859*
G75*
G02X1887Y1401I28J-35*
G01*
G75*
G02Y1311J-45*
G01*
G75*
G02X1884Y1311I0J45*
G01*
Y1301*
G75*
G02X1887Y1301I2J-45*
G01*
G75*
G02Y1211J-45*
G01*
G75*
G02X1884Y1211I0J45*
G01*
Y1201*
G75*
G02X1887Y1201I2J-45*
G01*
G75*
G02Y1111J-45*
G01*
G75*
G02X1884Y1111I0J45*
G01*
Y1101*
G75*
G02X1887Y1101I2J-45*
G01*
G75*
G02Y1011J-45*
G01*
G75*
G02X1884Y1011I0J45*
G01*
Y1001*
G75*
G02X1887Y1001I2J-45*
G01*
G75*
G02Y911J-45*
G01*
G75*
G02X1884Y911I0J45*
G01*
Y901*
G75*
G02X1887Y901I2J-45*
G01*
G75*
G02Y811J-45*
G01*
G75*
G02X1884Y811I0J45*
G01*
Y801*
G75*
G02X1887Y801I2J-45*
G01*
G75*
G02Y711J-45*
G01*
G75*
G02X1858Y722J45*
G01*
X916*
Y993*
X877Y1040*
X825*
X810Y1025*
Y997*
X857Y974*
Y680*
X1946*
Y1456*
X1932*
G75*
G02X1887Y1411I-45*
G01*
G75*
G02X1842Y1456J45*
G01*
X1743*
G37*
X1946Y1626D02*
Y2086D01*
X28*
Y680*
X842*
Y964*
X803Y984*
G75*
G02X795Y997I7J13*
G01*
Y1025*
G75*
G02X799Y1035I15*
G01*
X815Y1051*
G75*
G02X825Y1056I11J-11*
G01*
X877*
G75*
G02X888Y1050J-15*
G01*
X927Y1003*
G75*
G02X931Y993I-12J-10*
G01*
Y866*
G75*
G02X970Y825I19J-21*
G01*
Y804*
G75*
G02X980Y783I-19J-21*
G01*
G75*
G02X931Y763I-29*
G01*
Y737*
X1846*
G75*
G02X1870Y798I41J19*
G01*
G75*
G02X1869Y801I15J3*
G01*
Y811*
G75*
G02X1870Y814I15J0*
G01*
G75*
G02Y898I17J42*
G01*
G75*
G02X1869Y901I15J3*
G01*
Y911*
G75*
G02X1870Y914I15J0*
G01*
G75*
G02Y998I17J42*
G01*
G75*
G02X1869Y1001I15J3*
G01*
Y1011*
G75*
G02X1870Y1014I15J0*
G01*
G75*
G02Y1098I17J42*
G01*
G75*
G02X1869Y1101I15J3*
G01*
Y1111*
G75*
G02X1870Y1114I15J0*
G01*
G75*
G02Y1198I17J42*
G01*
G75*
G02X1869Y1201I15J3*
G01*
Y1211*
G75*
G02X1870Y1214I15J0*
G01*
G75*
G02Y1298I17J42*
G01*
G75*
G02X1869Y1301I15J3*
G01*
Y1311*
G75*
G02X1870Y1314I15J0*
G01*
G75*
G02X1846Y1376I17J42*
G01*
X1774*
G75*
G02X1763Y1381I0J15*
G01*
X1731Y1416*
G75*
G02X1728Y1427I11J10*
G01*
X1732Y1576*
G75*
G02X1736Y1587I15J0*
G01*
X1740Y1590*
G75*
G02X1756Y1606I26J-11*
G01*
X1771Y1622*
G75*
G02X1782Y1626I11J-11*
G01*
X1848*
G75*
G02X1887Y1705I39J29*
G01*
G75*
G02X1926Y1626J-49*
G01*
X1946*
X1711Y1824D02*
X1626D01*
Y1909*
X1711*
Y1824*
X1669Y1918D02*
G75*
G02Y2011J46D01*
G01*
G75*
G02Y1918J-46*
G01*
X1626Y1412D02*
G75*
G02X1673Y1383I14J-29D01*
G01*
G75*
G02X1616Y1361I-32*
G01*
G75*
G02X1576Y1362I-19J26*
G01*
G75*
G02X1578Y1352I-26J-11*
G01*
G75*
G02X1572Y1334I-29*
G01*
Y1164*
G75*
G02X1578Y1147I-22J-18*
G01*
G75*
G02X1521I-29*
G01*
G75*
G02X1527Y1164I29*
G01*
Y1334*
G75*
G02X1521Y1352I22J18*
G01*
G75*
G02X1568Y1374I29*
G01*
G75*
G02X1565Y1387I29J13*
G01*
G75*
G02X1571Y1407I32*
G01*
G75*
G02X1565Y1426I26J20*
G01*
G75*
G02X1573Y1448I32*
G01*
G75*
G02X1565Y1470I24J22*
G01*
G75*
G02X1629I32*
G01*
G75*
G02X1621Y1448I-32J0*
G01*
G75*
G02X1629Y1426I-24J-22*
G01*
G75*
G02X1626Y1412I-32J0*
G01*
X1519Y1245D02*
G75*
G02X1454I-32D01*
G01*
G75*
G02X1519I32*
G01*
X1413Y1147D02*
G75*
G02X1348I-32D01*
G01*
G75*
G02X1413I32*
G01*
X1285Y1511D02*
G75*
G02X1292Y1491I-23J-20D01*
G01*
G75*
G02X1251Y1464I-30*
G01*
G75*
G02X1223Y1422I-28J-12*
G01*
G75*
G02X1203Y1429J30*
G01*
G75*
G02X1184Y1422I-20J23*
G01*
G75*
G02X1161Y1472J30*
G01*
G75*
G02X1154Y1491I23J20*
G01*
G75*
G02X1161Y1511I30*
G01*
G75*
G02X1154Y1531I23J20*
G01*
G75*
G02X1203Y1553I30*
G01*
G75*
G02X1243I20J-23*
G01*
G75*
G02X1292Y1531I20J-23*
G01*
G75*
G02X1285Y1511I-30*
G01*
X1203Y1015D02*
G75*
G02X1255Y989I20J-26D01*
G01*
G75*
G02X1203Y964I-32*
G01*
G75*
G02X1151Y989I-20J26*
G01*
G75*
G02X1203Y1015I32*
G01*
X1159Y1334D02*
Y1164D01*
G75*
G02X1165Y1147I-22J-18*
G01*
G75*
G02X1108I-29*
G01*
G75*
G02X1114Y1164I29*
G01*
Y1334*
G75*
G02X1108Y1352I22J18*
G01*
G75*
G02X1165I29*
G01*
G75*
G02X1159Y1334I-29*
G01*
X1129Y1964D02*
G75*
G02X1245I58D01*
G01*
G75*
G02X1129I-58*
G01*
X1110Y1245D02*
G75*
G02X1045I-32D01*
G01*
G75*
G02X1110I32*
G01*
X1027Y1147D02*
G75*
G02X962I-32D01*
G01*
G75*
G02X1027I32*
G01*
X929Y1964D02*
G75*
G02X1045I58D01*
G01*
G75*
G02X929I-58*
G01*
X891Y1511D02*
G75*
G02X899Y1491I-23J-20D01*
G01*
G75*
G02X857Y1464I-30*
G01*
G75*
G02X829Y1422I-28J-12*
G01*
G75*
G02X810Y1429J30*
G01*
G75*
G02X790Y1422I-20J23*
G01*
G75*
G02X767Y1472J30*
G01*
G75*
G02X760Y1491I23J20*
G01*
G75*
G02X767Y1511I30*
G01*
G75*
G02X760Y1531I23J20*
G01*
G75*
G02X810Y1553I30*
G01*
G75*
G02X849I20J-23*
G01*
G75*
G02X899Y1531I20J-23*
G01*
G75*
G02X891Y1511I-30*
G01*
X769Y1330D02*
Y1164D01*
G75*
G02X775Y1147I-22J-18*
G01*
G75*
G02X718I-29*
G01*
G75*
G02X724Y1164I29*
G01*
Y1330*
G75*
G02X718Y1348I22J18*
G01*
G75*
G02X775I29*
G01*
G75*
G02X769Y1330I-29*
G01*
X729Y1964D02*
G75*
G02X845I58D01*
G01*
G75*
G02X729I-58*
G01*
X719Y1025D02*
G75*
G02X654I-32D01*
G01*
G75*
G02X719I32*
G01*
X716Y1245D02*
G75*
G02X651I-32D01*
G01*
G75*
G02X716I32*
G01*
X633Y1147D02*
G75*
G02X569I-32D01*
G01*
G75*
G02X633I32*
G01*
X498Y1511D02*
G75*
G02X505Y1491I-23J-20D01*
G01*
G75*
G02X463Y1464I-30*
G01*
G75*
G02X436Y1422I-28J-12*
G01*
G75*
G02X416Y1429J30*
G01*
G75*
G02X396Y1422I-20J23*
G01*
G75*
G02X373Y1472J30*
G01*
G75*
G02X366Y1491I23J20*
G01*
G75*
G02X373Y1511I30*
G01*
G75*
G02X366Y1531I23J20*
G01*
G75*
G02X416Y1553I30*
G01*
G75*
G02X455I20J-23*
G01*
G75*
G02X505Y1531I20J-23*
G01*
G75*
G02X498Y1511I-30*
G01*
X373Y1289D02*
G75*
G02X309I-32D01*
G01*
G75*
G02X373I32*
G01*
X319Y1448D02*
G75*
G02X370Y1430I22J-18D01*
G01*
G75*
G02X319Y1413I-29*
G01*
X254*
X225Y1384*
G75*
G02X255Y1352I-2J-32*
G01*
G75*
G02X197Y1332I-32*
G01*
Y1149*
G75*
G02X192Y1136I-18*
G01*
X128Y1073*
G75*
G02X87Y1011I-42J-17*
G01*
G75*
G02Y1101J45*
G01*
G75*
G02X104Y1098J-45*
G01*
X162Y1156*
Y1207*
X128Y1173*
G75*
G02X87Y1111I-42J-17*
G01*
G75*
G02Y1201J45*
G01*
G75*
G02X104Y1198J-45*
G01*
X142Y1236*
Y1287*
X128Y1273*
G75*
G02X87Y1211I-42J-17*
G01*
G75*
G02Y1301J45*
G01*
G75*
G02X104Y1298J-45*
G01*
X123Y1317*
Y1329*
G75*
G02X87Y1311I-36J27*
G01*
G75*
G02Y1401J45*
G01*
G75*
G02X123Y1383J-45*
G01*
Y1411*
G75*
G02X128Y1423I18*
G01*
X195Y1490*
G75*
G02X194Y1493I28J4*
G01*
G75*
G02X251I29*
G01*
G75*
G02X248Y1479I-29*
G01*
X260*
G75*
G02X311Y1462I22J-18*
G01*
G75*
G02X307Y1448I-29*
G01*
X319*
X314Y1320D02*
G75*
G02X250I-32D01*
G01*
G75*
G02X314I32*
G01*
X313Y1962D02*
G75*
G02X436I62D01*
G01*
G75*
G02X313I-62*
G01*
X116D02*
G75*
G02X232I58D01*
G01*
G75*
G02X116I-58*
G01*
X87Y1701D02*
G75*
G02Y1611J-45D01*
G01*
G75*
G02Y1701J45*
G01*
Y1601D02*
G75*
G02Y1511J-45D01*
G01*
G75*
G02Y1601J45*
G01*
Y1501D02*
G75*
G02Y1411J-45D01*
G01*
G75*
G02Y1501J45*
G01*
Y1001D02*
G75*
G02Y911J-45D01*
G01*
G75*
G02Y1001J45*
G01*
Y901D02*
G75*
G02Y811J-45D01*
G01*
G75*
G02Y901J45*
G01*
Y801D02*
G75*
G02Y711J-45D01*
G01*
G75*
G02Y801J45*
G01*
X28Y1866D02*
G36*
Y1656D01*
X42*
G75*
G02X87Y1701I45*
G01*
G75*
G02X132Y1656J-45*
G01*
X1838*
G75*
G02X1887Y1705I49*
G01*
G75*
G02X1926Y1626J-49*
G01*
X1946*
Y1866*
X1711*
Y1824*
X1626*
Y1866*
X28*
G37*
X1626D02*
G36*
Y1909D01*
X1711*
Y1866*
X1946*
Y1965*
X1715*
G75*
G02X1669Y1918I-46*
G01*
G75*
G02X1623Y1965J46*
G01*
X1245*
G75*
G02Y1964I-58J0*
G01*
G75*
G02X1129I-58*
G01*
G75*
G02Y1965I58J0*
G01*
X1045*
G75*
G02Y1964I-58J0*
G01*
G75*
G02X929I-58*
G01*
G75*
G02Y1965I58J0*
G01*
X845*
G75*
G02Y1964I-58J0*
G01*
G75*
G02X729I-58*
G01*
G75*
G02Y1965I58J0*
G01*
X436*
G75*
G02X436Y1962I-61J-3*
G01*
G75*
G02X313I-62*
G01*
G75*
G02X313Y1965I62*
G01*
X232*
G75*
G02X232Y1962I-58J-3*
G01*
G75*
G02X116I-58*
G01*
G75*
G02X116Y1965I58J0*
G01*
X28*
Y1866*
X1626*
G37*
X116Y1965D02*
G36*
G75*
G02X232I58J-3D01*
G01*
X313*
G75*
G02X436I61J-3*
G01*
X729*
G75*
G02X845I58J-1*
G01*
X929*
G75*
G02X1045I58J-1*
G01*
X1129*
G75*
G02X1245I58J-1*
G01*
X1623*
G75*
G02X1669Y2011I46*
G01*
G75*
G02X1715Y1965J-46*
G01*
X1946*
Y2086*
X28*
Y1965*
X116*
G37*
X28Y1310D02*
G36*
Y1245D01*
X43*
G75*
G02X87Y1301I44J11*
G01*
G75*
G02X104Y1298J-45*
G01*
X116Y1310*
X28*
G37*
X116D02*
G36*
X123Y1317D01*
Y1329*
G75*
G02X87Y1311I-36J27*
G01*
G75*
G02Y1401J45*
G01*
G75*
G02X123Y1383J-45*
G01*
Y1411*
G75*
G02X128Y1423I18*
G01*
X195Y1490*
G75*
G02X195Y1491I28J4*
G01*
X114*
G75*
G02X87Y1411I-28J-35*
G01*
G75*
G02X59Y1491J45*
G01*
X28*
Y1310*
X116*
G37*
X197D02*
G36*
Y1245D01*
X651*
G75*
G02X716I32*
G01*
X724*
Y1310*
X365*
G75*
G02X373Y1289I-24J-22*
G01*
G75*
G02X309I-32*
G01*
G75*
G02X317Y1310I32*
G01*
X313*
G75*
G02X251I-31J10*
G01*
X197*
G37*
X251D02*
G36*
G75*
G02X250Y1320I31J10D01*
G01*
G75*
G02X314I32*
G01*
G75*
G02X313Y1310I-32*
G01*
X317*
G75*
G02X365I24J-22*
G01*
X724*
Y1330*
G75*
G02X718Y1348I22J18*
G01*
G75*
G02X775I29*
G01*
G75*
G02X769Y1330I-29*
G01*
Y1310*
X1114*
Y1334*
G75*
G02X1108Y1352I22J18*
G01*
G75*
G02X1165I29*
G01*
G75*
G02X1159Y1334I-29*
G01*
Y1310*
X1527*
Y1334*
G75*
G02X1568Y1374I22J18*
G01*
G75*
G02X1571Y1407I29J13*
G01*
G75*
G02X1573Y1448I26J20*
G01*
G75*
G02X1565Y1470I24J22*
G01*
G75*
G02X1573Y1491I32*
G01*
X1292*
G75*
G02X1251Y1464I-30*
G01*
G75*
G02X1203Y1429I-28J-12*
G01*
G75*
G02X1161Y1472I-20J23*
G01*
G75*
G02X1154Y1491I23J20*
G01*
X899*
G75*
G02X857Y1464I-30*
G01*
G75*
G02X810Y1429I-28J-12*
G01*
G75*
G02X767Y1472I-20J23*
G01*
G75*
G02X760Y1491I23J20*
G01*
X505*
G75*
G02X463Y1464I-30*
G01*
G75*
G02X416Y1429I-28J-12*
G01*
G75*
G02X373Y1472I-20J23*
G01*
G75*
G02X366Y1491I23J20*
G01*
X251*
G75*
G02X248Y1479I-28J2*
G01*
X260*
G75*
G02X307Y1448I22J-18*
G01*
X319*
G75*
G02X370Y1430I22J-18*
G01*
G75*
G02X319Y1413I-29*
G01*
X254*
X225Y1384*
G75*
G02X255Y1352I-2J-32*
G01*
G75*
G02X197Y1332I-32*
G01*
Y1310*
X251*
G37*
X769D02*
G36*
Y1245D01*
X1045*
G75*
G02X1110I32*
G01*
X1114*
Y1310*
X769*
G37*
X1159D02*
G36*
Y1245D01*
X1454*
G75*
G02X1519I32*
G01*
X1527*
Y1310*
X1159*
G37*
X1572D02*
G36*
Y1245D01*
X1843*
G75*
G02X1870Y1298I44J11*
G01*
G75*
G02X1869Y1301I15J3*
G01*
Y1310*
X1572*
G37*
X1869D02*
G36*
Y1311D01*
G75*
G02X1870Y1314I15J0*
G01*
G75*
G02X1846Y1376I17J42*
G01*
X1774*
G75*
G02X1763Y1381I0J15*
G01*
X1731Y1416*
G75*
G02X1728Y1427I11J10*
G01*
X1729Y1491*
X1621*
G75*
G02X1629Y1470I-24J-22*
G01*
G75*
G02X1621Y1448I-32J0*
G01*
G75*
G02X1626Y1412I-24J-22*
G01*
G75*
G02X1673Y1383I14J-29*
G01*
G75*
G02X1616Y1361I-32*
G01*
G75*
G02X1576Y1362I-19J26*
G01*
G75*
G02X1572Y1334I-26J-11*
G01*
Y1310*
X1869*
G37*
X28Y1245D02*
G36*
Y1147D01*
X43*
G75*
G02X87Y1201I44J9*
G01*
G75*
G02X104Y1198J-45*
G01*
X142Y1236*
Y1287*
X128Y1273*
G75*
G02X87Y1211I-42J-17*
G01*
G75*
G02X43Y1245J45*
G01*
X28*
G37*
X197D02*
G36*
Y1149D01*
G75*
G02X197Y1147I-18J0*
G01*
X569*
G75*
G02X633I32*
G01*
X718*
G75*
G02X724Y1164I29*
G01*
Y1245*
X716*
G75*
G02X651I-32*
G01*
X197*
G37*
X769D02*
G36*
Y1164D01*
G75*
G02X775Y1147I-22J-18*
G01*
X962*
G75*
G02X1027I32*
G01*
X1108*
G75*
G02X1114Y1164I29*
G01*
Y1245*
X1110*
G75*
G02X1045I-32*
G01*
X769*
G37*
X1159D02*
G36*
Y1164D01*
G75*
G02X1165Y1147I-22J-18*
G01*
X1348*
G75*
G02X1413I32*
G01*
X1521*
G75*
G02X1527Y1164I29*
G01*
Y1245*
X1519*
G75*
G02X1454I-32*
G01*
X1159*
G37*
X1572D02*
G36*
Y1164D01*
G75*
G02X1578Y1147I-22J-18*
G01*
X1843*
G75*
G02X1870Y1198I44J9*
G01*
G75*
G02X1869Y1201I15J3*
G01*
Y1211*
G75*
G02X1870Y1214I15J0*
G01*
G75*
G02X1843Y1245I17J42*
G01*
X1572*
G37*
X28Y1147D02*
G36*
Y1025D01*
X54*
G75*
G02X87Y1101I33J31*
G01*
G75*
G02X104Y1098J-45*
G01*
X162Y1156*
Y1207*
X128Y1173*
G75*
G02X87Y1111I-42J-17*
G01*
G75*
G02X43Y1147J45*
G01*
X28*
G37*
X197D02*
G36*
G75*
G02X192Y1136I-17J2D01*
G01*
X128Y1073*
G75*
G02X119Y1025I-42J-17*
G01*
X654*
G75*
G02X719I32*
G01*
X795*
G75*
G02X799Y1035I15*
G01*
X815Y1051*
G75*
G02X825Y1056I11J-11*
G01*
X877*
G75*
G02X888Y1050J-15*
G01*
X927Y1003*
G75*
G02X931Y993I-12J-10*
G01*
Y989*
X1151*
G75*
G02X1203Y1015I32*
G01*
G75*
G02X1255Y989I20J-26*
G01*
X1857*
G75*
G02X1870Y998I30J-33*
G01*
G75*
G02X1869Y1001I15J3*
G01*
Y1011*
G75*
G02X1870Y1014I15J0*
G01*
G75*
G02Y1098I17J42*
G01*
G75*
G02X1869Y1101I15J3*
G01*
Y1111*
G75*
G02X1870Y1114I15J0*
G01*
G75*
G02X1843Y1147I17J42*
G01*
X1578*
G75*
G02X1521I-29*
G01*
X1413*
G75*
G02X1348I-32*
G01*
X1165*
G75*
G02X1108I-29*
G01*
X1027*
G75*
G02X962I-32*
G01*
X775*
G75*
G02X718I-29*
G01*
X633*
G75*
G02X569I-32*
G01*
X197*
G37*
X59Y1491D02*
G36*
G75*
G02X87Y1501I28J-35D01*
G01*
G75*
G02X114Y1491J-45*
G01*
X195*
G75*
G02X194Y1493I28J2*
G01*
G75*
G02X251I29*
G01*
G75*
G02X251Y1491I-29J0*
G01*
X366*
G75*
G02X373Y1511I30*
G01*
G75*
G02X380Y1556I23J20*
G01*
X132*
G75*
G02X87Y1511I-45*
G01*
G75*
G02X42Y1556J45*
G01*
X28*
Y1491*
X59*
G37*
X760D02*
G36*
G75*
G02X767Y1511I30D01*
G01*
G75*
G02X774Y1556I23J20*
G01*
X491*
G75*
G02X498Y1511I-16J-25*
G01*
G75*
G02X505Y1491I-23J-20*
G01*
X760*
G37*
X1154D02*
G36*
G75*
G02X1161Y1511I30D01*
G01*
G75*
G02X1167Y1556I23J20*
G01*
X885*
G75*
G02X891Y1511I-16J-25*
G01*
G75*
G02X899Y1491I-23J-20*
G01*
X1154*
G37*
X1573D02*
G36*
G75*
G02X1621I24J-22D01*
G01*
X1729*
X1731Y1556*
X1279*
G75*
G02X1285Y1511I-16J-25*
G01*
G75*
G02X1292Y1491I-23J-20*
G01*
X1573*
G37*
X28Y989D02*
G36*
Y856D01*
X42*
G75*
G02X87Y901I45*
G01*
G75*
G02X132Y856J-45*
G01*
X842*
Y964*
X803Y984*
G75*
G02X797Y989I7J13*
G01*
X117*
G75*
G02X87Y911I-30J-33*
G01*
G75*
G02X57Y989J45*
G01*
X28*
G37*
X57D02*
G36*
G75*
G02X87Y1001I30J-33D01*
G01*
G75*
G02X117Y989J-45*
G01*
X797*
G75*
G02X795Y997I13J8*
G01*
Y1025*
X719*
G75*
G02X654I-32*
G01*
X119*
G75*
G02X87Y1011I-33J31*
G01*
G75*
G02X54Y1025J45*
G01*
X28*
Y989*
X57*
G37*
X931D02*
G36*
Y866D01*
G75*
G02X970Y825I19J-21*
G01*
Y804*
G75*
G02X980Y783I-19J-21*
G01*
G75*
G02X931Y763I-29*
G01*
Y737*
X1846*
G75*
G02X1870Y798I41J19*
G01*
G75*
G02X1869Y801I15J3*
G01*
Y811*
G75*
G02X1870Y814I15J0*
G01*
G75*
G02Y898I17J42*
G01*
G75*
G02X1869Y901I15J3*
G01*
Y911*
G75*
G02X1870Y914I15J0*
G01*
G75*
G02X1857Y989I17J42*
G01*
X1255*
G75*
G02X1203Y964I-32*
G01*
G75*
G02X1151Y989I-20J26*
G01*
X931*
G37*
X28Y1656D02*
G36*
Y1556D01*
X42*
G75*
G02X87Y1601I45*
G01*
G75*
G02X132Y1556J-45*
G01*
X380*
G75*
G02X416Y1553I16J-25*
G01*
G75*
G02X455I20J-23*
G01*
G75*
G02X491Y1556I20J-23*
G01*
X774*
G75*
G02X810Y1553I16J-25*
G01*
G75*
G02X849I20J-23*
G01*
G75*
G02X885Y1556I20J-23*
G01*
X1167*
G75*
G02X1203Y1553I16J-25*
G01*
G75*
G02X1243I20J-23*
G01*
G75*
G02X1279Y1556I20J-23*
G01*
X1731*
X1732Y1576*
G75*
G02X1736Y1587I15J0*
G01*
X1740Y1590*
G75*
G02X1756Y1606I26J-11*
G01*
X1771Y1622*
G75*
G02X1782Y1626I11J-11*
G01*
X1848*
G75*
G02X1838Y1656I39J29*
G01*
X132*
G75*
G02X87Y1611I-45*
G01*
G75*
G02X42Y1656J45*
G01*
X28*
G37*
Y856D02*
G36*
Y756D01*
X42*
G75*
G02X87Y801I45*
G01*
G75*
G02X132Y756J-45*
G01*
X842*
Y856*
X132*
G75*
G02X87Y811I-45*
G01*
G75*
G02X42Y856J45*
G01*
X28*
G37*
Y756D02*
G36*
Y680D01*
X842*
Y756*
X132*
G75*
G02X87Y711I-45*
G01*
G75*
G02X42Y756J45*
G01*
X28*
G37*
X1971Y655D02*
Y2111D01*
X3*
Y655*
X1971*
D02*
D23*
X396Y1452D03*
Y1491D03*
Y1531D03*
X436Y1452D03*
Y1491D03*
Y1531D03*
X475Y1491D03*
Y1531D03*
X790Y1452D03*
Y1491D03*
Y1531D03*
X829Y1452D03*
Y1491D03*
Y1531D03*
X869Y1491D03*
Y1531D03*
X1184Y1452D03*
Y1491D03*
Y1531D03*
X1223Y1452D03*
Y1491D03*
Y1531D03*
X1262Y1491D03*
Y1531D03*
D02*
D24*
X223Y1352D03*
Y1493D03*
X282Y1320D03*
Y1462D03*
X341Y1289D03*
Y1430D03*
X601Y1147D03*
X684Y1245D03*
X687Y1025D03*
X747Y1147D03*
Y1348D03*
X831Y1022D03*
X866Y1021D03*
X950Y846D03*
X951Y783D03*
X995Y1147D03*
X1077Y1245D03*
X1136Y1147D03*
Y1352D03*
X1184Y989D03*
X1223D03*
X1380Y1147D03*
X1487Y1245D03*
X1550Y1147D03*
Y1352D03*
X1597Y1387D03*
Y1426D03*
Y1470D03*
X1640Y1383D03*
X1766Y1540D03*
Y1580D03*
D02*
D72*
X87Y756D03*
Y856D03*
Y956D03*
Y1056D03*
Y1156D03*
Y1256D03*
Y1356D03*
Y1456D03*
Y1556D03*
Y1656D03*
X1887Y756D03*
Y856D03*
Y956D03*
Y1056D03*
Y1156D03*
Y1256D03*
Y1356D03*
Y1456D03*
Y1556D03*
Y1656D03*
D02*
D73*
X174Y1962D03*
X374D03*
X787Y1964D03*
X987D03*
X1187D03*
D02*
D74*
X1669Y1866D03*
D02*
D75*
Y1965D03*
D02*
D79*
X747Y1348D02*
Y1147D01*
X1136Y1352D02*
Y1147D01*
X1550Y1352D02*
Y1147D01*
D02*
D81*
X223Y1493D02*
X140Y1411D01*
Y1309*
X87Y1256*
X223Y1493D02*
Y1497D01*
X219Y1501*
X282Y1462D02*
X235D01*
X160Y1387*
Y1229*
X87Y1156*
X341Y1430D02*
X247D01*
X180Y1363*
Y1149*
X87Y1056*
X396Y1491D02*
X436D01*
Y1452D02*
Y1491D01*
X475*
X436Y1531D02*
Y1491D01*
X829D02*
X869D01*
X829D02*
Y1452D01*
Y1491D02*
X790D01*
X829D02*
Y1531D01*
X951Y783D02*
Y845D01*
X950Y846*
X1184Y1491D02*
X1223D01*
Y1452D02*
Y1491D01*
Y1531D02*
Y1491D01*
X1262D02*
X1223D01*
D02*
D99*
X223Y1346D02*
Y1311D01*
X282Y1315D02*
Y1279D01*
Y1325D02*
Y1361D01*
X340Y1962D02*
X304D01*
X341Y1283D02*
Y1248D01*
Y1294D02*
Y1329D01*
X346Y1289D02*
X382D01*
X374Y1927D02*
Y1892D01*
Y1996D02*
Y2032D01*
X393Y1491D02*
X358D01*
X393Y1531D02*
X358D01*
X396Y1449D02*
Y1414D01*
Y1534D02*
Y1569D01*
X409Y1962D02*
X444D01*
X436Y1449D02*
Y1414D01*
Y1534D02*
Y1569D01*
X439Y1452D02*
X474D01*
X475Y1488D02*
Y1453D01*
Y1534D02*
Y1569D01*
X478Y1491D02*
X513D01*
X478Y1531D02*
X513D01*
X596Y1147D02*
X560D01*
X601Y1142D02*
Y1106D01*
Y1152D02*
Y1187D01*
X606Y1147D02*
X642D01*
X678Y1245D02*
X643D01*
X681Y1025D02*
X646D01*
X684Y1240D02*
Y1205D01*
Y1250D02*
Y1286D01*
X687Y1020D02*
Y984D01*
Y1030D02*
Y1065D01*
X692Y1025D02*
X727D01*
X787Y1452D02*
X752D01*
X787Y1491D02*
X752D01*
X787Y1531D02*
X752D01*
X790Y1449D02*
Y1414D01*
Y1534D02*
Y1569D01*
X829Y1449D02*
Y1414D01*
Y1534D02*
Y1569D01*
X832Y1452D02*
X868D01*
X869Y1488D02*
Y1453D01*
Y1534D02*
Y1569D01*
X872Y1491D02*
X907D01*
X872Y1531D02*
X907D01*
X989Y1147D02*
X954D01*
X995Y1142D02*
Y1106D01*
Y1152D02*
Y1187D01*
X1000Y1147D02*
X1035D01*
X1072Y1245D02*
X1037D01*
X1077Y1240D02*
Y1205D01*
Y1250D02*
Y1286D01*
X1178Y989D02*
X1143D01*
X1181Y1452D02*
X1145D01*
X1181Y1491D02*
X1145D01*
X1181Y1531D02*
X1145D01*
X1184Y984D02*
Y949D01*
Y994D02*
Y1030D01*
Y1449D02*
Y1414D01*
Y1534D02*
Y1569D01*
X1223Y984D02*
Y949D01*
Y994D02*
Y1030D01*
Y1449D02*
Y1414D01*
Y1534D02*
Y1569D01*
X1226Y1452D02*
X1261D01*
X1228Y989D02*
X1264D01*
X1262Y1488D02*
Y1453D01*
Y1534D02*
Y1569D01*
X1265Y1491D02*
X1301D01*
X1265Y1531D02*
X1301D01*
X1375Y1147D02*
X1340D01*
X1380Y1142D02*
Y1106D01*
Y1152D02*
Y1187D01*
X1386Y1147D02*
X1421D01*
X1482Y1245D02*
X1446D01*
X1487Y1240D02*
Y1205D01*
Y1250D02*
Y1286D01*
X1592Y1426D02*
X1556D01*
X1592Y1470D02*
X1556D01*
X1597Y1382D02*
Y1346D01*
Y1475D02*
Y1510D01*
X1602Y1426D02*
X1638D01*
X1602Y1470D02*
X1638D01*
X1640Y1378D02*
Y1342D01*
Y1388D02*
Y1424D01*
X1645Y1383D02*
X1681D01*
X1650Y1965D02*
X1614D01*
X1669Y1984D02*
Y2019D01*
X1688Y1965D02*
X1723D01*
X1865Y1656D02*
X1830D01*
X1887Y1678D02*
Y1713D01*
X0Y0D02*
M02*
