M48
INCH
T1C00.016
T2C00.016
T3C00.035
T4C00.041
T5C00.051
%
T001
X00711Y00846
X00711Y00886
X00751Y00846
X00751Y00886
X00751Y00925
X00790Y00846
X00790Y00886
X00790Y00925
X01105Y00846
X01105Y00886
X01144Y00846
X01144Y00886
X01144Y00925
X01184Y00846
X01184Y00886
X01184Y00925
X01499Y00846
X01499Y00886
X01538Y00846
X01538Y00886
X01538Y00925
X01577Y00846
X01577Y00886
X01577Y00925
T002
X00207Y00797
X00207Y00836
X00333Y00994
X00377Y00907
X00377Y00951
X00377Y00990
X00424Y01025
X00424Y01230
X00487Y01132
X00593Y01230
X00751Y01388
X00790Y01388
X00837Y01025
X00837Y01230
X00896Y01132
X00979Y01230
X01022Y01594
X01023Y01531
X01108Y01356
X01142Y01355
X01227Y01029
X01227Y01230
X01287Y01352
X01290Y01132
X01373Y01230
X01632Y00947
X01632Y01088
X01691Y00915
X01691Y01057
X01751Y00884
X01751Y01025
T003
X00305Y00412
X00305Y00511
T004
X00087Y00721
X00087Y00821
X00087Y00921
X00087Y01021
X00087Y01121
X00087Y01221
X00087Y01321
X00087Y01421
X00087Y01521
X00087Y01621
X01887Y00721
X01887Y00821
X01887Y00921
X01887Y01021
X01887Y01121
X01887Y01221
X01887Y01321
X01887Y01421
X01887Y01521
X01887Y01621
T005
X00787Y00413
X00987Y00413
X01187Y00413
X01599Y00415
X01799Y00415
M30
