%FSLAX23Y23*%
%MOIN*%
G04 EasyPC Gerber Version 15.0.4 Build 3016 *
%ADD10C,0.00500*%
%ADD100C,0.10000*%
X0Y0D02*
D02*
D10*
X3Y1722D02*
Y266D01*
X1971*
Y1722*
X3*
X218Y787D02*
X215Y784D01*
X209Y780*
X199*
X193Y784*
X190Y787*
X187Y793*
Y805*
X190Y812*
X193Y815*
X199Y818*
X209*
X215Y815*
X218Y812*
Y887D02*
X215Y884D01*
X209Y880*
X199*
X193Y884*
X190Y887*
X187Y893*
Y905*
X190Y912*
X193Y915*
X199Y918*
X209*
X215Y915*
X218Y912*
Y987D02*
X215Y984D01*
X209Y980*
X199*
X193Y984*
X190Y987*
X187Y993*
Y1005*
X190Y1012*
X193Y1015*
X199Y1018*
X209*
X215Y1015*
X218Y1012*
Y1087D02*
X215Y1084D01*
X209Y1080*
X199*
X193Y1084*
X190Y1087*
X187Y1093*
Y1105*
X190Y1112*
X193Y1115*
X199Y1118*
X209*
X215Y1115*
X218Y1112*
Y1187D02*
X215Y1184D01*
X209Y1180*
X199*
X193Y1184*
X190Y1187*
X187Y1193*
Y1205*
X190Y1212*
X193Y1215*
X199Y1218*
X209*
X215Y1215*
X218Y1212*
Y1287D02*
X215Y1284D01*
X209Y1280*
X199*
X193Y1284*
X190Y1287*
X187Y1293*
Y1305*
X190Y1312*
X193Y1315*
X199Y1318*
X209*
X215Y1315*
X218Y1312*
Y1387D02*
X215Y1384D01*
X209Y1380*
X199*
X193Y1384*
X190Y1387*
X187Y1393*
Y1405*
X190Y1412*
X193Y1415*
X199Y1418*
X209*
X215Y1415*
X218Y1412*
Y1487D02*
X215Y1484D01*
X209Y1480*
X199*
X193Y1484*
X190Y1487*
X187Y1493*
Y1505*
X190Y1512*
X193Y1515*
X199Y1518*
X209*
X215Y1515*
X218Y1512*
Y1587D02*
X215Y1584D01*
X209Y1580*
X199*
X193Y1584*
X190Y1587*
X187Y1593*
Y1605*
X190Y1612*
X193Y1615*
X199Y1618*
X209*
X215Y1615*
X218Y1612*
Y1687D02*
X215Y1684D01*
X209Y1680*
X199*
X193Y1684*
X190Y1687*
X187Y1693*
Y1705*
X190Y1712*
X193Y1715*
X199Y1718*
X209*
X215Y1715*
X218Y1712*
X329Y875D02*
X335Y872D01*
X338Y866*
X335Y860*
X329Y856*
X307*
Y894*
X329*
X335Y891*
X338Y885*
X335Y878*
X329Y875*
X307*
X329Y915D02*
X335Y911D01*
X338Y905*
X335Y899*
X329Y896*
X307*
Y933*
X329*
X335Y930*
X338Y924*
X335Y918*
X329Y915*
X307*
X405Y472D02*
Y509D01*
X436*
X430Y490D02*
X405D01*
Y472D02*
X436D01*
X405Y570D02*
Y608D01*
X436*
X430Y589D02*
X405D01*
Y570D02*
X436D01*
X455Y1072D02*
X461Y1069D01*
X464Y1063*
X461Y1056*
X455Y1053*
X433*
Y1091*
X455*
X461Y1088*
X464Y1081*
X461Y1075*
X455Y1072*
X433*
X498Y985D02*
X505Y982D01*
X508Y976*
X505Y970*
X498Y967*
X477*
Y1004*
X498*
X505Y1001*
X508Y995*
X505Y989*
X498Y985*
X477*
X498Y1029D02*
X505Y1026D01*
X508Y1019*
X505Y1013*
X498Y1010*
X477*
Y1047*
X498*
X505Y1044*
X508Y1038*
X505Y1032*
X498Y1029*
X477*
X498Y1068D02*
X505Y1065D01*
X508Y1059*
X505Y1052*
X498Y1049*
X477*
Y1087*
X498*
X505Y1084*
X508Y1077*
X505Y1071*
X498Y1068*
X477*
X546Y1104D02*
X552Y1100D01*
X555Y1094*
X552Y1088*
X546Y1085*
X524*
Y1122*
X546*
X552Y1119*
X555Y1113*
X552Y1107*
X546Y1104*
X524*
X546Y1308D02*
X552Y1305D01*
X555Y1299*
X552Y1293*
X546Y1290*
X524*
Y1327*
X546*
X552Y1324*
X555Y1318*
X552Y1311*
X546Y1308*
X524*
X609Y1210D02*
X615Y1207D01*
X618Y1200*
X615Y1194*
X609Y1191*
X587*
Y1229*
X609*
X615Y1225*
X618Y1219*
X615Y1213*
X609Y1210*
X587*
X715Y1308D02*
X721Y1305D01*
X724Y1299*
X721Y1293*
X715Y1290*
X693*
Y1327*
X715*
X721Y1324*
X724Y1318*
X721Y1311*
X715Y1308*
X693*
X811Y906D02*
X827Y943D01*
X842Y906*
X817Y921D02*
X836D01*
X811Y945D02*
X827Y983D01*
X842Y945*
X817Y961D02*
X836D01*
X851Y906D02*
X866Y943D01*
X882Y906*
X857Y921D02*
X876D01*
X851Y945D02*
X866Y983D01*
X882Y945*
X857Y961D02*
X876D01*
X851Y984D02*
X866Y1022D01*
X882Y984*
X857Y1000D02*
X876D01*
X872Y1466D02*
X879Y1463D01*
X882Y1456*
X879Y1450*
X872Y1447*
X851*
Y1484*
X872*
X879Y1481*
X882Y1475*
X879Y1469*
X872Y1466*
X851*
X887Y473D02*
Y510D01*
X906*
X912Y507*
X915Y504*
X918Y498*
Y485*
X915Y479*
X912Y476*
X906Y473*
X887*
X890Y906D02*
X906Y943D01*
X921Y906*
X896Y921D02*
X915D01*
X890Y945D02*
X906Y983D01*
X921Y945*
X896Y961D02*
X915D01*
X890Y984D02*
X906Y1022D01*
X921Y984*
X896Y1000D02*
X915D01*
X912Y1466D02*
X918Y1463D01*
X921Y1456*
X918Y1450*
X912Y1447*
X890*
Y1484*
X912*
X918Y1481*
X921Y1475*
X918Y1469*
X912Y1466*
X890*
X959Y1104D02*
X965Y1100D01*
X968Y1094*
X965Y1088*
X959Y1085*
X937*
Y1122*
X959*
X965Y1119*
X968Y1113*
X965Y1107*
X959Y1104*
X937*
X959Y1308D02*
X965Y1305D01*
X968Y1299*
X965Y1293*
X959Y1290*
X937*
Y1327*
X959*
X965Y1324*
X968Y1318*
X965Y1311*
X959Y1308*
X937*
X1018Y1210D02*
X1024Y1207D01*
X1027Y1200*
X1024Y1194*
X1018Y1191*
X996*
Y1229*
X1018*
X1024Y1225*
X1027Y1219*
X1024Y1213*
X1018Y1210*
X996*
X1101Y1308D02*
X1107Y1305D01*
X1110Y1299*
X1107Y1293*
X1101Y1290*
X1079*
Y1327*
X1101*
X1107Y1324*
X1110Y1318*
X1107Y1311*
X1101Y1308*
X1079*
X1087Y473D02*
Y510D01*
X1106*
X1112Y507*
X1115Y504*
X1118Y498*
Y485*
X1115Y479*
X1112Y476*
X1106Y473*
X1087*
X1144Y1672D02*
X1150Y1669D01*
X1153Y1663*
X1150Y1657*
X1144Y1654*
X1122*
Y1691*
X1144*
X1150Y1688*
X1153Y1682*
X1150Y1676*
X1144Y1672*
X1122*
X1145Y1609D02*
X1151Y1606D01*
X1154Y1600*
X1151Y1594*
X1145Y1591*
X1123*
Y1628*
X1145*
X1151Y1625*
X1154Y1619*
X1151Y1613*
X1145Y1609*
X1123*
X1205Y906D02*
X1220Y943D01*
X1236Y906*
X1211Y921D02*
X1230D01*
X1205Y945D02*
X1220Y983D01*
X1236Y945*
X1211Y961D02*
X1230D01*
X1230Y1434D02*
X1236Y1431D01*
X1239Y1425*
X1236Y1419*
X1230Y1415*
X1208*
Y1453*
X1230*
X1236Y1450*
X1239Y1444*
X1236Y1437*
X1230Y1434*
X1208*
X1264Y1433D02*
X1270Y1430D01*
X1274Y1424*
X1270Y1418*
X1264Y1415*
X1242*
Y1452*
X1264*
X1270Y1449*
X1274Y1443*
X1270Y1436*
X1264Y1433*
X1242*
X1244Y906D02*
X1260Y943D01*
X1275Y906*
X1250Y921D02*
X1269D01*
X1244Y945D02*
X1260Y983D01*
X1275Y945*
X1250Y961D02*
X1269D01*
X1244Y984D02*
X1260Y1022D01*
X1275Y984*
X1250Y1000D02*
X1269D01*
X1284Y906D02*
X1299Y943D01*
X1315Y906*
X1290Y921D02*
X1309D01*
X1284Y945D02*
X1299Y983D01*
X1315Y945*
X1290Y961D02*
X1309D01*
X1284Y984D02*
X1299Y1022D01*
X1315Y984*
X1290Y1000D02*
X1309D01*
X1287Y473D02*
Y510D01*
X1306*
X1312Y507*
X1315Y504*
X1318Y498*
Y485*
X1315Y479*
X1312Y476*
X1306Y473*
X1287*
X1349Y1107D02*
X1355Y1104D01*
X1358Y1098*
X1355Y1092*
X1349Y1089*
X1327*
Y1126*
X1349*
X1355Y1123*
X1358Y1117*
X1355Y1111*
X1349Y1107*
X1327*
X1349Y1308D02*
X1355Y1305D01*
X1358Y1299*
X1355Y1293*
X1349Y1290*
X1327*
Y1327*
X1349*
X1355Y1324*
X1358Y1318*
X1355Y1311*
X1349Y1308*
X1327*
X1409Y1430D02*
X1415Y1427D01*
X1418Y1421*
X1415Y1415*
X1409Y1412*
X1387*
Y1449*
X1409*
X1415Y1446*
X1418Y1440*
X1415Y1433*
X1409Y1430*
X1387*
X1412Y1210D02*
X1418Y1207D01*
X1421Y1200*
X1418Y1194*
X1412Y1191*
X1390*
Y1229*
X1412*
X1418Y1225*
X1421Y1219*
X1418Y1213*
X1412Y1210*
X1390*
X1494Y1308D02*
X1501Y1305D01*
X1504Y1299*
X1501Y1293*
X1494Y1290*
X1473*
Y1327*
X1494*
X1501Y1324*
X1504Y1318*
X1501Y1311*
X1494Y1308*
X1473*
X1599Y906D02*
X1614Y943D01*
X1630Y906*
X1605Y921D02*
X1624D01*
X1599Y945D02*
X1614Y983D01*
X1630Y945*
X1605Y961D02*
X1624D01*
X1638Y906D02*
X1654Y943D01*
X1669Y906*
X1644Y921D02*
X1663D01*
X1638Y945D02*
X1654Y983D01*
X1669Y945*
X1644Y961D02*
X1663D01*
X1638Y984D02*
X1654Y1022D01*
X1669Y984*
X1644Y1000D02*
X1663D01*
X1677Y906D02*
X1693Y943D01*
X1709Y906*
X1684Y921D02*
X1702D01*
X1677Y945D02*
X1693Y983D01*
X1709Y945*
X1684Y961D02*
X1702D01*
X1677Y984D02*
X1693Y1022D01*
X1709Y984*
X1684Y1000D02*
X1702D01*
X1699Y475D02*
Y512D01*
X1718*
X1724Y509*
X1727Y506*
X1731Y500*
Y487*
X1727Y481*
X1724Y478*
X1718Y475*
X1699*
X1754Y1025D02*
X1761Y1022D01*
X1764Y1015*
X1761Y1009*
X1754Y1006*
X1732*
Y1044*
X1754*
X1761Y1040*
X1764Y1034*
X1761Y1028*
X1754Y1025*
X1732*
X1754Y1167D02*
X1761Y1163D01*
X1764Y1157*
X1761Y1151*
X1754Y1148*
X1732*
Y1185*
X1754*
X1761Y1182*
X1764Y1176*
X1761Y1170*
X1754Y1167*
X1732*
X1813Y993D02*
X1820Y990D01*
X1823Y984*
X1820Y978*
X1813Y975*
X1791*
Y1012*
X1813*
X1820Y1009*
X1823Y1003*
X1820Y996*
X1813Y993*
X1791*
X1813Y1135D02*
X1820Y1132D01*
X1823Y1126*
X1820Y1119*
X1813Y1116*
X1791*
Y1154*
X1813*
X1820Y1151*
X1823Y1144*
X1820Y1138*
X1813Y1135*
X1791*
X1872Y962D02*
X1879Y959D01*
X1882Y952*
X1879Y946*
X1872Y943*
X1851*
Y981*
X1872*
X1879Y977*
X1882Y971*
X1879Y965*
X1872Y962*
X1851*
X1872Y1104D02*
X1879Y1100D01*
X1882Y1094*
X1879Y1088*
X1872Y1085*
X1851*
Y1122*
X1872*
X1879Y1119*
X1882Y1113*
X1879Y1107*
X1872Y1104*
X1851*
X1899Y475D02*
Y512D01*
X1918*
X1924Y509*
X1927Y506*
X1931Y500*
Y487*
X1927Y481*
X1924Y478*
X1918Y475*
X1899*
X2018Y787D02*
X2015Y784D01*
X2009Y780*
X1999*
X1993Y784*
X1990Y787*
X1987Y793*
Y805*
X1990Y812*
X1993Y815*
X1999Y818*
X2009*
X2015Y815*
X2018Y812*
Y887D02*
X2015Y884D01*
X2009Y880*
X1999*
X1993Y884*
X1990Y887*
X1987Y893*
Y905*
X1990Y912*
X1993Y915*
X1999Y918*
X2009*
X2015Y915*
X2018Y912*
Y987D02*
X2015Y984D01*
X2009Y980*
X1999*
X1993Y984*
X1990Y987*
X1987Y993*
Y1005*
X1990Y1012*
X1993Y1015*
X1999Y1018*
X2009*
X2015Y1015*
X2018Y1012*
Y1087D02*
X2015Y1084D01*
X2009Y1080*
X1999*
X1993Y1084*
X1990Y1087*
X1987Y1093*
Y1105*
X1990Y1112*
X1993Y1115*
X1999Y1118*
X2009*
X2015Y1115*
X2018Y1112*
Y1187D02*
X2015Y1184D01*
X2009Y1180*
X1999*
X1993Y1184*
X1990Y1187*
X1987Y1193*
Y1205*
X1990Y1212*
X1993Y1215*
X1999Y1218*
X2009*
X2015Y1215*
X2018Y1212*
Y1287D02*
X2015Y1284D01*
X2009Y1280*
X1999*
X1993Y1284*
X1990Y1287*
X1987Y1293*
Y1305*
X1990Y1312*
X1993Y1315*
X1999Y1318*
X2009*
X2015Y1315*
X2018Y1312*
Y1387D02*
X2015Y1384D01*
X2009Y1380*
X1999*
X1993Y1384*
X1990Y1387*
X1987Y1393*
Y1405*
X1990Y1412*
X1993Y1415*
X1999Y1418*
X2009*
X2015Y1415*
X2018Y1412*
Y1487D02*
X2015Y1484D01*
X2009Y1480*
X1999*
X1993Y1484*
X1990Y1487*
X1987Y1493*
Y1505*
X1990Y1512*
X1993Y1515*
X1999Y1518*
X2009*
X2015Y1515*
X2018Y1512*
Y1587D02*
X2015Y1584D01*
X2009Y1580*
X1999*
X1993Y1584*
X1990Y1587*
X1987Y1593*
Y1605*
X1990Y1612*
X1993Y1615*
X1999Y1618*
X2009*
X2015Y1615*
X2018Y1612*
Y1687D02*
X2015Y1684D01*
X2009Y1680*
X1999*
X1993Y1684*
X1990Y1687*
X1987Y1693*
Y1705*
X1990Y1712*
X1993Y1715*
X1999Y1718*
X2009*
X2015Y1715*
X2018Y1712*
D02*
D100*
X87Y721D03*
Y821D03*
Y921D03*
Y1021D03*
Y1121D03*
Y1221D03*
Y1321D03*
Y1421D03*
Y1521D03*
Y1621D03*
X207Y797D03*
Y836D03*
X305Y412D03*
Y511D03*
X333Y994D03*
X377Y907D03*
Y951D03*
Y990D03*
X424Y1025D03*
Y1230D03*
X487Y1132D03*
X593Y1230D03*
X711Y846D03*
Y886D03*
X751Y846D03*
Y886D03*
Y925D03*
Y1388D03*
X787Y413D03*
X790Y846D03*
Y886D03*
Y925D03*
Y1388D03*
X837Y1025D03*
Y1230D03*
X896Y1132D03*
X979Y1230D03*
X987Y413D03*
X1022Y1594D03*
X1023Y1531D03*
X1105Y846D03*
Y886D03*
X1108Y1356D03*
X1142Y1355D03*
X1144Y846D03*
Y886D03*
Y925D03*
X1184Y846D03*
Y886D03*
Y925D03*
X1187Y413D03*
X1227Y1029D03*
Y1230D03*
X1287Y1352D03*
X1290Y1132D03*
X1373Y1230D03*
X1499Y846D03*
Y886D03*
X1538Y846D03*
Y886D03*
Y925D03*
X1577Y846D03*
Y886D03*
Y925D03*
X1599Y415D03*
X1632Y947D03*
Y1088D03*
X1691Y915D03*
Y1057D03*
X1751Y884D03*
Y1025D03*
X1799Y415D03*
X1887Y721D03*
Y821D03*
Y921D03*
Y1021D03*
Y1121D03*
Y1221D03*
Y1321D03*
Y1421D03*
Y1521D03*
Y1621D03*
X0Y0D02*
M02*
