%FSLAX23Y23*%
%MOIN*%
G04 EasyPC Gerber Version 15.0.4 Build 3016 *
%ADD105R,0.01683X0.04124*%
%ADD103R,0.01959X0.06290*%
%ADD102R,0.02156X0.02943*%
%ADD100R,0.03731X0.03337*%
%ADD106R,0.07274X0.07274*%
%ADD10C,0.00500*%
%ADD99R,0.01369X0.00975*%
%ADD104R,0.06487X0.00975*%
%ADD101R,0.02943X0.02156*%
X0Y0D02*
D02*
D10*
X3Y1461D02*
Y4D01*
X1971*
Y1461*
X3*
D02*
D99*
X447Y877D03*
Y902D03*
Y928D03*
X522Y877D03*
Y902D03*
Y928D03*
X611Y877D03*
Y902D03*
Y928D03*
X686Y877D03*
Y902D03*
Y928D03*
X857Y877D03*
Y902D03*
Y928D03*
X932Y877D03*
Y902D03*
Y928D03*
X995Y877D03*
Y902D03*
Y928D03*
X1069Y877D03*
Y902D03*
Y928D03*
X1251Y877D03*
Y902D03*
Y928D03*
X1325Y877D03*
Y902D03*
Y928D03*
X1388Y877D03*
Y902D03*
Y928D03*
X1463Y877D03*
Y902D03*
Y928D03*
D02*
D100*
X445Y697D03*
X512D03*
X625Y695D03*
X691D03*
X841D03*
X908D03*
X1018D03*
X1085D03*
X1239Y693D03*
X1306D03*
X1412Y695D03*
X1479D03*
D02*
D101*
X487Y983D03*
Y1034D03*
X648Y983D03*
Y1034D03*
X894Y975D03*
Y1026D03*
X1031Y974D03*
Y1025D03*
X1288Y974D03*
Y1025D03*
X1427Y974D03*
Y1025D03*
X1632Y589D03*
Y640D03*
Y731D03*
Y782D03*
X1691Y558D03*
Y609D03*
Y699D03*
Y751D03*
X1751Y526D03*
Y577D03*
Y668D03*
Y719D03*
D02*
D102*
X217Y489D03*
X268D03*
X318Y896D03*
X343Y821D03*
X369Y896D03*
X469Y762D03*
Y821D03*
X520Y762D03*
Y821D03*
X613Y764D03*
Y823D03*
X664Y764D03*
Y823D03*
X743Y756D03*
Y969D03*
X768Y831D03*
Y894D03*
X794Y756D03*
Y969D03*
X878Y764D03*
Y823D03*
X930Y764D03*
Y823D03*
X997Y764D03*
Y823D03*
X1048Y764D03*
Y823D03*
X1128Y756D03*
Y969D03*
X1154Y831D03*
Y894D03*
X1180Y756D03*
Y969D03*
X1189Y1093D03*
X1240D03*
X1272Y764D03*
Y823D03*
X1323Y764D03*
Y823D03*
X1390Y764D03*
Y823D03*
X1441Y764D03*
Y823D03*
X1524Y756D03*
X1550Y831D03*
X1575Y756D03*
D02*
D103*
X518Y386D03*
Y607D03*
X568Y386D03*
Y607D03*
X618Y386D03*
Y607D03*
X668Y386D03*
Y607D03*
X912Y386D03*
Y607D03*
X962Y386D03*
Y607D03*
X1012Y386D03*
Y607D03*
X1062Y386D03*
Y607D03*
X1305Y386D03*
Y607D03*
X1355Y386D03*
Y607D03*
X1405Y386D03*
Y607D03*
X1455Y386D03*
Y607D03*
D02*
D104*
X860Y1135D03*
Y1161D03*
Y1187D03*
Y1212D03*
Y1238D03*
Y1263D03*
Y1289D03*
Y1315D03*
Y1340D03*
Y1366D03*
X1084Y1135D03*
Y1161D03*
Y1187D03*
Y1212D03*
Y1238D03*
Y1263D03*
Y1289D03*
Y1315D03*
Y1340D03*
Y1366D03*
D02*
D105*
X251Y548D03*
X310D03*
X369D03*
D02*
D106*
X310Y670D03*
X0Y0D02*
M02*
