%FSLAX23Y23*%
%MOIN*%
G04 EasyPC Gerber Version 15.0.4 Build 3016 *
%ADD77R,0.02283X0.04724*%
%ADD29R,0.02559X0.06890*%
%ADD28R,0.02756X0.03543*%
%ADD26R,0.04331X0.03937*%
%ADD74R,0.06000X0.06000*%
%ADD78R,0.07874X0.07874*%
%ADD10C,0.00500*%
%ADD81C,0.01000*%
%ADD84C,0.01575*%
%ADD83C,0.01772*%
%ADD79C,0.01969*%
%ADD80C,0.02500*%
%ADD23C,0.02756*%
%ADD24C,0.03200*%
%ADD25R,0.01969X0.01575*%
%ADD76R,0.07087X0.01575*%
%ADD27R,0.03543X0.02756*%
%ADD82C,0.05000*%
%ADD75C,0.06000*%
%ADD72C,0.06500*%
%ADD73C,0.09055*%
X0Y0D02*
D02*
D10*
X3Y1722D02*
Y266D01*
X1971*
Y1722*
X3*
X231Y734D02*
Y769D01*
X247Y785*
X262*
Y832*
X239Y856*
X191*
X176Y840*
Y746*
X188Y734*
X231*
G36*
Y769*
X247Y785*
X262*
Y832*
X239Y856*
X191*
X176Y840*
Y746*
X188Y734*
X231*
G37*
X270Y970D02*
Y876D01*
X392*
Y1014*
X314*
X270Y970*
G36*
Y876*
X392*
Y1014*
X314*
X270Y970*
G37*
X282Y720D02*
X160Y597D01*
Y342*
X199Y303*
X396*
X436Y342*
Y659*
X475Y699*
X1508*
X1538Y669*
Y415*
X1542*
G75*
G02X1657I58*
G01*
X1845*
Y553*
X1581Y817*
X379*
X331Y768*
G75*
G02X327Y764I-21J13*
G01*
X296Y732*
G75*
G02X295Y731I-18J18*
G01*
Y720*
X282*
X305Y455D02*
G75*
G02Y370J-43D01*
G01*
G75*
G02Y455J43*
G01*
X160Y412D02*
G36*
Y342D01*
X199Y303*
X396*
X436Y342*
Y412*
X347*
G75*
G02X305Y370I-43*
G01*
G75*
G02X262Y412J43*
G01*
X160*
G37*
X262D02*
G36*
G75*
G02X305Y455I43D01*
G01*
G75*
G02X347Y412J-43*
G01*
X436*
Y659*
X475Y699*
X1508*
X1538Y669*
Y415*
X1542*
G75*
G02X1657I58*
G01*
X1845*
Y553*
X1581Y817*
X379*
X331Y768*
G75*
G02X327Y764I-21J13*
G01*
X296Y732*
G75*
G02X295Y731I-18J18*
G01*
Y720*
X282*
X160Y597*
Y412*
X262*
G37*
X530Y1117D02*
Y1010D01*
X554Y986*
Y803*
X585*
Y986*
X601Y1010*
X604Y1143*
X588*
Y1199*
X530*
Y1184*
X545*
Y1117*
X531*
G75*
G02X530Y1117I-9J20*
G01*
G36*
Y1010*
X554Y986*
Y803*
X585*
Y986*
X601Y1010*
X604Y1143*
X588*
Y1199*
X530*
Y1184*
X545*
Y1117*
X531*
G75*
G02X530Y1117I-9J20*
G01*
G37*
X652Y1041D02*
Y1006D01*
X672Y978*
Y935*
X715*
X754Y986*
Y1041*
X652*
G36*
Y1006*
X672Y978*
Y935*
X715*
X754Y986*
Y1041*
X652*
G37*
X662Y832D02*
X800D01*
Y935*
X741*
X721Y905*
X662*
Y832*
G36*
X800*
Y935*
X741*
X721Y905*
X662*
Y832*
G37*
X691Y659D02*
X485D01*
X465Y640*
Y523*
X632Y356*
X810*
X849Y395*
Y423*
X691Y659*
G36*
X485*
X465Y640*
Y523*
X632Y356*
X810*
X849Y395*
Y423*
X691Y659*
G37*
X731D02*
X878Y443D01*
Y395*
X918Y356*
X1056*
X1095Y395*
Y443*
X1243Y659*
X731*
G36*
X878Y443*
Y395*
X918Y356*
X1056*
X1095Y395*
Y443*
X1243Y659*
X731*
G37*
X924Y1115D02*
Y1010D01*
X947Y986*
Y804*
X979*
Y986*
X995Y1010*
X997Y1143*
X972*
Y1199*
X924*
Y1184*
X954*
Y1117*
X941*
G75*
G02X932Y1115I-9J20*
G01*
X924*
G36*
Y1010*
X947Y986*
Y804*
X979*
Y986*
X995Y1010*
X997Y1143*
X972*
Y1199*
X924*
Y1184*
X954*
Y1117*
X941*
G75*
G02X932Y1115I-9J20*
G01*
X924*
G37*
X1038Y1045D02*
Y1010D01*
X1058Y982*
Y939*
X1101*
X1140Y990*
Y1045*
X1038*
G36*
Y1010*
X1058Y982*
Y939*
X1101*
X1140Y990*
Y1045*
X1038*
G37*
X1048Y1402D02*
X1104Y1339D01*
X1199*
X1200Y1401*
X1132Y1402*
Y1402*
X1048*
G36*
X1104Y1339*
X1199*
X1200Y1401*
X1132Y1402*
Y1402*
X1048*
G37*
X1056Y832D02*
X1193D01*
Y935*
X1134*
X1115Y905*
X1056*
Y832*
G36*
X1193*
Y935*
X1134*
X1115Y905*
X1056*
Y832*
G37*
X1282Y659D02*
X1125Y423D01*
Y395*
X1164Y356*
X1341*
X1508Y523*
Y640*
X1489Y659*
X1282*
G36*
X1125Y423*
Y395*
X1164Y356*
X1341*
X1508Y523*
Y640*
X1489Y659*
X1282*
G37*
X1321Y1115D02*
Y1010D01*
X1345Y986*
Y805*
X1377*
Y986*
X1378Y988*
Y989*
X1378*
X1392Y1010*
X1395Y1143*
X1366*
Y1199*
X1321*
Y1184*
X1348*
Y1117*
X1335*
G75*
G02X1325Y1115I-9J20*
G01*
X1321*
G36*
Y1010*
X1345Y986*
Y805*
X1377*
Y986*
X1378Y988*
Y989*
X1378*
X1392Y1010*
X1395Y1143*
X1366*
Y1199*
X1321*
Y1184*
X1348*
Y1117*
X1335*
G75*
G02X1325Y1115I-9J20*
G01*
X1321*
G37*
X1432Y1045D02*
Y1010D01*
X1451Y982*
Y939*
X1495*
X1534Y990*
Y1045*
X1432*
G36*
Y1010*
X1451Y982*
Y939*
X1495*
X1534Y990*
Y1045*
X1432*
G37*
X1449Y832D02*
X1587D01*
Y935*
X1528*
X1508Y905*
X1449*
Y832*
G36*
X1587*
Y935*
X1528*
X1508Y905*
X1449*
Y832*
G37*
D02*
D23*
X711Y846D03*
Y886D03*
X751Y846D03*
Y886D03*
Y925D03*
X790Y846D03*
Y886D03*
Y925D03*
X1105Y846D03*
Y886D03*
X1144Y846D03*
Y886D03*
Y925D03*
X1184Y846D03*
Y886D03*
Y925D03*
X1499Y846D03*
Y886D03*
X1538Y846D03*
Y886D03*
Y925D03*
X1577Y846D03*
Y886D03*
Y925D03*
D02*
D24*
X207Y797D03*
Y836D03*
X333Y994D03*
X377Y907D03*
Y951D03*
Y990D03*
X424Y1025D03*
Y1230D03*
X487Y1132D03*
X593Y1230D03*
X751Y1388D03*
X790D03*
X837Y1025D03*
Y1230D03*
X896Y1132D03*
X979Y1230D03*
X1022Y1594D03*
X1023Y1531D03*
X1108Y1356D03*
X1142Y1355D03*
X1227Y1029D03*
Y1230D03*
X1287Y1352D03*
X1290Y1132D03*
X1373Y1230D03*
X1632Y947D03*
Y1088D03*
X1691Y915D03*
Y1057D03*
X1751Y884D03*
Y1025D03*
D02*
D25*
X447Y1138D03*
Y1163D03*
Y1189D03*
X522Y1138D03*
Y1163D03*
Y1189D03*
X611Y1138D03*
Y1163D03*
Y1189D03*
X686Y1138D03*
Y1163D03*
Y1189D03*
X857Y1138D03*
Y1163D03*
Y1189D03*
X932Y1138D03*
Y1163D03*
Y1189D03*
X995Y1138D03*
Y1163D03*
Y1189D03*
X1069Y1138D03*
Y1163D03*
Y1189D03*
X1251Y1138D03*
Y1163D03*
Y1189D03*
X1325Y1138D03*
Y1163D03*
Y1189D03*
X1388Y1138D03*
Y1163D03*
Y1189D03*
X1463Y1138D03*
Y1163D03*
Y1189D03*
D02*
D26*
X445Y958D03*
X512D03*
X625Y957D03*
X691D03*
X841D03*
X908D03*
X1018D03*
X1085D03*
X1239Y955D03*
X1306D03*
X1412Y957D03*
X1479D03*
D02*
D27*
X487Y1244D03*
Y1295D03*
X648Y1244D03*
Y1295D03*
X894Y1236D03*
Y1287D03*
X1031Y1235D03*
Y1286D03*
X1288Y1235D03*
Y1286D03*
X1427Y1235D03*
Y1286D03*
X1632Y850D03*
Y901D03*
Y992D03*
Y1043D03*
X1691Y819D03*
Y870D03*
Y960D03*
Y1012D03*
X1751Y787D03*
Y838D03*
Y929D03*
Y980D03*
D02*
D28*
X217Y750D03*
X268D03*
X318Y1157D03*
X343Y1082D03*
X369Y1157D03*
X469Y1023D03*
Y1082D03*
X520Y1023D03*
Y1082D03*
X613Y1025D03*
Y1084D03*
X664Y1025D03*
Y1084D03*
X743Y1018D03*
Y1230D03*
X768Y1092D03*
Y1155D03*
X794Y1018D03*
Y1230D03*
X878Y1025D03*
Y1084D03*
X930Y1025D03*
Y1084D03*
X997Y1025D03*
Y1084D03*
X1048Y1025D03*
Y1084D03*
X1128Y1018D03*
Y1230D03*
X1154Y1092D03*
Y1155D03*
X1180Y1018D03*
Y1230D03*
X1189Y1354D03*
X1240D03*
X1272Y1025D03*
Y1084D03*
X1323Y1025D03*
Y1084D03*
X1390Y1025D03*
Y1084D03*
X1441Y1025D03*
Y1084D03*
X1524Y1018D03*
X1550Y1092D03*
X1575Y1018D03*
D02*
D29*
X518Y647D03*
Y868D03*
X568Y647D03*
Y868D03*
X618Y647D03*
Y868D03*
X668Y647D03*
Y868D03*
X912Y647D03*
Y868D03*
X962Y647D03*
Y868D03*
X1012Y647D03*
Y868D03*
X1062Y647D03*
Y868D03*
X1305Y647D03*
Y868D03*
X1355Y647D03*
Y868D03*
X1405Y647D03*
Y868D03*
X1455Y647D03*
Y868D03*
D02*
D72*
X87Y721D03*
Y821D03*
Y921D03*
Y1021D03*
Y1121D03*
Y1221D03*
Y1321D03*
Y1421D03*
Y1521D03*
Y1621D03*
X1887Y721D03*
Y821D03*
Y921D03*
Y1021D03*
Y1121D03*
Y1221D03*
Y1321D03*
Y1421D03*
Y1521D03*
Y1621D03*
D02*
D73*
X787Y413D03*
X987D03*
X1187D03*
X1599Y415D03*
X1799D03*
D02*
D74*
X305Y511D03*
D02*
D75*
Y412D03*
D02*
D76*
X860Y1396D03*
Y1422D03*
Y1448D03*
Y1473D03*
Y1499D03*
Y1524D03*
Y1550D03*
Y1576D03*
Y1601D03*
Y1627D03*
X1084Y1396D03*
Y1422D03*
Y1448D03*
Y1473D03*
Y1499D03*
Y1524D03*
Y1550D03*
Y1576D03*
Y1601D03*
Y1627D03*
D02*
D77*
X251Y809D03*
X310D03*
X369D03*
D02*
D78*
X310Y931D03*
D02*
D79*
X447Y1151D02*
Y1138D01*
Y1163D02*
Y1151D01*
Y1189D02*
Y1207D01*
X424Y1230*
X522Y1138D02*
X493D01*
X487Y1132*
X611Y1189D02*
Y1212D01*
X593Y1230*
X686Y1163D02*
X664D01*
X652Y1151*
Y1128*
X664Y1116*
Y1084*
X686Y1163D02*
X715D01*
X727Y1151*
Y1100*
X735Y1092*
X768*
X686Y1163D02*
Y1189D01*
X751Y1388D02*
X790D01*
X857Y1138D02*
Y1163D01*
Y1189D02*
Y1210D01*
X837Y1230*
X860Y1396D02*
X799D01*
X790Y1388*
X932Y1138D02*
X902D01*
X896Y1132*
X995Y1189D02*
Y1214D01*
X979Y1230*
X1069Y1163D02*
X1046D01*
X1034Y1151*
Y1128*
X1046Y1116*
Y1086*
X1048Y1084*
X1069Y1163D02*
X1097D01*
X1109Y1151*
Y1100*
X1117Y1092*
X1154*
X1069Y1189D02*
Y1163D01*
X1189Y1354D02*
Y1355D01*
X1109*
X1251Y1138D02*
Y1151D01*
Y1163*
Y1189D02*
Y1207D01*
X1227Y1230*
X1325Y1138D02*
X1296D01*
X1290Y1132*
X1388Y1189D02*
Y1214D01*
X1373Y1230*
X1463Y1163D02*
X1440D01*
X1428Y1151*
Y1124*
X1440Y1112*
Y1086*
X1441Y1084*
X1463Y1163D02*
Y1189D01*
Y1163D02*
X1495D01*
X1506Y1151*
Y1104*
X1518Y1092*
X1550*
X1887Y721D02*
X1846D01*
X1790Y777*
Y1039*
X1435Y1395*
X1120*
D02*
D80*
X217Y750D02*
Y775D01*
X251Y809*
X268Y750D02*
X278D01*
X310Y781*
Y809*
X424Y1025D02*
X467D01*
X469Y1023*
X424Y1230D02*
X422D01*
X371Y1179*
Y1159*
X369Y1157*
X445Y958D02*
Y1000D01*
X469Y1023*
X447Y1138D02*
Y1104D01*
X469Y1082*
X447Y1151D02*
Y1101D01*
X466Y1082*
X378Y1082*
X343*
X518Y868D02*
Y953D01*
X512Y958*
X618Y868D02*
Y950D01*
X625Y957*
X768Y1155D02*
X849D01*
X857Y1163*
X837Y1025D02*
X878D01*
X837Y1230D02*
X794D01*
X841Y957D02*
Y988D01*
X878Y1025*
X857Y1138D02*
Y1106D01*
X878Y1084*
X912Y868D02*
Y953D01*
X908Y957*
X1012Y868D02*
Y950D01*
X1018Y957*
X1154Y1155D02*
X1247D01*
X1251Y1151*
X1227Y1029D02*
X1268D01*
X1272Y1025*
X1227Y1230D02*
X1180D01*
X1239Y955D02*
Y992D01*
X1272Y1025*
X1251Y1138D02*
Y1106D01*
X1272Y1084*
X1305Y868D02*
Y954D01*
X1306Y955*
X1405Y868D02*
Y950D01*
X1412Y957*
D02*
D81*
X87Y1121D02*
X65D01*
Y1119*
X87Y1140*
X88*
X443Y1499*
X860*
X522Y1163D02*
X502D01*
X487Y1179*
Y1244*
X611Y1163D02*
X632D01*
X648Y1179*
Y1244*
X686Y1138D02*
X699Y1124D01*
Y1029*
X691Y1021*
X860Y1422D02*
X461D01*
X293Y1254*
Y1027*
X87Y821*
X860Y1448D02*
X456D01*
X266Y1258*
Y1101*
X87Y921*
X860Y1473D02*
Y1475D01*
X451*
X237Y1261*
Y1171*
X87Y1021*
X860Y1524D02*
X440D01*
X138Y1222*
X88*
X87Y1221*
X860Y1550D02*
X436D01*
X204Y1319*
X89*
X87Y1321*
X860Y1576D02*
X901D01*
X911Y1566*
Y1367*
X896Y1352*
X544*
X487Y1295*
X860Y1576D02*
X431D01*
X283Y1428*
X94*
X87Y1421*
X860Y1601D02*
X920D01*
X933Y1588*
Y1356*
X909Y1332*
X686*
X648Y1295*
X860Y1601D02*
X424D01*
X338Y1516*
X92*
X87Y1521*
X860Y1627D02*
X928D01*
X951Y1603*
Y1318*
X921Y1287*
X894*
X860Y1627D02*
X92D01*
X87Y1621*
X932Y1163D02*
X916D01*
X894Y1185*
Y1236*
X995Y1163D02*
X1010D01*
X1034Y1187*
Y1232*
X1031Y1235*
X1023Y1531D02*
Y1386D01*
X1089Y1320*
X1399*
X1427Y1292*
Y1286*
X1069Y1138D02*
Y1136D01*
X1081Y1124*
Y1029*
X1084Y1422D02*
X1443D01*
X1816Y1049*
Y894*
X1887Y824*
Y821*
X1084Y1448D02*
X1448D01*
X1837Y1059*
Y969*
X1885Y921*
X1887*
X1084Y1473D02*
X1451D01*
X1866Y1059*
Y1042*
X1887Y1021*
X1084Y1499D02*
X1455D01*
X1834Y1120*
X1886*
X1887Y1121*
X1084Y1524D02*
X1458D01*
X1761Y1221*
X1887*
X1887Y1221*
X1084Y1550D02*
X1462D01*
X1691Y1321*
X1886*
X1887Y1321*
X1084Y1576D02*
X1048D01*
X1036Y1564*
X1008*
X996Y1551*
Y1381*
X1080Y1296*
X1278*
X1288Y1286*
X1084Y1576D02*
X1465D01*
X1617Y1424*
X1884*
X1887Y1421*
X1084Y1601D02*
Y1600D01*
X1470*
X1554Y1517*
X1882*
X1887Y1521*
X1084Y1601D02*
X1029D01*
X1022Y1594*
X1084Y1627D02*
X1000D01*
X974Y1601*
Y1316*
X1003Y1286*
X1031*
X1084Y1627D02*
X1881D01*
X1887Y1621*
X1240Y1354D02*
X1285D01*
X1287Y1352*
X1325Y1163D02*
X1326Y1163D01*
X1310*
X1288Y1185*
Y1235*
X1388Y1163D02*
X1404D01*
X1427Y1186*
Y1235*
X1463Y1138D02*
X1465D01*
X1475Y1128*
Y1037*
X1463Y1025*
X1632Y850D02*
X1629D01*
Y817*
X1870Y577*
Y389*
X1829Y348*
X1349*
X1337Y360*
X1632Y901D02*
Y947D01*
Y992D02*
Y947D01*
Y1043D02*
Y1088D01*
X1691Y819D02*
X1689D01*
Y790*
X1889Y589*
Y381*
X1837Y329*
X1085*
X1057Y357*
X1691Y870D02*
Y915D01*
Y960D02*
Y915D01*
Y1012D02*
Y1057D01*
X1751Y787D02*
Y762D01*
X1909Y603*
Y373*
X1845Y309*
X861*
X812Y358*
X1751Y838D02*
Y884D01*
Y929D02*
Y884D01*
Y980D02*
Y1025D01*
D02*
D82*
X310Y809D02*
Y931D01*
D02*
D83*
X1120Y1395D02*
X1084Y1396D01*
D02*
D84*
X1109Y1355D02*
X1066Y1397D01*
X1084*
Y1396*
X0Y0D02*
M02*
