%FSLAX23Y23*%
%MOIN*%
G04 EasyPC Gerber Version 15.0.4 Build 3016 *
%ADD94R,0.06600X0.06600*%
%ADD10C,0.00500*%
%ADD85C,0.03356*%
%ADD86C,0.03800*%
%ADD95C,0.06600*%
%ADD92C,0.07100*%
%ADD93C,0.09655*%
X0Y0D02*
D02*
D10*
X3Y1722D02*
Y266D01*
X1971*
Y1722*
X3*
D02*
D85*
X711Y846D03*
Y886D03*
X751Y846D03*
Y886D03*
Y925D03*
X790Y846D03*
Y886D03*
Y925D03*
X1105Y846D03*
Y886D03*
X1144Y846D03*
Y886D03*
Y925D03*
X1184Y846D03*
Y886D03*
Y925D03*
X1499Y846D03*
Y886D03*
X1538Y846D03*
Y886D03*
Y925D03*
X1577Y846D03*
Y886D03*
Y925D03*
D02*
D86*
X207Y797D03*
Y836D03*
X333Y994D03*
X377Y907D03*
Y951D03*
Y990D03*
X424Y1025D03*
Y1230D03*
X487Y1132D03*
X593Y1230D03*
X751Y1388D03*
X790D03*
X837Y1025D03*
Y1230D03*
X896Y1132D03*
X979Y1230D03*
X1022Y1594D03*
X1023Y1531D03*
X1108Y1356D03*
X1142Y1355D03*
X1227Y1029D03*
Y1230D03*
X1287Y1352D03*
X1290Y1132D03*
X1373Y1230D03*
X1632Y947D03*
Y1088D03*
X1691Y915D03*
Y1057D03*
X1751Y884D03*
Y1025D03*
D02*
D92*
X87Y721D03*
Y821D03*
Y921D03*
Y1021D03*
Y1121D03*
Y1221D03*
Y1321D03*
Y1421D03*
Y1521D03*
Y1621D03*
X1887Y721D03*
Y821D03*
Y921D03*
Y1021D03*
Y1121D03*
Y1221D03*
Y1321D03*
Y1421D03*
Y1521D03*
Y1621D03*
D02*
D93*
X787Y413D03*
X987D03*
X1187D03*
X1599Y415D03*
X1799D03*
D02*
D94*
X305Y511D03*
D02*
D95*
Y412D03*
X0Y0D02*
M02*
