%FSLAX23Y23*%
%MOIN*%
G04 EasyPC Gerber Version 15.0.4 Build 3016 *
%ADD74R,0.06000X0.06000*%
%ADD10C,0.00500*%
%ADD81C,0.01000*%
%ADD79C,0.01969*%
%ADD107C,0.02165*%
%ADD23C,0.02756*%
%ADD24C,0.03200*%
%ADD75C,0.06000*%
%ADD72C,0.06500*%
%ADD73C,0.09055*%
X0Y0D02*
D02*
D10*
X3Y1461D02*
Y4D01*
X1971*
Y1461*
X3*
X28Y489D02*
Y29D01*
X1946*
Y1436*
X1132*
Y1152*
X1171Y1132*
G75*
G02X1179Y1119I-7J-13*
G01*
Y1091*
G75*
G02X1175Y1080I-15*
G01*
X1159Y1065*
G75*
G02X1148Y1060I-11J11*
G01*
X1097*
G75*
G02X1085Y1066J15*
G01*
X1046Y1113*
G75*
G02X1043Y1123I12J10*
G01*
Y1249*
G75*
G02X1003Y1290I-19J21*
G01*
Y1312*
G75*
G02X994Y1333I19J21*
G01*
G75*
G02X1043Y1353I29*
G01*
Y1379*
X127*
G75*
G02X104Y1318I-41J-19*
G01*
G75*
G02X104Y1315I-15J-3*
G01*
Y1305*
G75*
G02X104Y1302I-15J0*
G01*
G75*
G02Y1218I-17J-42*
G01*
G75*
G02X104Y1215I-15J-3*
G01*
Y1205*
G75*
G02X104Y1202I-15J0*
G01*
G75*
G02Y1118I-17J-42*
G01*
G75*
G02X104Y1115I-15J-3*
G01*
Y1105*
G75*
G02X104Y1102I-15J0*
G01*
G75*
G02Y1018I-17J-42*
G01*
G75*
G02X104Y1015I-15J-3*
G01*
Y1005*
G75*
G02X104Y1002I-15J0*
G01*
G75*
G02Y918I-17J-42*
G01*
G75*
G02X104Y915I-15J-3*
G01*
Y905*
G75*
G02X104Y902I-15J0*
G01*
G75*
G02Y818I-17J-42*
G01*
G75*
G02X104Y815I-15J-3*
G01*
Y805*
G75*
G02X104Y802I-15J0*
G01*
G75*
G02X127Y740I-17J-42*
G01*
X199*
G75*
G02X211Y735I0J-15*
G01*
X242Y699*
G75*
G02X246Y689I-11J-10*
G01*
X242Y540*
G75*
G02X238Y529I-15J0*
G01*
X234Y525*
G75*
G02X218Y509I-26J11*
G01*
X202Y494*
G75*
G02X191Y489I-11J11*
G01*
X126*
G75*
G02X87Y411I-39J-29*
G01*
G75*
G02X48Y489J49*
G01*
X28*
X262Y292D02*
X347D01*
Y207*
X262*
Y292*
X305Y197D02*
G75*
G02Y105J-46D01*
G01*
G75*
G02Y197J46*
G01*
X348Y704D02*
G75*
G02X301Y733I-14J29D01*
G01*
G75*
G02X357Y755I32*
G01*
G75*
G02X397Y754I19J-26*
G01*
G75*
G02X395Y764I26J11*
G01*
G75*
G02X401Y782I29*
G01*
Y951*
G75*
G02X395Y969I22J18*
G01*
G75*
G02X452I29*
G01*
G75*
G02X446Y951I-29*
G01*
Y782*
G75*
G02X452Y764I-22J-18*
G01*
G75*
G02X406Y742I-29*
G01*
G75*
G02X409Y729I-29J-13*
G01*
G75*
G02X402Y709I-32*
G01*
G75*
G02X409Y690I-26J-20*
G01*
G75*
G02X400Y668I-32*
G01*
G75*
G02X409Y646I-24J-22*
G01*
G75*
G02X344I-32*
G01*
G75*
G02X353Y668I32J0*
G01*
G75*
G02X344Y690I24J22*
G01*
G75*
G02X348Y704I32J0*
G01*
X454Y871D02*
G75*
G02X519I32D01*
G01*
G75*
G02X454I-32*
G01*
X561Y969D02*
G75*
G02X625I32D01*
G01*
G75*
G02X561I-32*
G01*
X688Y605D02*
G75*
G02X681Y625I23J20D01*
G01*
G75*
G02X723Y652I30*
G01*
G75*
G02X751Y694I28J12*
G01*
G75*
G02X770Y687J-30*
G01*
G75*
G02X790Y694I20J-23*
G01*
G75*
G02X813Y644J-30*
G01*
G75*
G02X820Y625I-23J-20*
G01*
G75*
G02X813Y605I-30*
G01*
G75*
G02X820Y585I-23J-20*
G01*
G75*
G02X770Y562I-30*
G01*
G75*
G02X731I-20J23*
G01*
G75*
G02X681Y585I-20J23*
G01*
G75*
G02X688Y605I30*
G01*
X770Y1101D02*
G75*
G02X718Y1127I-20J26D01*
G01*
G75*
G02X770Y1152I32*
G01*
G75*
G02X822Y1127I20J-26*
G01*
G75*
G02X770Y1101I-32*
G01*
X815Y782D02*
Y951D01*
G75*
G02X809Y969I22J18*
G01*
G75*
G02X866I29*
G01*
G75*
G02X859Y951I-29*
G01*
Y782*
G75*
G02X866Y764I-22J-18*
G01*
G75*
G02X809I-29*
G01*
G75*
G02X815Y782I29*
G01*
X845Y152D02*
G75*
G02X729I-58D01*
G01*
G75*
G02X845I58*
G01*
X864Y871D02*
G75*
G02X928I32D01*
G01*
G75*
G02X864I-32*
G01*
X947Y969D02*
G75*
G02X1011I32D01*
G01*
G75*
G02X947I-32*
G01*
X1045Y152D02*
G75*
G02X929I-58D01*
G01*
G75*
G02X1045I58*
G01*
X1082Y605D02*
G75*
G02X1075Y625I23J20D01*
G01*
G75*
G02X1117Y652I30*
G01*
G75*
G02X1144Y694I28J12*
G01*
G75*
G02X1164Y687J-30*
G01*
G75*
G02X1184Y694I20J-23*
G01*
G75*
G02X1206Y644J-30*
G01*
G75*
G02X1214Y625I-23J-20*
G01*
G75*
G02X1206Y605I-30*
G01*
G75*
G02X1214Y585I-23J-20*
G01*
G75*
G02X1164Y562I-30*
G01*
G75*
G02X1125I-20J23*
G01*
G75*
G02X1075Y585I-20J23*
G01*
G75*
G02X1082Y605I30*
G01*
X1205Y786D02*
Y951D01*
G75*
G02X1198Y969I22J18*
G01*
G75*
G02X1255I29*
G01*
G75*
G02X1249Y951I-29*
G01*
Y786*
G75*
G02X1255Y768I-22J-18*
G01*
G75*
G02X1198I-29*
G01*
G75*
G02X1205Y786I29*
G01*
X1245Y152D02*
G75*
G02X1129I-58D01*
G01*
G75*
G02X1245I58*
G01*
X1255Y1091D02*
G75*
G02X1319I32D01*
G01*
G75*
G02X1255I-32*
G01*
X1258Y871D02*
G75*
G02X1322I32D01*
G01*
G75*
G02X1258I-32*
G01*
X1340Y969D02*
G75*
G02X1405I32D01*
G01*
G75*
G02X1340I-32*
G01*
X1476Y605D02*
G75*
G02X1469Y625I23J20D01*
G01*
G75*
G02X1510Y652I30*
G01*
G75*
G02X1538Y694I28J12*
G01*
G75*
G02X1558Y687J-30*
G01*
G75*
G02X1577Y694I20J-23*
G01*
G75*
G02X1600Y644J-30*
G01*
G75*
G02X1607Y625I-23J-20*
G01*
G75*
G02X1600Y605I-30*
G01*
G75*
G02X1607Y585I-23J-20*
G01*
G75*
G02X1558Y562I-30*
G01*
G75*
G02X1518I-20J23*
G01*
G75*
G02X1469Y585I-20J23*
G01*
G75*
G02X1476Y605I30*
G01*
X1600Y827D02*
G75*
G02X1665I32D01*
G01*
G75*
G02X1600I-32*
G01*
X1655Y668D02*
G75*
G02X1604Y686I-22J18D01*
G01*
G75*
G02X1655Y703I29*
G01*
X1720*
X1749Y732*
G75*
G02X1718Y764I2J32*
G01*
G75*
G02X1776Y784I32*
G01*
Y967*
G75*
G02X1781Y979I18*
G01*
X1845Y1043*
G75*
G02X1887Y1105I42J17*
G01*
G75*
G02Y1015J-45*
G01*
G75*
G02X1870Y1018J45*
G01*
X1811Y960*
Y909*
X1845Y943*
G75*
G02X1887Y1005I42J17*
G01*
G75*
G02Y915J-45*
G01*
G75*
G02X1870Y918J45*
G01*
X1831Y880*
Y829*
X1845Y843*
G75*
G02X1887Y905I42J17*
G01*
G75*
G02Y815J-45*
G01*
G75*
G02X1870Y818J45*
G01*
X1851Y799*
Y787*
G75*
G02X1887Y805I36J-27*
G01*
G75*
G02Y715J-45*
G01*
G75*
G02X1851Y733J45*
G01*
Y705*
G75*
G02X1846Y693I-18*
G01*
X1779Y626*
G75*
G02X1779Y623I-28J-4*
G01*
G75*
G02X1722I-29*
G01*
G75*
G02X1726Y637I29*
G01*
X1714*
G75*
G02X1663Y654I-22J18*
G01*
G75*
G02X1667Y668I29*
G01*
X1655*
X1659Y796D02*
G75*
G02X1724I32D01*
G01*
G75*
G02X1659I-32*
G01*
X1661Y154D02*
G75*
G02X1538I-62D01*
G01*
G75*
G02X1661I62*
G01*
X1857D02*
G75*
G02X1742I-58D01*
G01*
G75*
G02X1857I58*
G01*
X1887Y415D02*
G75*
G02Y505J45D01*
G01*
G75*
G02Y415J-45*
G01*
Y515D02*
G75*
G02Y605J45D01*
G01*
G75*
G02Y515J-45*
G01*
Y615D02*
G75*
G02Y705J45D01*
G01*
G75*
G02Y615J-45*
G01*
Y1115D02*
G75*
G02Y1205J45D01*
G01*
G75*
G02Y1115J-45*
G01*
Y1215D02*
G75*
G02Y1305J45D01*
G01*
G75*
G02Y1215J-45*
G01*
Y1315D02*
G75*
G02Y1405J45D01*
G01*
G75*
G02Y1315J-45*
G01*
X28Y250D02*
G36*
Y151D01*
X258*
G75*
G02X305Y197I46*
G01*
G75*
G02X351Y151J-46*
G01*
X729*
G75*
G02Y152I58J0*
G01*
G75*
G02X845I58*
G01*
G75*
G02Y151I-58J0*
G01*
X929*
G75*
G02Y152I58J0*
G01*
G75*
G02X1045I58*
G01*
G75*
G02Y151I-58J0*
G01*
X1129*
G75*
G02Y152I58J0*
G01*
G75*
G02X1245I58*
G01*
G75*
G02Y151I-58J0*
G01*
X1538*
G75*
G02X1538Y154I61J3*
G01*
G75*
G02X1661I62*
G01*
G75*
G02X1661Y151I-62*
G01*
X1742*
G75*
G02X1742Y154I58J3*
G01*
G75*
G02X1857I58*
G01*
G75*
G02X1857Y151I-58J0*
G01*
X1946*
Y250*
X347*
Y207*
X262*
Y250*
X28*
G37*
X262D02*
G36*
Y292D01*
X347*
Y250*
X1946*
Y460*
X1932*
G75*
G02X1887Y415I-45*
G01*
G75*
G02X1842Y460J45*
G01*
X136*
G75*
G02X87Y411I-49*
G01*
G75*
G02X48Y489J49*
G01*
X28*
Y250*
X262*
G37*
X28Y151D02*
G36*
Y29D01*
X1946*
Y151*
X1857*
G75*
G02X1742I-58J3*
G01*
X1661*
G75*
G02X1538I-61J3*
G01*
X1245*
G75*
G02X1129I-58J1*
G01*
X1045*
G75*
G02X929I-58J1*
G01*
X845*
G75*
G02X729I-58J1*
G01*
X351*
G75*
G02X305Y105I-46*
G01*
G75*
G02X258Y151J46*
G01*
X28*
G37*
X104Y806D02*
G36*
Y805D01*
G75*
G02X104Y802I-15J0*
G01*
G75*
G02X127Y740I-17J-42*
G01*
X199*
G75*
G02X211Y735I0J-15*
G01*
X242Y699*
G75*
G02X246Y689I-11J-10*
G01*
X244Y625*
X353*
G75*
G02X344Y646I24J22*
G01*
G75*
G02X353Y668I32J0*
G01*
G75*
G02X348Y704I24J22*
G01*
G75*
G02X301Y733I-14J29*
G01*
G75*
G02X357Y755I32*
G01*
G75*
G02X397Y754I19J-26*
G01*
G75*
G02X401Y782I26J11*
G01*
Y806*
X104*
G37*
X401D02*
G36*
Y871D01*
X130*
G75*
G02X104Y818I-44J-11*
G01*
G75*
G02X104Y815I-15J-3*
G01*
Y806*
X401*
G37*
X446D02*
G36*
Y782D01*
G75*
G02X406Y742I-22J-18*
G01*
G75*
G02X402Y709I-29J-13*
G01*
G75*
G02X400Y668I-26J-20*
G01*
G75*
G02X409Y646I-24J-22*
G01*
G75*
G02X400Y625I-32*
G01*
X681*
G75*
G02X723Y652I30*
G01*
G75*
G02X770Y687I28J12*
G01*
G75*
G02X813Y644I20J-23*
G01*
G75*
G02X820Y625I-23J-20*
G01*
X1075*
G75*
G02X1117Y652I30*
G01*
G75*
G02X1164Y687I28J12*
G01*
G75*
G02X1206Y644I20J-23*
G01*
G75*
G02X1214Y625I-23J-20*
G01*
X1469*
G75*
G02X1510Y652I30*
G01*
G75*
G02X1558Y687I28J12*
G01*
G75*
G02X1600Y644I20J-23*
G01*
G75*
G02X1607Y625I-23J-20*
G01*
X1722*
G75*
G02X1726Y637I28J-2*
G01*
X1714*
G75*
G02X1667Y668I-22J18*
G01*
X1655*
G75*
G02X1604Y686I-22J18*
G01*
G75*
G02X1655Y703I29*
G01*
X1720*
X1749Y732*
G75*
G02X1718Y764I2J32*
G01*
G75*
G02X1776Y784I32*
G01*
Y806*
X1722*
G75*
G02X1724Y796I-31J-10*
G01*
G75*
G02X1659I-32*
G01*
G75*
G02X1661Y806I32*
G01*
X1656*
G75*
G02X1608I-24J22*
G01*
X1249*
Y786*
G75*
G02X1255Y768I-22J-18*
G01*
G75*
G02X1198I-29*
G01*
G75*
G02X1205Y786I29*
G01*
Y806*
X859*
Y782*
G75*
G02X866Y764I-22J-18*
G01*
G75*
G02X809I-29*
G01*
G75*
G02X815Y782I29*
G01*
Y806*
X446*
G37*
X815D02*
G36*
Y871D01*
X519*
G75*
G02X454I-32*
G01*
X446*
Y806*
X815*
G37*
X1205D02*
G36*
Y871D01*
X928*
G75*
G02X864I-32*
G01*
X859*
Y806*
X1205*
G37*
X1608D02*
G36*
G75*
G02X1600Y827I24J22D01*
G01*
G75*
G02X1665I32*
G01*
G75*
G02X1656Y806I-32*
G01*
X1661*
G75*
G02X1722I31J-10*
G01*
X1776*
Y871*
X1322*
G75*
G02X1258I-32*
G01*
X1249*
Y806*
X1608*
G37*
X1857D02*
G36*
X1851Y799D01*
Y787*
G75*
G02X1887Y805I36J-27*
G01*
G75*
G02Y715J-45*
G01*
G75*
G02X1851Y733J45*
G01*
Y705*
G75*
G02X1846Y693I-18*
G01*
X1779Y626*
G75*
G02X1779Y625I-28J-4*
G01*
X1859*
G75*
G02X1887Y705I28J35*
G01*
G75*
G02X1914Y625J-45*
G01*
X1946*
Y806*
X1857*
G37*
X1946D02*
G36*
Y871D01*
X1930*
G75*
G02X1887Y815I-44J-11*
G01*
G75*
G02X1870Y818J45*
G01*
X1857Y806*
X1946*
G37*
X401Y871D02*
G36*
Y951D01*
G75*
G02X395Y969I22J18*
G01*
X131*
G75*
G02X104Y918I-44J-9*
G01*
G75*
G02X104Y915I-15J-3*
G01*
Y905*
G75*
G02X104Y902I-15J0*
G01*
G75*
G02X130Y871I-17J-42*
G01*
X401*
G37*
X454D02*
G36*
G75*
G02X519I32D01*
G01*
X815*
Y951*
G75*
G02X809Y969I22J18*
G01*
X625*
G75*
G02X561I-32*
G01*
X452*
G75*
G02X446Y951I-29*
G01*
Y871*
X454*
G37*
X864D02*
G36*
G75*
G02X928I32D01*
G01*
X1205*
Y951*
G75*
G02X1198Y969I22J18*
G01*
X1011*
G75*
G02X947I-32*
G01*
X866*
G75*
G02X859Y951I-29*
G01*
Y871*
X864*
G37*
X1258D02*
G36*
G75*
G02X1322I32D01*
G01*
X1776*
Y967*
G75*
G02X1776Y969I18J0*
G01*
X1405*
G75*
G02X1340I-32*
G01*
X1255*
G75*
G02X1249Y951I-29*
G01*
Y871*
X1258*
G37*
X1946D02*
G36*
Y969D01*
X1931*
G75*
G02X1887Y915I-44J-9*
G01*
G75*
G02X1870Y918J45*
G01*
X1831Y880*
Y829*
X1845Y843*
G75*
G02X1887Y905I42J17*
G01*
G75*
G02X1930Y871J-45*
G01*
X1946*
G37*
X395Y969D02*
G36*
G75*
G02X452I29D01*
G01*
X561*
G75*
G02X625I32*
G01*
X809*
G75*
G02X866I29*
G01*
X947*
G75*
G02X1011I32*
G01*
X1198*
G75*
G02X1255I29*
G01*
X1340*
G75*
G02X1405I32*
G01*
X1776*
G75*
G02X1781Y979I17J-2*
G01*
X1845Y1043*
G75*
G02X1854Y1091I42J17*
G01*
X1319*
G75*
G02X1255I-32*
G01*
X1179*
G75*
G02X1175Y1080I-15*
G01*
X1159Y1065*
G75*
G02X1148Y1060I-11J11*
G01*
X1097*
G75*
G02X1085Y1066J15*
G01*
X1046Y1113*
G75*
G02X1043Y1123I12J10*
G01*
Y1127*
X822*
G75*
G02X770Y1101I-32*
G01*
G75*
G02X718Y1127I-20J26*
G01*
X117*
G75*
G02X104Y1118I-30J33*
G01*
G75*
G02X104Y1115I-15J-3*
G01*
Y1105*
G75*
G02X104Y1102I-15J0*
G01*
G75*
G02Y1018I-17J-42*
G01*
G75*
G02X104Y1015I-15J-3*
G01*
Y1005*
G75*
G02X104Y1002I-15J0*
G01*
G75*
G02X131Y969I-17J-42*
G01*
X395*
G37*
X1946D02*
G36*
Y1091D01*
X1919*
G75*
G02X1887Y1015I-33J-31*
G01*
G75*
G02X1870Y1018J45*
G01*
X1811Y960*
Y909*
X1845Y943*
G75*
G02X1887Y1005I42J17*
G01*
G75*
G02X1931Y969J-45*
G01*
X1946*
G37*
X244Y625D02*
G36*
X242Y560D01*
X695*
G75*
G02X688Y605I16J25*
G01*
G75*
G02X681Y625I23J20*
G01*
X400*
G75*
G02X353I-24J22*
G01*
X244*
G37*
X820D02*
G36*
G75*
G02X813Y605I-30D01*
G01*
G75*
G02X806Y560I-23J-20*
G01*
X1088*
G75*
G02X1082Y605I16J25*
G01*
G75*
G02X1075Y625I23J20*
G01*
X820*
G37*
X1214D02*
G36*
G75*
G02X1206Y605I-30D01*
G01*
G75*
G02X1200Y560I-23J-20*
G01*
X1482*
G75*
G02X1476Y605I16J25*
G01*
G75*
G02X1469Y625I23J20*
G01*
X1214*
G37*
X1607D02*
G36*
G75*
G02X1600Y605I-30D01*
G01*
G75*
G02X1594Y560I-23J-20*
G01*
X1842*
G75*
G02X1887Y605I45*
G01*
G75*
G02X1932Y560J-45*
G01*
X1946*
Y625*
X1914*
G75*
G02X1887Y615I-28J35*
G01*
G75*
G02X1859Y625J45*
G01*
X1779*
G75*
G02X1779Y623I-28J-2*
G01*
G75*
G02X1722I-29*
G01*
G75*
G02X1722Y625I28J0*
G01*
X1607*
G37*
X718Y1127D02*
G36*
G75*
G02X770Y1152I32D01*
G01*
G75*
G02X822Y1127I20J-26*
G01*
X1043*
Y1249*
G75*
G02X1003Y1290I-19J21*
G01*
Y1312*
G75*
G02X994Y1333I19J21*
G01*
G75*
G02X1043Y1353I29*
G01*
Y1379*
X127*
G75*
G02X104Y1318I-41J-19*
G01*
G75*
G02X104Y1315I-15J-3*
G01*
Y1305*
G75*
G02X104Y1302I-15J0*
G01*
G75*
G02Y1218I-17J-42*
G01*
G75*
G02X104Y1215I-15J-3*
G01*
Y1205*
G75*
G02X104Y1202I-15J0*
G01*
G75*
G02X117Y1127I-17J-42*
G01*
X718*
G37*
X1177D02*
G36*
G75*
G02X1179Y1119I-13J-8D01*
G01*
Y1091*
X1255*
G75*
G02X1319I32*
G01*
X1854*
G75*
G02X1887Y1105I33J-31*
G01*
G75*
G02X1919Y1091J-45*
G01*
X1946*
Y1127*
X1917*
G75*
G02X1887Y1115I-30J33*
G01*
G75*
G02X1857Y1127J45*
G01*
X1177*
G37*
X1857D02*
G36*
G75*
G02X1887Y1205I30J33D01*
G01*
G75*
G02X1917Y1127J-45*
G01*
X1946*
Y1260*
X1932*
G75*
G02X1887Y1215I-45*
G01*
G75*
G02X1842Y1260J45*
G01*
X1132*
Y1152*
X1171Y1132*
G75*
G02X1177Y1127I-7J-13*
G01*
X1857*
G37*
X1842Y460D02*
G36*
G75*
G02X1887Y505I45D01*
G01*
G75*
G02X1932Y460J-45*
G01*
X1946*
Y560*
X1932*
G75*
G02X1887Y515I-45*
G01*
G75*
G02X1842Y560J45*
G01*
X1594*
G75*
G02X1558Y562I-16J25*
G01*
G75*
G02X1518I-20J23*
G01*
G75*
G02X1482Y560I-20J23*
G01*
X1200*
G75*
G02X1164Y562I-16J25*
G01*
G75*
G02X1125I-20J23*
G01*
G75*
G02X1088Y560I-20J23*
G01*
X806*
G75*
G02X770Y562I-16J25*
G01*
G75*
G02X731I-20J23*
G01*
G75*
G02X695Y560I-20J23*
G01*
X242*
X242Y540*
G75*
G02X238Y529I-15J0*
G01*
X234Y525*
G75*
G02X218Y509I-26J11*
G01*
X202Y494*
G75*
G02X191Y489I-11J11*
G01*
X126*
G75*
G02X136Y460I-39J-29*
G01*
X1842*
G37*
Y1260D02*
G36*
G75*
G02X1887Y1305I45D01*
G01*
G75*
G02X1932Y1260J-45*
G01*
X1946*
Y1360*
X1932*
G75*
G02X1887Y1315I-45*
G01*
G75*
G02X1842Y1360J45*
G01*
X1132*
Y1260*
X1842*
G37*
Y1360D02*
G36*
G75*
G02X1887Y1405I45D01*
G01*
G75*
G02X1932Y1360J-45*
G01*
X1946*
Y1436*
X1132*
Y1360*
X1842*
G37*
X28Y504D02*
X80D01*
G75*
G02X94I7J-44*
G01*
X191*
X227Y540*
X231Y690*
X199Y725*
X115*
G75*
G02X87Y715I-28J35*
G01*
G75*
G02Y805J45*
G01*
G75*
G02X89Y805I0J-45*
G01*
Y815*
G75*
G02X87Y815I-2J45*
G01*
G75*
G02Y905J45*
G01*
G75*
G02X89Y905I0J-45*
G01*
Y915*
G75*
G02X87Y915I-2J45*
G01*
G75*
G02Y1005J45*
G01*
G75*
G02X89Y1005I0J-45*
G01*
Y1015*
G75*
G02X87Y1015I-2J45*
G01*
G75*
G02Y1105J45*
G01*
G75*
G02X89Y1105I0J-45*
G01*
Y1115*
G75*
G02X87Y1115I-2J45*
G01*
G75*
G02Y1205J45*
G01*
G75*
G02X89Y1205I0J-45*
G01*
Y1215*
G75*
G02X87Y1215I-2J45*
G01*
G75*
G02Y1305J45*
G01*
G75*
G02X89Y1305I0J-45*
G01*
Y1315*
G75*
G02X87Y1315I-2J45*
G01*
G75*
G02Y1405J45*
G01*
G75*
G02X116Y1394J-45*
G01*
X1058*
Y1123*
X1097Y1075*
X1148*
X1164Y1091*
Y1119*
X1117Y1142*
Y1436*
X28*
Y504*
X87Y605D02*
G75*
G02Y515J-45D01*
G01*
G75*
G02Y605J45*
G01*
Y705D02*
G75*
G02Y615J-45D01*
G01*
G75*
G02Y705J45*
G01*
X28Y560D02*
G36*
Y504D01*
X80*
G75*
G02X94I7J-44*
G01*
X191*
X227Y540*
X227Y560*
X132*
G75*
G02X87Y515I-45*
G01*
G75*
G02X42Y560J45*
G01*
X28*
G37*
X42D02*
G36*
G75*
G02X87Y605I45D01*
G01*
G75*
G02X132Y560J-45*
G01*
X227*
X230Y660*
X132*
G75*
G02X87Y615I-45*
G01*
G75*
G02X42Y660J45*
G01*
X28*
Y560*
X42*
G37*
Y660D02*
G36*
G75*
G02X87Y705I45D01*
G01*
G75*
G02X132Y660J-45*
G01*
X230*
X231Y690*
X199Y725*
X115*
G75*
G02X87Y715I-28J35*
G01*
G75*
G02Y805J45*
G01*
G75*
G02X89Y805I0J-45*
G01*
Y815*
G75*
G02X87Y815I-2J45*
G01*
G75*
G02Y905J45*
G01*
G75*
G02X89Y905I0J-45*
G01*
Y915*
G75*
G02X87Y915I-2J45*
G01*
G75*
G02Y1005J45*
G01*
G75*
G02X89Y1005I0J-45*
G01*
Y1015*
G75*
G02X87Y1015I-2J45*
G01*
G75*
G02Y1105J45*
G01*
G75*
G02X89Y1105I0J-45*
G01*
Y1115*
G75*
G02X87Y1115I-2J45*
G01*
G75*
G02Y1205J45*
G01*
G75*
G02X89Y1205I0J-45*
G01*
Y1215*
G75*
G02X87Y1215I-2J45*
G01*
G75*
G02Y1305J45*
G01*
G75*
G02X89Y1305I0J-45*
G01*
Y1315*
G75*
G02X87Y1315I-2J45*
G01*
G75*
G02Y1405J45*
G01*
G75*
G02X116Y1394J-45*
G01*
X1058*
Y1123*
X1097Y1075*
X1148*
X1164Y1091*
Y1119*
X1117Y1142*
Y1436*
X28*
Y660*
X42*
G37*
D02*
D23*
X711Y585D03*
Y625D03*
X751Y585D03*
Y625D03*
Y664D03*
X790Y585D03*
Y625D03*
Y664D03*
X1105Y585D03*
Y625D03*
X1144Y585D03*
Y625D03*
Y664D03*
X1184Y585D03*
Y625D03*
Y664D03*
X1499Y585D03*
Y625D03*
X1538Y585D03*
Y625D03*
Y664D03*
X1577Y585D03*
Y625D03*
Y664D03*
D02*
D24*
X207Y536D03*
Y575D03*
X333Y733D03*
X377Y646D03*
Y690D03*
Y729D03*
X424Y764D03*
Y969D03*
X487Y871D03*
X593Y969D03*
X751Y1127D03*
X790D03*
X837Y764D03*
Y969D03*
X896Y871D03*
X979Y969D03*
X1022Y1333D03*
X1023Y1270D03*
X1108Y1095D03*
X1142Y1094D03*
X1227Y768D03*
Y969D03*
X1287Y1091D03*
X1290Y871D03*
X1373Y969D03*
X1632Y686D03*
Y827D03*
X1691Y654D03*
Y796D03*
X1751Y623D03*
Y764D03*
D02*
D72*
X87Y460D03*
Y560D03*
Y660D03*
Y760D03*
Y860D03*
Y960D03*
Y1060D03*
Y1160D03*
Y1260D03*
Y1360D03*
X1887Y460D03*
Y560D03*
Y660D03*
Y760D03*
Y860D03*
Y960D03*
Y1060D03*
Y1160D03*
Y1260D03*
Y1360D03*
D02*
D73*
X787Y152D03*
X987D03*
X1187D03*
X1599Y154D03*
X1799D03*
D02*
D74*
X305Y250D03*
D02*
D75*
Y151D03*
D02*
D79*
X424Y764D02*
Y969D01*
X837Y764D02*
Y969D01*
X1227Y768D02*
Y969D01*
D02*
D81*
X711Y625D02*
X751D01*
Y585D02*
Y625D01*
Y664D02*
Y625D01*
X790D02*
X751D01*
X1022Y1333D02*
Y1271D01*
X1023Y1270*
X1144Y625D02*
X1105D01*
X1144D02*
Y664D01*
Y625D02*
X1184D01*
X1144D02*
Y585D01*
X1538D02*
Y625D01*
X1499*
X1538Y664D02*
Y625D01*
X1577D02*
X1538D01*
X1632Y686D02*
X1727D01*
X1794Y753*
Y967*
X1887Y1060*
X1691Y654D02*
X1739D01*
X1814Y729*
Y887*
X1887Y960*
X1751Y623D02*
X1833Y705D01*
Y806*
X1887Y860*
X1751Y623D02*
Y619D01*
X1754Y615*
D02*
D107*
X87Y438D02*
Y403D01*
X108Y460D02*
X144D01*
X285Y151D02*
X250D01*
X305Y132D02*
Y97D01*
X324Y151D02*
X359D01*
X328Y733D02*
X293D01*
X333Y728D02*
Y692D01*
Y738D02*
Y773D01*
X371Y646D02*
X336D01*
X371Y690D02*
X336D01*
X377Y641D02*
Y606D01*
Y734D02*
Y769D01*
X382Y646D02*
X417D01*
X382Y690D02*
X417D01*
X487Y865D02*
Y830D01*
Y876D02*
Y911D01*
X492Y871D02*
X527D01*
X588Y969D02*
X552D01*
X593Y964D02*
Y928D01*
Y974D02*
Y1010D01*
X598Y969D02*
X634D01*
X708Y585D02*
X673D01*
X708Y625D02*
X673D01*
X711Y582D02*
Y547D01*
Y627D02*
Y663D01*
X745Y1127D02*
X710D01*
X748Y664D02*
X712D01*
X751Y582D02*
Y547D01*
Y667D02*
Y702D01*
Y1121D02*
Y1086D01*
Y1132D02*
Y1167D01*
X790Y582D02*
Y547D01*
Y667D02*
Y702D01*
Y1121D02*
Y1086D01*
Y1132D02*
Y1167D01*
X793Y585D02*
X828D01*
X793Y625D02*
X828D01*
X793Y664D02*
X828D01*
X795Y1127D02*
X831D01*
X896Y865D02*
Y830D01*
Y876D02*
Y911D01*
X901Y871D02*
X937D01*
X974Y969D02*
X938D01*
X979Y964D02*
Y928D01*
Y974D02*
Y1010D01*
X984Y969D02*
X1019D01*
X1102Y585D02*
X1066D01*
X1102Y625D02*
X1066D01*
X1105Y582D02*
Y547D01*
Y627D02*
Y663D01*
X1141Y664D02*
X1106D01*
X1144Y582D02*
Y547D01*
Y667D02*
Y702D01*
X1184Y582D02*
Y547D01*
Y667D02*
Y702D01*
X1187Y585D02*
X1222D01*
X1187Y625D02*
X1222D01*
X1187Y664D02*
X1222D01*
X1282Y1091D02*
X1246D01*
X1287Y1086D02*
Y1050D01*
Y1096D02*
Y1132D01*
X1290Y865D02*
Y830D01*
Y876D02*
Y911D01*
X1292Y1091D02*
X1328D01*
X1295Y871D02*
X1331D01*
X1367Y969D02*
X1332D01*
X1373Y964D02*
Y928D01*
Y974D02*
Y1010D01*
X1378Y969D02*
X1413D01*
X1496Y585D02*
X1460D01*
X1496Y625D02*
X1460D01*
X1499Y582D02*
Y547D01*
Y627D02*
Y663D01*
X1535Y664D02*
X1500D01*
X1538Y582D02*
Y547D01*
Y667D02*
Y702D01*
X1565Y154D02*
X1529D01*
X1577Y582D02*
Y547D01*
Y667D02*
Y702D01*
X1580Y585D02*
X1616D01*
X1580Y625D02*
X1616D01*
X1599Y120D02*
Y84D01*
Y189D02*
Y224D01*
X1627Y827D02*
X1592D01*
X1632Y822D02*
Y787D01*
Y832D02*
Y868D01*
X1634Y154D02*
X1669D01*
X1691Y791D02*
Y755D01*
Y801D02*
Y836D01*
X1751Y769D02*
Y805D01*
X0Y0D02*
M02*
