%FSLAX23Y23*%
%MOIN*%
G04 EasyPC Gerber Version 15.0.4 Build 3016 *
%ADD10C,0.00500*%
%ADD108C,0.10000*%
X0Y0D02*
D02*
D10*
X3Y1461D02*
Y4D01*
X1971*
Y1461*
X3*
X218Y526D02*
X215Y522D01*
X209Y519*
X199*
X193Y522*
X190Y526*
X187Y532*
Y544*
X190Y551*
X193Y554*
X199Y557*
X209*
X215Y554*
X218Y551*
Y626D02*
X215Y622D01*
X209Y619*
X199*
X193Y622*
X190Y626*
X187Y632*
Y644*
X190Y651*
X193Y654*
X199Y657*
X209*
X215Y654*
X218Y651*
Y726D02*
X215Y722D01*
X209Y719*
X199*
X193Y722*
X190Y726*
X187Y732*
Y744*
X190Y751*
X193Y754*
X199Y757*
X209*
X215Y754*
X218Y751*
Y826D02*
X215Y822D01*
X209Y819*
X199*
X193Y822*
X190Y826*
X187Y832*
Y844*
X190Y851*
X193Y854*
X199Y857*
X209*
X215Y854*
X218Y851*
Y926D02*
X215Y922D01*
X209Y919*
X199*
X193Y922*
X190Y926*
X187Y932*
Y944*
X190Y951*
X193Y954*
X199Y957*
X209*
X215Y954*
X218Y951*
Y1026D02*
X215Y1022D01*
X209Y1019*
X199*
X193Y1022*
X190Y1026*
X187Y1032*
Y1044*
X190Y1051*
X193Y1054*
X199Y1057*
X209*
X215Y1054*
X218Y1051*
Y1126D02*
X215Y1122D01*
X209Y1119*
X199*
X193Y1122*
X190Y1126*
X187Y1132*
Y1144*
X190Y1151*
X193Y1154*
X199Y1157*
X209*
X215Y1154*
X218Y1151*
Y1226D02*
X215Y1222D01*
X209Y1219*
X199*
X193Y1222*
X190Y1226*
X187Y1232*
Y1244*
X190Y1251*
X193Y1254*
X199Y1257*
X209*
X215Y1254*
X218Y1251*
Y1326D02*
X215Y1322D01*
X209Y1319*
X199*
X193Y1322*
X190Y1326*
X187Y1332*
Y1344*
X190Y1351*
X193Y1354*
X199Y1357*
X209*
X215Y1354*
X218Y1351*
Y1426D02*
X215Y1422D01*
X209Y1419*
X199*
X193Y1422*
X190Y1426*
X187Y1432*
Y1444*
X190Y1451*
X193Y1454*
X199Y1457*
X209*
X215Y1454*
X218Y1451*
X329Y614D02*
X335Y611D01*
X338Y605*
X335Y598*
X329Y595*
X307*
Y633*
X329*
X335Y630*
X338Y623*
X335Y617*
X329Y614*
X307*
X329Y653D02*
X335Y650D01*
X338Y644*
X335Y638*
X329Y635*
X307*
Y672*
X329*
X335Y669*
X338Y663*
X335Y657*
X329Y653*
X307*
X405Y210D02*
Y248D01*
X436*
X430Y229D02*
X405D01*
Y210D02*
X436D01*
X405Y309D02*
Y346D01*
X436*
X430Y328D02*
X405D01*
Y309D02*
X436D01*
X455Y811D02*
X461Y808D01*
X464Y802*
X461Y795*
X455Y792*
X433*
Y830*
X455*
X461Y827*
X464Y820*
X461Y814*
X455Y811*
X433*
X498Y724D02*
X505Y721D01*
X508Y715*
X505Y709*
X498Y706*
X477*
Y743*
X498*
X505Y740*
X508Y734*
X505Y727*
X498Y724*
X477*
X498Y768D02*
X505Y765D01*
X508Y758*
X505Y752*
X498Y749*
X477*
Y786*
X498*
X505Y783*
X508Y777*
X505Y771*
X498Y768*
X477*
X498Y807D02*
X505Y804D01*
X508Y798*
X505Y791*
X498Y788*
X477*
Y826*
X498*
X505Y823*
X508Y816*
X505Y810*
X498Y807*
X477*
X546Y842D02*
X552Y839D01*
X555Y833*
X552Y827*
X546Y824*
X524*
Y861*
X546*
X552Y858*
X555Y852*
X552Y846*
X546Y842*
X524*
X546Y1047D02*
X552Y1044D01*
X555Y1038*
X552Y1032*
X546Y1028*
X524*
Y1066*
X546*
X552Y1063*
X555Y1057*
X552Y1050*
X546Y1047*
X524*
X609Y949D02*
X615Y946D01*
X618Y939*
X615Y933*
X609Y930*
X587*
Y967*
X609*
X615Y964*
X618Y958*
X615Y952*
X609Y949*
X587*
X715Y1047D02*
X721Y1044D01*
X724Y1038*
X721Y1032*
X715Y1028*
X693*
Y1066*
X715*
X721Y1063*
X724Y1057*
X721Y1050*
X715Y1047*
X693*
X811Y645D02*
X827Y682D01*
X842Y645*
X817Y660D02*
X836D01*
X811Y684D02*
X827Y721D01*
X842Y684*
X817Y700D02*
X836D01*
X851Y645D02*
X866Y682D01*
X882Y645*
X857Y660D02*
X876D01*
X851Y684D02*
X866Y721D01*
X882Y684*
X857Y700D02*
X876D01*
X851Y723D02*
X866Y761D01*
X882Y723*
X857Y739D02*
X876D01*
X872Y1205D02*
X879Y1202D01*
X882Y1195*
X879Y1189*
X872Y1186*
X851*
Y1223*
X872*
X879Y1220*
X882Y1214*
X879Y1208*
X872Y1205*
X851*
X887Y211D02*
Y249D01*
X906*
X912Y246*
X915Y243*
X918Y236*
Y224*
X915Y218*
X912Y215*
X906Y211*
X887*
X890Y645D02*
X906Y682D01*
X921Y645*
X896Y660D02*
X915D01*
X890Y684D02*
X906Y721D01*
X921Y684*
X896Y700D02*
X915D01*
X890Y723D02*
X906Y761D01*
X921Y723*
X896Y739D02*
X915D01*
X912Y1205D02*
X918Y1202D01*
X921Y1195*
X918Y1189*
X912Y1186*
X890*
Y1223*
X912*
X918Y1220*
X921Y1214*
X918Y1208*
X912Y1205*
X890*
X959Y842D02*
X965Y839D01*
X968Y833*
X965Y827*
X959Y824*
X937*
Y861*
X959*
X965Y858*
X968Y852*
X965Y846*
X959Y842*
X937*
X959Y1047D02*
X965Y1044D01*
X968Y1038*
X965Y1032*
X959Y1028*
X937*
Y1066*
X959*
X965Y1063*
X968Y1057*
X965Y1050*
X959Y1047*
X937*
X1018Y949D02*
X1024Y946D01*
X1027Y939*
X1024Y933*
X1018Y930*
X996*
Y967*
X1018*
X1024Y964*
X1027Y958*
X1024Y952*
X1018Y949*
X996*
X1101Y1047D02*
X1107Y1044D01*
X1110Y1038*
X1107Y1032*
X1101Y1028*
X1079*
Y1066*
X1101*
X1107Y1063*
X1110Y1057*
X1107Y1050*
X1101Y1047*
X1079*
X1087Y211D02*
Y249D01*
X1106*
X1112Y246*
X1115Y243*
X1118Y236*
Y224*
X1115Y218*
X1112Y215*
X1106Y211*
X1087*
X1144Y1411D02*
X1150Y1408D01*
X1153Y1402*
X1150Y1396*
X1144Y1393*
X1122*
Y1430*
X1144*
X1150Y1427*
X1153Y1421*
X1150Y1414*
X1144Y1411*
X1122*
X1145Y1348D02*
X1151Y1345D01*
X1154Y1339*
X1151Y1333*
X1145Y1330*
X1123*
Y1367*
X1145*
X1151Y1364*
X1154Y1358*
X1151Y1351*
X1145Y1348*
X1123*
X1205Y645D02*
X1220Y682D01*
X1236Y645*
X1211Y660D02*
X1230D01*
X1205Y684D02*
X1220Y721D01*
X1236Y684*
X1211Y700D02*
X1230D01*
X1230Y1173D02*
X1236Y1170D01*
X1239Y1164*
X1236Y1158*
X1230Y1154*
X1208*
Y1192*
X1230*
X1236Y1189*
X1239Y1183*
X1236Y1176*
X1230Y1173*
X1208*
X1264Y1172D02*
X1270Y1169D01*
X1274Y1163*
X1270Y1157*
X1264Y1153*
X1242*
Y1191*
X1264*
X1270Y1188*
X1274Y1182*
X1270Y1175*
X1264Y1172*
X1242*
X1244Y645D02*
X1260Y682D01*
X1275Y645*
X1250Y660D02*
X1269D01*
X1244Y684D02*
X1260Y721D01*
X1275Y684*
X1250Y700D02*
X1269D01*
X1244Y723D02*
X1260Y761D01*
X1275Y723*
X1250Y739D02*
X1269D01*
X1284Y645D02*
X1299Y682D01*
X1315Y645*
X1290Y660D02*
X1309D01*
X1284Y684D02*
X1299Y721D01*
X1315Y684*
X1290Y700D02*
X1309D01*
X1284Y723D02*
X1299Y761D01*
X1315Y723*
X1290Y739D02*
X1309D01*
X1287Y211D02*
Y249D01*
X1306*
X1312Y246*
X1315Y243*
X1318Y236*
Y224*
X1315Y218*
X1312Y215*
X1306Y211*
X1287*
X1349Y846D02*
X1355Y843D01*
X1358Y837*
X1355Y831*
X1349Y828*
X1327*
Y865*
X1349*
X1355Y862*
X1358Y856*
X1355Y850*
X1349Y846*
X1327*
X1349Y1047D02*
X1355Y1044D01*
X1358Y1038*
X1355Y1032*
X1349Y1028*
X1327*
Y1066*
X1349*
X1355Y1063*
X1358Y1057*
X1355Y1050*
X1349Y1047*
X1327*
X1409Y1169D02*
X1415Y1166D01*
X1418Y1160*
X1415Y1154*
X1409Y1150*
X1387*
Y1188*
X1409*
X1415Y1185*
X1418Y1179*
X1415Y1172*
X1409Y1169*
X1387*
X1412Y949D02*
X1418Y946D01*
X1421Y939*
X1418Y933*
X1412Y930*
X1390*
Y967*
X1412*
X1418Y964*
X1421Y958*
X1418Y952*
X1412Y949*
X1390*
X1494Y1047D02*
X1501Y1044D01*
X1504Y1038*
X1501Y1032*
X1494Y1028*
X1473*
Y1066*
X1494*
X1501Y1063*
X1504Y1057*
X1501Y1050*
X1494Y1047*
X1473*
X1599Y645D02*
X1614Y682D01*
X1630Y645*
X1605Y660D02*
X1624D01*
X1599Y684D02*
X1614Y721D01*
X1630Y684*
X1605Y700D02*
X1624D01*
X1638Y645D02*
X1654Y682D01*
X1669Y645*
X1644Y660D02*
X1663D01*
X1638Y684D02*
X1654Y721D01*
X1669Y684*
X1644Y700D02*
X1663D01*
X1638Y723D02*
X1654Y761D01*
X1669Y723*
X1644Y739D02*
X1663D01*
X1677Y645D02*
X1693Y682D01*
X1709Y645*
X1684Y660D02*
X1702D01*
X1677Y684D02*
X1693Y721D01*
X1709Y684*
X1684Y700D02*
X1702D01*
X1677Y723D02*
X1693Y761D01*
X1709Y723*
X1684Y739D02*
X1702D01*
X1699Y213D02*
Y251D01*
X1718*
X1724Y248*
X1727Y245*
X1731Y238*
Y226*
X1727Y220*
X1724Y217*
X1718Y213*
X1699*
X1754Y764D02*
X1761Y761D01*
X1764Y754*
X1761Y748*
X1754Y745*
X1732*
Y782*
X1754*
X1761Y779*
X1764Y773*
X1761Y767*
X1754Y764*
X1732*
X1754Y905D02*
X1761Y902D01*
X1764Y896*
X1761Y890*
X1754Y887*
X1732*
Y924*
X1754*
X1761Y921*
X1764Y915*
X1761Y909*
X1754Y905*
X1732*
X1813Y732D02*
X1820Y729D01*
X1823Y723*
X1820Y717*
X1813Y713*
X1791*
Y751*
X1813*
X1820Y748*
X1823Y742*
X1820Y735*
X1813Y732*
X1791*
X1813Y874D02*
X1820Y871D01*
X1823Y865*
X1820Y858*
X1813Y855*
X1791*
Y893*
X1813*
X1820Y890*
X1823Y883*
X1820Y877*
X1813Y874*
X1791*
X1872Y701D02*
X1879Y698D01*
X1882Y691*
X1879Y685*
X1872Y682*
X1851*
Y719*
X1872*
X1879Y716*
X1882Y710*
X1879Y704*
X1872Y701*
X1851*
X1872Y842D02*
X1879Y839D01*
X1882Y833*
X1879Y827*
X1872Y824*
X1851*
Y861*
X1872*
X1879Y858*
X1882Y852*
X1879Y846*
X1872Y842*
X1851*
X1899Y213D02*
Y251D01*
X1918*
X1924Y248*
X1927Y245*
X1931Y238*
Y226*
X1927Y220*
X1924Y217*
X1918Y213*
X1899*
X2018Y526D02*
X2015Y522D01*
X2009Y519*
X1999*
X1993Y522*
X1990Y526*
X1987Y532*
Y544*
X1990Y551*
X1993Y554*
X1999Y557*
X2009*
X2015Y554*
X2018Y551*
Y626D02*
X2015Y622D01*
X2009Y619*
X1999*
X1993Y622*
X1990Y626*
X1987Y632*
Y644*
X1990Y651*
X1993Y654*
X1999Y657*
X2009*
X2015Y654*
X2018Y651*
Y726D02*
X2015Y722D01*
X2009Y719*
X1999*
X1993Y722*
X1990Y726*
X1987Y732*
Y744*
X1990Y751*
X1993Y754*
X1999Y757*
X2009*
X2015Y754*
X2018Y751*
Y826D02*
X2015Y822D01*
X2009Y819*
X1999*
X1993Y822*
X1990Y826*
X1987Y832*
Y844*
X1990Y851*
X1993Y854*
X1999Y857*
X2009*
X2015Y854*
X2018Y851*
Y926D02*
X2015Y922D01*
X2009Y919*
X1999*
X1993Y922*
X1990Y926*
X1987Y932*
Y944*
X1990Y951*
X1993Y954*
X1999Y957*
X2009*
X2015Y954*
X2018Y951*
Y1026D02*
X2015Y1022D01*
X2009Y1019*
X1999*
X1993Y1022*
X1990Y1026*
X1987Y1032*
Y1044*
X1990Y1051*
X1993Y1054*
X1999Y1057*
X2009*
X2015Y1054*
X2018Y1051*
Y1126D02*
X2015Y1122D01*
X2009Y1119*
X1999*
X1993Y1122*
X1990Y1126*
X1987Y1132*
Y1144*
X1990Y1151*
X1993Y1154*
X1999Y1157*
X2009*
X2015Y1154*
X2018Y1151*
Y1226D02*
X2015Y1222D01*
X2009Y1219*
X1999*
X1993Y1222*
X1990Y1226*
X1987Y1232*
Y1244*
X1990Y1251*
X1993Y1254*
X1999Y1257*
X2009*
X2015Y1254*
X2018Y1251*
Y1326D02*
X2015Y1322D01*
X2009Y1319*
X1999*
X1993Y1322*
X1990Y1326*
X1987Y1332*
Y1344*
X1990Y1351*
X1993Y1354*
X1999Y1357*
X2009*
X2015Y1354*
X2018Y1351*
Y1426D02*
X2015Y1422D01*
X2009Y1419*
X1999*
X1993Y1422*
X1990Y1426*
X1987Y1432*
Y1444*
X1990Y1451*
X1993Y1454*
X1999Y1457*
X2009*
X2015Y1454*
X2018Y1451*
D02*
D108*
X87Y460D03*
Y560D03*
Y660D03*
Y760D03*
Y860D03*
Y960D03*
Y1060D03*
Y1160D03*
Y1260D03*
Y1360D03*
X207Y536D03*
Y575D03*
X305Y151D03*
Y250D03*
X333Y733D03*
X377Y646D03*
Y690D03*
Y729D03*
X424Y764D03*
Y969D03*
X487Y871D03*
X593Y969D03*
X711Y585D03*
Y625D03*
X751Y585D03*
Y625D03*
Y664D03*
Y1127D03*
X787Y152D03*
X790Y585D03*
Y625D03*
Y664D03*
Y1127D03*
X837Y764D03*
Y969D03*
X896Y871D03*
X979Y969D03*
X987Y152D03*
X1022Y1333D03*
X1023Y1270D03*
X1105Y585D03*
Y625D03*
X1108Y1095D03*
X1142Y1094D03*
X1144Y585D03*
Y625D03*
Y664D03*
X1184Y585D03*
Y625D03*
Y664D03*
X1187Y152D03*
X1227Y768D03*
Y969D03*
X1287Y1091D03*
X1290Y871D03*
X1373Y969D03*
X1499Y585D03*
Y625D03*
X1538Y585D03*
Y625D03*
Y664D03*
X1577Y585D03*
Y625D03*
Y664D03*
X1599Y154D03*
X1632Y686D03*
Y827D03*
X1691Y654D03*
Y796D03*
X1751Y623D03*
Y764D03*
X1799Y154D03*
X1887Y460D03*
Y560D03*
Y660D03*
Y760D03*
Y860D03*
Y960D03*
Y1060D03*
Y1160D03*
Y1260D03*
Y1360D03*
X0Y0D02*
M02*
