%FSLAX23Y23*%
%MOIN*%
G04 EasyPC Gerber Version 15.0.4 Build 3016 *
%ADD77R,0.02283X0.04724*%
%ADD29R,0.02559X0.06890*%
%ADD28R,0.02756X0.03543*%
%ADD26R,0.04331X0.03937*%
%ADD74R,0.06000X0.06000*%
%ADD78R,0.07874X0.07874*%
%ADD10C,0.00500*%
%ADD81C,0.01000*%
%ADD84C,0.01575*%
%ADD83C,0.01772*%
%ADD79C,0.01969*%
%ADD80C,0.02500*%
%ADD23C,0.02756*%
%ADD24C,0.03200*%
%ADD25R,0.01969X0.01575*%
%ADD76R,0.07087X0.01575*%
%ADD27R,0.03543X0.02756*%
%ADD82C,0.05000*%
%ADD75C,0.06000*%
%ADD72C,0.06500*%
%ADD73C,0.09055*%
X0Y0D02*
D02*
D10*
X3Y1461D02*
Y4D01*
X1971*
Y1461*
X3*
X231Y473D02*
Y508D01*
X247Y524*
X262*
Y571*
X239Y595*
X191*
X176Y579*
Y485*
X188Y473*
X231*
G36*
Y508*
X247Y524*
X262*
Y571*
X239Y595*
X191*
X176Y579*
Y485*
X188Y473*
X231*
G37*
X270Y709D02*
Y615D01*
X392*
Y753*
X314*
X270Y709*
G36*
Y615*
X392*
Y753*
X314*
X270Y709*
G37*
X282Y459D02*
X160Y336D01*
Y81*
X199Y42*
X396*
X436Y81*
Y398*
X475Y438*
X1508*
X1538Y408*
Y154*
X1542*
G75*
G02X1657I58*
G01*
X1845*
Y292*
X1581Y556*
X379*
X331Y507*
G75*
G02X327Y503I-21J13*
G01*
X296Y471*
G75*
G02X295Y470I-18J18*
G01*
Y459*
X282*
X305Y194D02*
G75*
G02Y109J-43D01*
G01*
G75*
G02Y194J43*
G01*
X160Y151D02*
G36*
Y81D01*
X199Y42*
X396*
X436Y81*
Y151*
X347*
G75*
G02X305Y109I-43*
G01*
G75*
G02X262Y151J43*
G01*
X160*
G37*
X262D02*
G36*
G75*
G02X305Y194I43D01*
G01*
G75*
G02X347Y151J-43*
G01*
X436*
Y398*
X475Y438*
X1508*
X1538Y408*
Y154*
X1542*
G75*
G02X1657I58*
G01*
X1845*
Y292*
X1581Y556*
X379*
X331Y507*
G75*
G02X327Y503I-21J13*
G01*
X296Y471*
G75*
G02X295Y470I-18J18*
G01*
Y459*
X282*
X160Y336*
Y151*
X262*
G37*
X530Y856D02*
Y749D01*
X554Y725*
Y542*
X585*
Y725*
X601Y749*
X604Y882*
X588*
Y938*
X530*
Y922*
X545*
Y856*
X531*
G75*
G02X530Y856I-9J20*
G01*
G36*
Y749*
X554Y725*
Y542*
X585*
Y725*
X601Y749*
X604Y882*
X588*
Y938*
X530*
Y922*
X545*
Y856*
X531*
G75*
G02X530Y856I-9J20*
G01*
G37*
X652Y780D02*
Y745D01*
X672Y717*
Y674*
X715*
X754Y725*
Y780*
X652*
G36*
Y745*
X672Y717*
Y674*
X715*
X754Y725*
Y780*
X652*
G37*
X662Y571D02*
X800D01*
Y674*
X741*
X721Y644*
X662*
Y571*
G36*
X800*
Y674*
X741*
X721Y644*
X662*
Y571*
G37*
X691Y398D02*
X485D01*
X465Y378*
Y262*
X632Y95*
X810*
X849Y134*
Y162*
X691Y398*
G36*
X485*
X465Y378*
Y262*
X632Y95*
X810*
X849Y134*
Y162*
X691Y398*
G37*
X731D02*
X878Y182D01*
Y134*
X918Y95*
X1056*
X1095Y134*
Y182*
X1243Y398*
X731*
G36*
X878Y182*
Y134*
X918Y95*
X1056*
X1095Y134*
Y182*
X1243Y398*
X731*
G37*
X924Y854D02*
Y749D01*
X947Y725*
Y543*
X979*
Y725*
X995Y749*
X997Y882*
X972*
Y938*
X924*
Y922*
X954*
Y856*
X941*
G75*
G02X932Y854I-9J20*
G01*
X924*
G36*
Y749*
X947Y725*
Y543*
X979*
Y725*
X995Y749*
X997Y882*
X972*
Y938*
X924*
Y922*
X954*
Y856*
X941*
G75*
G02X932Y854I-9J20*
G01*
X924*
G37*
X1038Y784D02*
Y749D01*
X1058Y721*
Y678*
X1101*
X1140Y729*
Y784*
X1038*
G36*
Y749*
X1058Y721*
Y678*
X1101*
X1140Y729*
Y784*
X1038*
G37*
X1048Y1141D02*
X1104Y1078D01*
X1199*
X1200Y1140*
X1132Y1141*
Y1141*
X1048*
G36*
X1104Y1078*
X1199*
X1200Y1140*
X1132Y1141*
Y1141*
X1048*
G37*
X1056Y571D02*
X1193D01*
Y674*
X1134*
X1115Y644*
X1056*
Y571*
G36*
X1193*
Y674*
X1134*
X1115Y644*
X1056*
Y571*
G37*
X1282Y398D02*
X1125Y162D01*
Y134*
X1164Y95*
X1341*
X1508Y262*
Y378*
X1489Y398*
X1282*
G36*
X1125Y162*
Y134*
X1164Y95*
X1341*
X1508Y262*
Y378*
X1489Y398*
X1282*
G37*
X1321Y854D02*
Y749D01*
X1345Y725*
Y544*
X1377*
Y725*
X1378Y727*
Y728*
X1378*
X1392Y749*
X1395Y882*
X1366*
Y938*
X1321*
Y922*
X1348*
Y856*
X1335*
G75*
G02X1325Y854I-9J20*
G01*
X1321*
G36*
Y749*
X1345Y725*
Y544*
X1377*
Y725*
X1378Y727*
Y728*
X1378*
X1392Y749*
X1395Y882*
X1366*
Y938*
X1321*
Y922*
X1348*
Y856*
X1335*
G75*
G02X1325Y854I-9J20*
G01*
X1321*
G37*
X1432Y784D02*
Y749D01*
X1451Y721*
Y678*
X1495*
X1534Y729*
Y784*
X1432*
G36*
Y749*
X1451Y721*
Y678*
X1495*
X1534Y729*
Y784*
X1432*
G37*
X1449Y571D02*
X1587D01*
Y674*
X1528*
X1508Y644*
X1449*
Y571*
G36*
X1587*
Y674*
X1528*
X1508Y644*
X1449*
Y571*
G37*
D02*
D23*
X711Y585D03*
Y625D03*
X751Y585D03*
Y625D03*
Y664D03*
X790Y585D03*
Y625D03*
Y664D03*
X1105Y585D03*
Y625D03*
X1144Y585D03*
Y625D03*
Y664D03*
X1184Y585D03*
Y625D03*
Y664D03*
X1499Y585D03*
Y625D03*
X1538Y585D03*
Y625D03*
Y664D03*
X1577Y585D03*
Y625D03*
Y664D03*
D02*
D24*
X207Y536D03*
Y575D03*
X333Y733D03*
X377Y646D03*
Y690D03*
Y729D03*
X424Y764D03*
Y969D03*
X487Y871D03*
X593Y969D03*
X751Y1127D03*
X790D03*
X837Y764D03*
Y969D03*
X896Y871D03*
X979Y969D03*
X1022Y1333D03*
X1023Y1270D03*
X1108Y1095D03*
X1142Y1094D03*
X1227Y768D03*
Y969D03*
X1287Y1091D03*
X1290Y871D03*
X1373Y969D03*
X1632Y686D03*
Y827D03*
X1691Y654D03*
Y796D03*
X1751Y623D03*
Y764D03*
D02*
D25*
X447Y877D03*
Y902D03*
Y928D03*
X522Y877D03*
Y902D03*
Y928D03*
X611Y877D03*
Y902D03*
Y928D03*
X686Y877D03*
Y902D03*
Y928D03*
X857Y877D03*
Y902D03*
Y928D03*
X932Y877D03*
Y902D03*
Y928D03*
X995Y877D03*
Y902D03*
Y928D03*
X1069Y877D03*
Y902D03*
Y928D03*
X1251Y877D03*
Y902D03*
Y928D03*
X1325Y877D03*
Y902D03*
Y928D03*
X1388Y877D03*
Y902D03*
Y928D03*
X1463Y877D03*
Y902D03*
Y928D03*
D02*
D26*
X445Y697D03*
X512D03*
X625Y695D03*
X691D03*
X841D03*
X908D03*
X1018D03*
X1085D03*
X1239Y693D03*
X1306D03*
X1412Y695D03*
X1479D03*
D02*
D27*
X487Y983D03*
Y1034D03*
X648Y983D03*
Y1034D03*
X894Y975D03*
Y1026D03*
X1031Y974D03*
Y1025D03*
X1288Y974D03*
Y1025D03*
X1427Y974D03*
Y1025D03*
X1632Y589D03*
Y640D03*
Y731D03*
Y782D03*
X1691Y558D03*
Y609D03*
Y699D03*
Y751D03*
X1751Y526D03*
Y577D03*
Y668D03*
Y719D03*
D02*
D28*
X217Y489D03*
X268D03*
X318Y896D03*
X343Y821D03*
X369Y896D03*
X469Y762D03*
Y821D03*
X520Y762D03*
Y821D03*
X613Y764D03*
Y823D03*
X664Y764D03*
Y823D03*
X743Y756D03*
Y969D03*
X768Y831D03*
Y894D03*
X794Y756D03*
Y969D03*
X878Y764D03*
Y823D03*
X930Y764D03*
Y823D03*
X997Y764D03*
Y823D03*
X1048Y764D03*
Y823D03*
X1128Y756D03*
Y969D03*
X1154Y831D03*
Y894D03*
X1180Y756D03*
Y969D03*
X1189Y1093D03*
X1240D03*
X1272Y764D03*
Y823D03*
X1323Y764D03*
Y823D03*
X1390Y764D03*
Y823D03*
X1441Y764D03*
Y823D03*
X1524Y756D03*
X1550Y831D03*
X1575Y756D03*
D02*
D29*
X518Y386D03*
Y607D03*
X568Y386D03*
Y607D03*
X618Y386D03*
Y607D03*
X668Y386D03*
Y607D03*
X912Y386D03*
Y607D03*
X962Y386D03*
Y607D03*
X1012Y386D03*
Y607D03*
X1062Y386D03*
Y607D03*
X1305Y386D03*
Y607D03*
X1355Y386D03*
Y607D03*
X1405Y386D03*
Y607D03*
X1455Y386D03*
Y607D03*
D02*
D72*
X87Y460D03*
Y560D03*
Y660D03*
Y760D03*
Y860D03*
Y960D03*
Y1060D03*
Y1160D03*
Y1260D03*
Y1360D03*
X1887Y460D03*
Y560D03*
Y660D03*
Y760D03*
Y860D03*
Y960D03*
Y1060D03*
Y1160D03*
Y1260D03*
Y1360D03*
D02*
D73*
X787Y152D03*
X987D03*
X1187D03*
X1599Y154D03*
X1799D03*
D02*
D74*
X305Y250D03*
D02*
D75*
Y151D03*
D02*
D76*
X860Y1135D03*
Y1161D03*
Y1187D03*
Y1212D03*
Y1238D03*
Y1263D03*
Y1289D03*
Y1315D03*
Y1340D03*
Y1366D03*
X1084Y1135D03*
Y1161D03*
Y1187D03*
Y1212D03*
Y1238D03*
Y1263D03*
Y1289D03*
Y1315D03*
Y1340D03*
Y1366D03*
D02*
D77*
X251Y548D03*
X310D03*
X369D03*
D02*
D78*
X310Y670D03*
D02*
D79*
X447Y890D02*
Y877D01*
Y902D02*
Y890D01*
Y928D02*
Y945D01*
X424Y969*
X522Y877D02*
X493D01*
X487Y871*
X611Y928D02*
Y951D01*
X593Y969*
X686Y902D02*
X664D01*
X652Y890*
Y867*
X664Y855*
Y823*
X686Y902D02*
X715D01*
X727Y890*
Y839*
X735Y831*
X768*
X686Y902D02*
Y928D01*
X751Y1127D02*
X790D01*
X857Y877D02*
Y902D01*
Y928D02*
Y949D01*
X837Y969*
X860Y1135D02*
X799D01*
X790Y1127*
X932Y877D02*
X902D01*
X896Y871*
X995Y928D02*
Y953D01*
X979Y969*
X1069Y902D02*
X1046D01*
X1034Y890*
Y867*
X1046Y855*
Y825*
X1048Y823*
X1069Y902D02*
X1097D01*
X1109Y890*
Y839*
X1117Y831*
X1154*
X1069Y928D02*
Y902D01*
X1189Y1093D02*
Y1094D01*
X1109*
X1251Y877D02*
Y890D01*
Y902*
Y928D02*
Y945D01*
X1227Y969*
X1325Y877D02*
X1296D01*
X1290Y871*
X1388Y928D02*
Y953D01*
X1373Y969*
X1463Y902D02*
X1440D01*
X1428Y890*
Y863*
X1440Y851*
Y825*
X1441Y823*
X1463Y902D02*
Y928D01*
Y902D02*
X1495D01*
X1506Y890*
Y843*
X1518Y831*
X1550*
X1887Y460D02*
X1846D01*
X1790Y516*
Y778*
X1435Y1133*
X1120*
D02*
D80*
X217Y489D02*
Y514D01*
X251Y548*
X268Y489D02*
X278D01*
X310Y520*
Y548*
X424Y764D02*
X467D01*
X469Y762*
X424Y969D02*
X422D01*
X371Y918*
Y898*
X369Y896*
X445Y697D02*
Y739D01*
X469Y762*
X447Y877D02*
Y843D01*
X469Y821*
X447Y890D02*
Y840D01*
X466Y821*
X378Y821*
X343*
X518Y607D02*
Y692D01*
X512Y697*
X618Y607D02*
Y689D01*
X625Y695*
X768Y894D02*
X849D01*
X857Y902*
X837Y764D02*
X878D01*
X837Y969D02*
X794D01*
X841Y695D02*
Y727D01*
X878Y764*
X857Y877D02*
Y845D01*
X878Y823*
X912Y607D02*
Y692D01*
X908Y695*
X1012Y607D02*
Y689D01*
X1018Y695*
X1154Y894D02*
X1247D01*
X1251Y890*
X1227Y768D02*
X1268D01*
X1272Y764*
X1227Y969D02*
X1180D01*
X1239Y693D02*
Y731D01*
X1272Y764*
X1251Y877D02*
Y845D01*
X1272Y823*
X1305Y607D02*
Y693D01*
X1306Y693*
X1405Y607D02*
Y689D01*
X1412Y695*
D02*
D81*
X87Y860D02*
X65D01*
Y858*
X87Y879*
X88*
X443Y1238*
X860*
X522Y902D02*
X502D01*
X487Y918*
Y983*
X611Y902D02*
X632D01*
X648Y918*
Y983*
X686Y877D02*
X699Y863D01*
Y768*
X691Y760*
X860Y1161D02*
X461D01*
X293Y993*
Y766*
X87Y560*
X860Y1187D02*
X456D01*
X266Y997*
Y840*
X87Y660*
X860Y1212D02*
Y1214D01*
X451*
X237Y1000*
Y910*
X87Y760*
X860Y1263D02*
X440D01*
X138Y961*
X88*
X87Y960*
X860Y1289D02*
X436D01*
X204Y1058*
X89*
X87Y1060*
X860Y1315D02*
X901D01*
X911Y1305*
Y1106*
X896Y1091*
X544*
X487Y1034*
X860Y1315D02*
X431D01*
X283Y1167*
X94*
X87Y1160*
X860Y1340D02*
X920D01*
X933Y1327*
Y1095*
X909Y1071*
X686*
X648Y1034*
X860Y1340D02*
X424D01*
X338Y1254*
X92*
X87Y1260*
X860Y1366D02*
X928D01*
X951Y1342*
Y1057*
X921Y1026*
X894*
X860Y1366D02*
X92D01*
X87Y1360*
X932Y902D02*
X916D01*
X894Y924*
Y975*
X995Y902D02*
X1010D01*
X1034Y926*
Y971*
X1031Y974*
X1023Y1270D02*
Y1125D01*
X1089Y1059*
X1399*
X1427Y1031*
Y1025*
X1069Y877D02*
Y875D01*
X1081Y863*
Y768*
X1084Y1161D02*
X1443D01*
X1816Y788*
Y633*
X1887Y563*
Y560*
X1084Y1187D02*
X1448D01*
X1837Y798*
Y708*
X1885Y660*
X1887*
X1084Y1212D02*
X1451D01*
X1866Y798*
Y781*
X1887Y760*
X1084Y1238D02*
X1455D01*
X1834Y859*
X1886*
X1887Y860*
X1084Y1263D02*
X1458D01*
X1761Y960*
X1887*
X1887Y960*
X1084Y1289D02*
X1462D01*
X1691Y1060*
X1886*
X1887Y1060*
X1084Y1315D02*
X1048D01*
X1036Y1303*
X1008*
X996Y1290*
Y1120*
X1080Y1035*
X1278*
X1288Y1025*
X1084Y1315D02*
X1465D01*
X1617Y1163*
X1884*
X1887Y1160*
X1084Y1340D02*
Y1339D01*
X1470*
X1554Y1255*
X1882*
X1887Y1260*
X1084Y1340D02*
X1029D01*
X1022Y1333*
X1084Y1366D02*
X1000D01*
X974Y1340*
Y1055*
X1003Y1025*
X1031*
X1084Y1366D02*
X1881D01*
X1887Y1360*
X1240Y1093D02*
X1285D01*
X1287Y1091*
X1325Y902D02*
X1326Y902D01*
X1310*
X1288Y924*
Y974*
X1388Y902D02*
X1404D01*
X1427Y925*
Y974*
X1463Y877D02*
X1465D01*
X1475Y867*
Y776*
X1463Y764*
X1632Y589D02*
X1629D01*
Y556*
X1870Y315*
Y128*
X1829Y87*
X1349*
X1337Y99*
X1632Y640D02*
Y686D01*
Y731D02*
Y686D01*
Y782D02*
Y827D01*
X1691Y558D02*
X1689D01*
Y529*
X1889Y328*
Y120*
X1837Y67*
X1085*
X1057Y96*
X1691Y609D02*
Y654D01*
Y699D02*
Y654D01*
Y751D02*
Y796D01*
X1751Y526D02*
Y501D01*
X1909Y342*
Y112*
X1845Y48*
X861*
X812Y97*
X1751Y577D02*
Y623D01*
Y668D02*
Y623D01*
Y719D02*
Y764D01*
D02*
D82*
X310Y548D02*
Y670D01*
D02*
D83*
X1120Y1133D02*
X1084Y1135D01*
D02*
D84*
X1109Y1094D02*
X1066Y1136D01*
X1084*
Y1135*
X0Y0D02*
M02*
