%FSLAX23Y23*%
%MOIN*%
G04 EasyPC Gerber Version 15.0.4 Build 3016 *
%ADD97R,0.02883X0.05324*%
%ADD91R,0.03159X0.07490*%
%ADD90R,0.03356X0.04143*%
%ADD88R,0.04931X0.04537*%
%ADD94R,0.06600X0.06600*%
%ADD98R,0.08474X0.08474*%
%ADD10C,0.00500*%
%ADD87R,0.02569X0.02175*%
%ADD96R,0.07687X0.02175*%
%ADD85C,0.03356*%
%ADD86C,0.03800*%
%ADD95C,0.06600*%
%ADD92C,0.07100*%
%ADD89R,0.04143X0.03356*%
%ADD93C,0.09655*%
X0Y0D02*
D02*
D10*
X3Y1722D02*
Y266D01*
X1971*
Y1722*
X3*
D02*
D85*
X711Y846D03*
Y886D03*
X751Y846D03*
Y886D03*
Y925D03*
X790Y846D03*
Y886D03*
Y925D03*
X1105Y846D03*
Y886D03*
X1144Y846D03*
Y886D03*
Y925D03*
X1184Y846D03*
Y886D03*
Y925D03*
X1499Y846D03*
Y886D03*
X1538Y846D03*
Y886D03*
Y925D03*
X1577Y846D03*
Y886D03*
Y925D03*
D02*
D86*
X207Y797D03*
Y836D03*
X333Y994D03*
X377Y907D03*
Y951D03*
Y990D03*
X424Y1025D03*
Y1230D03*
X487Y1132D03*
X593Y1230D03*
X751Y1388D03*
X790D03*
X837Y1025D03*
Y1230D03*
X896Y1132D03*
X979Y1230D03*
X1022Y1594D03*
X1023Y1531D03*
X1108Y1356D03*
X1142Y1355D03*
X1227Y1029D03*
Y1230D03*
X1287Y1352D03*
X1290Y1132D03*
X1373Y1230D03*
X1632Y947D03*
Y1088D03*
X1691Y915D03*
Y1057D03*
X1751Y884D03*
Y1025D03*
D02*
D87*
X447Y1138D03*
Y1163D03*
Y1189D03*
X522Y1138D03*
Y1163D03*
Y1189D03*
X611Y1138D03*
Y1163D03*
Y1189D03*
X686Y1138D03*
Y1163D03*
Y1189D03*
X857Y1138D03*
Y1163D03*
Y1189D03*
X932Y1138D03*
Y1163D03*
Y1189D03*
X995Y1138D03*
Y1163D03*
Y1189D03*
X1069Y1138D03*
Y1163D03*
Y1189D03*
X1251Y1138D03*
Y1163D03*
Y1189D03*
X1325Y1138D03*
Y1163D03*
Y1189D03*
X1388Y1138D03*
Y1163D03*
Y1189D03*
X1463Y1138D03*
Y1163D03*
Y1189D03*
D02*
D88*
X445Y958D03*
X512D03*
X625Y957D03*
X691D03*
X841D03*
X908D03*
X1018D03*
X1085D03*
X1239Y955D03*
X1306D03*
X1412Y957D03*
X1479D03*
D02*
D89*
X487Y1244D03*
Y1295D03*
X648Y1244D03*
Y1295D03*
X894Y1236D03*
Y1287D03*
X1031Y1235D03*
Y1286D03*
X1288Y1235D03*
Y1286D03*
X1427Y1235D03*
Y1286D03*
X1632Y850D03*
Y901D03*
Y992D03*
Y1043D03*
X1691Y819D03*
Y870D03*
Y960D03*
Y1012D03*
X1751Y787D03*
Y838D03*
Y929D03*
Y980D03*
D02*
D90*
X217Y750D03*
X268D03*
X318Y1157D03*
X343Y1082D03*
X369Y1157D03*
X469Y1023D03*
Y1082D03*
X520Y1023D03*
Y1082D03*
X613Y1025D03*
Y1084D03*
X664Y1025D03*
Y1084D03*
X743Y1018D03*
Y1230D03*
X768Y1092D03*
Y1155D03*
X794Y1018D03*
Y1230D03*
X878Y1025D03*
Y1084D03*
X930Y1025D03*
Y1084D03*
X997Y1025D03*
Y1084D03*
X1048Y1025D03*
Y1084D03*
X1128Y1018D03*
Y1230D03*
X1154Y1092D03*
Y1155D03*
X1180Y1018D03*
Y1230D03*
X1189Y1354D03*
X1240D03*
X1272Y1025D03*
Y1084D03*
X1323Y1025D03*
Y1084D03*
X1390Y1025D03*
Y1084D03*
X1441Y1025D03*
Y1084D03*
X1524Y1018D03*
X1550Y1092D03*
X1575Y1018D03*
D02*
D91*
X518Y647D03*
Y868D03*
X568Y647D03*
Y868D03*
X618Y647D03*
Y868D03*
X668Y647D03*
Y868D03*
X912Y647D03*
Y868D03*
X962Y647D03*
Y868D03*
X1012Y647D03*
Y868D03*
X1062Y647D03*
Y868D03*
X1305Y647D03*
Y868D03*
X1355Y647D03*
Y868D03*
X1405Y647D03*
Y868D03*
X1455Y647D03*
Y868D03*
D02*
D92*
X87Y721D03*
Y821D03*
Y921D03*
Y1021D03*
Y1121D03*
Y1221D03*
Y1321D03*
Y1421D03*
Y1521D03*
Y1621D03*
X1887Y721D03*
Y821D03*
Y921D03*
Y1021D03*
Y1121D03*
Y1221D03*
Y1321D03*
Y1421D03*
Y1521D03*
Y1621D03*
D02*
D93*
X787Y413D03*
X987D03*
X1187D03*
X1599Y415D03*
X1799D03*
D02*
D94*
X305Y511D03*
D02*
D95*
Y412D03*
D02*
D96*
X860Y1396D03*
Y1422D03*
Y1448D03*
Y1473D03*
Y1499D03*
Y1524D03*
Y1550D03*
Y1576D03*
Y1601D03*
Y1627D03*
X1084Y1396D03*
Y1422D03*
Y1448D03*
Y1473D03*
Y1499D03*
Y1524D03*
Y1550D03*
Y1576D03*
Y1601D03*
Y1627D03*
D02*
D97*
X251Y809D03*
X310D03*
X369D03*
D02*
D98*
X310Y931D03*
X0Y0D02*
M02*
