%FSLAX23Y23*%
%MOIN*%
G04 EasyPC Gerber Version 15.0.4 Build 3016 *
%ADD16C,0.00100*%
%ADD71C,0.00128*%
%ADD19C,0.00197*%
%ADD12C,0.00276*%
%ADD17C,0.00315*%
%ADD15C,0.00354*%
%ADD13C,0.00394*%
%ADD70C,0.00400*%
%ADD10C,0.00500*%
%ADD18C,0.00591*%
%ADD20C,0.00600*%
%ADD14C,0.00787*%
%ADD22C,0.00800*%
%ADD11C,0.01181*%
%ADD21C,0.01600*%
X0Y0D02*
D02*
D10*
X37Y1706D02*
Y706D01*
X137*
Y1706*
X37*
X50Y1735D02*
X53Y1732D01*
X59Y1729*
X66Y1732*
X69Y1735*
Y1767*
X75*
X69D02*
X56D01*
X106Y1729D02*
X119D01*
X112D02*
Y1767D01*
X106Y1760*
X54Y1812D02*
X502D01*
Y2111*
X54*
Y1812*
X168Y794D02*
X803D01*
Y859*
X168*
Y794*
X803*
Y978*
X168*
Y794*
X281Y1199D02*
G75*
G03X354Y1149I36J-25D01*
G01*
G75*
G03X281Y1199I-36J25*
G01*
X336Y1819D02*
X461Y1694D01*
X416Y1649*
Y1650*
X247Y1819*
Y2011*
X248Y2012*
X435*
X436Y2011*
Y1819*
X437Y1819*
X336*
X372Y1666D02*
X327Y1622D01*
X120Y1830*
X119Y2014*
X233*
Y1806*
X372Y1666*
X475Y1341D02*
X373D01*
Y1303*
X475*
Y1341*
X523Y1174D02*
X572D01*
Y1253*
X523*
Y1174*
X548Y2054D02*
X551Y2051D01*
X558Y2048*
X564Y2051*
X567Y2054*
Y2086*
X573*
X567D02*
X555D01*
X601Y2051D02*
X608Y2048D01*
X614*
X620Y2051*
X623Y2058*
X620Y2064*
X614Y2067*
X608*
X614D02*
X620Y2070D01*
X623Y2076*
X620Y2083*
X614Y2086*
X608*
X601Y2083*
X667Y1814D02*
X1306D01*
Y2113*
X667*
Y1814*
X692Y1696D02*
X495D01*
Y1544*
X692*
Y1696*
X710Y1253D02*
X661D01*
Y1174*
X710*
Y1253*
X871Y1203D02*
X770D01*
Y1165*
X871*
Y1203*
Y1341D02*
X769D01*
Y1305*
X871*
Y1341*
X917Y1174D02*
X966D01*
Y1253*
X917*
Y1174*
X967Y1051D02*
Y1022D01*
X970Y1016*
X976Y1013*
X988*
X995Y1016*
X998Y1022*
Y1051*
X1023Y1013D02*
X1035D01*
X1029D02*
Y1051D01*
X1023Y1044*
X1084Y1695D02*
X889D01*
Y1543*
X1084*
Y1695*
X1104Y1253D02*
X1055D01*
Y1174*
X1104*
Y1253*
X1159Y998D02*
Y732D01*
X844*
Y998*
X987*
Y983*
X1016*
Y998*
X1159*
X1256Y1202D02*
X1154D01*
Y1166*
X1256*
Y1202*
Y1340D02*
X1154D01*
Y1304*
X1256*
Y1340*
X1301Y1174D02*
X1350D01*
Y1253*
X1301*
Y1174*
X1341Y2051D02*
X1345Y2048D01*
X1351Y2045*
X1357Y2048*
X1360Y2051*
Y2082*
X1366*
X1360D02*
X1348D01*
X1407Y2045D02*
Y2082D01*
X1391Y2057*
X1416*
X1479Y1696D02*
X1283D01*
Y1541*
X1479*
Y1696*
X1513Y1253D02*
X1464D01*
Y1174*
X1513*
Y1253*
X1617Y927D02*
X1589Y932D01*
X1588Y934*
X1579Y954*
X1579Y956*
X1595Y979*
X1595Y981*
X1575Y1001*
X1573Y1002*
X1549Y985*
X1547Y985*
X1528Y993*
X1526Y995*
X1521Y1023*
X1519Y1025*
X1491*
X1489Y1023*
X1484Y995*
X1482Y993*
X1463Y985*
X1461Y985*
X1437Y1002*
X1435Y1001*
X1415Y981*
X1414Y979*
X1431Y956*
X1431Y954*
X1422Y934*
X1421Y932*
X1393Y927*
X1392Y926*
Y897*
X1393Y895*
X1420Y890*
X1422Y889*
X1430Y868*
X1430Y866*
X1414Y843*
X1415Y841*
X1435Y821*
X1437Y821*
X1459Y836*
X1461Y836*
X1471Y831*
X1472Y831*
X1492Y880*
X1492Y882*
X1489Y883*
X1488Y884*
X1477Y896*
X1473Y911*
X1476Y923*
X1483Y933*
X1493Y940*
X1505Y943*
X1517Y940*
X1527Y933*
X1534Y923*
X1537Y911*
X1533Y896*
X1522Y884*
X1520Y883*
X1518Y882*
X1517Y880*
X1538Y831*
X1539Y831*
X1549Y836*
X1551Y836*
X1573Y821*
X1575Y821*
X1595Y841*
X1595Y843*
X1580Y866*
X1580Y868*
X1588Y889*
X1590Y890*
X1617Y895*
X1618Y897*
X1618Y926*
X1617Y927*
X1669Y1748D02*
G75*
G03Y2083J167D01*
G01*
G75*
G03Y1748J-167*
G01*
Y1774D02*
Y1821D01*
Y2018D02*
Y2061D01*
X1682Y1276D02*
X1578D01*
Y1239*
X1682*
Y1276*
X1692Y1797D02*
X1645D01*
X1823Y2053D02*
X1819Y2050D01*
X1813Y2047*
X1804*
X1798Y2050*
X1794Y2053*
X1791Y2060*
Y2072*
X1794Y2078*
X1798Y2081*
X1804Y2085*
X1813*
X1819Y2081*
X1823Y2078*
X1848Y2047D02*
X1860D01*
X1854D02*
Y2085D01*
X1848Y2078*
X1837Y1706D02*
Y706D01*
X1937*
Y1706*
X1837*
X1971Y655D02*
Y2111D01*
X3*
Y655*
X1971*
D02*
D11*
X608Y1833D02*
X603Y1828D01*
X593Y1823*
X578*
X569Y1828*
X564Y1833*
X559Y1843*
Y1862*
X564Y1872*
X569Y1877*
X578Y1882*
X593*
X603Y1877*
X608Y1872*
X851Y1954D02*
Y1984D01*
X812Y2023*
X631Y2024*
X463Y1855*
Y1737*
X485Y1716*
X692Y1717*
X851Y1954*
X1147Y1768D02*
X1157Y1764D01*
X1162Y1754*
X1157Y1744*
X1147Y1739*
X1113*
Y1798*
X1147*
X1157Y1793*
X1162Y1783*
X1157Y1773*
X1147Y1768*
X1113*
X1245Y1717D02*
X1096Y1934D01*
Y1981*
X1057Y2022*
X915*
X877Y1983*
Y1935*
X727Y1718*
X1245Y1717*
X1351Y1831D02*
X1376Y1890D01*
X1400Y1831*
X1361Y1856D02*
X1390D01*
X1510Y1855D02*
X1509Y1737D01*
X1488Y1717*
X1280Y1718*
X1124Y1954*
X1123Y1982*
X1164Y2023*
X1342*
X1510Y1855*
D02*
D12*
X712Y1614D02*
Y1624D01*
X715Y1629*
X717Y1631*
X722Y1634*
X727*
X732Y1631*
X734Y1629*
X737Y1624*
Y1614*
X734Y1609*
X732Y1607*
X727Y1604*
X722*
X717Y1607*
X715Y1609*
X712Y1614*
X729Y1612D02*
X737Y1604D01*
X751Y1607D02*
X756Y1604D01*
X764*
X769Y1607*
X771Y1612*
Y1614*
X769Y1619*
X764Y1622*
X751*
Y1634*
X771*
X1104Y1615D02*
Y1624D01*
X1106Y1629*
X1109Y1632*
X1114Y1634*
X1119*
X1123Y1632*
X1126Y1629*
X1128Y1624*
Y1615*
X1126Y1610*
X1123Y1607*
X1119Y1605*
X1114*
X1109Y1607*
X1106Y1610*
X1104Y1615*
X1121Y1612D02*
X1128Y1605D01*
X1143Y1612D02*
X1146Y1617D01*
X1151Y1619*
X1155*
X1160Y1617*
X1163Y1612*
X1160Y1607*
X1155Y1605*
X1151*
X1146Y1607*
X1143Y1612*
Y1619*
X1146Y1627*
X1151Y1632*
X1155Y1634*
X1499Y1616D02*
Y1626D01*
X1501Y1631*
X1504Y1634*
X1509Y1636*
X1514*
X1518Y1634*
X1521Y1631*
X1523Y1626*
Y1616*
X1521Y1612*
X1518Y1609*
X1514Y1607*
X1509*
X1504Y1609*
X1501Y1612*
X1499Y1616*
X1516Y1614D02*
X1523Y1607D01*
X1546D02*
X1550Y1609D01*
X1555Y1614*
X1558Y1621*
Y1629*
X1555Y1634*
X1550Y1636*
X1546*
X1541Y1634*
X1538Y1629*
X1541Y1624*
X1546Y1621*
X1550*
X1555Y1624*
X1558Y1629*
D02*
D13*
X222Y1801D02*
X206Y1764D01*
X243Y1779*
X230Y1740D02*
X256Y1766D01*
X272Y1751*
X274Y1744*
X272Y1738*
X265Y1736*
X259Y1738*
X243Y1753*
X291Y1731D02*
X267Y1703D01*
X289Y1707*
X285Y1686*
X313Y1709*
X300Y1670D02*
X326Y1696D01*
X341Y1681*
X343Y1675*
X341Y1668*
X335Y1666*
X328Y1668*
X313Y1683*
X328Y1668D02*
X322Y1649D01*
X245Y747D02*
Y757D01*
X247Y762*
X250Y765*
X255Y767*
X260*
X265Y765*
X267Y762*
X269Y757*
Y747*
X267Y742*
X265Y740*
X260Y738*
X255*
X250Y740*
X247Y742*
X245Y747*
X304Y755D02*
X299Y757D01*
X292*
X287Y755*
X284Y750*
Y745*
X287Y740*
X292Y738*
X299*
X304Y740*
X328Y757D02*
X338D01*
X333Y762D02*
Y740D01*
X336Y738*
X338*
X341Y740*
X363Y745D02*
X365Y740D01*
X370Y738*
X375*
X380Y740*
X383Y745*
Y750*
X380Y755*
X375Y757*
X370*
X365Y755*
X363Y750*
Y745*
X402D02*
X405Y740D01*
X410Y738*
X415*
X420Y740*
X422Y745*
Y750*
X420Y755*
X415Y757*
X410*
X405Y755*
X402Y750*
Y738D02*
Y767D01*
X461Y740D02*
X459Y738D01*
X454*
X449*
X444Y740*
X442Y745*
Y752*
X444Y755*
X449Y757*
X454*
X459Y755*
X461Y752*
Y750*
X459Y747*
X454Y745*
X449*
X444Y747*
X442Y750*
X481Y738D02*
Y757D01*
Y750D02*
X484Y755D01*
X488Y757*
X493*
X498Y755*
X579Y738D02*
X560D01*
X577Y755*
X579Y760*
X577Y765*
X572Y767*
X565*
X560Y765*
X602Y740D02*
X607Y738D01*
X611*
X616Y740*
X619Y745*
Y760*
X616Y765*
X611Y767*
X607*
X602Y765*
X599Y760*
Y745*
X602Y740*
X616Y765*
X643Y738D02*
X653D01*
X648D02*
Y767D01*
X643Y762*
X698Y738D02*
X678D01*
X695Y755*
X698Y760*
X695Y765*
X690Y767*
X683*
X678Y765*
X334Y1770D02*
X341Y1764D01*
X339Y1762*
X332Y1759*
X328*
X321Y1762*
X317Y1766*
X315Y1773*
X315Y1777*
X317Y1783*
X326Y1792*
X332Y1794*
X337*
X343Y1792*
X347Y1788*
X350Y1781*
X350Y1777*
X347Y1770*
X343Y1740D02*
X369Y1766D01*
X365Y1718*
X391Y1744*
X378Y1705D02*
X404Y1731D01*
X417Y1718*
X419Y1712*
Y1707*
X417Y1701*
X408Y1692*
X402Y1690*
X397*
X391Y1692*
X378Y1705*
X1846Y1732D02*
X1849Y1729D01*
X1856Y1726*
X1862Y1729*
X1865Y1732*
Y1763*
X1871*
X1865D02*
X1853D01*
X1920Y1726D02*
X1896D01*
X1917Y1748*
X1920Y1754*
X1917Y1760*
X1911Y1763*
X1902*
X1896Y1760*
D02*
D14*
X216Y923D02*
X223Y920D01*
X226Y913*
X223Y907*
X216Y904*
X194*
Y942*
X216*
X223Y939*
X226Y932*
X223Y926*
X216Y923*
X194*
X245Y942D02*
Y904D01*
X277*
X296D02*
Y942D01*
X315*
X322Y939*
X325Y936*
X328Y929*
Y916*
X325Y910*
X322Y907*
X315Y904*
X296*
X379Y910D02*
X376Y907D01*
X370Y904*
X360*
X354Y907*
X350Y910*
X347Y916*
Y929*
X350Y936*
X354Y939*
X360Y942*
X370*
X376Y939*
X379Y936*
X472Y923D02*
X478Y920D01*
X482Y913*
X478Y907*
X472Y904*
X450*
Y942*
X472*
X478Y939*
X482Y932*
X478Y926*
X472Y923*
X450*
X501Y913D02*
X504Y907D01*
X510Y904*
X517*
X523Y907*
X526Y913*
Y920*
X523Y926*
X517Y929*
X510*
X504Y926*
X501Y920*
Y913*
X552D02*
X555Y907D01*
X562Y904*
X568*
X574Y907*
X578Y913*
Y920*
X574Y926*
X568Y929*
X562*
X555Y926*
X552Y920*
Y913*
X603Y907D02*
X610Y904D01*
X622*
X629Y907*
Y913*
X622Y916*
X610*
X603Y920*
Y926*
X610Y929*
X622*
X629Y926*
X661Y929D02*
X674D01*
X667Y936D02*
Y907D01*
X670Y904*
X674*
X677Y907*
X731D02*
X728Y904D01*
X722*
X715*
X709Y907*
X706Y913*
Y923*
X709Y926*
X715Y929*
X722*
X728Y926*
X731Y923*
Y920*
X728Y916*
X722Y913*
X715*
X709Y916*
X706Y920*
X757Y904D02*
Y929D01*
Y920D02*
X760Y926D01*
X766Y929*
X773*
X779Y926*
D02*
D15*
X181Y835D02*
Y823D01*
X183Y821*
X186*
X188Y823*
Y828*
Y823D02*
X189Y821D01*
X193*
X194Y823*
Y835*
X208D02*
Y823D01*
X209Y821*
X213*
X214Y823*
Y828*
Y823D02*
X216Y821D01*
X219*
X221Y823*
Y835*
X234D02*
Y823D01*
X236Y821*
X240*
X241Y823*
Y828*
Y823D02*
X243Y821D01*
X246*
X248Y823*
Y835*
X263Y821D02*
X265Y823D01*
X263Y825*
X261Y823*
X263Y821*
X301Y830D02*
X300Y833D01*
X296Y835*
X293*
X290Y833*
X288Y830*
Y826*
X290Y823*
X293Y821*
X296*
X300Y823*
X301Y826*
Y821D02*
Y841D01*
X315Y826D02*
X316Y823D01*
X320Y821*
X323*
X327Y823*
X328Y826*
Y830*
X327Y833*
X323Y835*
X320*
X316Y833*
X315Y830*
Y826*
X345Y835D02*
X352D01*
X348Y838D02*
Y823D01*
X350Y821*
X352*
X353Y823*
X368Y828D02*
X382D01*
X409Y823D02*
X407Y821D01*
X403*
X400*
X397Y823*
X395Y826*
Y831*
X397Y833*
X400Y835*
X403*
X407Y833*
X409Y831*
Y830*
X407Y828*
X403Y826*
X400*
X397Y828*
X395Y830*
X430Y821D02*
X429D01*
Y841*
X462Y823D02*
X460Y821D01*
X457*
X454*
X450Y823*
X449Y826*
Y831*
X450Y833*
X454Y835*
X457*
X460Y833*
X462Y831*
Y830*
X460Y828*
X457Y826*
X454*
X450Y828*
X449Y830*
X489Y833D02*
X485Y835D01*
X480*
X477Y833*
X475Y830*
Y826*
X477Y823*
X480Y821*
X485*
X489Y823*
X506Y835D02*
X512D01*
X509Y838D02*
Y823D01*
X511Y821*
X512*
X514Y823*
X529Y821D02*
Y835D01*
Y830D02*
X531Y833D01*
X534Y835*
X537*
X541Y833*
X556Y826D02*
X557Y823D01*
X561Y821*
X564*
X567Y823*
X569Y826*
Y830*
X567Y833*
X564Y835*
X561*
X557Y833*
X556Y830*
Y826*
X583Y821D02*
Y835D01*
Y830D02*
X584Y833D01*
X588Y835*
X591*
X594Y833*
X596Y830*
Y821*
X616D02*
Y835D01*
Y840D02*
X649Y833*
X646Y835D01*
X641*
X638Y833*
X636Y830*
Y826*
X638Y823*
X641Y821*
X646*
X649Y823*
X663D02*
X666Y821D01*
X673*
X676Y823*
Y826*
X673Y828*
X666*
X663Y830*
Y833*
X666Y835*
X673*
X676Y833*
X691Y821D02*
X693Y823D01*
X691Y825*
X690Y823*
X691Y821*
X730Y833D02*
X726Y835D01*
X721*
X718Y833*
X716Y830*
Y826*
X718Y823*
X721Y821*
X726*
X730Y823*
X743Y826D02*
X745Y823D01*
X748Y821*
X752*
X755Y823*
X757Y826*
Y830*
X755Y833*
X752Y835*
X748*
X745Y833*
X743Y830*
Y826*
X770Y821D02*
Y835D01*
Y833D02*
X772Y835D01*
X775*
X777Y833*
Y828*
Y833D02*
X778Y835D01*
X782*
X783Y833*
Y821*
D02*
D16*
X204Y1364D02*
Y1480D01*
X242*
Y1364*
X204*
Y1506D02*
Y1622D01*
X242*
Y1506*
X204*
X235Y1415D02*
Y1430D01*
X211*
Y1415*
X235*
G36*
Y1430*
X211*
Y1415*
X235*
G37*
Y1556D02*
Y1572D01*
X211*
Y1556*
X235*
G36*
Y1572*
X211*
Y1556*
X235*
G37*
X235Y1401D02*
Y1412D01*
X211*
Y1401*
X235*
G36*
Y1412*
X211*
Y1401*
X235*
G37*
Y1433D02*
Y1444D01*
X211*
Y1433*
X235*
G36*
Y1444*
X211*
Y1433*
X235*
G37*
Y1542D02*
Y1554D01*
X211*
Y1542*
X235*
G36*
Y1554*
X211*
Y1542*
X235*
G37*
Y1574D02*
Y1586D01*
X211*
Y1574*
X235*
G36*
Y1586*
X211*
Y1574*
X235*
G37*
X237Y1414D02*
Y1430D01*
X209*
Y1414*
X237*
G36*
Y1430*
X209*
Y1414*
X237*
G37*
Y1556D02*
Y1572D01*
X209*
Y1556*
X237*
G36*
Y1572*
X209*
Y1556*
X237*
G37*
X263Y1333D02*
Y1449D01*
X301*
Y1333*
X263*
Y1475D02*
Y1591D01*
X301*
Y1475*
X263*
X294Y1383D02*
Y1399D01*
X270*
Y1383*
X294*
G36*
Y1399*
X270*
Y1383*
X294*
G37*
Y1525D02*
Y1540D01*
X270*
Y1525*
X294*
G36*
Y1540*
X270*
Y1525*
X294*
G37*
X294Y1369D02*
Y1381D01*
X270*
Y1369*
X294*
G36*
Y1381*
X270*
Y1369*
X294*
G37*
Y1401D02*
Y1413D01*
X270*
Y1401*
X294*
G36*
Y1413*
X270*
Y1401*
X294*
G37*
Y1511D02*
Y1523D01*
X270*
Y1511*
X294*
G36*
Y1523*
X270*
Y1511*
X294*
G37*
Y1543D02*
Y1555D01*
X270*
Y1543*
X294*
G36*
Y1555*
X270*
Y1543*
X294*
G37*
X296Y1383D02*
Y1399D01*
X268*
Y1383*
X296*
G36*
Y1399*
X268*
Y1383*
X296*
G37*
Y1525D02*
Y1541D01*
X268*
Y1525*
X296*
G36*
Y1541*
X268*
Y1525*
X296*
G37*
X322Y1301D02*
Y1417D01*
X360*
Y1301*
X322*
Y1443D02*
Y1559D01*
X360*
Y1443*
X322*
X353Y1352D02*
Y1367D01*
X329*
Y1352*
X353*
G36*
Y1367*
X329*
Y1352*
X353*
G37*
Y1493D02*
Y1509D01*
X329*
Y1493*
X353*
G36*
Y1509*
X329*
Y1493*
X353*
G37*
X353Y1338D02*
Y1349D01*
X329*
Y1338*
X353*
G36*
Y1349*
X329*
Y1338*
X353*
G37*
Y1370D02*
Y1381D01*
X329*
Y1370*
X353*
G36*
Y1381*
X329*
Y1370*
X353*
G37*
Y1479D02*
Y1491D01*
X329*
Y1479*
X353*
G36*
Y1491*
X329*
Y1479*
X353*
G37*
Y1511D02*
Y1523D01*
X329*
Y1511*
X353*
G36*
Y1523*
X329*
Y1511*
X353*
G37*
X355Y1351D02*
Y1367D01*
X327*
Y1351*
X355*
G36*
Y1367*
X327*
Y1351*
X355*
G37*
Y1493D02*
Y1509D01*
X327*
Y1493*
X355*
G36*
Y1509*
X327*
Y1493*
X355*
G37*
X454Y1269D02*
Y1288D01*
X463*
X467Y1286*
X468Y1284*
X470Y1281*
Y1275*
X468Y1272*
X467Y1270*
X463Y1269*
X454*
X492D02*
X479D01*
X490Y1280*
X492Y1283*
X490Y1286*
X487Y1288*
X482*
X479Y1286*
X470Y1459D02*
X586D01*
Y1382*
X470*
Y1459*
X480Y1150D02*
Y1156D01*
X481Y1159*
X483Y1161*
X486Y1162*
X489*
X492Y1161*
X494Y1159*
X495Y1156*
Y1150*
X494Y1147*
X492Y1145*
X489Y1144*
X486*
X483Y1145*
X481Y1147*
X480Y1150*
X491Y1148D02*
X495Y1144D01*
X506Y1145D02*
X509Y1144D01*
X513*
X516Y1145*
X517Y1148*
X516Y1151*
X513Y1153*
X509*
X513D02*
X516Y1154D01*
X517Y1158*
X516Y1161*
X513Y1162*
X509*
X506Y1161*
X495Y1402D02*
X515D01*
Y1439*
X495*
Y1402*
G36*
X515*
Y1439*
X495*
Y1402*
G37*
X500Y1311D02*
X616D01*
Y1273*
X500*
Y1311*
Y1371D02*
X616D01*
Y1333*
X500*
Y1371*
X519Y1405D02*
X537D01*
Y1435*
X519*
Y1405*
G36*
X537*
Y1435*
X519*
Y1405*
G37*
X520Y1409D02*
X536D01*
Y1432*
X520*
Y1409*
G36*
X536*
Y1432*
X520*
Y1409*
G37*
X528Y1058D02*
Y1174D01*
X566*
Y1058*
X528*
X536Y1280D02*
X548D01*
Y1304*
X536*
Y1280*
G36*
X548*
Y1304*
X536*
Y1280*
G37*
Y1340D02*
X548D01*
Y1363*
X536*
Y1340*
G36*
X548*
Y1363*
X536*
Y1340*
G37*
X541Y1402D02*
X561D01*
Y1439*
X541*
Y1402*
G36*
X561*
Y1439*
X541*
Y1402*
G37*
X550Y1278D02*
X566D01*
Y1306*
X550*
Y1278*
G36*
X566*
Y1306*
X550*
Y1278*
G37*
Y1338D02*
X566D01*
Y1366*
X550*
Y1338*
G36*
X566*
Y1366*
X550*
Y1338*
G37*
X550Y1281D02*
X565D01*
Y1304*
X550*
Y1281*
G36*
X565*
Y1304*
X550*
Y1281*
G37*
Y1340D02*
X565D01*
Y1363*
X550*
Y1340*
G36*
X565*
Y1363*
X550*
Y1340*
G37*
X559Y1108D02*
Y1124D01*
X535*
Y1108*
X559*
G36*
Y1124*
X535*
Y1108*
X559*
G37*
X559Y1094D02*
Y1106D01*
X535*
Y1094*
X559*
G36*
Y1106*
X535*
Y1094*
X559*
G37*
Y1126D02*
Y1138D01*
X535*
Y1126*
X559*
G36*
Y1138*
X535*
Y1126*
X559*
G37*
X561Y1108D02*
Y1124D01*
X533*
Y1108*
X561*
G36*
Y1124*
X533*
Y1108*
X561*
G37*
X568Y1280D02*
X580D01*
Y1304*
X568*
Y1280*
G36*
X580*
Y1304*
X568*
Y1280*
G37*
Y1340D02*
X580D01*
Y1363*
X568*
Y1340*
G36*
X580*
Y1363*
X568*
Y1340*
G37*
X623Y1150D02*
Y1156D01*
X624Y1159*
X626Y1161*
X629Y1162*
X632*
X635Y1161*
X637Y1159*
X638Y1156*
Y1150*
X637Y1147*
X635Y1145*
X632Y1144*
X629*
X626Y1145*
X624Y1147*
X623Y1150*
X634Y1148D02*
X638Y1144D01*
X660D02*
X648D01*
X659Y1155*
X660Y1158*
X659Y1161*
X655Y1162*
X651*
X648Y1161*
X666Y1304D02*
X654D01*
Y1281*
X666*
Y1304*
G36*
X654*
Y1281*
X666*
Y1304*
G37*
Y1364D02*
X654D01*
Y1340*
X666*
Y1364*
G36*
X654*
Y1340*
X666*
Y1364*
G37*
X667Y1058D02*
Y1174D01*
X705*
Y1058*
X667*
X684Y1304D02*
X668D01*
Y1281*
X684*
Y1304*
G36*
X668*
Y1281*
X684*
Y1304*
G37*
Y1363D02*
X668D01*
Y1340*
X684*
Y1363*
G36*
X668*
Y1340*
X684*
Y1363*
G37*
X684Y1306D02*
X668D01*
Y1278*
X684*
Y1306*
G36*
X668*
Y1278*
X684*
Y1306*
G37*
Y1366D02*
X668D01*
Y1338*
X684*
Y1366*
G36*
X668*
Y1338*
X684*
Y1366*
G37*
X688Y1441D02*
X669D01*
Y1403*
X688*
Y1441*
G36*
X669*
Y1403*
X688*
Y1441*
G37*
X697Y1108D02*
Y1124D01*
X674*
Y1108*
X697*
G36*
Y1124*
X674*
Y1108*
X697*
G37*
X698Y1304D02*
X686D01*
Y1281*
X698*
Y1304*
G36*
X686*
Y1281*
X698*
Y1304*
G37*
Y1364D02*
X686D01*
Y1340*
X698*
Y1364*
G36*
X686*
Y1340*
X698*
Y1364*
G37*
X698Y1094D02*
Y1106D01*
X674*
Y1094*
X698*
G36*
Y1106*
X674*
Y1094*
X698*
G37*
Y1126D02*
Y1138D01*
X674*
Y1126*
X698*
G36*
Y1138*
X674*
Y1126*
X698*
G37*
X700Y1108D02*
Y1124D01*
X672*
Y1108*
X700*
G36*
Y1124*
X672*
Y1108*
X700*
G37*
X709Y1434D02*
X693D01*
Y1411*
X709*
Y1434*
G36*
X693*
Y1411*
X709*
Y1434*
G37*
X710Y1437D02*
X692D01*
Y1407*
X710*
Y1437*
G36*
X692*
Y1407*
X710*
Y1437*
G37*
X734Y1273D02*
X618D01*
Y1311*
X734*
Y1273*
Y1333D02*
X618D01*
Y1371*
X734*
Y1333*
X734Y1441D02*
X715D01*
Y1403*
X734*
Y1441*
G36*
X715*
Y1403*
X734*
Y1441*
G37*
X749Y1035D02*
X737D01*
Y1011*
X749*
Y1035*
G36*
X737*
Y1011*
X749*
Y1035*
G37*
X759Y1384D02*
X643D01*
Y1461*
X759*
Y1384*
X767Y1035D02*
X752D01*
Y1011*
X767*
Y1035*
G36*
X752*
Y1011*
X767*
Y1035*
G37*
X781Y1035D02*
X769D01*
Y1011*
X781*
Y1035*
G36*
X769*
Y1011*
X781*
Y1035*
G37*
X817Y1004D02*
X701D01*
Y1042*
X817*
Y1004*
X846Y1215D02*
Y1234D01*
X855*
X859Y1232*
X860Y1230*
X862Y1227*
Y1221*
X860Y1218*
X859Y1216*
X855Y1215*
X846*
X874D02*
X880D01*
X877D02*
Y1234D01*
X874Y1230*
X846Y1270D02*
Y1289D01*
X855*
X859Y1287*
X860Y1286*
X862Y1283*
Y1277*
X860Y1273*
X859Y1272*
X855Y1270*
X846*
X879D02*
Y1289D01*
X871Y1277*
X884*
X864Y1459D02*
X980D01*
Y1382*
X864*
Y1459*
X876Y1148D02*
Y1154D01*
X878Y1157*
X880Y1159*
X883Y1160*
X886*
X889Y1159*
X890Y1157*
X892Y1154*
Y1148*
X890Y1145*
X889Y1143*
X886Y1141*
X883*
X880Y1143*
X878Y1145*
X876Y1148*
X887Y1146D02*
X892Y1141D01*
X901Y1143D02*
X905Y1141D01*
X909*
X912Y1143*
X914Y1146*
Y1148*
X912Y1151*
X909Y1152*
X901*
Y1160*
X914*
X889Y1402D02*
X908D01*
Y1439*
X889*
Y1402*
G36*
X908*
Y1439*
X889*
Y1402*
G37*
X893Y1311D02*
X1009D01*
Y1273*
X893*
Y1311*
Y1371D02*
X1009D01*
Y1333*
X893*
Y1371*
X913Y1405D02*
X931D01*
Y1435*
X913*
Y1405*
G36*
X931*
Y1435*
X913*
Y1405*
G37*
X914Y1409D02*
X930D01*
Y1432*
X914*
Y1409*
G36*
X930*
Y1432*
X914*
Y1409*
G37*
X923Y1058D02*
Y1174D01*
X961*
Y1058*
X923*
X930Y1280D02*
X941D01*
Y1304*
X930*
Y1280*
G36*
X941*
Y1304*
X930*
Y1280*
G37*
Y1340D02*
X941D01*
Y1363*
X930*
Y1340*
G36*
X941*
Y1363*
X930*
Y1340*
G37*
X935Y1402D02*
X954D01*
Y1439*
X935*
Y1402*
G36*
X954*
Y1439*
X935*
Y1402*
G37*
X943Y1278D02*
X959D01*
Y1306*
X943*
Y1278*
G36*
X959*
Y1306*
X943*
Y1278*
G37*
Y1338D02*
X959D01*
Y1366*
X943*
Y1338*
G36*
X959*
Y1366*
X943*
Y1338*
G37*
X943Y1281D02*
X959D01*
Y1304*
X943*
Y1281*
G36*
X959*
Y1304*
X943*
Y1281*
G37*
Y1340D02*
X959D01*
Y1363*
X943*
Y1340*
G36*
X959*
Y1363*
X943*
Y1340*
G37*
X954Y1108D02*
Y1124D01*
X931*
Y1108*
X954*
G36*
Y1124*
X931*
Y1108*
X954*
G37*
X954Y1094D02*
Y1106D01*
X931*
Y1094*
X954*
G36*
Y1106*
X931*
Y1094*
X954*
G37*
Y1126D02*
Y1138D01*
X931*
Y1126*
X954*
G36*
Y1138*
X931*
Y1126*
X954*
G37*
X956Y1108D02*
Y1124D01*
X928*
Y1108*
X956*
G36*
Y1124*
X928*
Y1108*
X956*
G37*
X962Y1280D02*
X973D01*
Y1304*
X962*
Y1280*
G36*
X973*
Y1304*
X962*
Y1280*
G37*
Y1340D02*
X973D01*
Y1363*
X962*
Y1340*
G36*
X973*
Y1363*
X962*
Y1340*
G37*
X1018Y1149D02*
Y1155D01*
X1020Y1159*
X1022Y1160*
X1025Y1162*
X1028*
X1031Y1160*
X1033Y1159*
X1034Y1155*
Y1149*
X1033Y1146*
X1031Y1144*
X1028Y1143*
X1025*
X1022Y1144*
X1020Y1146*
X1018Y1149*
X1029Y1148D02*
X1034Y1143D01*
X1051D02*
Y1162D01*
X1043Y1149*
X1056*
X1059Y1304D02*
X1047D01*
Y1281*
X1059*
Y1304*
G36*
X1047*
Y1281*
X1059*
Y1304*
G37*
Y1364D02*
X1047D01*
Y1340*
X1059*
Y1364*
G36*
X1047*
Y1340*
X1059*
Y1364*
G37*
X1060Y1057D02*
Y1173D01*
X1098*
Y1057*
X1060*
X1077Y1304D02*
X1062D01*
Y1281*
X1077*
Y1304*
G36*
X1062*
Y1281*
X1077*
Y1304*
G37*
Y1363D02*
X1062D01*
Y1340*
X1077*
Y1363*
G36*
X1062*
Y1340*
X1077*
Y1363*
G37*
X1077Y1306D02*
X1061D01*
Y1278*
X1077*
Y1306*
G36*
X1061*
Y1278*
X1077*
Y1306*
G37*
Y1366D02*
X1061D01*
Y1338*
X1077*
Y1366*
G36*
X1061*
Y1338*
X1077*
Y1366*
G37*
X1086Y1439D02*
X1066D01*
Y1402*
X1086*
Y1439*
G36*
X1066*
Y1402*
X1086*
Y1439*
G37*
X1091Y1107D02*
Y1123D01*
X1067*
Y1107*
X1091*
G36*
Y1123*
X1067*
Y1107*
X1091*
G37*
X1091Y1304D02*
X1079D01*
Y1281*
X1091*
Y1304*
G36*
X1079*
Y1281*
X1091*
Y1304*
G37*
Y1364D02*
X1079D01*
Y1340*
X1091*
Y1364*
G36*
X1079*
Y1340*
X1091*
Y1364*
G37*
X1091Y1093D02*
Y1105D01*
X1068*
Y1093*
X1091*
G36*
Y1105*
X1068*
Y1093*
X1091*
G37*
Y1125D02*
Y1137D01*
X1068*
Y1125*
X1091*
G36*
Y1137*
X1068*
Y1125*
X1091*
G37*
X1093Y1107D02*
Y1123D01*
X1065*
Y1107*
X1093*
G36*
Y1123*
X1065*
Y1107*
X1093*
G37*
X1107Y1432D02*
X1091D01*
Y1409*
X1107*
Y1432*
G36*
X1091*
Y1409*
X1107*
Y1432*
G37*
X1108Y1435D02*
X1090D01*
Y1405*
X1108*
Y1435*
G36*
X1090*
Y1405*
X1108*
Y1435*
G37*
X1127Y1273D02*
X1011D01*
Y1311*
X1127*
Y1273*
Y1333D02*
X1011D01*
Y1371*
X1127*
Y1333*
X1132Y1439D02*
X1112D01*
Y1402*
X1132*
Y1439*
G36*
X1112*
Y1402*
X1132*
Y1439*
G37*
X1157Y1382D02*
X1041D01*
Y1459*
X1157*
Y1382*
X1230Y1215D02*
Y1234D01*
X1239*
X1242Y1232*
X1244Y1231*
X1246Y1228*
Y1221*
X1244Y1218*
X1242Y1217*
X1239Y1215*
X1230*
X1257Y1217D02*
X1260Y1215D01*
X1263*
X1266Y1217*
X1267Y1220*
X1266Y1223*
X1263Y1224*
X1260*
X1263D02*
X1266Y1226D01*
X1267Y1229*
X1266Y1232*
X1263Y1234*
X1260*
X1257Y1232*
X1231Y1272D02*
Y1291D01*
X1240*
X1243Y1290*
X1245Y1288*
X1246Y1285*
Y1279*
X1245Y1276*
X1243Y1274*
X1240Y1272*
X1231*
X1256Y1277D02*
X1257Y1280D01*
X1260Y1282*
X1263*
X1266Y1280*
X1268Y1277*
X1266Y1274*
X1263Y1272*
X1260*
X1257Y1274*
X1256Y1277*
Y1282*
X1257Y1287*
X1260Y1290*
X1263Y1291*
X1258Y1459D02*
X1373D01*
Y1382*
X1258*
Y1459*
X1261Y1148D02*
Y1154D01*
X1263Y1157*
X1264Y1159*
X1267Y1160*
X1271*
X1274Y1159*
X1275Y1157*
X1277Y1154*
Y1148*
X1275Y1145*
X1274Y1143*
X1271Y1142*
X1267*
X1264Y1143*
X1263Y1145*
X1261Y1148*
X1272Y1146D02*
X1277Y1142D01*
X1291Y1151D02*
X1294D01*
X1297Y1153*
X1299Y1156*
X1297Y1159*
X1294Y1160*
X1291*
X1288Y1159*
X1286Y1156*
X1288Y1153*
X1291Y1151*
X1288Y1150*
X1286Y1146*
X1288Y1143*
X1291Y1142*
X1294*
X1297Y1143*
X1299Y1146*
X1297Y1150*
X1294Y1151*
X1277Y1311D02*
X1393D01*
Y1273*
X1277*
Y1311*
Y1371D02*
X1393D01*
Y1333*
X1277*
Y1371*
X1282Y1402D02*
X1302D01*
Y1439*
X1282*
Y1402*
G36*
X1302*
Y1439*
X1282*
Y1402*
G37*
X1306Y1049D02*
Y1165D01*
X1344*
Y1049*
X1306*
X1306Y1405D02*
X1324D01*
Y1435*
X1306*
Y1405*
G36*
X1324*
Y1435*
X1306*
Y1405*
G37*
X1308Y1409D02*
X1323D01*
Y1432*
X1308*
Y1409*
G36*
X1323*
Y1432*
X1308*
Y1409*
G37*
X1313Y1280D02*
X1325D01*
Y1304*
X1313*
Y1280*
G36*
X1325*
Y1304*
X1313*
Y1280*
G37*
Y1340D02*
X1325D01*
Y1363*
X1313*
Y1340*
G36*
X1325*
Y1363*
X1313*
Y1340*
G37*
X1327Y1278D02*
X1343D01*
Y1306*
X1327*
Y1278*
G36*
X1343*
Y1306*
X1327*
Y1278*
G37*
Y1338D02*
X1343D01*
Y1366*
X1327*
Y1338*
G36*
X1343*
Y1366*
X1327*
Y1338*
G37*
X1327Y1281D02*
X1343D01*
Y1304*
X1327*
Y1281*
G36*
X1343*
Y1304*
X1327*
Y1281*
G37*
Y1340D02*
X1343D01*
Y1363*
X1327*
Y1340*
G36*
X1343*
Y1363*
X1327*
Y1340*
G37*
X1328Y1402D02*
X1348D01*
Y1439*
X1328*
Y1402*
G36*
X1348*
Y1439*
X1328*
Y1402*
G37*
X1337Y1100D02*
Y1115D01*
X1314*
Y1100*
X1337*
G36*
Y1115*
X1314*
Y1100*
X1337*
G37*
X1337Y1086D02*
Y1097D01*
X1314*
Y1086*
X1337*
G36*
Y1097*
X1314*
Y1086*
X1337*
G37*
Y1118D02*
Y1129D01*
X1314*
Y1118*
X1337*
G36*
Y1129*
X1314*
Y1118*
X1337*
G37*
X1339Y1099D02*
Y1115D01*
X1311*
Y1099*
X1339*
G36*
Y1115*
X1311*
Y1099*
X1339*
G37*
X1345Y1280D02*
X1357D01*
Y1304*
X1345*
Y1280*
G36*
X1357*
Y1304*
X1345*
Y1280*
G37*
Y1340D02*
X1357D01*
Y1363*
X1345*
Y1340*
G36*
X1357*
Y1363*
X1345*
Y1340*
G37*
X1379Y779D02*
X1378Y772D01*
X1375Y768*
X1371Y764*
X1366Y764*
X1360Y764*
X1356Y768*
X1352Y773*
X1352Y779*
X1352Y786*
X1356Y791*
X1360Y794*
X1366Y795*
X1371Y794*
X1375Y791*
X1378Y786*
X1379Y779*
X1374D02*
X1373Y784D01*
X1372Y788*
X1369Y790*
X1366Y790*
X1362Y790*
X1359Y788*
X1358Y784*
X1357Y779*
X1358Y774*
X1359Y771*
X1362Y769*
X1366Y768*
X1369Y769*
X1372Y771*
X1373Y774*
X1374Y779*
X1410Y780D02*
X1409Y773D01*
X1407Y768*
X1403Y765*
X1397Y764*
X1393Y764*
X1390Y766*
Y753*
X1384*
Y794*
X1390*
Y791*
X1394Y794*
X1399Y795*
X1404Y794*
X1407Y791*
X1409Y786*
X1410Y780*
X1405D02*
X1404Y784D01*
X1403Y788*
X1401Y790*
X1398Y790*
X1394Y789*
X1390Y787*
Y770*
X1393Y768*
X1397*
X1400Y769*
X1403Y771*
X1404Y774*
X1405Y780*
X1428Y764D02*
X1421Y764D01*
X1417Y768*
X1414Y772*
X1413Y779*
X1414Y786*
X1417Y790*
X1421Y794*
X1427Y795*
X1432Y794*
X1436Y792*
X1439Y788*
X1439Y782*
Y779*
X1418*
X1419Y774*
X1421Y771*
X1424Y769*
X1428Y768*
X1431*
X1435Y770*
X1437Y770*
X1439Y772*
Y766*
X1437Y765*
X1434Y764*
X1431Y764*
X1428*
X1434Y783D02*
X1433Y786D01*
X1432Y789*
X1430Y790*
X1427Y791*
X1423Y790*
X1421Y789*
X1419Y786*
X1418Y783*
X1434*
X1468Y764D02*
X1463D01*
Y782*
Y785*
X1462Y788*
X1460Y790*
X1457Y790*
X1454Y789*
X1450Y787*
Y764*
X1445*
Y794*
X1450*
Y791*
X1455Y794*
X1459Y795*
X1463Y794*
X1465Y792*
X1467Y788*
X1468Y784*
Y764*
X1501Y764D02*
X1495Y764D01*
X1491Y766*
Y772*
X1493Y770*
X1495Y769*
X1498Y768*
X1501Y768*
X1503*
X1505Y769*
X1506Y770*
X1507Y772*
X1506Y775*
X1505Y776*
X1503Y777*
X1500Y778*
X1498Y778*
X1494Y779*
X1492Y781*
X1492Y783*
X1491Y786*
X1492Y790*
X1494Y792*
X1498Y794*
X1502Y795*
X1507Y794*
X1511Y793*
Y788*
X1506Y790*
X1502Y791*
X1498Y790*
X1497Y788*
X1496Y786*
X1497Y784*
X1500Y782*
X1503Y782*
X1506Y781*
X1508Y780*
X1511Y778*
X1512Y776*
X1512Y773*
X1512Y769*
X1510Y766*
X1506Y764*
X1501Y764*
X1542Y779D02*
X1542Y772D01*
X1538Y768*
X1534Y764*
X1529Y764*
X1523Y764*
X1519Y768*
X1516Y773*
X1515Y779*
X1516Y786*
X1519Y791*
X1523Y794*
X1529Y795*
X1534Y794*
X1538Y791*
X1542Y786*
X1542Y779*
X1537D02*
X1536Y784D01*
X1535Y788*
X1532Y790*
X1529Y790*
X1525Y790*
X1522Y788*
X1521Y784*
X1520Y779*
X1521Y774*
X1522Y771*
X1525Y769*
X1529Y768*
X1532Y769*
X1535Y771*
X1536Y774*
X1537Y779*
X1571Y764D02*
X1566D01*
Y768*
X1562Y765*
X1557Y764*
X1553Y764*
X1550Y766*
X1548Y770*
X1548Y775*
Y794*
X1553*
Y777*
Y773*
X1554Y770*
X1556Y769*
X1558Y768*
X1563Y770*
X1566Y772*
Y794*
X1571*
Y764*
X1595Y789D02*
X1593D01*
X1592*
X1588Y788*
X1584Y786*
Y764*
X1579*
Y794*
X1584*
Y790*
X1587Y792*
X1589Y793*
X1593Y794*
X1594*
X1595*
Y789*
X1610Y764D02*
X1605Y764D01*
X1600Y768*
X1597Y772*
X1596Y779*
X1597Y786*
X1600Y791*
X1605Y794*
X1610Y795*
X1615Y794*
X1619Y792*
Y787*
X1617Y788*
X1615Y789*
X1613Y790*
X1610Y790*
X1607Y790*
X1604Y788*
X1602Y784*
X1601Y779*
X1602Y774*
X1604Y771*
X1607Y769*
X1610Y768*
X1615Y769*
X1619Y772*
Y766*
X1617Y765*
X1615Y764*
X1613Y764*
X1610*
X1637D02*
X1630Y764D01*
X1625Y768*
X1623Y772*
X1621Y779*
X1623Y786*
X1625Y790*
X1630Y794*
X1635Y795*
X1641Y794*
X1645Y792*
X1648Y788*
X1648Y782*
Y779*
X1627*
X1627Y774*
X1629Y771*
X1633Y769*
X1637Y768*
X1640*
X1643Y770*
X1645Y770*
X1648Y772*
Y766*
X1645Y765*
X1643Y764*
X1640Y764*
X1637*
X1643Y783D02*
X1642Y786D01*
X1641Y789*
X1639Y790*
X1635Y791*
X1632Y790*
X1629Y789*
X1627Y786*
X1627Y783*
X1643*
X1384Y753D02*
X1390D01*
X1384Y754D02*
X1390D01*
X1384Y755D02*
X1390D01*
X1384Y756D02*
X1390D01*
X1384Y757D02*
X1390D01*
X1384Y757D02*
X1390D01*
X1384Y758D02*
X1390D01*
X1384Y759D02*
X1390D01*
X1384Y760D02*
X1390D01*
X1384Y761D02*
X1390D01*
X1384Y762D02*
X1390D01*
X1384Y763D02*
X1390D01*
X1361Y764D02*
X1370D01*
X1384D02*
X1390D01*
X1394D02*
X1399D01*
X1423D02*
X1433D01*
X1496D02*
X1505D01*
X1524D02*
X1533D01*
X1554D02*
X1559D01*
X1606D02*
X1615D01*
X1631D02*
X1642D01*
X1359Y765D02*
X1372D01*
X1384D02*
X1390D01*
X1391D02*
X1403D01*
X1420D02*
X1437D01*
X1445D02*
X1450D01*
X1463D02*
X1468D01*
X1493D02*
X1507D01*
X1522D02*
X1535D01*
X1552D02*
X1562D01*
X1566D02*
X1571D01*
X1579D02*
X1584D01*
X1604D02*
X1618D01*
X1629D02*
X1646D01*
X1358Y766D02*
X1373D01*
X1384D02*
X1404D01*
X1419D02*
X1438D01*
X1445D02*
X1450D01*
X1463D02*
X1468D01*
X1491D02*
X1509D01*
X1521D02*
X1536D01*
X1551D02*
X1563D01*
X1566D02*
X1571D01*
X1579D02*
X1584D01*
X1602D02*
X1619D01*
X1628D02*
X1647D01*
X1356Y767D02*
X1374D01*
X1384D02*
X1405D01*
X1418D02*
X1439D01*
X1445D02*
X1450D01*
X1463D02*
X1468D01*
X1491D02*
X1510D01*
X1520D02*
X1538D01*
X1550D02*
X1565D01*
X1566D02*
X1571D01*
X1579D02*
X1584D01*
X1601D02*
X1619D01*
X1626D02*
X1648D01*
X1356Y768D02*
X1375D01*
X1384D02*
X1406D01*
X1416D02*
X1439D01*
X1445D02*
X1450D01*
X1463D02*
X1468D01*
X1491D02*
X1500D01*
X1503D02*
X1511D01*
X1519D02*
X1539D01*
X1549D02*
X1571D01*
X1579D02*
X1584D01*
X1600D02*
X1619D01*
X1625D02*
X1648D01*
X1355Y769D02*
X1363D01*
X1368D02*
X1376D01*
X1384D02*
X1392D01*
X1399D02*
X1407D01*
X1416D02*
X1425D01*
X1433D02*
X1439D01*
X1445D02*
X1450D01*
X1463D02*
X1468D01*
X1491D02*
X1495D01*
X1505D02*
X1512D01*
X1518D02*
X1526D01*
X1532D02*
X1539D01*
X1549D02*
X1556D01*
X1560D02*
X1571D01*
X1579D02*
X1584D01*
X1599D02*
X1607D01*
X1614D02*
X1619D01*
X1625D02*
X1634D01*
X1641D02*
X1648D01*
X1354Y770D02*
X1361D01*
X1370D02*
X1377D01*
X1384D02*
X1390D01*
X1401D02*
X1407D01*
X1415D02*
X1423D01*
X1435D02*
X1439D01*
X1445D02*
X1450D01*
X1463D02*
X1468D01*
X1491D02*
X1494D01*
X1506D02*
X1512D01*
X1518D02*
X1524D01*
X1533D02*
X1540D01*
X1548D02*
X1555D01*
X1563D02*
X1571D01*
X1579D02*
X1584D01*
X1599D02*
X1606D01*
X1617D02*
X1619D01*
X1624D02*
X1631D01*
X1644D02*
X1648D01*
X1354Y771D02*
X1359D01*
X1371D02*
X1377D01*
X1384D02*
X1390D01*
X1402D02*
X1408D01*
X1415D02*
X1421D01*
X1437D02*
X1439D01*
X1445D02*
X1450D01*
X1463D02*
X1468D01*
X1491D02*
X1492D01*
X1506D02*
X1512D01*
X1517D02*
X1523D01*
X1535D02*
X1541D01*
X1548D02*
X1554D01*
X1564D02*
X1571D01*
X1579D02*
X1584D01*
X1598D02*
X1604D01*
X1618D02*
X1619D01*
X1624D02*
X1630D01*
X1646D02*
X1648D01*
X1353Y772D02*
X1359D01*
X1372D02*
X1378D01*
X1384D02*
X1390D01*
X1403D02*
X1408D01*
X1414D02*
X1420D01*
X1445D02*
X1450D01*
X1463D02*
X1468D01*
X1507D02*
X1512D01*
X1516D02*
X1522D01*
X1535D02*
X1541D01*
X1548D02*
X1553D01*
X1565D02*
X1571D01*
X1579D02*
X1584D01*
X1598D02*
X1604D01*
X1623D02*
X1629D01*
X1353Y772D02*
X1358D01*
X1372D02*
X1378D01*
X1384D02*
X1390D01*
X1403D02*
X1409D01*
X1414D02*
X1420D01*
X1445D02*
X1450D01*
X1463D02*
X1468D01*
X1507D02*
X1512D01*
X1516D02*
X1522D01*
X1536D02*
X1542D01*
X1548D02*
X1553D01*
X1566D02*
X1571D01*
X1579D02*
X1584D01*
X1597D02*
X1603D01*
X1623D02*
X1628D01*
X1352Y773D02*
X1358D01*
X1373D02*
X1379D01*
X1384D02*
X1390D01*
X1404D02*
X1409D01*
X1414D02*
X1419D01*
X1445D02*
X1450D01*
X1463D02*
X1468D01*
X1507D02*
X1512D01*
X1516D02*
X1521D01*
X1536D02*
X1542D01*
X1548D02*
X1553D01*
X1566D02*
X1571D01*
X1579D02*
X1584D01*
X1597D02*
X1602D01*
X1622D02*
X1628D01*
X1352Y774D02*
X1358D01*
X1373D02*
X1379D01*
X1384D02*
X1390D01*
X1404D02*
X1409D01*
X1413D02*
X1419D01*
X1445D02*
X1450D01*
X1463D02*
X1468D01*
X1506D02*
X1512D01*
X1515D02*
X1521D01*
X1536D02*
X1542D01*
X1548D02*
X1553D01*
X1566D02*
X1571D01*
X1579D02*
X1584D01*
X1597D02*
X1602D01*
X1622D02*
X1627D01*
X1352Y775D02*
X1358D01*
X1373D02*
X1379D01*
X1384D02*
X1390D01*
X1404D02*
X1409D01*
X1413D02*
X1418D01*
X1445D02*
X1450D01*
X1463D02*
X1468D01*
X1506D02*
X1512D01*
X1515D02*
X1521D01*
X1537D02*
X1542D01*
X1548D02*
X1553D01*
X1566D02*
X1571D01*
X1579D02*
X1584D01*
X1597D02*
X1602D01*
X1622D02*
X1627D01*
X1352Y776D02*
X1357D01*
X1373D02*
X1379D01*
X1384D02*
X1390D01*
X1404D02*
X1410D01*
X1413D02*
X1418D01*
X1445D02*
X1450D01*
X1463D02*
X1468D01*
X1505D02*
X1511D01*
X1515D02*
X1521D01*
X1537D02*
X1542D01*
X1548D02*
X1553D01*
X1566D02*
X1571D01*
X1579D02*
X1584D01*
X1597D02*
X1602D01*
X1622D02*
X1627D01*
X1352Y777D02*
X1357D01*
X1374D02*
X1379D01*
X1384D02*
X1390D01*
X1404D02*
X1410D01*
X1413D02*
X1418D01*
X1445D02*
X1450D01*
X1463D02*
X1468D01*
X1502D02*
X1511D01*
X1515D02*
X1521D01*
X1537D02*
X1542D01*
X1548D02*
X1553D01*
X1566D02*
X1571D01*
X1579D02*
X1584D01*
X1596D02*
X1602D01*
X1622D02*
X1627D01*
X1352Y778D02*
X1357D01*
X1374D02*
X1379D01*
X1384D02*
X1390D01*
X1404D02*
X1410D01*
X1413D02*
X1418D01*
X1445D02*
X1450D01*
X1463D02*
X1468D01*
X1498D02*
X1511D01*
X1515D02*
X1520D01*
X1537D02*
X1542D01*
X1548D02*
X1553D01*
X1566D02*
X1571D01*
X1579D02*
X1584D01*
X1596D02*
X1601D01*
X1622D02*
X1627D01*
X1352Y779D02*
X1357D01*
X1374D02*
X1379D01*
X1384D02*
X1390D01*
X1404D02*
X1410D01*
X1413D02*
X1439D01*
X1445D02*
X1450D01*
X1463D02*
X1468D01*
X1494D02*
X1509D01*
X1515D02*
X1520D01*
X1537D02*
X1542D01*
X1548D02*
X1553D01*
X1566D02*
X1571D01*
X1579D02*
X1584D01*
X1596D02*
X1601D01*
X1621D02*
X1648D01*
X1352Y780D02*
X1357D01*
X1374D02*
X1379D01*
X1384D02*
X1390D01*
X1404D02*
X1410D01*
X1413D02*
X1439D01*
X1445D02*
X1450D01*
X1463D02*
X1468D01*
X1493D02*
X1507D01*
X1515D02*
X1520D01*
X1537D02*
X1542D01*
X1548D02*
X1553D01*
X1566D02*
X1571D01*
X1579D02*
X1584D01*
X1596D02*
X1601D01*
X1622D02*
X1648D01*
X1352Y781D02*
X1357D01*
X1374D02*
X1379D01*
X1384D02*
X1390D01*
X1404D02*
X1410D01*
X1413D02*
X1439D01*
X1445D02*
X1450D01*
X1463D02*
X1468D01*
X1492D02*
X1506D01*
X1515D02*
X1521D01*
X1537D02*
X1542D01*
X1548D02*
X1553D01*
X1566D02*
X1571D01*
X1579D02*
X1584D01*
X1596D02*
X1602D01*
X1622D02*
X1648D01*
X1352Y782D02*
X1357D01*
X1373D02*
X1379D01*
X1384D02*
X1390D01*
X1404D02*
X1410D01*
X1413D02*
X1439D01*
X1445D02*
X1450D01*
X1463D02*
X1468D01*
X1492D02*
X1502D01*
X1515D02*
X1521D01*
X1537D02*
X1542D01*
X1548D02*
X1553D01*
X1566D02*
X1571D01*
X1579D02*
X1584D01*
X1597D02*
X1602D01*
X1622D02*
X1648D01*
X1352Y783D02*
X1358D01*
X1373D02*
X1379D01*
X1384D02*
X1390D01*
X1404D02*
X1410D01*
X1413D02*
X1439D01*
X1445D02*
X1450D01*
X1463D02*
X1468D01*
X1492D02*
X1499D01*
X1515D02*
X1521D01*
X1537D02*
X1542D01*
X1548D02*
X1553D01*
X1566D02*
X1571D01*
X1579D02*
X1584D01*
X1597D02*
X1602D01*
X1622D02*
X1648D01*
X1352Y784D02*
X1358D01*
X1373D02*
X1379D01*
X1384D02*
X1390D01*
X1404D02*
X1409D01*
X1414D02*
X1418D01*
X1434D02*
X1439D01*
X1445D02*
X1450D01*
X1463D02*
X1468D01*
X1491D02*
X1497D01*
X1515D02*
X1521D01*
X1536D02*
X1542D01*
X1548D02*
X1553D01*
X1566D02*
X1571D01*
X1579D02*
X1584D01*
X1597D02*
X1602D01*
X1622D02*
X1627D01*
X1643D02*
X1648D01*
X1352Y785D02*
X1358D01*
X1373D02*
X1379D01*
X1384D02*
X1390D01*
X1404D02*
X1409D01*
X1414D02*
X1418D01*
X1434D02*
X1439D01*
X1445D02*
X1450D01*
X1463D02*
X1468D01*
X1491D02*
X1497D01*
X1516D02*
X1521D01*
X1536D02*
X1542D01*
X1548D02*
X1553D01*
X1566D02*
X1571D01*
X1579D02*
X1584D01*
X1597D02*
X1603D01*
X1623D02*
X1627D01*
X1642D02*
X1648D01*
X1352Y786D02*
X1358D01*
X1373D02*
X1378D01*
X1384D02*
X1390D01*
X1404D02*
X1409D01*
X1414D02*
X1418D01*
X1433D02*
X1439D01*
X1445D02*
X1450D01*
X1463D02*
X1468D01*
X1491D02*
X1496D01*
X1516D02*
X1522D01*
X1536D02*
X1542D01*
X1548D02*
X1553D01*
X1566D02*
X1571D01*
X1579D02*
X1584D01*
X1597D02*
X1603D01*
X1623D02*
X1627D01*
X1642D02*
X1648D01*
X1353Y787D02*
X1359D01*
X1372D02*
X1378D01*
X1384D02*
X1390D01*
X1403D02*
X1409D01*
X1414D02*
X1419D01*
X1433D02*
X1439D01*
X1445D02*
X1450D01*
X1462D02*
X1468D01*
X1491D02*
X1496D01*
X1516D02*
X1522D01*
X1535D02*
X1541D01*
X1548D02*
X1553D01*
X1566D02*
X1571D01*
X1579D02*
X1585D01*
X1597D02*
X1603D01*
X1623D02*
X1628D01*
X1642D02*
X1648D01*
X1354Y787D02*
X1359D01*
X1372D02*
X1377D01*
X1384D02*
X1391D01*
X1403D02*
X1409D01*
X1415D02*
X1420D01*
X1433D02*
X1439D01*
X1445D02*
X1451D01*
X1462D02*
X1468D01*
X1491D02*
X1497D01*
X1517D02*
X1522D01*
X1535D02*
X1541D01*
X1548D02*
X1553D01*
X1566D02*
X1571D01*
X1579D02*
X1587D01*
X1598D02*
X1604D01*
X1618D02*
X1619D01*
X1624D02*
X1628D01*
X1642D02*
X1648D01*
X1354Y788D02*
X1360D01*
X1371D02*
X1377D01*
X1384D02*
X1393D01*
X1402D02*
X1408D01*
X1416D02*
X1420D01*
X1432D02*
X1438D01*
X1445D02*
X1453D01*
X1462D02*
X1467D01*
X1491D02*
X1497D01*
X1510D02*
X1511D01*
X1517D02*
X1523D01*
X1534D02*
X1540D01*
X1548D02*
X1553D01*
X1566D02*
X1571D01*
X1579D02*
X1589D01*
X1599D02*
X1605D01*
X1616D02*
X1619D01*
X1624D02*
X1629D01*
X1641D02*
X1647D01*
X1355Y789D02*
X1361D01*
X1369D02*
X1376D01*
X1384D02*
X1395D01*
X1401D02*
X1408D01*
X1416D02*
X1421D01*
X1431D02*
X1438D01*
X1445D02*
X1455D01*
X1460D02*
X1467D01*
X1492D02*
X1498D01*
X1508D02*
X1511D01*
X1518D02*
X1525D01*
X1533D02*
X1539D01*
X1548D02*
X1553D01*
X1566D02*
X1571D01*
X1579D02*
X1595D01*
X1599D02*
X1606D01*
X1614D02*
X1619D01*
X1625D02*
X1630D01*
X1640D02*
X1646D01*
X1355Y790D02*
X1376D01*
X1384D02*
X1408D01*
X1417D02*
X1423D01*
X1430D02*
X1437D01*
X1445D02*
X1466D01*
X1492D02*
X1500D01*
X1506D02*
X1511D01*
X1519D02*
X1539D01*
X1548D02*
X1553D01*
X1566D02*
X1571D01*
X1579D02*
X1584D01*
X1585D02*
X1595D01*
X1600D02*
X1619D01*
X1625D02*
X1632D01*
X1639D02*
X1646D01*
X1356Y791D02*
X1375D01*
X1384D02*
X1390D01*
X1390D02*
X1407D01*
X1418D02*
X1436D01*
X1445D02*
X1450D01*
X1451D02*
X1466D01*
X1493D02*
X1511D01*
X1519D02*
X1538D01*
X1548D02*
X1553D01*
X1566D02*
X1571D01*
X1579D02*
X1584D01*
X1586D02*
X1595D01*
X1600D02*
X1619D01*
X1627D02*
X1645D01*
X1357Y792D02*
X1373D01*
X1384D02*
X1390D01*
X1392D02*
X1406D01*
X1419D02*
X1435D01*
X1445D02*
X1450D01*
X1452D02*
X1466D01*
X1494D02*
X1511D01*
X1521D02*
X1537D01*
X1548D02*
X1553D01*
X1566D02*
X1571D01*
X1579D02*
X1584D01*
X1587D02*
X1595D01*
X1602D02*
X1619D01*
X1628D02*
X1644D01*
X1359Y793D02*
X1372D01*
X1384D02*
X1390D01*
X1393D02*
X1405D01*
X1421D02*
X1434D01*
X1445D02*
X1450D01*
X1454D02*
X1464D01*
X1496D02*
X1511D01*
X1522D02*
X1535D01*
X1548D02*
X1553D01*
X1566D02*
X1571D01*
X1579D02*
X1584D01*
X1589D02*
X1595D01*
X1604D02*
X1618D01*
X1629D02*
X1643D01*
X1362Y794D02*
X1369D01*
X1384D02*
X1390D01*
X1395D02*
X1402D01*
X1423D02*
X1432D01*
X1445D02*
X1450D01*
X1456D02*
X1463D01*
X1497D02*
X1508D01*
X1525D02*
X1533D01*
X1548D02*
X1553D01*
X1566D02*
X1571D01*
X1579D02*
X1584D01*
X1592D02*
X1595D01*
X1606D02*
X1616D01*
X1632D02*
X1641D01*
X1408Y713D02*
X1403D01*
Y731*
Y734*
X1402Y737*
X1400Y739*
X1397Y739*
X1394Y738*
X1390Y736*
Y713*
X1384*
Y755*
X1390*
Y740*
X1395Y743*
X1399Y744*
X1403Y743*
X1405Y741*
X1407Y737*
X1408Y733*
Y713*
X1432Y721D02*
Y729D01*
X1427Y729*
X1423Y728*
X1419Y726*
X1419Y725*
X1418Y723*
X1419Y720*
X1419Y719*
X1421Y717*
X1424*
X1428Y718*
X1432Y721*
Y717D02*
X1430Y715D01*
X1428Y714*
X1425Y713*
X1422Y713*
X1419Y713*
X1415Y715*
X1413Y719*
X1413Y722*
X1413Y725*
X1414Y727*
X1416Y729*
X1418Y731*
X1425Y733*
X1432Y733*
Y734*
X1431Y737*
X1430Y739*
X1427Y739*
X1425*
X1421Y739*
X1415Y737*
Y743*
X1419Y743*
X1425Y744*
X1430Y743*
X1434Y742*
X1437Y739*
X1437Y734*
Y713*
X1432*
Y717*
X1461Y738D02*
X1459D01*
X1458*
X1454Y737*
X1450Y735*
Y713*
X1445*
Y743*
X1450*
Y739*
X1453Y741*
X1455Y742*
X1459Y743*
X1460*
X1461*
Y738*
X1488Y713D02*
X1483D01*
Y717*
X1481Y715*
X1479Y714*
X1476Y713*
X1473*
X1469Y713*
X1465Y717*
X1463Y721*
X1462Y728*
X1463Y735*
X1466Y740*
X1470Y743*
X1475Y744*
X1480Y743*
X1483Y742*
Y755*
X1488*
Y713*
X1483Y721D02*
Y738D01*
X1480Y739*
X1476Y739*
X1472Y739*
X1469Y737*
X1468Y733*
X1467Y728*
X1468Y723*
X1469Y720*
X1471Y718*
X1475Y717*
X1479Y718*
X1483Y721*
X1532Y743D02*
X1524Y713D01*
X1520*
X1512Y737*
X1505Y713*
X1500*
X1492Y743*
X1498*
X1503Y720*
X1510Y743*
X1514*
X1522Y720*
X1527Y743*
X1532*
X1554Y721D02*
Y729D01*
X1549Y729*
X1544Y728*
X1541Y726*
X1540Y725*
X1540Y723*
X1540Y720*
X1541Y719*
X1543Y717*
X1546*
X1550Y718*
X1554Y721*
Y717D02*
X1552Y715D01*
X1550Y714*
X1547Y713*
X1544Y713*
X1540Y713*
X1537Y715*
X1535Y719*
X1534Y722*
X1535Y725*
X1536Y727*
X1538Y729*
X1540Y731*
X1546Y733*
X1554Y733*
Y734*
X1553Y737*
X1552Y739*
X1549Y739*
X1546*
X1542Y739*
X1537Y737*
Y743*
X1541Y743*
X1546Y744*
X1552Y743*
X1556Y742*
X1558Y739*
X1559Y734*
Y713*
X1554*
Y717*
X1583Y738D02*
X1581D01*
X1580*
X1576Y737*
X1572Y735*
Y713*
X1567*
Y743*
X1572*
Y739*
X1575Y741*
X1577Y742*
X1581Y743*
X1582*
X1583*
Y738*
X1599Y713D02*
X1593Y713D01*
X1588Y717*
X1585Y721*
X1584Y728*
X1585Y735*
X1588Y739*
X1593Y743*
X1598Y744*
X1603Y743*
X1607Y741*
X1610Y737*
X1611Y731*
Y728*
X1589*
X1590Y723*
X1592Y720*
X1595Y718*
X1599Y717*
X1603*
X1606Y719*
X1608Y719*
X1610Y721*
Y715*
X1608Y714*
X1605Y713*
X1603Y713*
X1599*
X1605Y732D02*
X1605Y735D01*
X1603Y738*
X1601Y739*
X1598Y740*
X1595Y739*
X1592Y738*
X1590Y735*
X1589Y732*
X1605*
X1419Y713D02*
X1425D01*
X1470D02*
X1477D01*
X1541D02*
X1546D01*
X1594D02*
X1605D01*
X1384Y714D02*
X1390D01*
X1403D02*
X1408D01*
X1417D02*
X1428D01*
X1432D02*
X1437D01*
X1445D02*
X1450D01*
X1468D02*
X1479D01*
X1483D02*
X1488D01*
X1500D02*
X1505D01*
X1519D02*
X1525D01*
X1539D02*
X1550D01*
X1554D02*
X1559D01*
X1567D02*
X1572D01*
X1591D02*
X1608D01*
X1384Y715D02*
X1390D01*
X1403D02*
X1408D01*
X1416D02*
X1430D01*
X1432D02*
X1437D01*
X1445D02*
X1450D01*
X1467D02*
X1481D01*
X1483D02*
X1488D01*
X1500D02*
X1505D01*
X1519D02*
X1525D01*
X1538D02*
X1551D01*
X1554D02*
X1559D01*
X1567D02*
X1572D01*
X1590D02*
X1610D01*
X1384Y716D02*
X1390D01*
X1403D02*
X1408D01*
X1415D02*
X1431D01*
X1432D02*
X1437D01*
X1445D02*
X1450D01*
X1466D02*
X1482D01*
X1483D02*
X1488D01*
X1500D02*
X1506D01*
X1519D02*
X1525D01*
X1537D02*
X1553D01*
X1554D02*
X1559D01*
X1567D02*
X1572D01*
X1589D02*
X1610D01*
X1384Y717D02*
X1390D01*
X1403D02*
X1408D01*
X1414D02*
X1437D01*
X1445D02*
X1450D01*
X1465D02*
X1488D01*
X1499D02*
X1506D01*
X1519D02*
X1525D01*
X1536D02*
X1559D01*
X1567D02*
X1572D01*
X1588D02*
X1610D01*
X1384Y718D02*
X1390D01*
X1403D02*
X1408D01*
X1414D02*
X1420D01*
X1427D02*
X1437D01*
X1445D02*
X1450D01*
X1465D02*
X1472D01*
X1478D02*
X1488D01*
X1499D02*
X1506D01*
X1518D02*
X1526D01*
X1536D02*
X1542D01*
X1549D02*
X1559D01*
X1567D02*
X1572D01*
X1587D02*
X1596D01*
X1604D02*
X1610D01*
X1384Y719D02*
X1390D01*
X1403D02*
X1408D01*
X1413D02*
X1419D01*
X1429D02*
X1437D01*
X1445D02*
X1450D01*
X1464D02*
X1471D01*
X1480D02*
X1488D01*
X1499D02*
X1507D01*
X1518D02*
X1526D01*
X1535D02*
X1541D01*
X1551D02*
X1559D01*
X1567D02*
X1572D01*
X1587D02*
X1594D01*
X1606D02*
X1610D01*
X1384Y720D02*
X1390D01*
X1403D02*
X1408D01*
X1413D02*
X1419D01*
X1431D02*
X1437D01*
X1445D02*
X1450D01*
X1464D02*
X1470D01*
X1481D02*
X1488D01*
X1499D02*
X1507D01*
X1518D02*
X1526D01*
X1535D02*
X1541D01*
X1552D02*
X1559D01*
X1567D02*
X1572D01*
X1586D02*
X1592D01*
X1609D02*
X1610D01*
X1384Y721D02*
X1390D01*
X1403D02*
X1408D01*
X1413D02*
X1418D01*
X1432D02*
X1437D01*
X1445D02*
X1450D01*
X1463D02*
X1469D01*
X1483D02*
X1488D01*
X1498D02*
X1503D01*
X1503D02*
X1507D01*
X1517D02*
X1522D01*
X1522D02*
X1526D01*
X1535D02*
X1540D01*
X1554D02*
X1559D01*
X1567D02*
X1572D01*
X1586D02*
X1592D01*
X1384Y721D02*
X1390D01*
X1403D02*
X1408D01*
X1413D02*
X1418D01*
X1432D02*
X1437D01*
X1445D02*
X1450D01*
X1463D02*
X1469D01*
X1483D02*
X1488D01*
X1498D02*
X1503D01*
X1503D02*
X1508D01*
X1517D02*
X1522D01*
X1523D02*
X1527D01*
X1534D02*
X1540D01*
X1554D02*
X1559D01*
X1567D02*
X1572D01*
X1585D02*
X1591D01*
X1384Y722D02*
X1390D01*
X1403D02*
X1408D01*
X1413D02*
X1418D01*
X1432D02*
X1437D01*
X1445D02*
X1450D01*
X1463D02*
X1468D01*
X1483D02*
X1488D01*
X1498D02*
X1502D01*
X1504D02*
X1508D01*
X1517D02*
X1521D01*
X1523D02*
X1527D01*
X1534D02*
X1540D01*
X1554D02*
X1559D01*
X1567D02*
X1572D01*
X1585D02*
X1590D01*
X1384Y723D02*
X1390D01*
X1403D02*
X1408D01*
X1413D02*
X1418D01*
X1432D02*
X1437D01*
X1445D02*
X1450D01*
X1463D02*
X1468D01*
X1483D02*
X1488D01*
X1498D02*
X1502D01*
X1504D02*
X1508D01*
X1516D02*
X1521D01*
X1523D02*
X1527D01*
X1535D02*
X1540D01*
X1554D02*
X1559D01*
X1567D02*
X1572D01*
X1585D02*
X1590D01*
X1384Y724D02*
X1390D01*
X1403D02*
X1408D01*
X1413D02*
X1419D01*
X1432D02*
X1437D01*
X1445D02*
X1450D01*
X1462D02*
X1468D01*
X1483D02*
X1488D01*
X1497D02*
X1502D01*
X1504D02*
X1508D01*
X1516D02*
X1521D01*
X1523D02*
X1527D01*
X1535D02*
X1540D01*
X1554D02*
X1559D01*
X1567D02*
X1572D01*
X1585D02*
X1590D01*
X1384Y725D02*
X1390D01*
X1403D02*
X1408D01*
X1413D02*
X1419D01*
X1432D02*
X1437D01*
X1445D02*
X1450D01*
X1462D02*
X1468D01*
X1483D02*
X1488D01*
X1497D02*
X1502D01*
X1505D02*
X1509D01*
X1516D02*
X1521D01*
X1523D02*
X1528D01*
X1535D02*
X1541D01*
X1554D02*
X1559D01*
X1567D02*
X1572D01*
X1584D02*
X1590D01*
X1384Y726D02*
X1390D01*
X1403D02*
X1408D01*
X1414D02*
X1420D01*
X1432D02*
X1437D01*
X1445D02*
X1450D01*
X1462D02*
X1468D01*
X1483D02*
X1488D01*
X1497D02*
X1501D01*
X1505D02*
X1509D01*
X1516D02*
X1520D01*
X1524D02*
X1528D01*
X1535D02*
X1542D01*
X1554D02*
X1559D01*
X1567D02*
X1572D01*
X1584D02*
X1590D01*
X1384Y727D02*
X1390D01*
X1403D02*
X1408D01*
X1414D02*
X1421D01*
X1432D02*
X1437D01*
X1445D02*
X1450D01*
X1462D02*
X1468D01*
X1483D02*
X1488D01*
X1497D02*
X1501D01*
X1505D02*
X1509D01*
X1515D02*
X1520D01*
X1524D02*
X1528D01*
X1536D02*
X1543D01*
X1554D02*
X1559D01*
X1567D02*
X1572D01*
X1584D02*
X1589D01*
X1384Y728D02*
X1390D01*
X1403D02*
X1408D01*
X1415D02*
X1424D01*
X1432D02*
X1437D01*
X1445D02*
X1450D01*
X1462D02*
X1467D01*
X1483D02*
X1488D01*
X1496D02*
X1501D01*
X1506D02*
X1510D01*
X1515D02*
X1520D01*
X1524D02*
X1528D01*
X1537D02*
X1545D01*
X1554D02*
X1559D01*
X1567D02*
X1572D01*
X1584D02*
X1611D01*
X1384Y729D02*
X1390D01*
X1403D02*
X1408D01*
X1416D02*
X1430D01*
X1432D02*
X1437D01*
X1445D02*
X1450D01*
X1462D02*
X1468D01*
X1483D02*
X1488D01*
X1496D02*
X1501D01*
X1506D02*
X1510D01*
X1515D02*
X1519D01*
X1524D02*
X1529D01*
X1537D02*
X1552D01*
X1554D02*
X1559D01*
X1567D02*
X1572D01*
X1584D02*
X1611D01*
X1384Y730D02*
X1390D01*
X1403D02*
X1408D01*
X1417D02*
X1437D01*
X1445D02*
X1450D01*
X1463D02*
X1468D01*
X1483D02*
X1488D01*
X1496D02*
X1501D01*
X1506D02*
X1510D01*
X1514D02*
X1519D01*
X1524D02*
X1529D01*
X1538D02*
X1559D01*
X1567D02*
X1572D01*
X1584D02*
X1611D01*
X1384Y731D02*
X1390D01*
X1403D02*
X1408D01*
X1418D02*
X1437D01*
X1445D02*
X1450D01*
X1463D02*
X1468D01*
X1483D02*
X1488D01*
X1496D02*
X1500D01*
X1506D02*
X1510D01*
X1514D02*
X1519D01*
X1525D02*
X1529D01*
X1539D02*
X1559D01*
X1567D02*
X1572D01*
X1585D02*
X1611D01*
X1384Y732D02*
X1390D01*
X1403D02*
X1408D01*
X1421D02*
X1437D01*
X1445D02*
X1450D01*
X1463D02*
X1468D01*
X1483D02*
X1488D01*
X1495D02*
X1500D01*
X1507D02*
X1511D01*
X1514D02*
X1518D01*
X1525D02*
X1529D01*
X1542D02*
X1559D01*
X1567D02*
X1572D01*
X1585D02*
X1611D01*
X1384Y733D02*
X1390D01*
X1403D02*
X1408D01*
X1426D02*
X1437D01*
X1445D02*
X1450D01*
X1463D02*
X1468D01*
X1483D02*
X1488D01*
X1495D02*
X1500D01*
X1507D02*
X1511D01*
X1514D02*
X1518D01*
X1525D02*
X1530D01*
X1548D02*
X1559D01*
X1567D02*
X1572D01*
X1585D02*
X1589D01*
X1605D02*
X1610D01*
X1384Y734D02*
X1390D01*
X1403D02*
X1408D01*
X1432D02*
X1437D01*
X1445D02*
X1450D01*
X1463D02*
X1468D01*
X1483D02*
X1488D01*
X1495D02*
X1500D01*
X1507D02*
X1511D01*
X1513D02*
X1518D01*
X1525D02*
X1530D01*
X1554D02*
X1559D01*
X1567D02*
X1572D01*
X1585D02*
X1590D01*
X1605D02*
X1610D01*
X1384Y735D02*
X1390D01*
X1402D02*
X1408D01*
X1432D02*
X1437D01*
X1445D02*
X1450D01*
X1463D02*
X1469D01*
X1483D02*
X1488D01*
X1495D02*
X1500D01*
X1508D02*
X1512D01*
X1513D02*
X1517D01*
X1525D02*
X1530D01*
X1554D02*
X1559D01*
X1567D02*
X1572D01*
X1585D02*
X1590D01*
X1605D02*
X1610D01*
X1384Y736D02*
X1390D01*
X1402D02*
X1407D01*
X1432D02*
X1437D01*
X1445D02*
X1451D01*
X1464D02*
X1469D01*
X1483D02*
X1488D01*
X1494D02*
X1499D01*
X1508D02*
X1512D01*
X1513D02*
X1517D01*
X1525D02*
X1530D01*
X1553D02*
X1559D01*
X1567D02*
X1573D01*
X1586D02*
X1590D01*
X1605D02*
X1610D01*
X1384Y736D02*
X1391D01*
X1402D02*
X1407D01*
X1431D02*
X1437D01*
X1445D02*
X1453D01*
X1464D02*
X1469D01*
X1483D02*
X1488D01*
X1494D02*
X1499D01*
X1508D02*
X1512D01*
X1512D02*
X1517D01*
X1526D02*
X1531D01*
X1553D02*
X1559D01*
X1567D02*
X1575D01*
X1586D02*
X1591D01*
X1604D02*
X1610D01*
X1384Y737D02*
X1393D01*
X1402D02*
X1407D01*
X1415D02*
X1416D01*
X1431D02*
X1437D01*
X1445D02*
X1455D01*
X1465D02*
X1471D01*
X1483D02*
X1488D01*
X1494D02*
X1499D01*
X1508D02*
X1516D01*
X1526D02*
X1531D01*
X1537D02*
X1538D01*
X1553D02*
X1559D01*
X1567D02*
X1577D01*
X1587D02*
X1592D01*
X1604D02*
X1609D01*
X1384Y738D02*
X1395D01*
X1400D02*
X1407D01*
X1415D02*
X1420D01*
X1430D02*
X1437D01*
X1445D02*
X1461D01*
X1465D02*
X1472D01*
X1481D02*
X1488D01*
X1494D02*
X1499D01*
X1509D02*
X1516D01*
X1526D02*
X1531D01*
X1537D02*
X1541D01*
X1552D02*
X1559D01*
X1567D02*
X1583D01*
X1587D02*
X1593D01*
X1603D02*
X1609D01*
X1384Y739D02*
X1406D01*
X1415D02*
X1436D01*
X1445D02*
X1450D01*
X1451D02*
X1461D01*
X1466D02*
X1488D01*
X1493D02*
X1498D01*
X1509D02*
X1516D01*
X1526D02*
X1531D01*
X1537D02*
X1558D01*
X1567D02*
X1572D01*
X1573D02*
X1583D01*
X1588D02*
X1595D01*
X1601D02*
X1608D01*
X1384Y740D02*
X1390D01*
X1390D02*
X1406D01*
X1415D02*
X1435D01*
X1445D02*
X1450D01*
X1452D02*
X1461D01*
X1467D02*
X1488D01*
X1493D02*
X1498D01*
X1509D02*
X1515D01*
X1526D02*
X1532D01*
X1537D02*
X1557D01*
X1567D02*
X1572D01*
X1574D02*
X1583D01*
X1589D02*
X1608D01*
X1384Y741D02*
X1390D01*
X1392D02*
X1405D01*
X1415D02*
X1435D01*
X1445D02*
X1450D01*
X1454D02*
X1461D01*
X1468D02*
X1488D01*
X1493D02*
X1498D01*
X1510D02*
X1515D01*
X1527D02*
X1532D01*
X1537D02*
X1556D01*
X1567D02*
X1572D01*
X1575D02*
X1583D01*
X1591D02*
X1607D01*
X1384Y742D02*
X1390D01*
X1394D02*
X1404D01*
X1415D02*
X1434D01*
X1445D02*
X1450D01*
X1455D02*
X1461D01*
X1469D02*
X1483D01*
X1483D02*
X1488D01*
X1493D02*
X1498D01*
X1510D02*
X1515D01*
X1527D02*
X1532D01*
X1537D02*
X1555D01*
X1567D02*
X1572D01*
X1577D02*
X1583D01*
X1592D02*
X1605D01*
X1384Y743D02*
X1390D01*
X1396D02*
X1403D01*
X1418D02*
X1431D01*
X1445D02*
X1450D01*
X1458D02*
X1461D01*
X1472D02*
X1480D01*
X1483D02*
X1488D01*
X1492D02*
X1498D01*
X1510D02*
X1514D01*
X1527D02*
X1532D01*
X1539D02*
X1553D01*
X1567D02*
X1572D01*
X1580D02*
X1583D01*
X1594D02*
X1604D01*
X1384Y744D02*
X1390D01*
X1483D02*
X1488D01*
X1384Y745D02*
X1390D01*
X1483D02*
X1488D01*
X1384Y746D02*
X1390D01*
X1483D02*
X1488D01*
X1384Y747D02*
X1390D01*
X1483D02*
X1488D01*
X1384Y748D02*
X1390D01*
X1483D02*
X1488D01*
X1384Y749D02*
X1390D01*
X1483D02*
X1488D01*
X1384Y750D02*
X1390D01*
X1483D02*
X1488D01*
X1384Y751D02*
X1390D01*
X1483D02*
X1488D01*
X1384Y751D02*
X1390D01*
X1483D02*
X1488D01*
X1384Y752D02*
X1390D01*
X1483D02*
X1488D01*
X1384Y753D02*
X1390D01*
X1483D02*
X1488D01*
X1384Y754D02*
X1390D01*
X1483D02*
X1488D01*
X1384Y755D02*
X1390D01*
X1483D02*
X1488D01*
X1418Y1147D02*
Y1153D01*
X1420Y1156*
X1421Y1158*
X1424Y1159*
X1427*
X1431Y1158*
X1432Y1156*
X1434Y1153*
Y1147*
X1432Y1144*
X1431Y1142*
X1427Y1140*
X1424*
X1421Y1142*
X1420Y1144*
X1418Y1147*
X1429Y1145D02*
X1434Y1140D01*
X1443D02*
X1456Y1159D01*
X1443*
X1468Y1049D02*
Y1165D01*
X1506*
Y1049*
X1468*
X1469Y1306D02*
X1457D01*
Y1283*
X1469*
Y1306*
G36*
X1457*
Y1283*
X1469*
Y1306*
G37*
Y1365D02*
X1457D01*
Y1342*
X1469*
Y1365*
G36*
X1457*
Y1342*
X1469*
Y1365*
G37*
X1482Y1437D02*
X1462D01*
Y1400*
X1482*
Y1437*
G36*
X1462*
Y1400*
X1482*
Y1437*
G37*
X1487Y1306D02*
X1471D01*
Y1283*
X1487*
Y1306*
G36*
X1471*
Y1283*
X1487*
Y1306*
G37*
Y1365D02*
X1471D01*
Y1342*
X1487*
Y1365*
G36*
X1471*
Y1342*
X1487*
Y1365*
G37*
X1487Y1308D02*
X1471D01*
Y1280*
X1487*
Y1308*
G36*
X1471*
Y1280*
X1487*
Y1308*
G37*
Y1367D02*
X1471D01*
Y1339*
X1487*
Y1367*
G36*
X1471*
Y1339*
X1487*
Y1367*
G37*
X1499Y1100D02*
Y1115D01*
X1475*
Y1100*
X1499*
G36*
Y1115*
X1475*
Y1100*
X1499*
G37*
X1499Y1086D02*
Y1097D01*
X1475*
Y1086*
X1499*
G36*
Y1097*
X1475*
Y1086*
X1499*
G37*
Y1118D02*
Y1129D01*
X1475*
Y1118*
X1499*
G36*
Y1129*
X1475*
Y1118*
X1499*
G37*
X1501Y1306D02*
X1489D01*
Y1283*
X1501*
Y1306*
G36*
X1489*
Y1283*
X1501*
Y1306*
G37*
Y1365D02*
X1489D01*
Y1342*
X1501*
Y1365*
G36*
X1489*
Y1342*
X1501*
Y1365*
G37*
X1501Y1099D02*
Y1115D01*
X1473*
Y1099*
X1501*
G36*
Y1115*
X1473*
Y1099*
X1501*
G37*
X1502Y1430D02*
X1487D01*
Y1407*
X1502*
Y1430*
G36*
X1487*
Y1407*
X1502*
Y1430*
G37*
X1504Y1433D02*
X1486D01*
Y1403*
X1504*
Y1433*
G36*
X1486*
Y1403*
X1504*
Y1433*
G37*
X1528Y1437D02*
X1508D01*
Y1400*
X1528*
Y1437*
G36*
X1508*
Y1400*
X1528*
Y1437*
G37*
X1537Y1275D02*
X1421D01*
Y1313*
X1537*
Y1275*
Y1334D02*
X1421D01*
Y1373*
X1537*
Y1334*
X1553Y1380D02*
X1437D01*
Y1457*
X1553*
Y1380*
X1614Y1585D02*
X1595D01*
Y1547*
X1614*
Y1585*
G36*
X1595*
Y1547*
X1614*
Y1585*
G37*
X1660Y1289D02*
Y1307D01*
X1669*
X1673Y1306*
X1674Y1304*
X1676Y1301*
Y1295*
X1674Y1292*
X1673Y1290*
X1669Y1289*
X1660*
X1685Y1290D02*
X1688Y1289D01*
X1693*
X1696Y1290*
X1698Y1293*
Y1295*
X1696Y1298*
X1693Y1300*
X1685*
Y1307*
X1698*
X1673Y1585D02*
X1654D01*
Y1547*
X1673*
Y1585*
G36*
X1654*
Y1547*
X1673*
Y1585*
G37*
X1700Y1485D02*
X1628D01*
Y1412*
X1700*
Y1485*
G36*
X1628*
Y1412*
X1700*
Y1485*
G37*
X1732Y1585D02*
X1714D01*
Y1547*
X1732*
Y1585*
G36*
X1714*
Y1547*
X1732*
Y1585*
G37*
X1733Y1638D02*
X1721D01*
Y1614*
X1733*
Y1638*
G36*
X1721*
Y1614*
X1733*
Y1638*
G37*
X1751Y1638D02*
X1735D01*
Y1614*
X1751*
Y1638*
G36*
X1735*
Y1614*
X1751*
Y1638*
G37*
X1765Y1638D02*
X1753D01*
Y1614*
X1765*
Y1638*
G36*
X1753*
Y1614*
X1765*
Y1638*
G37*
X1801Y1607D02*
X1685D01*
Y1645*
X1801*
Y1607*
D02*
D17*
X485Y1572D02*
X466D01*
X480Y1581D02*
X471Y1562D01*
X480D02*
X471Y1581D01*
X486Y1241D02*
X466D01*
X481Y1250D02*
X471Y1231D01*
X481D02*
X471Y1250D01*
X762Y1187D02*
X743D01*
X757Y1197D02*
X747Y1177D01*
X757D02*
X747Y1197D01*
X879Y1572D02*
X860D01*
X874Y1581D02*
X865Y1562D01*
X874D02*
X865Y1581D01*
X884Y1254D02*
X864D01*
X879Y1264D02*
X869Y1244D01*
X879D02*
X869Y1264D01*
X922Y1020D02*
X903D01*
X917Y1030D02*
X908Y1010D01*
X917D02*
X908Y1030D01*
X1161Y1187D02*
X1141D01*
X1156Y1197D02*
X1146Y1177D01*
X1156D02*
X1146Y1197D01*
X1264Y1254D02*
X1245D01*
X1259Y1264D02*
X1250Y1245D01*
X1259D02*
X1250Y1264D01*
X1271Y1569D02*
X1251D01*
X1266Y1579D02*
X1256Y1559D01*
X1266D02*
X1256Y1579D01*
X1568Y1187D02*
X1548D01*
X1563Y1197D02*
X1553Y1177D01*
X1563D02*
X1553Y1197D01*
D02*
D18*
X201Y1090D02*
X198Y1088D01*
X193Y1085*
X186*
X181Y1088*
X179Y1090*
X176Y1095*
Y1105*
X179Y1110*
X181Y1112*
X186Y1115*
X193*
X198Y1112*
X201Y1110*
X240Y1090D02*
X238Y1088D01*
X233Y1085*
X225*
X220Y1088*
X218Y1090*
X215Y1095*
Y1105*
X218Y1110*
X220Y1112*
X225Y1115*
X233*
X238Y1112*
X240Y1110*
X311Y1100D02*
X316Y1097D01*
X319Y1092*
X316Y1088*
X311Y1085*
X294*
Y1115*
X311*
X316Y1112*
X319Y1107*
X316Y1102*
X311Y1100*
X294*
X346Y1085D02*
Y1100D01*
X334Y1115*
X346Y1100D02*
X358Y1115D01*
X373Y1095D02*
X393D01*
X412Y1092D02*
X415Y1088D01*
X420Y1085*
X430*
X434Y1088*
X437Y1092*
X434Y1097*
X430Y1100*
X420*
X415Y1102*
X412Y1107*
X415Y1112*
X420Y1115*
X430*
X434Y1112*
X437Y1107*
X452Y1085D02*
X464Y1115D01*
X476Y1085*
X457Y1097D02*
X471D01*
X315Y1162D02*
X312Y1159D01*
X306Y1156*
X297*
X291Y1159*
X288Y1162*
X285Y1168*
Y1180*
X288Y1186*
X291Y1189*
X297Y1192*
X306*
X312Y1189*
X315Y1186*
X350Y1161D02*
X347Y1158D01*
X342Y1155*
X333*
X327Y1158*
X324Y1161*
X321Y1167*
Y1179*
X324Y1185*
X327Y1188*
X333Y1190*
X342*
X347Y1188*
X350Y1185*
D02*
D19*
X178Y1066D02*
X175Y1067D01*
X172*
X170Y1066*
X169Y1064*
Y1062*
X170Y1059*
X172Y1058*
X175*
X178Y1059*
X186Y1058D02*
Y1067D01*
Y1064D02*
X187Y1066D01*
X190Y1067*
X192*
X194Y1066*
X213Y1059D02*
X212Y1058D01*
X210*
X207*
X205Y1059*
X204Y1062*
Y1065*
X205Y1066*
X207Y1067*
X210*
X212Y1066*
X213Y1065*
Y1064*
X212Y1063*
X210Y1062*
X207*
X205Y1063*
X204Y1064*
X222Y1066D02*
X224Y1067D01*
X227*
X230Y1066*
X231Y1064*
Y1060*
X230Y1059*
X227Y1058*
X225*
X223Y1059*
X222Y1060*
Y1062*
X223Y1063*
X225Y1064*
X227*
X230Y1063*
X231Y1062*
Y1060D02*
Y1058D01*
X242Y1067D02*
X246D01*
X244Y1069D02*
Y1059D01*
X245Y1058*
X246*
X247Y1059*
X262Y1058D02*
Y1067D01*
Y1070D02*
X275Y1067*
X279Y1058D01*
X284Y1067*
X302Y1059D02*
X300Y1058D01*
X298*
X296*
X294Y1059*
X293Y1062*
Y1065*
X294Y1066*
X296Y1067*
X298*
X300Y1066*
X302Y1065*
Y1064*
X300Y1063*
X298Y1062*
X296*
X294Y1063*
X293Y1064*
X319Y1066D02*
X317Y1067D01*
X314*
X311Y1066*
X310Y1064*
Y1062*
X311Y1059*
X314Y1058*
X317*
X319Y1059*
X328Y1062D02*
X329Y1059D01*
X331Y1058*
X334*
X336Y1059*
X337Y1062*
Y1064*
X336Y1066*
X334Y1067*
X331*
X329Y1066*
X328Y1064*
Y1062*
X346Y1058D02*
Y1067D01*
Y1066D02*
X347Y1067D01*
X349*
X350Y1066*
Y1063*
Y1066D02*
X351Y1067D01*
X354*
X355Y1066*
Y1058*
X364D02*
Y1067D01*
Y1066D02*
X365Y1067D01*
X367*
X368Y1066*
Y1063*
Y1066D02*
X369Y1067D01*
X371*
X372Y1066*
Y1058*
X381Y1062D02*
X382Y1059D01*
X385Y1058*
X387*
X389Y1059*
X390Y1062*
Y1064*
X389Y1066*
X387Y1067*
X385*
X382Y1066*
X381Y1064*
Y1062*
X399Y1058D02*
Y1067D01*
Y1064D02*
X400Y1066D01*
X402Y1067*
X404*
X407Y1066*
X408Y1064*
Y1058*
X417Y1059D02*
X419Y1058D01*
X423*
X426Y1059*
Y1062*
X423Y1063*
X419*
X417Y1064*
Y1066*
X419Y1067*
X423*
X426Y1066*
X435Y1058D02*
X437Y1059D01*
X435Y1060*
X434Y1059*
X435Y1058*
X452Y1062D02*
X453Y1059D01*
X455Y1058*
X458*
X460Y1059*
X461Y1062*
Y1064*
X460Y1066*
X458Y1067*
X455*
X453Y1066*
X452Y1064*
Y1062*
X470Y1058D02*
Y1067D01*
Y1064D02*
X471Y1066D01*
X473Y1067*
X475*
X478Y1066*
X496Y1064D02*
X495Y1066D01*
X493Y1067*
X491*
X489Y1066*
X488Y1064*
Y1063*
X489Y1060*
X491Y1059*
X493*
X495Y1060*
X496Y1063*
Y1067D02*
Y1058D01*
X495Y1056*
X493Y1055*
X490*
X488Y1056*
D02*
D70*
X514Y1404D02*
X542D01*
X514Y1437D02*
X542D01*
X715Y1405D02*
X687D01*
X715Y1439D02*
X687D01*
X908Y1404D02*
X936D01*
X908Y1437D02*
X936D01*
X1113Y1403D02*
X1085D01*
X1113Y1437D02*
X1085D01*
X1301Y1404D02*
X1330D01*
X1301Y1437D02*
X1330D01*
X1509Y1401D02*
X1481D01*
X1509Y1435D02*
X1481D01*
D02*
D71*
X259Y1403D02*
X247D01*
Y1410*
X248Y1412*
X250Y1413*
X252Y1412*
X253Y1410*
Y1403*
Y1410D02*
X259Y1413D01*
X258Y1420D02*
X259Y1422D01*
Y1424*
X258Y1426*
X256Y1427*
X254Y1426*
X253Y1424*
Y1422*
Y1424D02*
X252Y1426D01*
X250Y1427*
X248Y1426*
X247Y1424*
Y1422*
X248Y1420*
X258Y1436D02*
X259Y1438D01*
Y1440*
X258Y1442*
X256Y1443*
X250*
X248Y1442*
X247Y1440*
Y1438*
X248Y1436*
X250Y1435*
X256*
X258Y1436*
X248Y1442*
X259Y1544D02*
X247D01*
Y1551*
X248Y1553*
X250Y1554*
X252Y1553*
X253Y1551*
Y1544*
Y1551D02*
X259Y1554D01*
Y1568D02*
Y1560D01*
X252Y1567*
X250Y1568*
X248Y1567*
X247Y1565*
Y1562*
X248Y1560*
X259Y1579D02*
X258Y1581D01*
X256Y1583*
X253Y1584*
X250*
X248Y1583*
X247Y1581*
Y1579*
X248Y1577*
X250Y1576*
X252Y1577*
X253Y1579*
Y1581*
X252Y1583*
X250Y1584*
X318Y1371D02*
X306D01*
Y1378*
X307Y1380*
X309Y1381*
X311Y1380*
X312Y1378*
Y1371*
Y1378D02*
X318Y1381D01*
Y1395D02*
Y1387D01*
X311Y1394*
X309Y1395*
X307Y1394*
X306Y1392*
Y1389*
X307Y1387*
X315Y1403D02*
X313Y1404D01*
X312Y1406*
Y1408*
X313Y1410*
X315Y1411*
X317Y1410*
X318Y1408*
Y1406*
X317Y1404*
X315Y1403*
X312*
X309Y1404*
X307Y1406*
X306Y1408*
X318Y1513D02*
X306D01*
Y1520*
X307Y1522*
X309Y1523*
X311Y1522*
X312Y1520*
Y1513*
Y1520D02*
X318Y1523D01*
Y1537D02*
Y1529D01*
X311Y1536*
X309Y1537*
X307Y1536*
X306Y1534*
Y1531*
X307Y1529*
X317Y1545D02*
X318Y1547D01*
Y1550*
X317Y1552*
X315Y1553*
X314*
X312Y1552*
X311Y1550*
Y1545*
X306*
Y1553*
X377Y1481D02*
X365D01*
Y1488*
X366Y1490*
X368Y1491*
X370Y1490*
X371Y1488*
Y1481*
Y1488D02*
X377Y1491D01*
Y1505D02*
Y1497D01*
X370Y1504*
X368Y1505*
X366Y1504*
X365Y1502*
Y1499*
X366Y1497*
X371Y1516D02*
Y1518D01*
X370Y1520*
X368Y1521*
X366Y1520*
X365Y1518*
Y1516*
X366Y1514*
X368Y1513*
X370Y1514*
X371Y1516*
X372Y1514*
X374Y1513*
X376Y1514*
X377Y1516*
Y1518*
X376Y1520*
X374Y1521*
X372Y1520*
X371Y1518*
X378Y1353D02*
X366D01*
Y1360*
X367Y1362*
X369Y1363*
X371Y1362*
X372Y1360*
Y1353*
Y1360D02*
X378Y1363D01*
Y1377D02*
Y1369D01*
X371Y1376*
X369Y1377*
X367Y1376*
X366Y1374*
Y1371*
X367Y1369*
X378Y1385D02*
X366Y1393D01*
Y1385*
X493Y1110D02*
Y1122D01*
X500*
X502Y1121*
X503Y1119*
X502Y1117*
X500Y1116*
X493*
X500D02*
X503Y1110D01*
X509Y1113D02*
X510Y1115D01*
X512Y1116*
X514*
X516Y1115*
X517Y1113*
X516Y1111*
X514Y1110*
X512*
X510Y1111*
X509Y1113*
Y1116*
X510Y1119*
X512Y1121*
X514Y1122*
X516Y1451D02*
Y1463D01*
X523*
X525Y1462*
X526Y1460*
X525Y1458*
X523Y1457*
X516*
X523D02*
X526Y1451D01*
X540D02*
X532D01*
X539Y1458*
X540Y1460*
X539Y1462*
X537Y1463*
X534*
X532Y1462*
X547Y1316D02*
Y1328D01*
X554*
X556Y1327*
X557Y1325*
X556Y1323*
X554Y1322*
X547*
X554D02*
X557Y1316D01*
X563D02*
X571Y1328D01*
X563*
X547Y1379D02*
Y1391D01*
X554*
X556Y1390*
X557Y1388*
X556Y1386*
X554Y1385*
X547*
X554D02*
X557Y1379D01*
X566Y1385D02*
X568D01*
X570Y1386*
X571Y1388*
X570Y1390*
X568Y1391*
X566*
X564Y1390*
X563Y1388*
X564Y1386*
X566Y1385*
X564Y1384*
X563Y1382*
X564Y1380*
X566Y1379*
X568*
X570Y1380*
X571Y1382*
X570Y1384*
X568Y1385*
X633Y1110D02*
Y1122D01*
X640*
X642Y1121*
X643Y1119*
X642Y1117*
X640Y1116*
X633*
X640D02*
X643Y1110D01*
X650Y1111D02*
X652Y1110D01*
X654*
X656Y1111*
X657Y1113*
X656Y1115*
X654Y1116*
X652*
X654D02*
X656Y1117D01*
X657Y1119*
X656Y1121*
X654Y1122*
X652*
X650Y1121*
X663Y1379D02*
Y1391D01*
X670*
X672Y1390*
X673Y1388*
X672Y1386*
X670Y1385*
X663*
X670D02*
X673Y1379D01*
X679Y1380D02*
X681Y1379D01*
X684*
X686Y1380*
X687Y1382*
Y1383*
X686Y1385*
X684Y1386*
X679*
Y1391*
X687*
X664Y1316D02*
Y1328D01*
X671*
X673Y1327*
X674Y1325*
X673Y1323*
X671Y1322*
X664*
X671D02*
X674Y1316D01*
X685D02*
Y1328D01*
X680Y1320*
X688*
X691Y1453D02*
Y1465D01*
X698*
X700Y1464*
X701Y1462*
X700Y1460*
X698Y1459*
X691*
X698D02*
X701Y1453D01*
X709D02*
X713D01*
X711D02*
Y1465D01*
X709Y1463*
X756Y1053D02*
X755Y1052D01*
X753Y1051*
X750*
X748Y1052*
X747Y1053*
X746Y1055*
Y1059*
X747Y1061*
X748Y1062*
X750Y1063*
X753*
X755Y1062*
X756Y1061*
X770Y1051D02*
X762D01*
X769Y1058*
X770Y1060*
X769Y1062*
X767Y1063*
X764*
X762Y1062*
X877Y1110D02*
Y1122D01*
X884*
X886Y1121*
X887Y1119*
X886Y1117*
X884Y1116*
X877*
X884D02*
X887Y1110D01*
X895D02*
X899D01*
X897D02*
Y1122D01*
X895Y1120*
X914Y1110D02*
Y1122D01*
X909Y1114*
X917*
X901Y1451D02*
Y1463D01*
X908*
X910Y1462*
X911Y1460*
X910Y1458*
X908Y1457*
X901*
X908D02*
X911Y1451D01*
X919D02*
X923D01*
X921D02*
Y1463D01*
X919Y1461*
X934Y1452D02*
X936Y1451D01*
X938*
X940Y1452*
X941Y1454*
Y1460*
X940Y1462*
X938Y1463*
X936*
X934Y1462*
X933Y1460*
Y1454*
X934Y1452*
X940Y1462*
X932Y1316D02*
Y1328D01*
X939*
X941Y1327*
X942Y1325*
X941Y1323*
X939Y1322*
X932*
X939D02*
X942Y1316D01*
X950D02*
X954D01*
X952D02*
Y1328D01*
X950Y1326*
X964Y1317D02*
X966Y1316D01*
X969*
X971Y1317*
X972Y1319*
Y1320*
X971Y1322*
X969Y1323*
X964*
Y1328*
X972*
X932Y1379D02*
Y1391D01*
X939*
X941Y1390*
X942Y1388*
X941Y1386*
X939Y1385*
X932*
X939D02*
X942Y1379D01*
X950D02*
X954D01*
X952D02*
Y1391D01*
X950Y1389*
X964Y1382D02*
X965Y1384D01*
X967Y1385*
X969*
X971Y1384*
X972Y1382*
X971Y1380*
X969Y1379*
X967*
X965Y1380*
X964Y1382*
Y1385*
X965Y1388*
X967Y1390*
X969Y1391*
X1013Y1108D02*
Y1120D01*
X1020*
X1022Y1119*
X1023Y1117*
X1022Y1115*
X1020Y1114*
X1013*
X1020D02*
X1023Y1108D01*
X1031D02*
X1035D01*
X1033D02*
Y1120D01*
X1031Y1118*
X1047Y1108D02*
X1051D01*
X1049D02*
Y1120D01*
X1047Y1118*
X1048Y1318D02*
Y1330D01*
X1055*
X1057Y1329*
X1058Y1327*
X1057Y1325*
X1055Y1324*
X1048*
X1055D02*
X1058Y1318D01*
X1066D02*
X1070D01*
X1068D02*
Y1330D01*
X1066Y1328*
X1088Y1318D02*
X1080D01*
X1087Y1325*
X1088Y1327*
X1087Y1329*
X1085Y1330*
X1082*
X1080Y1329*
X1050Y1378D02*
Y1390D01*
X1057*
X1059Y1389*
X1060Y1387*
X1059Y1385*
X1057Y1384*
X1050*
X1057D02*
X1060Y1378D01*
X1068D02*
X1072D01*
X1070D02*
Y1390D01*
X1068Y1388*
X1083Y1379D02*
X1085Y1378D01*
X1087*
X1089Y1379*
X1090Y1381*
X1089Y1383*
X1087Y1384*
X1085*
X1087D02*
X1089Y1385D01*
X1090Y1387*
X1089Y1389*
X1087Y1390*
X1085*
X1083Y1389*
X1086Y1451D02*
Y1463D01*
X1093*
X1095Y1462*
X1096Y1460*
X1095Y1458*
X1093Y1457*
X1086*
X1093D02*
X1096Y1451D01*
X1105D02*
X1107Y1452D01*
X1109Y1454*
X1110Y1457*
Y1460*
X1109Y1462*
X1107Y1463*
X1105*
X1103Y1462*
X1102Y1460*
X1103Y1458*
X1105Y1457*
X1107*
X1109Y1458*
X1110Y1460*
X1256Y1101D02*
Y1113D01*
X1263*
X1265Y1112*
X1266Y1110*
X1265Y1108*
X1263Y1107*
X1256*
X1263D02*
X1266Y1101D01*
X1280D02*
X1272D01*
X1279Y1108*
X1280Y1110*
X1279Y1112*
X1277Y1113*
X1274*
X1272Y1112*
X1296Y1101D02*
X1288D01*
X1295Y1108*
X1296Y1110*
X1295Y1112*
X1293Y1113*
X1290*
X1288Y1112*
X1296Y1451D02*
Y1463D01*
X1303*
X1305Y1462*
X1306Y1460*
X1305Y1458*
X1303Y1457*
X1296*
X1303D02*
X1306Y1451D01*
X1314D02*
X1318D01*
X1316D02*
Y1463D01*
X1314Y1461*
X1331Y1457D02*
X1333D01*
X1335Y1458*
X1336Y1460*
X1335Y1462*
X1333Y1463*
X1331*
X1329Y1462*
X1328Y1460*
X1329Y1458*
X1331Y1457*
X1329Y1456*
X1328Y1454*
X1329Y1452*
X1331Y1451*
X1333*
X1335Y1452*
X1336Y1454*
X1335Y1456*
X1333Y1457*
X1315Y1316D02*
Y1328D01*
X1322*
X1324Y1327*
X1325Y1325*
X1324Y1323*
X1322Y1322*
X1315*
X1322D02*
X1325Y1316D01*
X1339D02*
X1331D01*
X1338Y1323*
X1339Y1325*
X1338Y1327*
X1336Y1328*
X1333*
X1331Y1327*
X1348Y1317D02*
X1350Y1316D01*
X1352*
X1354Y1317*
X1355Y1319*
X1354Y1321*
X1352Y1322*
X1350*
X1352D02*
X1354Y1323D01*
X1355Y1325*
X1354Y1327*
X1352Y1328*
X1350*
X1348Y1327*
X1315Y1378D02*
Y1390D01*
X1322*
X1324Y1389*
X1325Y1387*
X1324Y1385*
X1322Y1384*
X1315*
X1322D02*
X1325Y1378D01*
X1339D02*
X1331D01*
X1338Y1385*
X1339Y1387*
X1338Y1389*
X1336Y1390*
X1333*
X1331Y1389*
X1352Y1378D02*
Y1390D01*
X1347Y1382*
X1355*
X1419Y1100D02*
Y1112D01*
X1426*
X1428Y1111*
X1429Y1109*
X1428Y1107*
X1426Y1106*
X1419*
X1426D02*
X1429Y1100D01*
X1437D02*
X1441D01*
X1439D02*
Y1112D01*
X1437Y1110*
X1454Y1100D02*
X1456Y1101D01*
X1458Y1103*
X1459Y1106*
Y1109*
X1458Y1111*
X1456Y1112*
X1454*
X1452Y1111*
X1451Y1109*
X1452Y1107*
X1454Y1106*
X1456*
X1458Y1107*
X1459Y1109*
X1459Y1319D02*
Y1331D01*
X1466*
X1468Y1330*
X1469Y1328*
X1468Y1326*
X1466Y1325*
X1459*
X1466D02*
X1469Y1319D01*
X1483D02*
X1475D01*
X1482Y1326*
X1483Y1328*
X1482Y1330*
X1480Y1331*
X1477*
X1475Y1330*
X1492Y1320D02*
X1494Y1319D01*
X1496*
X1498Y1320*
X1499Y1322*
Y1328*
X1498Y1330*
X1496Y1331*
X1494*
X1492Y1330*
X1491Y1328*
Y1322*
X1492Y1320*
X1498Y1330*
X1459Y1378D02*
Y1390D01*
X1466*
X1468Y1389*
X1469Y1387*
X1468Y1385*
X1466Y1384*
X1459*
X1466D02*
X1469Y1378D01*
X1483D02*
X1475D01*
X1482Y1385*
X1483Y1387*
X1482Y1389*
X1480Y1390*
X1477*
X1475Y1389*
X1493Y1378D02*
X1497D01*
X1495D02*
Y1390D01*
X1493Y1388*
X1473Y1447D02*
Y1459D01*
X1480*
X1482Y1458*
X1483Y1456*
X1482Y1454*
X1480Y1453*
X1473*
X1480D02*
X1483Y1447D01*
X1491D02*
X1495D01*
X1493D02*
Y1459D01*
X1491Y1457*
X1505Y1447D02*
X1513Y1459D01*
X1505*
X1723Y1427D02*
X1728Y1415D01*
X1733Y1427*
X1739Y1415D02*
Y1427D01*
X1746*
X1748Y1426*
X1749Y1424*
X1748Y1422*
X1746Y1421*
X1739*
X1746D02*
X1749Y1415D01*
X1757D02*
X1761D01*
X1759D02*
Y1427D01*
X1757Y1425*
X1741Y1657D02*
X1740Y1656D01*
X1738Y1655*
X1735*
X1733Y1656*
X1732Y1657*
X1731Y1659*
Y1663*
X1732Y1665*
X1733Y1666*
X1735Y1667*
X1738*
X1740Y1666*
X1741Y1665*
X1748Y1656D02*
X1750Y1655D01*
X1752*
X1754Y1656*
X1755Y1658*
X1754Y1660*
X1752Y1661*
X1750*
X1752D02*
X1754Y1662D01*
X1755Y1664*
X1754Y1666*
X1752Y1667*
X1750*
X1748Y1666*
D02*
D20*
X214Y1413D02*
Y1432D01*
Y1554D02*
Y1574D01*
X232Y1432D02*
Y1413D01*
Y1574D02*
Y1554D01*
X273Y1381D02*
Y1401D01*
Y1523D02*
Y1542D01*
X291Y1401D02*
Y1381D01*
Y1542D02*
Y1523D01*
X332Y1350D02*
Y1369D01*
Y1491D02*
Y1511D01*
X350Y1369D02*
Y1350D01*
Y1511D02*
Y1491D01*
X538Y1107D02*
Y1126D01*
X548Y1301D02*
X567D01*
X548Y1360D02*
X567D01*
X556Y1126D02*
Y1107D01*
X567Y1284D02*
X548D01*
X567Y1343D02*
X548D01*
X666Y1301D02*
X685D01*
X666Y1360D02*
X685D01*
X677Y1107D02*
Y1126D01*
X685Y1284D02*
X666D01*
X685Y1343D02*
X666D01*
X694Y1126D02*
Y1107D01*
X750Y1032D02*
X769D01*
Y1014D02*
X750D01*
X934Y1107D02*
Y1126D01*
X942Y1301D02*
X961D01*
X942Y1360D02*
X961D01*
X951Y1126D02*
Y1107D01*
X961Y1284D02*
X942D01*
X961Y1343D02*
X942D01*
X1060Y1301D02*
X1079D01*
X1060Y1360D02*
X1079D01*
X1070Y1106D02*
Y1125D01*
X1079Y1284D02*
X1060D01*
X1079Y1343D02*
X1060D01*
X1088Y1125D02*
Y1106D01*
X1317Y1098D02*
Y1117D01*
X1326Y1301D02*
X1345D01*
X1326Y1360D02*
X1345D01*
X1334Y1117D02*
Y1098D01*
X1345Y1284D02*
X1326D01*
X1345Y1343D02*
X1326D01*
X1469Y1303D02*
X1489D01*
X1469Y1362D02*
X1489D01*
X1478Y1098D02*
Y1117D01*
X1489Y1286D02*
X1469D01*
X1489Y1345D02*
X1469D01*
X1496Y1117D02*
Y1098D01*
X1733Y1635D02*
X1753D01*
Y1617D02*
X1733D01*
D02*
D21*
X759Y1022D02*
Y1024D01*
X1743Y1625D02*
Y1627D01*
D02*
D22*
X1754Y1446D02*
X1573D01*
Y1548*
X1754*
Y1446*
X0Y0D02*
M02*
