%FSLAX23Y23*%
%MOIN*%
G04 EasyPC Gerber Version 15.0.4 Build 3016 *
%ADD77R,0.02283X0.04724*%
%ADD29R,0.02559X0.06890*%
%ADD28R,0.02756X0.03543*%
%ADD26R,0.04331X0.03937*%
%ADD74R,0.06000X0.06000*%
%ADD78R,0.07874X0.07874*%
%ADD10C,0.00500*%
%ADD81C,0.01000*%
%ADD84C,0.01575*%
%ADD83C,0.01772*%
%ADD79C,0.01969*%
%ADD80C,0.02500*%
%ADD23C,0.02756*%
%ADD24C,0.03200*%
%ADD25R,0.01969X0.01575*%
%ADD76R,0.07087X0.01575*%
%ADD27R,0.03543X0.02756*%
%ADD82C,0.05000*%
%ADD75C,0.06000*%
%ADD72C,0.06500*%
%ADD73C,0.09055*%
X0Y0D02*
D02*
D10*
X316Y1962D02*
X128D01*
Y1824*
X392Y1560*
X1594*
X1643Y1609*
G75*
G02X1646Y1613I21J-13*
G01*
X1677Y1644*
G75*
G02X1681Y1647I18J-18*
G01*
X1814Y1780*
Y2035*
X1774Y2074*
X1577*
X1538Y2035*
Y1718*
X1499Y1678*
X465*
X436Y1708*
Y1962*
X432*
G75*
G02X316I-58*
G01*
X1669Y1922D02*
G75*
G02Y2007J43D01*
G01*
G75*
G02Y1922J-43*
G01*
X1538Y1965D02*
G36*
Y1718D01*
X1499Y1678*
X465*
X436Y1708*
Y1962*
X432*
G75*
G02X316I-58*
G01*
X128*
Y1824*
X392Y1560*
X1594*
X1643Y1609*
G75*
G02X1646Y1613I21J-13*
G01*
X1677Y1644*
G75*
G02X1681Y1647I18J-18*
G01*
X1814Y1780*
Y1965*
X1711*
G75*
G02X1669Y1922I-43*
G01*
G75*
G02X1626Y1965J43*
G01*
X1538*
G37*
X1626D02*
G36*
G75*
G02X1669Y2007I43D01*
G01*
G75*
G02X1711Y1965J-43*
G01*
X1814*
Y2035*
X1774Y2074*
X1577*
X1538Y2035*
Y1965*
X1626*
G37*
X524Y1544D02*
X386D01*
Y1442*
X445*
X465Y1472*
X524*
Y1544*
G36*
X386*
Y1442*
X445*
X465Y1472*
X524*
Y1544*
G37*
X542Y1332D02*
Y1367D01*
X522Y1395*
Y1438*
X479*
X440Y1387*
Y1332*
X542*
G36*
Y1367*
X522Y1395*
Y1438*
X479*
X440Y1387*
Y1332*
X542*
G37*
X652Y1262D02*
Y1367D01*
X628Y1391*
Y1572*
X597*
Y1391*
X596Y1389*
Y1388*
X595*
X581Y1367*
X578Y1234*
X608*
Y1178*
X652*
Y1193*
X626*
Y1260*
X639*
G75*
G02X648Y1262I9J-20*
G01*
X652*
G36*
Y1367*
X628Y1391*
Y1572*
X597*
Y1391*
X596Y1389*
Y1388*
X595*
X581Y1367*
X578Y1234*
X608*
Y1178*
X652*
Y1193*
X626*
Y1260*
X639*
G75*
G02X648Y1262I9J-20*
G01*
X652*
G37*
X691Y1718D02*
X849Y1954D01*
Y1981*
X810Y2021*
X632*
X465Y1853*
Y1737*
X485Y1718*
X691*
G36*
X849Y1954*
Y1981*
X810Y2021*
X632*
X465Y1853*
Y1737*
X485Y1718*
X691*
G37*
X918Y1544D02*
X780D01*
Y1442*
X839*
X859Y1472*
X918*
Y1544*
G36*
X780*
Y1442*
X839*
X859Y1472*
X918*
Y1544*
G37*
X925Y975D02*
X870Y1038D01*
X774*
X773Y976*
X841Y975*
Y975*
X925*
G36*
X870Y1038*
X774*
X773Y976*
X841Y975*
Y975*
X925*
G37*
X936Y1332D02*
Y1367D01*
X916Y1395*
Y1438*
X873*
X833Y1387*
Y1332*
X936*
G36*
Y1367*
X916Y1395*
Y1438*
X873*
X833Y1387*
Y1332*
X936*
G37*
X1050Y1262D02*
Y1367D01*
X1026Y1391*
Y1573*
X995*
Y1391*
X979Y1367*
X976Y1234*
X1001*
Y1178*
X1050*
Y1193*
X1020*
Y1260*
X1033*
G75*
G02X1042Y1262I9J-20*
G01*
X1050*
G36*
Y1367*
X1026Y1391*
Y1573*
X995*
Y1391*
X979Y1367*
X976Y1234*
X1001*
Y1178*
X1050*
Y1193*
X1020*
Y1260*
X1033*
G75*
G02X1042Y1262I9J-20*
G01*
X1050*
G37*
X1243Y1718D02*
X1095Y1934D01*
Y1981*
X1056Y2021*
X918*
X878Y1981*
Y1934*
X731Y1718*
X1243*
G36*
X1095Y1934*
Y1981*
X1056Y2021*
X918*
X878Y1981*
Y1934*
X731Y1718*
X1243*
G37*
X1282D02*
X1489D01*
X1508Y1737*
Y1853*
X1341Y2021*
X1164*
X1125Y1981*
Y1954*
X1282Y1718*
G36*
X1489*
X1508Y1737*
Y1853*
X1341Y2021*
X1164*
X1125Y1981*
Y1954*
X1282Y1718*
G37*
X1312Y1545D02*
X1174D01*
Y1442*
X1233*
X1252Y1472*
X1312*
Y1545*
G36*
X1174*
Y1442*
X1233*
X1252Y1472*
X1312*
Y1545*
G37*
X1321Y1336D02*
Y1371D01*
X1302Y1399*
Y1442*
X1258*
X1219Y1391*
Y1336*
X1321*
G36*
Y1371*
X1302Y1399*
Y1442*
X1258*
X1219Y1391*
Y1336*
X1321*
G37*
X1443Y1260D02*
Y1367D01*
X1420Y1391*
Y1574*
X1388*
Y1391*
X1373Y1367*
X1370Y1234*
X1385*
Y1178*
X1443*
Y1193*
X1429*
Y1260*
X1442*
G75*
G02X1443Y1260I9J-20*
G01*
G36*
Y1367*
X1420Y1391*
Y1574*
X1388*
Y1391*
X1373Y1367*
X1370Y1234*
X1385*
Y1178*
X1443*
Y1193*
X1429*
Y1260*
X1442*
G75*
G02X1443Y1260I9J-20*
G01*
G37*
X1703Y1407D02*
Y1501D01*
X1581*
Y1363*
X1660*
X1703Y1407*
G36*
Y1501*
X1581*
Y1363*
X1660*
X1703Y1407*
G37*
X1753Y1643D02*
Y1600D01*
X1745Y1592*
X1711*
Y1544*
X1735Y1521*
X1782*
X1798Y1537*
Y1631*
X1786Y1643*
X1753*
G36*
Y1600*
X1745Y1592*
X1711*
Y1544*
X1735Y1521*
X1782*
X1798Y1537*
Y1631*
X1786Y1643*
X1753*
G37*
X1971Y655D02*
Y2111D01*
X3*
Y655*
X1971*
D02*
D23*
X396Y1452D03*
Y1491D03*
Y1531D03*
X436Y1452D03*
Y1491D03*
Y1531D03*
X475Y1491D03*
Y1531D03*
X790Y1452D03*
Y1491D03*
Y1531D03*
X829Y1452D03*
Y1491D03*
Y1531D03*
X869Y1491D03*
Y1531D03*
X1184Y1452D03*
Y1491D03*
Y1531D03*
X1223Y1452D03*
Y1491D03*
Y1531D03*
X1262Y1491D03*
Y1531D03*
D02*
D24*
X223Y1352D03*
Y1493D03*
X282Y1320D03*
Y1462D03*
X341Y1289D03*
Y1430D03*
X601Y1147D03*
X684Y1245D03*
X687Y1025D03*
X747Y1147D03*
Y1348D03*
X831Y1022D03*
X866Y1021D03*
X950Y846D03*
X951Y783D03*
X995Y1147D03*
X1077Y1245D03*
X1136Y1147D03*
Y1352D03*
X1184Y989D03*
X1223D03*
X1380Y1147D03*
X1487Y1245D03*
X1550Y1147D03*
Y1352D03*
X1597Y1387D03*
Y1426D03*
Y1470D03*
X1640Y1383D03*
X1766Y1540D03*
Y1580D03*
D02*
D25*
X510Y1188D03*
Y1214D03*
Y1239D03*
X585Y1188D03*
Y1214D03*
Y1239D03*
X648Y1188D03*
Y1214D03*
Y1239D03*
X723Y1188D03*
Y1214D03*
Y1239D03*
X904Y1188D03*
Y1214D03*
Y1239D03*
X979Y1188D03*
Y1214D03*
Y1239D03*
X1042Y1188D03*
Y1214D03*
Y1239D03*
X1117Y1188D03*
Y1214D03*
Y1239D03*
X1288Y1188D03*
Y1214D03*
Y1239D03*
X1363Y1188D03*
Y1214D03*
Y1239D03*
X1451Y1188D03*
Y1214D03*
Y1239D03*
X1526Y1188D03*
Y1214D03*
Y1239D03*
D02*
D26*
X495Y1420D03*
X562D03*
X668Y1422D03*
X735D03*
X888Y1420D03*
X955D03*
X1065D03*
X1132D03*
X1282D03*
X1349D03*
X1461Y1418D03*
X1528D03*
D02*
D27*
X223Y1397D03*
Y1448D03*
Y1539D03*
Y1590D03*
X282Y1365D03*
Y1416D03*
Y1507D03*
Y1558D03*
X341Y1334D03*
Y1385D03*
Y1476D03*
Y1527D03*
X547Y1091D03*
Y1142D03*
X686Y1091D03*
Y1142D03*
X942Y1091D03*
Y1142D03*
X1079Y1090D03*
Y1141D03*
X1325Y1082D03*
Y1133D03*
X1487Y1082D03*
Y1133D03*
D02*
D28*
X398Y1359D03*
X424Y1285D03*
X449Y1359D03*
X532Y1292D03*
Y1352D03*
X583Y1292D03*
Y1352D03*
X650Y1292D03*
Y1352D03*
X701Y1292D03*
Y1352D03*
X734Y1023D03*
X785D03*
X794Y1147D03*
Y1359D03*
X819Y1222D03*
Y1285D03*
X845Y1147D03*
Y1359D03*
X926Y1292D03*
Y1352D03*
X977Y1292D03*
Y1352D03*
X1044Y1292D03*
Y1352D03*
X1095Y1292D03*
Y1352D03*
X1180Y1147D03*
Y1359D03*
X1205Y1222D03*
Y1285D03*
X1231Y1147D03*
Y1359D03*
X1310Y1292D03*
Y1352D03*
X1361Y1292D03*
Y1352D03*
X1453Y1294D03*
Y1353D03*
X1504Y1294D03*
Y1353D03*
X1604Y1220D03*
X1630Y1295D03*
X1656Y1220D03*
X1717Y1626D03*
X1769D03*
D02*
D29*
X518Y1509D03*
Y1729D03*
X568Y1509D03*
Y1729D03*
X618Y1509D03*
Y1729D03*
X668Y1509D03*
Y1729D03*
X912Y1509D03*
Y1729D03*
X962Y1509D03*
Y1729D03*
X1012Y1509D03*
Y1729D03*
X1062Y1509D03*
Y1729D03*
X1306Y1509D03*
Y1729D03*
X1356Y1509D03*
Y1729D03*
X1406Y1509D03*
Y1729D03*
X1456Y1509D03*
Y1729D03*
D02*
D72*
X87Y756D03*
Y856D03*
Y956D03*
Y1056D03*
Y1156D03*
Y1256D03*
Y1356D03*
Y1456D03*
Y1556D03*
Y1656D03*
X1887Y756D03*
Y856D03*
Y956D03*
Y1056D03*
Y1156D03*
Y1256D03*
Y1356D03*
Y1456D03*
Y1556D03*
Y1656D03*
D02*
D73*
X174Y1962D03*
X374D03*
X787Y1964D03*
X987D03*
X1187D03*
D02*
D74*
X1669Y1866D03*
D02*
D75*
Y1965D03*
D02*
D76*
X889Y750D03*
Y776D03*
Y801D03*
Y827D03*
Y853D03*
Y878D03*
Y904D03*
Y929D03*
Y955D03*
Y980D03*
X1114Y750D03*
Y776D03*
Y801D03*
Y827D03*
Y853D03*
Y878D03*
Y904D03*
Y929D03*
Y955D03*
Y980D03*
D02*
D77*
X1605Y1568D03*
X1664D03*
X1723D03*
D02*
D78*
X1664Y1446D03*
D02*
D79*
X87Y1656D02*
X127D01*
X184Y1600*
Y1338*
X539Y982*
X854*
X510Y1214D02*
X534D01*
X546Y1226*
Y1253*
X534Y1265*
Y1290*
X532Y1292*
X510Y1214D02*
Y1188D01*
Y1214D02*
X479D01*
X467Y1226*
Y1273*
X455Y1285*
X424*
X585Y1188D02*
Y1163D01*
X601Y1147*
X648Y1239D02*
X678D01*
X684Y1245*
X723Y1188D02*
Y1170D01*
X747Y1147*
X723Y1226D02*
Y1214D01*
Y1239D02*
Y1226D01*
X785Y1023D02*
Y1022D01*
X865*
X904Y1188D02*
Y1214D01*
X928*
X940Y1226*
Y1249*
X928Y1261*
Y1290*
X926Y1292*
X904Y1214D02*
X877D01*
X865Y1226*
Y1277*
X857Y1285*
X819*
X979Y1188D02*
Y1163D01*
X995Y1147*
X1042Y1239D02*
X1071D01*
X1077Y1245*
X1114Y980D02*
X1175D01*
X1184Y989*
X1117Y1188D02*
Y1166D01*
X1136Y1147*
X1117Y1239D02*
Y1214D01*
X1223Y989D02*
X1184D01*
X1288Y1214D02*
X1310D01*
X1321Y1226*
Y1249*
X1310Y1261*
Y1292*
X1288Y1214D02*
X1258D01*
X1247Y1226*
Y1277*
X1239Y1285*
X1205*
X1288Y1214D02*
Y1188D01*
X1363D02*
Y1165D01*
X1380Y1147*
X1451Y1239D02*
X1481D01*
X1487Y1245*
X1526Y1188D02*
Y1170D01*
X1550Y1147*
X1526Y1214D02*
Y1226D01*
Y1239*
D02*
D80*
X568Y1509D02*
Y1427D01*
X562Y1420*
X668Y1509D02*
Y1423D01*
X668Y1422*
X723Y1239D02*
Y1271D01*
X701Y1292*
X735Y1422D02*
Y1385D01*
X701Y1352*
X747Y1147D02*
X794D01*
X747Y1348D02*
X705D01*
X701Y1352*
X819Y1222D02*
X727D01*
X723Y1226*
X962Y1509D02*
Y1427D01*
X955Y1420*
X1062Y1509D02*
Y1424D01*
X1065Y1420*
X1117Y1239D02*
Y1271D01*
X1095Y1292*
X1132Y1420D02*
Y1389D01*
X1095Y1352*
X1136Y1147D02*
X1180D01*
X1136Y1352D02*
X1095D01*
X1205Y1222D02*
X1125D01*
X1117Y1214*
X1356Y1509D02*
Y1427D01*
X1349Y1420*
X1456Y1509D02*
Y1424D01*
X1461Y1418*
X1526Y1226D02*
Y1276D01*
X1508Y1294*
X1596Y1295*
X1630*
X1526Y1239D02*
Y1273D01*
X1504Y1294*
X1528Y1418D02*
Y1377D01*
X1504Y1353*
X1550Y1147D02*
X1551D01*
X1602Y1198*
Y1218*
X1604Y1220*
X1550Y1352D02*
X1506D01*
X1504Y1353*
X1717Y1626D02*
X1694D01*
X1664Y1596*
Y1568*
X1769Y1626D02*
Y1572D01*
X1763Y1566*
X1723Y1568*
D02*
D81*
X223Y1397D02*
Y1352D01*
Y1448D02*
Y1493D01*
Y1539D02*
Y1493D01*
Y1590D02*
Y1615D01*
X65Y1774*
Y2004*
X128Y2068*
X1113*
X1162Y2019*
X282Y1365D02*
Y1320D01*
Y1416D02*
Y1462D01*
Y1507D02*
Y1462D01*
Y1558D02*
X285D01*
Y1587*
X84Y1788*
Y1996*
X136Y2048*
X888*
X917Y2020*
X341Y1334D02*
Y1289D01*
Y1385D02*
Y1430D01*
Y1476D02*
Y1430D01*
Y1527D02*
X344D01*
Y1560*
X104Y1800*
Y1988*
X144Y2029*
X625*
X636Y2017*
X510Y1239D02*
X508D01*
X499Y1249*
Y1340*
X510Y1352*
X585Y1214D02*
X569D01*
X547Y1191*
Y1142*
X648Y1214D02*
X647Y1214D01*
X664*
X686Y1192*
Y1142*
X734Y1023D02*
X689D01*
X687Y1025*
X889Y750D02*
X974D01*
X1000Y776*
Y1061*
X970Y1091*
X942*
X889Y750D02*
X92D01*
X87Y756*
X889Y776D02*
Y777D01*
X503*
X420Y860*
X91*
X87Y856*
X889Y776D02*
X944D01*
X951Y783*
X889Y801D02*
X926D01*
X938Y813*
X965*
X978Y826*
Y996*
X893Y1081*
X695*
X686Y1091*
X889Y801D02*
X508D01*
X357Y953*
X90*
X87Y956*
X889Y827D02*
X511D01*
X282Y1056*
X87*
X87Y1056*
X889Y853D02*
X515D01*
X212Y1156*
X87*
X87Y1156*
X889Y878D02*
X518D01*
X139Y1257*
X88*
X87Y1256*
X889Y904D02*
X522D01*
X108Y1318*
Y1335*
X87Y1356*
X889Y929D02*
X525D01*
X136Y1318*
Y1408*
X89Y1456*
X87*
X889Y955D02*
X530D01*
X157Y1328*
Y1483*
X87Y1553*
Y1556*
X904Y1239D02*
Y1241D01*
X892Y1253*
Y1348*
X950Y846D02*
Y991D01*
X884Y1057*
X574*
X547Y1085*
Y1091*
X979Y1214D02*
X963D01*
X940Y1190*
Y1145*
X942Y1142*
X1042Y1214D02*
X1058D01*
X1079Y1192*
Y1141*
X1114Y750D02*
X1046D01*
X1022Y774*
Y1059*
X1053Y1090*
X1079*
X1114Y750D02*
X1881D01*
X1887Y756*
X1114Y776D02*
X1054D01*
X1041Y789*
Y1021*
X1065Y1044*
X1288*
X1325Y1082*
X1114Y776D02*
X1550D01*
X1635Y861*
X1881*
X1887Y856*
X1114Y801D02*
X1072D01*
X1063Y811*
Y1010*
X1077Y1025*
X1430*
X1487Y1082*
X1114Y801D02*
X1543D01*
X1690Y949*
X1880*
X1887Y956*
X1114Y827D02*
X1538D01*
X1769Y1058*
X1884*
X1887Y1056*
X1114Y853D02*
X1533D01*
X1835Y1155*
X1886*
X1887Y1156*
X1114Y904D02*
Y902D01*
X1522*
X1737Y1116*
Y1206*
X1887Y1356*
X1114Y929D02*
X1517D01*
X1707Y1119*
Y1276*
X1887Y1456*
X1114Y955D02*
X1512D01*
X1681Y1123*
Y1350*
X1887Y1556*
X1288Y1239D02*
X1274Y1253D01*
Y1348*
X1282Y1355*
X1363Y1214D02*
X1341D01*
X1325Y1198*
Y1133*
X1451Y1214D02*
X1471D01*
X1487Y1198*
Y1133*
X1887Y1256D02*
X1908D01*
Y1258*
X1887Y1237*
X1886*
X1530Y878*
X1114*
D02*
D82*
X1664Y1568D02*
Y1446D01*
D02*
D83*
X854Y982D02*
X889Y980D01*
D02*
D84*
X865Y1022D02*
X907Y979D01*
X889*
Y980*
X0Y0D02*
M02*
