M48
INCH
T1C00.016
T2C00.016
T3C00.035
T4C00.041
T5C00.051
%
T001
X00396Y01452
X00396Y01491
X00396Y01531
X00436Y01452
X00436Y01491
X00436Y01531
X00475Y01491
X00475Y01531
X00790Y01452
X00790Y01491
X00790Y01531
X00829Y01452
X00829Y01491
X00829Y01531
X00869Y01491
X00869Y01531
X01184Y01452
X01184Y01491
X01184Y01531
X01223Y01452
X01223Y01491
X01223Y01531
X01262Y01491
X01262Y01531
T002
X00223Y01352
X00223Y01493
X00282Y01320
X00282Y01462
X00341Y01289
X00341Y01430
X00601Y01147
X00684Y01245
X00687Y01025
X00747Y01147
X00747Y01348
X00831Y01022
X00866Y01021
X00950Y00846
X00951Y00783
X00995Y01147
X01077Y01245
X01136Y01147
X01136Y01352
X01184Y00989
X01223Y00989
X01380Y01147
X01487Y01245
X01550Y01147
X01550Y01352
X01597Y01387
X01597Y01426
X01597Y01470
X01640Y01383
X01766Y01540
X01766Y01580
T003
X01669Y01866
X01669Y01965
T004
X00087Y00756
X00087Y00856
X00087Y00956
X00087Y01056
X00087Y01156
X00087Y01256
X00087Y01356
X00087Y01456
X00087Y01556
X00087Y01656
X01887Y00756
X01887Y00856
X01887Y00956
X01887Y01056
X01887Y01156
X01887Y01256
X01887Y01356
X01887Y01456
X01887Y01556
X01887Y01656
T005
X00174Y01962
X00374Y01962
X00787Y01964
X00987Y01964
X01187Y01964
M30
