%FSLAX23Y23*%
%MOIN*%
G04 EasyPC Gerber Version 15.0.4 Build 3016 *
%ADD16C,0.00100*%
%ADD10C,0.00500*%
%ADD11C,0.01181*%
%ADD84C,0.01575*%
%ADD79C,0.01969*%
X0Y0D02*
D02*
D10*
X3Y1722D02*
Y266D01*
X1971*
Y1722*
X3*
X82Y3D02*
*
D11*
X262Y762D02*
X263D01*
X289Y735*
X866*
X1042Y911*
D02*
D16*
X821Y784D02*
Y801D01*
X788*
Y772*
X798Y765*
X805Y762*
X813Y760*
X823*
X834Y761*
X844Y764*
X850Y769*
X856Y776*
X859Y786*
X860Y795*
X859Y807*
X856Y816*
X849Y823*
X842Y829*
X833Y831*
X823Y833*
X812*
X805Y830*
X795Y824*
X790Y812*
X812Y809*
X816Y815*
X823Y816*
X830Y815*
X834Y811*
X837Y805*
X838Y797*
X837Y787*
X834Y780*
X828Y778*
X821Y776*
X815*
X808Y779*
Y784*
X821*
X777Y812D02*
X759D01*
Y804*
X757Y808*
X754Y811*
X747Y813*
X743Y812*
X737Y811*
X743Y797*
X748Y798*
X753Y797*
X755Y795*
X757Y789*
X758Y778*
Y761*
X777*
Y812*
X678Y782D02*
X717D01*
X714Y776*
X711Y773*
X707*
X702Y775*
X699Y778*
X680Y776*
X684Y768*
X691Y764*
X697Y761*
X707Y760*
X717*
X722Y762*
X728Y767*
X732Y772*
X735Y779*
X736Y786*
X735Y797*
X729Y805*
X720Y812*
X709Y813*
X699Y812*
X691Y809*
X685Y805*
X681Y800*
X680Y793*
X678Y784*
Y782*
X697Y791D02*
X700Y798D01*
X707Y800*
X711Y798*
X714Y797*
X717Y791*
X697*
X613Y782D02*
X652D01*
X649Y776*
X646Y773*
X642*
X637Y775*
X634Y778*
X615Y776*
X619Y768*
X626Y764*
X633Y761*
X642Y760*
X652*
X658Y762*
X663Y767*
X667Y772*
X670Y779*
X671Y786*
X670Y797*
X664Y805*
X655Y812*
X644Y813*
X634Y812*
X626Y809*
X620Y805*
X616Y800*
X615Y793*
X613Y784*
Y782*
X633Y791D02*
X635Y798D01*
X642Y800*
X646Y798*
X649Y797*
X652Y791*
X633*
X605Y812D02*
X587D01*
Y804*
X579Y811*
X569Y813*
X561Y812*
X556Y808*
X553Y802*
X551Y794*
Y761*
X571*
Y790*
Y793*
X572Y795*
X578Y798*
X583Y795*
X586Y791*
Y786*
Y761*
X605*
Y812*
X506Y831D02*
X465D01*
X456Y830*
X449Y826*
X445Y820*
X444Y813*
X445Y808*
X448Y802*
X451Y800*
X456Y798*
X449Y795*
X445Y791*
X443Y787*
X441Y780*
Y776*
X444Y771*
X451Y764*
X454Y762*
X459*
X465Y761*
X469*
X506*
Y831*
X484Y804D02*
X474D01*
X470*
X467Y805*
X466Y809*
X467Y813*
X470Y815*
X474*
X484*
Y804*
Y778D02*
X473D01*
X469*
X466Y779*
X463Y784*
X466Y789*
X469Y790*
X473*
X484*
Y778*
X412Y794D02*
X432Y795D01*
X429Y804*
X423Y809*
X415Y812*
X405Y813*
X398*
X392Y812*
X383Y808*
X379Y802*
X378Y794*
Y772*
Y767*
X375Y761*
X394*
X396Y765*
Y769*
X400Y765*
X404Y762*
X408Y760*
X415*
X423Y761*
X429Y764*
X432Y768*
X433Y773*
X432Y779*
X430Y783*
X425Y786*
X418Y789*
X408Y790*
X404Y791*
X397Y794*
X398Y798*
X403Y800*
X409Y798*
X412Y794*
X397Y784D02*
X405Y783D01*
X409Y782*
X412Y780*
X414Y778*
X412Y775*
X408Y773*
X401Y775*
X398Y778*
X397Y782*
Y784*
X372Y812D02*
X352D01*
X341Y778*
X332Y812*
X313*
X332Y757*
X336Y750*
X339Y745*
X346Y742*
X354Y740*
X360*
X368Y742*
X370Y756*
X360Y754*
X354Y756*
X352Y761*
X372Y812*
X350Y741D02*
X364D01*
X346Y742D02*
X368D01*
X343Y743D02*
X368D01*
X341Y744D02*
X368D01*
X339Y745D02*
X368D01*
X339Y746D02*
X369D01*
X338Y747D02*
X369D01*
X338Y748D02*
X369D01*
X337Y749D02*
X369D01*
X337Y749D02*
X369D01*
X336Y750D02*
X369D01*
X336Y751D02*
X369D01*
X335Y752D02*
X369D01*
X335Y753D02*
X369D01*
X334Y754D02*
X369D01*
X333Y755D02*
X356D01*
X366D02*
X369D01*
X333Y756D02*
X354D01*
X332Y757D02*
X354D01*
X332Y758D02*
X353D01*
X332Y759D02*
X353D01*
X331Y760D02*
X352D01*
X408D02*
X416D01*
X642D02*
X652D01*
X706D02*
X717D01*
X813D02*
X824D01*
X331Y761D02*
X352D01*
X407D02*
X421D01*
X635D02*
X654D01*
X700D02*
X719D01*
X810D02*
X831D01*
X331Y762D02*
X352D01*
X375D02*
X395D01*
X405D02*
X424D01*
X462D02*
X506D01*
X551D02*
X571D01*
X586D02*
X605D01*
X631D02*
X656D01*
X696D02*
X721D01*
X758D02*
X777D01*
X807D02*
X836D01*
X330Y763D02*
X352D01*
X376D02*
X395D01*
X404D02*
X426D01*
X453D02*
X506D01*
X551D02*
X571D01*
X586D02*
X605D01*
X629D02*
X658D01*
X694D02*
X723D01*
X758D02*
X777D01*
X805D02*
X839D01*
X330Y764D02*
X353D01*
X376D02*
X395D01*
X402D02*
X428D01*
X451D02*
X506D01*
X551D02*
X571D01*
X586D02*
X605D01*
X627D02*
X659D01*
X691D02*
X724D01*
X758D02*
X777D01*
X802D02*
X843D01*
X330Y764D02*
X353D01*
X377D02*
X395D01*
X401D02*
X429D01*
X450D02*
X506D01*
X551D02*
X571D01*
X586D02*
X605D01*
X625D02*
X660D01*
X689D02*
X725D01*
X758D02*
X777D01*
X800D02*
X844D01*
X329Y765D02*
X353D01*
X377D02*
X396D01*
X400D02*
X430D01*
X449D02*
X506D01*
X551D02*
X571D01*
X586D02*
X605D01*
X623D02*
X661D01*
X688D02*
X726D01*
X758D02*
X777D01*
X798D02*
X846D01*
X329Y766D02*
X354D01*
X378D02*
X396D01*
X399D02*
X430D01*
X448D02*
X506D01*
X551D02*
X571D01*
X586D02*
X605D01*
X622D02*
X663D01*
X686D02*
X728D01*
X758D02*
X777D01*
X796D02*
X847D01*
X329Y767D02*
X354D01*
X378D02*
X396D01*
X398D02*
X431D01*
X447D02*
X506D01*
X551D02*
X571D01*
X586D02*
X605D01*
X620D02*
X664D01*
X685D02*
X728D01*
X758D02*
X777D01*
X795D02*
X848D01*
X328Y768D02*
X355D01*
X378D02*
X396D01*
X397D02*
X432D01*
X446D02*
X506D01*
X551D02*
X571D01*
X586D02*
X605D01*
X619D02*
X664D01*
X684D02*
X729D01*
X758D02*
X777D01*
X794D02*
X849D01*
X328Y769D02*
X355D01*
X378D02*
X396D01*
X396D02*
X432D01*
X445D02*
X506D01*
X551D02*
X571D01*
X586D02*
X605D01*
X618D02*
X665D01*
X683D02*
X730D01*
X758D02*
X777D01*
X793D02*
X850D01*
X328Y770D02*
X355D01*
X378D02*
X432D01*
X445D02*
X506D01*
X551D02*
X571D01*
X586D02*
X605D01*
X618D02*
X666D01*
X683D02*
X730D01*
X758D02*
X777D01*
X791D02*
X851D01*
X327Y771D02*
X356D01*
X378D02*
X432D01*
X444D02*
X506D01*
X551D02*
X571D01*
X586D02*
X605D01*
X617D02*
X666D01*
X682D02*
X731D01*
X758D02*
X777D01*
X790D02*
X852D01*
X327Y772D02*
X356D01*
X378D02*
X433D01*
X443D02*
X506D01*
X551D02*
X571D01*
X586D02*
X605D01*
X617D02*
X667D01*
X682D02*
X732D01*
X758D02*
X777D01*
X789D02*
X853D01*
X327Y773D02*
X356D01*
X378D02*
X433D01*
X443D02*
X506D01*
X551D02*
X571D01*
X586D02*
X605D01*
X616D02*
X667D01*
X681D02*
X732D01*
X758D02*
X777D01*
X788D02*
X853D01*
X326Y774D02*
X357D01*
X378D02*
X406D01*
X409D02*
X433D01*
X442D02*
X506D01*
X551D02*
X571D01*
X586D02*
X605D01*
X616D02*
X641D01*
X647D02*
X668D01*
X681D02*
X706D01*
X712D02*
X733D01*
X758D02*
X777D01*
X788D02*
X854D01*
X326Y775D02*
X357D01*
X378D02*
X401D01*
X412D02*
X433D01*
X442D02*
X506D01*
X551D02*
X571D01*
X586D02*
X605D01*
X616D02*
X637D01*
X648D02*
X668D01*
X680D02*
X702D01*
X713D02*
X733D01*
X758D02*
X777D01*
X788D02*
X855D01*
X326Y776D02*
X358D01*
X378D02*
X400D01*
X413D02*
X432D01*
X441D02*
X506D01*
X551D02*
X571D01*
X586D02*
X605D01*
X615D02*
X636D01*
X649D02*
X669D01*
X680D02*
X701D01*
X714D02*
X733D01*
X758D02*
X777D01*
X788D02*
X856D01*
X325Y777D02*
X358D01*
X378D02*
X399D01*
X413D02*
X432D01*
X441D02*
X506D01*
X551D02*
X571D01*
X586D02*
X605D01*
X621D02*
X635D01*
X649D02*
X669D01*
X686D02*
X700D01*
X714D02*
X734D01*
X758D02*
X777D01*
X788D02*
X814D01*
X824D02*
X856D01*
X325Y778D02*
X358D01*
X378D02*
X398D01*
X414D02*
X432D01*
X441D02*
X469D01*
X484D02*
X506D01*
X551D02*
X571D01*
X586D02*
X605D01*
X650D02*
X669D01*
X715D02*
X734D01*
X758D02*
X777D01*
X788D02*
X811D01*
X828D02*
X856D01*
X325Y779D02*
X340D01*
X341D02*
X359D01*
X378D02*
X398D01*
X413D02*
X432D01*
X441D02*
X467D01*
X484D02*
X506D01*
X551D02*
X571D01*
X586D02*
X605D01*
X650D02*
X670D01*
X715D02*
X735D01*
X758D02*
X777D01*
X788D02*
X809D01*
X830D02*
X857D01*
X324Y779D02*
X340D01*
X341D02*
X359D01*
X378D02*
X398D01*
X413D02*
X431D01*
X441D02*
X466D01*
X484D02*
X506D01*
X551D02*
X571D01*
X586D02*
X605D01*
X651D02*
X670D01*
X716D02*
X735D01*
X758D02*
X777D01*
X788D02*
X808D01*
X832D02*
X857D01*
X324Y780D02*
X340D01*
X341D02*
X359D01*
X378D02*
X398D01*
X412D02*
X431D01*
X441D02*
X465D01*
X484D02*
X506D01*
X551D02*
X571D01*
X586D02*
X605D01*
X651D02*
X670D01*
X716D02*
X735D01*
X758D02*
X777D01*
X788D02*
X808D01*
X834D02*
X857D01*
X324Y781D02*
X340D01*
X342D02*
X360D01*
X378D02*
X397D01*
X410D02*
X431D01*
X441D02*
X465D01*
X484D02*
X506D01*
X551D02*
X571D01*
X586D02*
X605D01*
X652D02*
X670D01*
X717D02*
X735D01*
X758D02*
X777D01*
X788D02*
X808D01*
X834D02*
X857D01*
X323Y782D02*
X339D01*
X342D02*
X360D01*
X378D02*
X397D01*
X408D02*
X430D01*
X442D02*
X464D01*
X484D02*
X506D01*
X551D02*
X571D01*
X586D02*
X605D01*
X613D02*
X671D01*
X678D02*
X735D01*
X758D02*
X777D01*
X788D02*
X808D01*
X835D02*
X858D01*
X323Y783D02*
X339D01*
X342D02*
X361D01*
X378D02*
X397D01*
X405D02*
X430D01*
X442D02*
X464D01*
X484D02*
X506D01*
X551D02*
X571D01*
X586D02*
X605D01*
X613D02*
X671D01*
X678D02*
X736D01*
X757D02*
X777D01*
X788D02*
X808D01*
X835D02*
X858D01*
X323Y784D02*
X339D01*
X343D02*
X361D01*
X378D02*
X397D01*
X399D02*
X428D01*
X442D02*
X463D01*
X484D02*
X506D01*
X551D02*
X571D01*
X586D02*
X605D01*
X613D02*
X671D01*
X678D02*
X736D01*
X757D02*
X777D01*
X788D02*
X808D01*
X835D02*
X858D01*
X322Y785D02*
X339D01*
X343D02*
X361D01*
X378D02*
X426D01*
X442D02*
X464D01*
X484D02*
X506D01*
X551D02*
X571D01*
X586D02*
X605D01*
X614D02*
X671D01*
X678D02*
X736D01*
X757D02*
X777D01*
X788D02*
X821D01*
X836D02*
X858D01*
X322Y786D02*
X339D01*
X343D02*
X362D01*
X378D02*
X424D01*
X442D02*
X464D01*
X484D02*
X506D01*
X551D02*
X571D01*
X586D02*
X605D01*
X614D02*
X671D01*
X678D02*
X736D01*
X757D02*
X777D01*
X788D02*
X821D01*
X836D02*
X859D01*
X322Y787D02*
X338D01*
X344D02*
X362D01*
X378D02*
X422D01*
X443D02*
X465D01*
X484D02*
X506D01*
X551D02*
X571D01*
X586D02*
X605D01*
X614D02*
X671D01*
X679D02*
X736D01*
X757D02*
X777D01*
X788D02*
X821D01*
X837D02*
X859D01*
X321Y788D02*
X338D01*
X344D02*
X362D01*
X378D02*
X420D01*
X443D02*
X466D01*
X484D02*
X506D01*
X551D02*
X571D01*
X586D02*
X605D01*
X614D02*
X671D01*
X679D02*
X736D01*
X757D02*
X777D01*
X788D02*
X821D01*
X837D02*
X859D01*
X321Y789D02*
X338D01*
X344D02*
X363D01*
X378D02*
X416D01*
X444D02*
X466D01*
X484D02*
X506D01*
X551D02*
X571D01*
X586D02*
X605D01*
X614D02*
X671D01*
X679D02*
X736D01*
X757D02*
X777D01*
X788D02*
X821D01*
X837D02*
X859D01*
X321Y790D02*
X338D01*
X344D02*
X363D01*
X378D02*
X410D01*
X444D02*
X468D01*
X484D02*
X506D01*
X551D02*
X571D01*
X586D02*
X605D01*
X614D02*
X671D01*
X679D02*
X736D01*
X756D02*
X777D01*
X788D02*
X821D01*
X837D02*
X859D01*
X320Y791D02*
X337D01*
X345D02*
X364D01*
X378D02*
X406D01*
X445D02*
X506D01*
X551D02*
X571D01*
X586D02*
X605D01*
X614D02*
X671D01*
X679D02*
X735D01*
X756D02*
X777D01*
X788D02*
X821D01*
X837D02*
X859D01*
X320Y792D02*
X337D01*
X345D02*
X364D01*
X378D02*
X403D01*
X446D02*
X506D01*
X551D02*
X571D01*
X586D02*
X605D01*
X615D02*
X633D01*
X652D02*
X671D01*
X679D02*
X698D01*
X717D02*
X735D01*
X756D02*
X777D01*
X788D02*
X821D01*
X837D02*
X860D01*
X320Y793D02*
X337D01*
X345D02*
X364D01*
X378D02*
X401D01*
X447D02*
X506D01*
X551D02*
X571D01*
X585D02*
X605D01*
X615D02*
X633D01*
X651D02*
X670D01*
X680D02*
X698D01*
X716D02*
X735D01*
X756D02*
X777D01*
X788D02*
X821D01*
X837D02*
X860D01*
X320Y794D02*
X337D01*
X346D02*
X365D01*
X378D02*
X399D01*
X447D02*
X506D01*
X551D02*
X571D01*
X584D02*
X605D01*
X615D02*
X634D01*
X651D02*
X670D01*
X680D02*
X698D01*
X716D02*
X735D01*
X756D02*
X777D01*
X788D02*
X821D01*
X838D02*
X860D01*
X319Y794D02*
X337D01*
X346D02*
X365D01*
X378D02*
X397D01*
X412D02*
X417D01*
X448D02*
X506D01*
X551D02*
X572D01*
X584D02*
X605D01*
X615D02*
X634D01*
X650D02*
X670D01*
X680D02*
X699D01*
X715D02*
X735D01*
X756D02*
X777D01*
X788D02*
X821D01*
X838D02*
X860D01*
X319Y795D02*
X336D01*
X346D02*
X366D01*
X378D02*
X398D01*
X411D02*
X430D01*
X449D02*
X506D01*
X552D02*
X572D01*
X583D02*
X605D01*
X615D02*
X634D01*
X650D02*
X670D01*
X680D02*
X699D01*
X715D02*
X735D01*
X755D02*
X777D01*
X788D02*
X821D01*
X838D02*
X860D01*
X319Y796D02*
X336D01*
X347D02*
X366D01*
X378D02*
X398D01*
X411D02*
X431D01*
X452D02*
X506D01*
X552D02*
X574D01*
X581D02*
X605D01*
X616D02*
X635D01*
X650D02*
X670D01*
X680D02*
X699D01*
X714D02*
X735D01*
X754D02*
X777D01*
X788D02*
X821D01*
X838D02*
X860D01*
X318Y797D02*
X336D01*
X347D02*
X366D01*
X378D02*
X398D01*
X410D02*
X431D01*
X454D02*
X506D01*
X552D02*
X576D01*
X580D02*
X605D01*
X616D02*
X635D01*
X648D02*
X670D01*
X680D02*
X700D01*
X713D02*
X734D01*
X743D02*
X744D01*
X751D02*
X777D01*
X788D02*
X821D01*
X838D02*
X860D01*
X318Y798D02*
X336D01*
X347D02*
X367D01*
X378D02*
X398D01*
X410D02*
X431D01*
X456D02*
X506D01*
X552D02*
X577D01*
X578D02*
X605D01*
X616D02*
X635D01*
X647D02*
X669D01*
X681D02*
X700D01*
X711D02*
X734D01*
X742D02*
X748D01*
X749D02*
X777D01*
X788D02*
X821D01*
X838D02*
X860D01*
X318Y799D02*
X335D01*
X347D02*
X367D01*
X379D02*
X401D01*
X405D02*
X430D01*
X453D02*
X506D01*
X552D02*
X605D01*
X616D02*
X640D01*
X644D02*
X668D01*
X681D02*
X705D01*
X709D02*
X733D01*
X742D02*
X777D01*
X788D02*
X821D01*
X838D02*
X860D01*
X317Y800D02*
X335D01*
X348D02*
X367D01*
X379D02*
X430D01*
X450D02*
X506D01*
X552D02*
X605D01*
X617D02*
X668D01*
X681D02*
X733D01*
X742D02*
X777D01*
X788D02*
X821D01*
X838D02*
X860D01*
X317Y801D02*
X335D01*
X348D02*
X368D01*
X379D02*
X430D01*
X449D02*
X506D01*
X553D02*
X605D01*
X617D02*
X667D01*
X682D02*
X732D01*
X741D02*
X777D01*
X837D02*
X859D01*
X317Y802D02*
X335D01*
X348D02*
X368D01*
X379D02*
X429D01*
X449D02*
X506D01*
X553D02*
X605D01*
X618D02*
X667D01*
X683D02*
X731D01*
X741D02*
X777D01*
X837D02*
X859D01*
X316Y803D02*
X335D01*
X349D02*
X369D01*
X380D02*
X429D01*
X448D02*
X506D01*
X553D02*
X605D01*
X619D02*
X666D01*
X683D02*
X731D01*
X741D02*
X777D01*
X837D02*
X859D01*
X316Y804D02*
X334D01*
X349D02*
X369D01*
X380D02*
X429D01*
X447D02*
X470D01*
X484D02*
X506D01*
X554D02*
X587D01*
X587D02*
X605D01*
X619D02*
X665D01*
X684D02*
X730D01*
X740D02*
X759D01*
X759D02*
X777D01*
X837D02*
X859D01*
X316Y805D02*
X334D01*
X349D02*
X369D01*
X381D02*
X428D01*
X447D02*
X468D01*
X484D02*
X506D01*
X554D02*
X586D01*
X587D02*
X605D01*
X620D02*
X665D01*
X685D02*
X729D01*
X740D02*
X759D01*
X759D02*
X777D01*
X837D02*
X859D01*
X315Y806D02*
X334D01*
X350D02*
X370D01*
X382D02*
X427D01*
X446D02*
X467D01*
X484D02*
X506D01*
X554D02*
X585D01*
X587D02*
X605D01*
X621D02*
X664D01*
X686D02*
X728D01*
X739D02*
X758D01*
X759D02*
X777D01*
X836D02*
X859D01*
X315Y807D02*
X334D01*
X350D02*
X370D01*
X382D02*
X426D01*
X446D02*
X467D01*
X484D02*
X506D01*
X555D02*
X584D01*
X587D02*
X605D01*
X622D02*
X662D01*
X687D02*
X727D01*
X739D02*
X758D01*
X759D02*
X777D01*
X836D02*
X859D01*
X315Y808D02*
X333D01*
X350D02*
X370D01*
X383D02*
X425D01*
X445D02*
X467D01*
X484D02*
X506D01*
X555D02*
X583D01*
X587D02*
X605D01*
X624D02*
X661D01*
X688D02*
X726D01*
X739D02*
X757D01*
X759D02*
X777D01*
X835D02*
X858D01*
X314Y808D02*
X333D01*
X350D02*
X371D01*
X385D02*
X424D01*
X445D02*
X466D01*
X484D02*
X506D01*
X556D02*
X582D01*
X587D02*
X605D01*
X625D02*
X660D01*
X690D02*
X724D01*
X738D02*
X756D01*
X759D02*
X777D01*
X835D02*
X858D01*
X314Y809D02*
X333D01*
X351D02*
X371D01*
X386D02*
X423D01*
X445D02*
X466D01*
X484D02*
X506D01*
X558D02*
X580D01*
X587D02*
X605D01*
X626D02*
X658D01*
X691D02*
X723D01*
X738D02*
X755D01*
X759D02*
X777D01*
X811D02*
X812D01*
X835D02*
X858D01*
X314Y810D02*
X333D01*
X351D02*
X372D01*
X388D02*
X420D01*
X445D02*
X466D01*
X484D02*
X506D01*
X559D02*
X579D01*
X587D02*
X605D01*
X629D02*
X657D01*
X694D02*
X722D01*
X738D02*
X754D01*
X759D02*
X777D01*
X803D02*
X813D01*
X834D02*
X858D01*
X313Y811D02*
X332D01*
X351D02*
X372D01*
X390D02*
X417D01*
X444D02*
X467D01*
X484D02*
X506D01*
X560D02*
X577D01*
X587D02*
X605D01*
X632D02*
X656D01*
X697D02*
X721D01*
X740D02*
X752D01*
X759D02*
X777D01*
X796D02*
X813D01*
X833D02*
X857D01*
X393Y812D02*
X413D01*
X444D02*
X467D01*
X484D02*
X506D01*
X562D02*
X573D01*
X636D02*
X653D01*
X700D02*
X718D01*
X744D02*
X750D01*
X790D02*
X814D01*
X832D02*
X857D01*
X397Y813D02*
X407D01*
X444D02*
X467D01*
X484D02*
X506D01*
X568D02*
X570D01*
X642D02*
X646D01*
X707D02*
X710D01*
X746D02*
X748D01*
X790D02*
X815D01*
X831D02*
X857D01*
X444Y814D02*
X469D01*
X484D02*
X506D01*
X791D02*
X815D01*
X830D02*
X857D01*
X444Y815D02*
X506D01*
X791D02*
X817D01*
X828D02*
X856D01*
X444Y816D02*
X506D01*
X792D02*
X822D01*
X824D02*
X856D01*
X445Y817D02*
X506D01*
X792D02*
X855D01*
X445Y818D02*
X506D01*
X792D02*
X854D01*
X445Y819D02*
X506D01*
X793D02*
X853D01*
X445Y820D02*
X506D01*
X793D02*
X852D01*
X446Y821D02*
X506D01*
X794D02*
X851D01*
X446Y822D02*
X506D01*
X794D02*
X850D01*
X447Y823D02*
X506D01*
X794D02*
X850D01*
X448Y823D02*
X506D01*
X795D02*
X849D01*
X448Y824D02*
X506D01*
X795D02*
X847D01*
X449Y825D02*
X506D01*
X797D02*
X846D01*
X450Y826D02*
X506D01*
X799D02*
X845D01*
X452Y827D02*
X506D01*
X800D02*
X844D01*
X453Y828D02*
X506D01*
X802D02*
X843D01*
X455Y829D02*
X506D01*
X804D02*
X840D01*
X457Y830D02*
X506D01*
X805D02*
X837D01*
X463Y831D02*
X506D01*
X808D02*
X834D01*
X810Y832D02*
X828D01*
X981Y692D02*
X961D01*
X953Y659*
X944Y692*
X921*
X913Y659*
X904Y692*
X884*
X899Y622*
X921*
X932Y666*
X944Y622*
X966*
X981Y692*
X877D02*
X857D01*
Y678*
X877*
Y692*
Y673D02*
X857D01*
Y622*
X877*
Y673*
X849Y636D02*
X830Y637D01*
X827Y633*
X822Y631*
X815Y633*
X813Y636*
X815Y640*
X817*
X823Y641*
X831Y642*
X837Y644*
X844Y649*
X845Y653*
X846Y658*
X845Y663*
X844Y667*
X835Y673*
X828Y674*
X822*
X813*
X808Y673*
X801Y669*
X795Y660*
X815Y659*
X817Y662*
X822Y663*
X826Y662*
X827Y659*
X826Y656*
X823Y655*
X819*
X809Y653*
X804Y652*
X797Y647*
X794Y642*
Y638*
Y634*
X797Y629*
X800Y626*
X805Y623*
X812Y620*
X822*
X834Y622*
X841Y625*
X846Y629*
X849Y636*
X749Y641D02*
X729Y640D01*
X735Y629*
X743Y623*
X749Y620*
X757*
X769Y622*
X779Y627*
X784Y634*
X787Y640*
Y647*
X784Y660*
X779Y667*
X772Y671*
X766Y673*
X758Y674*
X747Y673*
X739Y670*
X735Y664*
X731Y656*
X750Y655*
X753Y659*
X758Y660*
X762Y659*
X765Y656*
X766Y652*
X768Y647*
X766Y641*
X765Y637*
X762Y634*
X758*
X753Y636*
X749Y641*
X722Y647D02*
X721Y658D01*
X714Y666*
X706Y673*
X695Y674*
X681Y671*
X671Y664*
X667Y658*
X666Y648*
X667Y637*
X673Y627*
X682Y622*
X695Y620*
X704Y622*
X713Y627*
X720Y636*
X722Y647*
X703D02*
X702Y641D01*
X700Y637*
X698Y634*
X693*
X691*
X688Y637*
X685Y641*
Y648*
Y653*
X688Y658*
X691Y659*
X693Y660*
X698Y659*
X700Y658*
X702Y653*
X703Y647*
X656Y673D02*
X638D01*
Y664*
X630Y671*
X620Y674*
X612Y673*
X607Y669*
X604Y663*
X603Y655*
Y622*
X622*
Y651*
Y653*
X623Y656*
X629Y659*
X634Y656*
X637Y652*
Y647*
Y622*
X656*
Y673*
X596Y636D02*
X576Y637D01*
X574Y633*
X568Y631*
X561Y633*
X560Y636*
X561Y640*
X564*
X569Y641*
X578Y642*
X583Y644*
X590Y649*
X591Y653*
X593Y658*
X591Y663*
X590Y667*
X582Y673*
X575Y674*
X568*
X560*
X554Y673*
X547Y669*
X542Y660*
X561Y659*
X564Y662*
X568Y663*
X572Y662*
X574Y659*
X572Y656*
X569Y655*
X565*
X556Y653*
X550Y652*
X543Y647*
X540Y642*
Y638*
Y634*
X543Y629*
X546Y626*
X552Y623*
X558Y620*
X568*
X580Y622*
X587Y625*
X593Y629*
X596Y636*
X531Y692D02*
X512D01*
Y678*
X531*
Y692*
Y673D02*
X512D01*
Y622*
X531*
Y673*
X499D02*
X481D01*
Y664*
X473Y671*
X463Y674*
X455Y673*
X450Y669*
X447Y663*
X445Y655*
Y622*
X465*
Y651*
Y653*
X466Y656*
X472Y659*
X477Y656*
X480Y652*
Y647*
Y622*
X499*
Y673*
X434Y641D02*
X415D01*
Y625*
X416Y616*
X418Y611*
X423Y605*
X430Y601*
X434Y609*
X430Y612*
X428Y615*
X425Y622*
X434*
Y641*
X321Y692D02*
X299D01*
Y649*
X301Y638*
X308Y629*
X312Y625*
X316Y623*
X331Y620*
X342*
X353Y623*
X360Y630*
X365Y638*
X367Y649*
Y692*
X345*
Y649*
X343Y644*
X342Y640*
X338Y637*
X332*
X328*
X324Y640*
X323Y644*
X321Y649*
Y692*
X290Y645D02*
X268Y647D01*
X266Y642*
X265Y638*
X262Y636*
X257Y634*
X251Y637*
X248Y641*
X250Y647*
X254Y648*
X261Y651*
X273Y655*
X281Y659*
X286Y666*
X287Y673*
X286Y678*
X284Y682*
X280Y688*
X275Y691*
X268Y692*
X258Y693*
X246Y692*
X237Y688*
X232Y682*
X229Y673*
X251Y671*
X254Y678*
X259Y681*
X264Y680*
X265Y676*
Y673*
X262Y671*
X258Y670*
X246Y666*
X237Y663*
X233Y659*
X229Y655*
X226Y651*
Y645*
X228Y638*
X230Y631*
X235Y627*
X240Y623*
X248Y620*
X257*
X272Y622*
X281Y627*
X287Y636*
X290Y645*
X173Y633D02*
X196D01*
X199Y622*
X222*
X199Y692*
X170*
X146Y622*
X170*
X173Y633*
X177Y649D02*
X184Y674D01*
X190Y649*
X177*
X429Y602D02*
X431D01*
X428Y603D02*
X431D01*
X426Y604D02*
X432D01*
X424Y605D02*
X432D01*
X423Y606D02*
X432D01*
X422Y606D02*
X433D01*
X421Y607D02*
X433D01*
X420Y608D02*
X434D01*
X419Y609D02*
X434D01*
X418Y610D02*
X433D01*
X418Y611D02*
X432D01*
X418Y612D02*
X430D01*
X417Y613D02*
X429D01*
X417Y614D02*
X428D01*
X417Y615D02*
X428D01*
X417Y616D02*
X427D01*
X416Y617D02*
X427D01*
X416Y618D02*
X426D01*
X416Y619D02*
X426D01*
X416Y620D02*
X426D01*
X248Y620D02*
X258D01*
X330D02*
X343D01*
X416D02*
X425D01*
X558D02*
X569D01*
X694D02*
X696D01*
X748D02*
X758D01*
X812D02*
X823D01*
X245Y621D02*
X268D01*
X325D02*
X346D01*
X416D02*
X425D01*
X556D02*
X577D01*
X685D02*
X702D01*
X746D02*
X766D01*
X809D02*
X831D01*
X147Y622D02*
X170D01*
X199D02*
X222D01*
X242D02*
X273D01*
X320D02*
X350D01*
X415D02*
X434D01*
X445D02*
X465D01*
X480D02*
X499D01*
X512D02*
X531D01*
X553D02*
X582D01*
X603D02*
X622D01*
X637D02*
X656D01*
X681D02*
X705D01*
X745D02*
X770D01*
X807D02*
X836D01*
X857D02*
X877D01*
X899D02*
X921D01*
X944D02*
X966D01*
X147Y623D02*
X170D01*
X198D02*
X222D01*
X240D02*
X274D01*
X315D02*
X353D01*
X415D02*
X434D01*
X445D02*
X465D01*
X480D02*
X499D01*
X512D02*
X531D01*
X551D02*
X584D01*
X603D02*
X622D01*
X637D02*
X656D01*
X680D02*
X707D01*
X743D02*
X772D01*
X805D02*
X838D01*
X857D02*
X877D01*
X898D02*
X921D01*
X944D02*
X967D01*
X147Y624D02*
X170D01*
X198D02*
X221D01*
X239D02*
X276D01*
X313D02*
X354D01*
X415D02*
X434D01*
X445D02*
X465D01*
X480D02*
X499D01*
X512D02*
X531D01*
X549D02*
X587D01*
X603D02*
X622D01*
X637D02*
X656D01*
X678D02*
X708D01*
X741D02*
X774D01*
X803D02*
X840D01*
X857D02*
X877D01*
X898D02*
X921D01*
X944D02*
X967D01*
X148Y625D02*
X171D01*
X198D02*
X221D01*
X237D02*
X278D01*
X311D02*
X355D01*
X415D02*
X434D01*
X445D02*
X465D01*
X480D02*
X499D01*
X512D02*
X531D01*
X547D02*
X588D01*
X603D02*
X622D01*
X637D02*
X656D01*
X676D02*
X710D01*
X740D02*
X775D01*
X801D02*
X842D01*
X857D02*
X877D01*
X898D02*
X922D01*
X943D02*
X967D01*
X148Y626D02*
X171D01*
X198D02*
X221D01*
X236D02*
X279D01*
X310D02*
X356D01*
X415D02*
X434D01*
X445D02*
X465D01*
X480D02*
X499D01*
X512D02*
X531D01*
X546D02*
X589D01*
X603D02*
X622D01*
X637D02*
X656D01*
X675D02*
X711D01*
X739D02*
X777D01*
X799D02*
X843D01*
X857D02*
X877D01*
X898D02*
X922D01*
X943D02*
X967D01*
X148Y627D02*
X171D01*
X197D02*
X220D01*
X235D02*
X281D01*
X309D02*
X357D01*
X415D02*
X434D01*
X445D02*
X465D01*
X480D02*
X499D01*
X512D02*
X531D01*
X545D02*
X591D01*
X603D02*
X622D01*
X637D02*
X656D01*
X673D02*
X712D01*
X737D02*
X778D01*
X798D02*
X844D01*
X857D02*
X877D01*
X898D02*
X922D01*
X943D02*
X967D01*
X148Y628D02*
X171D01*
X197D02*
X220D01*
X234D02*
X282D01*
X308D02*
X358D01*
X415D02*
X434D01*
X445D02*
X465D01*
X480D02*
X499D01*
X512D02*
X531D01*
X544D02*
X592D01*
X603D02*
X622D01*
X637D02*
X656D01*
X672D02*
X713D01*
X736D02*
X779D01*
X797D02*
X846D01*
X857D02*
X877D01*
X897D02*
X922D01*
X942D02*
X968D01*
X149Y629D02*
X172D01*
X197D02*
X220D01*
X233D02*
X283D01*
X307D02*
X359D01*
X415D02*
X434D01*
X445D02*
X465D01*
X480D02*
X499D01*
X512D02*
X531D01*
X543D02*
X593D01*
X603D02*
X622D01*
X637D02*
X656D01*
X672D02*
X714D01*
X735D02*
X780D01*
X797D02*
X847D01*
X857D02*
X877D01*
X897D02*
X923D01*
X942D02*
X968D01*
X149Y630D02*
X172D01*
X197D02*
X219D01*
X232D02*
X283D01*
X307D02*
X360D01*
X415D02*
X434D01*
X445D02*
X465D01*
X480D02*
X499D01*
X512D02*
X531D01*
X543D02*
X593D01*
X603D02*
X622D01*
X637D02*
X656D01*
X671D02*
X715D01*
X734D02*
X781D01*
X796D02*
X847D01*
X857D02*
X877D01*
X897D02*
X923D01*
X942D02*
X968D01*
X149Y631D02*
X172D01*
X197D02*
X219D01*
X231D02*
X284D01*
X306D02*
X360D01*
X415D02*
X434D01*
X445D02*
X465D01*
X480D02*
X499D01*
X512D02*
X531D01*
X542D02*
X594D01*
X603D02*
X622D01*
X637D02*
X656D01*
X671D02*
X716D01*
X734D02*
X782D01*
X796D02*
X847D01*
X857D02*
X877D01*
X897D02*
X923D01*
X942D02*
X968D01*
X150Y632D02*
X172D01*
X196D02*
X219D01*
X230D02*
X284D01*
X305D02*
X361D01*
X415D02*
X434D01*
X445D02*
X465D01*
X480D02*
X499D01*
X512D02*
X531D01*
X542D02*
X566D01*
X569D02*
X594D01*
X603D02*
X622D01*
X637D02*
X656D01*
X670D02*
X716D01*
X733D02*
X782D01*
X795D02*
X820D01*
X823D02*
X848D01*
X857D02*
X877D01*
X897D02*
X923D01*
X941D02*
X968D01*
X150Y633D02*
X173D01*
X196D02*
X219D01*
X230D02*
X285D01*
X305D02*
X362D01*
X415D02*
X434D01*
X445D02*
X465D01*
X480D02*
X499D01*
X512D02*
X531D01*
X541D02*
X562D01*
X573D02*
X594D01*
X603D02*
X622D01*
X637D02*
X656D01*
X670D02*
X717D01*
X733D02*
X783D01*
X795D02*
X815D01*
X827D02*
X848D01*
X857D02*
X877D01*
X896D02*
X924D01*
X941D02*
X969D01*
X150Y634D02*
X218D01*
X230D02*
X286D01*
X304D02*
X362D01*
X415D02*
X434D01*
X445D02*
X465D01*
X480D02*
X499D01*
X512D02*
X531D01*
X541D02*
X561D01*
X574D02*
X595D01*
X603D02*
X622D01*
X637D02*
X656D01*
X669D02*
X718D01*
X732D02*
X784D01*
X794D02*
X814D01*
X828D02*
X848D01*
X857D02*
X877D01*
X896D02*
X924D01*
X941D02*
X969D01*
X151Y635D02*
X218D01*
X229D02*
X256D01*
X258D02*
X286D01*
X303D02*
X363D01*
X415D02*
X434D01*
X445D02*
X465D01*
X480D02*
X499D01*
X512D02*
X531D01*
X540D02*
X560D01*
X575D02*
X595D01*
X603D02*
X622D01*
X637D02*
X656D01*
X669D02*
X690D01*
X698D02*
X719D01*
X732D02*
X757D01*
X763D02*
X785D01*
X794D02*
X814D01*
X828D02*
X849D01*
X857D02*
X877D01*
X896D02*
X924D01*
X941D02*
X969D01*
X151Y635D02*
X218D01*
X229D02*
X254D01*
X262D02*
X287D01*
X303D02*
X364D01*
X415D02*
X434D01*
X445D02*
X465D01*
X480D02*
X499D01*
X512D02*
X531D01*
X540D02*
X560D01*
X575D02*
X596D01*
X603D02*
X622D01*
X637D02*
X656D01*
X668D02*
X689D01*
X699D02*
X720D01*
X731D02*
X753D01*
X764D02*
X785D01*
X794D02*
X813D01*
X829D02*
X849D01*
X857D02*
X877D01*
X896D02*
X924D01*
X940D02*
X969D01*
X151Y636D02*
X217D01*
X228D02*
X252D01*
X263D02*
X287D01*
X302D02*
X364D01*
X415D02*
X434D01*
X445D02*
X465D01*
X480D02*
X499D01*
X512D02*
X531D01*
X540D02*
X560D01*
X576D02*
X583D01*
X603D02*
X622D01*
X637D02*
X656D01*
X668D02*
X688D01*
X700D02*
X720D01*
X731D02*
X752D01*
X765D02*
X786D01*
X794D02*
X814D01*
X830D02*
X837D01*
X857D02*
X877D01*
X896D02*
X924D01*
X940D02*
X969D01*
X152Y637D02*
X217D01*
X228D02*
X251D01*
X264D02*
X287D01*
X301D02*
X328D01*
X339D02*
X365D01*
X415D02*
X434D01*
X445D02*
X465D01*
X480D02*
X499D01*
X512D02*
X531D01*
X540D02*
X560D01*
X603D02*
X622D01*
X637D02*
X656D01*
X667D02*
X688D01*
X700D02*
X720D01*
X730D02*
X751D01*
X765D02*
X786D01*
X794D02*
X814D01*
X857D02*
X877D01*
X895D02*
X925D01*
X940D02*
X970D01*
X152Y638D02*
X217D01*
X228D02*
X250D01*
X265D02*
X288D01*
X301D02*
X326D01*
X340D02*
X365D01*
X415D02*
X434D01*
X445D02*
X465D01*
X480D02*
X499D01*
X512D02*
X531D01*
X540D02*
X561D01*
X603D02*
X622D01*
X637D02*
X656D01*
X667D02*
X687D01*
X701D02*
X720D01*
X730D02*
X751D01*
X766D02*
X786D01*
X794D02*
X814D01*
X857D02*
X877D01*
X895D02*
X925D01*
X940D02*
X970D01*
X152Y639D02*
X216D01*
X228D02*
X250D01*
X265D02*
X288D01*
X301D02*
X325D01*
X341D02*
X366D01*
X415D02*
X434D01*
X445D02*
X465D01*
X480D02*
X499D01*
X512D02*
X531D01*
X540D02*
X561D01*
X603D02*
X622D01*
X637D02*
X656D01*
X667D02*
X686D01*
X701D02*
X721D01*
X729D02*
X750D01*
X766D02*
X787D01*
X794D02*
X815D01*
X857D02*
X877D01*
X895D02*
X925D01*
X939D02*
X970D01*
X153Y640D02*
X216D01*
X227D02*
X249D01*
X266D02*
X288D01*
X300D02*
X324D01*
X342D02*
X366D01*
X415D02*
X434D01*
X445D02*
X465D01*
X480D02*
X499D01*
X512D02*
X531D01*
X540D02*
X566D01*
X603D02*
X622D01*
X637D02*
X656D01*
X667D02*
X686D01*
X701D02*
X721D01*
X736D02*
X749D01*
X766D02*
X787D01*
X794D02*
X819D01*
X857D02*
X877D01*
X895D02*
X925D01*
X939D02*
X970D01*
X153Y641D02*
X216D01*
X227D02*
X248D01*
X266D02*
X289D01*
X300D02*
X324D01*
X343D02*
X366D01*
X445D02*
X465D01*
X480D02*
X499D01*
X512D02*
X531D01*
X540D02*
X570D01*
X603D02*
X622D01*
X637D02*
X656D01*
X667D02*
X685D01*
X702D02*
X721D01*
X766D02*
X787D01*
X794D02*
X823D01*
X857D02*
X877D01*
X895D02*
X926D01*
X939D02*
X970D01*
X153Y642D02*
X215D01*
X227D02*
X249D01*
X266D02*
X289D01*
X300D02*
X323D01*
X343D02*
X366D01*
X445D02*
X465D01*
X480D02*
X499D01*
X512D02*
X531D01*
X540D02*
X575D01*
X603D02*
X622D01*
X637D02*
X656D01*
X667D02*
X685D01*
X702D02*
X721D01*
X767D02*
X787D01*
X794D02*
X829D01*
X857D02*
X877D01*
X894D02*
X926D01*
X939D02*
X971D01*
X153Y643D02*
X215D01*
X227D02*
X249D01*
X266D02*
X289D01*
X300D02*
X323D01*
X343D02*
X366D01*
X445D02*
X465D01*
X480D02*
X499D01*
X512D02*
X531D01*
X541D02*
X580D01*
X603D02*
X622D01*
X637D02*
X656D01*
X667D02*
X685D01*
X702D02*
X721D01*
X767D02*
X787D01*
X794D02*
X833D01*
X857D02*
X877D01*
X894D02*
X926D01*
X938D02*
X971D01*
X154Y644D02*
X215D01*
X227D02*
X249D01*
X267D02*
X289D01*
X300D02*
X323D01*
X343D02*
X366D01*
X445D02*
X465D01*
X480D02*
X499D01*
X512D02*
X531D01*
X541D02*
X583D01*
X603D02*
X622D01*
X637D02*
X656D01*
X666D02*
X685D01*
X702D02*
X722D01*
X767D02*
X787D01*
X795D02*
X837D01*
X857D02*
X877D01*
X894D02*
X926D01*
X938D02*
X971D01*
X154Y645D02*
X214D01*
X226D02*
X249D01*
X267D02*
X290D01*
X300D02*
X323D01*
X344D02*
X366D01*
X445D02*
X465D01*
X480D02*
X499D01*
X512D02*
X531D01*
X542D02*
X585D01*
X603D02*
X622D01*
X637D02*
X656D01*
X666D02*
X685D01*
X703D02*
X722D01*
X767D02*
X787D01*
X796D02*
X838D01*
X857D02*
X877D01*
X894D02*
X927D01*
X938D02*
X971D01*
X154Y646D02*
X214D01*
X226D02*
X250D01*
X267D02*
X280D01*
X300D02*
X322D01*
X344D02*
X366D01*
X445D02*
X465D01*
X480D02*
X499D01*
X512D02*
X531D01*
X543D02*
X586D01*
X603D02*
X622D01*
X637D02*
X656D01*
X666D02*
X685D01*
X703D02*
X722D01*
X768D02*
X787D01*
X796D02*
X839D01*
X857D02*
X877D01*
X894D02*
X927D01*
X937D02*
X971D01*
X155Y647D02*
X214D01*
X226D02*
X250D01*
X300D02*
X322D01*
X344D02*
X367D01*
X445D02*
X465D01*
X480D02*
X499D01*
X512D02*
X531D01*
X543D02*
X587D01*
X603D02*
X622D01*
X637D02*
X656D01*
X666D02*
X685D01*
X703D02*
X722D01*
X768D02*
X787D01*
X797D02*
X840D01*
X857D02*
X877D01*
X893D02*
X927D01*
X937D02*
X972D01*
X155Y648D02*
X214D01*
X226D02*
X253D01*
X300D02*
X322D01*
X344D02*
X367D01*
X445D02*
X465D01*
X480D02*
X499D01*
X512D02*
X531D01*
X545D02*
X588D01*
X603D02*
X622D01*
X637D02*
X656D01*
X666D02*
X685D01*
X703D02*
X722D01*
X768D02*
X787D01*
X798D02*
X842D01*
X857D02*
X877D01*
X893D02*
X927D01*
X937D02*
X972D01*
X155Y649D02*
X213D01*
X226D02*
X256D01*
X299D02*
X322D01*
X345D02*
X367D01*
X445D02*
X465D01*
X480D02*
X499D01*
X512D02*
X531D01*
X546D02*
X589D01*
X603D02*
X622D01*
X637D02*
X656D01*
X666D02*
X685D01*
X703D02*
X722D01*
X767D02*
X787D01*
X799D02*
X843D01*
X857D02*
X877D01*
X893D02*
X928D01*
X937D02*
X972D01*
X156Y650D02*
X177D01*
X190D02*
X213D01*
X226D02*
X258D01*
X299D02*
X321D01*
X345D02*
X367D01*
X445D02*
X465D01*
X480D02*
X499D01*
X512D02*
X531D01*
X547D02*
X590D01*
X603D02*
X622D01*
X637D02*
X656D01*
X666D02*
X685D01*
X702D02*
X722D01*
X767D02*
X787D01*
X801D02*
X844D01*
X857D02*
X877D01*
X893D02*
X928D01*
X936D02*
X972D01*
X156Y650D02*
X177D01*
X190D02*
X213D01*
X226D02*
X260D01*
X299D02*
X321D01*
X345D02*
X367D01*
X445D02*
X465D01*
X480D02*
X499D01*
X512D02*
X531D01*
X548D02*
X590D01*
X603D02*
X622D01*
X637D02*
X656D01*
X666D02*
X685D01*
X702D02*
X722D01*
X767D02*
X786D01*
X802D02*
X844D01*
X857D02*
X877D01*
X893D02*
X928D01*
X936D02*
X972D01*
X156Y651D02*
X177D01*
X190D02*
X212D01*
X227D02*
X263D01*
X299D02*
X321D01*
X345D02*
X367D01*
X445D02*
X465D01*
X480D02*
X499D01*
X512D02*
X531D01*
X549D02*
X591D01*
X603D02*
X622D01*
X637D02*
X656D01*
X666D02*
X685D01*
X702D02*
X722D01*
X767D02*
X786D01*
X803D02*
X844D01*
X857D02*
X877D01*
X892D02*
X928D01*
X936D02*
X973D01*
X157Y652D02*
X178D01*
X190D02*
X212D01*
X227D02*
X266D01*
X299D02*
X321D01*
X345D02*
X367D01*
X445D02*
X465D01*
X480D02*
X499D01*
X512D02*
X531D01*
X551D02*
X591D01*
X603D02*
X622D01*
X637D02*
X656D01*
X667D02*
X685D01*
X702D02*
X722D01*
X766D02*
X786D01*
X805D02*
X845D01*
X857D02*
X877D01*
X892D02*
X928D01*
X936D02*
X973D01*
X157Y653D02*
X178D01*
X189D02*
X212D01*
X228D02*
X269D01*
X299D02*
X321D01*
X345D02*
X367D01*
X445D02*
X465D01*
X479D02*
X499D01*
X512D02*
X531D01*
X555D02*
X591D01*
X603D02*
X622D01*
X636D02*
X656D01*
X667D02*
X685D01*
X702D02*
X722D01*
X766D02*
X786D01*
X809D02*
X845D01*
X857D02*
X877D01*
X892D02*
X929D01*
X935D02*
X973D01*
X157Y654D02*
X178D01*
X189D02*
X211D01*
X229D02*
X271D01*
X299D02*
X321D01*
X345D02*
X367D01*
X445D02*
X465D01*
X478D02*
X499D01*
X512D02*
X531D01*
X561D02*
X592D01*
X603D02*
X622D01*
X636D02*
X656D01*
X667D02*
X686D01*
X701D02*
X721D01*
X766D02*
X786D01*
X815D02*
X845D01*
X857D02*
X877D01*
X892D02*
X929D01*
X935D02*
X973D01*
X158Y655D02*
X178D01*
X189D02*
X211D01*
X229D02*
X274D01*
X299D02*
X321D01*
X345D02*
X367D01*
X445D02*
X466D01*
X478D02*
X499D01*
X512D02*
X531D01*
X570D02*
X592D01*
X603D02*
X623D01*
X635D02*
X656D01*
X667D02*
X686D01*
X701D02*
X721D01*
X745D02*
X750D01*
X765D02*
X785D01*
X824D02*
X846D01*
X857D02*
X877D01*
X892D02*
X929D01*
X935D02*
X973D01*
X158Y656D02*
X179D01*
X189D02*
X211D01*
X230D02*
X276D01*
X299D02*
X321D01*
X345D02*
X367D01*
X446D02*
X466D01*
X477D02*
X499D01*
X512D02*
X531D01*
X572D02*
X592D01*
X603D02*
X623D01*
X634D02*
X656D01*
X667D02*
X687D01*
X701D02*
X721D01*
X732D02*
X751D01*
X765D02*
X785D01*
X826D02*
X846D01*
X857D02*
X877D01*
X891D02*
X929D01*
X935D02*
X974D01*
X158Y657D02*
X179D01*
X188D02*
X210D01*
X231D02*
X278D01*
X299D02*
X321D01*
X345D02*
X367D01*
X446D02*
X468D01*
X475D02*
X499D01*
X512D02*
X531D01*
X573D02*
X593D01*
X603D02*
X625D01*
X633D02*
X656D01*
X667D02*
X688D01*
X701D02*
X721D01*
X731D02*
X751D01*
X764D02*
X785D01*
X826D02*
X846D01*
X857D02*
X877D01*
X891D02*
X930D01*
X934D02*
X974D01*
X158Y658D02*
X179D01*
X188D02*
X210D01*
X232D02*
X279D01*
X299D02*
X321D01*
X345D02*
X367D01*
X446D02*
X470D01*
X474D02*
X499D01*
X512D02*
X531D01*
X573D02*
X593D01*
X603D02*
X627D01*
X631D02*
X656D01*
X667D02*
X689D01*
X700D02*
X721D01*
X732D02*
X752D01*
X763D02*
X785D01*
X827D02*
X846D01*
X857D02*
X877D01*
X891D02*
X930D01*
X934D02*
X974D01*
X159Y659D02*
X179D01*
X188D02*
X210D01*
X233D02*
X281D01*
X299D02*
X321D01*
X345D02*
X367D01*
X446D02*
X471D01*
X472D02*
X499D01*
X512D02*
X531D01*
X574D02*
X593D01*
X603D02*
X629D01*
X629D02*
X656D01*
X668D02*
X691D01*
X698D02*
X720D01*
X732D02*
X753D01*
X762D02*
X785D01*
X827D02*
X846D01*
X857D02*
X877D01*
X891D02*
X930D01*
X934D02*
X974D01*
X159Y660D02*
X180D01*
X188D02*
X209D01*
X234D02*
X282D01*
X299D02*
X321D01*
X345D02*
X367D01*
X446D02*
X499D01*
X512D02*
X531D01*
X549D02*
X562D01*
X573D02*
X592D01*
X603D02*
X656D01*
X669D02*
X692D01*
X695D02*
X719D01*
X732D02*
X756D01*
X760D02*
X784D01*
X802D02*
X816D01*
X827D02*
X846D01*
X857D02*
X877D01*
X891D02*
X912D01*
X913D02*
X930D01*
X934D02*
X952D01*
X953D02*
X974D01*
X159Y661D02*
X180D01*
X187D02*
X209D01*
X235D02*
X283D01*
X299D02*
X321D01*
X345D02*
X367D01*
X446D02*
X499D01*
X512D02*
X531D01*
X542D02*
X563D01*
X573D02*
X592D01*
X603D02*
X656D01*
X669D02*
X718D01*
X733D02*
X784D01*
X796D02*
X817D01*
X826D02*
X846D01*
X857D02*
X877D01*
X890D02*
X912D01*
X913D02*
X931D01*
X933D02*
X952D01*
X953D02*
X975D01*
X160Y662D02*
X180D01*
X187D02*
X209D01*
X236D02*
X283D01*
X299D02*
X321D01*
X345D02*
X367D01*
X447D02*
X499D01*
X512D02*
X531D01*
X543D02*
X564D01*
X572D02*
X592D01*
X604D02*
X656D01*
X670D02*
X718D01*
X733D02*
X783D01*
X796D02*
X817D01*
X826D02*
X845D01*
X857D02*
X877D01*
X890D02*
X912D01*
X913D02*
X931D01*
X933D02*
X952D01*
X953D02*
X975D01*
X160Y663D02*
X180D01*
X187D02*
X209D01*
X237D02*
X284D01*
X299D02*
X321D01*
X345D02*
X367D01*
X447D02*
X499D01*
X512D02*
X531D01*
X543D02*
X567D01*
X569D02*
X592D01*
X604D02*
X656D01*
X670D02*
X717D01*
X734D02*
X783D01*
X797D02*
X820D01*
X823D02*
X845D01*
X857D02*
X877D01*
X890D02*
X912D01*
X913D02*
X931D01*
X933D02*
X952D01*
X953D02*
X975D01*
X160Y664D02*
X181D01*
X187D02*
X208D01*
X239D02*
X284D01*
X299D02*
X321D01*
X345D02*
X367D01*
X447D02*
X499D01*
X512D02*
X531D01*
X544D02*
X591D01*
X604D02*
X656D01*
X671D02*
X716D01*
X734D02*
X782D01*
X798D02*
X845D01*
X857D02*
X877D01*
X890D02*
X911D01*
X914D02*
X931D01*
X932D02*
X951D01*
X954D02*
X975D01*
X161Y665D02*
X181D01*
X186D02*
X208D01*
X242D02*
X285D01*
X299D02*
X321D01*
X345D02*
X367D01*
X448D02*
X481D01*
X481D02*
X499D01*
X512D02*
X531D01*
X545D02*
X591D01*
X605D02*
X638D01*
X638D02*
X656D01*
X671D02*
X715D01*
X735D02*
X781D01*
X798D02*
X845D01*
X857D02*
X877D01*
X890D02*
X911D01*
X914D02*
X931D01*
X932D02*
X951D01*
X954D02*
X976D01*
X161Y665D02*
X181D01*
X186D02*
X208D01*
X244D02*
X285D01*
X299D02*
X321D01*
X345D02*
X367D01*
X448D02*
X480D01*
X481D02*
X499D01*
X512D02*
X531D01*
X545D02*
X591D01*
X605D02*
X637D01*
X638D02*
X656D01*
X673D02*
X714D01*
X736D02*
X780D01*
X799D02*
X844D01*
X857D02*
X877D01*
X889D02*
X911D01*
X914D02*
X932D01*
X932D02*
X951D01*
X954D02*
X976D01*
X161Y666D02*
X181D01*
X186D02*
X207D01*
X247D02*
X286D01*
X299D02*
X321D01*
X345D02*
X367D01*
X448D02*
X479D01*
X481D02*
X499D01*
X512D02*
X531D01*
X546D02*
X590D01*
X606D02*
X636D01*
X638D02*
X656D01*
X674D02*
X713D01*
X736D02*
X780D01*
X799D02*
X844D01*
X857D02*
X877D01*
X889D02*
X911D01*
X914D02*
X951D01*
X954D02*
X976D01*
X162Y667D02*
X182D01*
X185D02*
X207D01*
X250D02*
X286D01*
X299D02*
X321D01*
X345D02*
X367D01*
X449D02*
X478D01*
X481D02*
X499D01*
X512D02*
X531D01*
X547D02*
X590D01*
X606D02*
X635D01*
X638D02*
X656D01*
X675D02*
X712D01*
X737D02*
X779D01*
X800D02*
X843D01*
X857D02*
X877D01*
X889D02*
X910D01*
X915D02*
X950D01*
X955D02*
X976D01*
X162Y668D02*
X182D01*
X185D02*
X207D01*
X253D02*
X286D01*
X299D02*
X321D01*
X345D02*
X367D01*
X449D02*
X477D01*
X481D02*
X499D01*
X512D02*
X531D01*
X547D02*
X589D01*
X606D02*
X634D01*
X638D02*
X656D01*
X677D02*
X711D01*
X738D02*
X777D01*
X801D02*
X842D01*
X857D02*
X877D01*
X889D02*
X910D01*
X915D02*
X950D01*
X955D02*
X976D01*
X162Y669D02*
X182D01*
X185D02*
X206D01*
X256D02*
X286D01*
X299D02*
X321D01*
X345D02*
X367D01*
X450D02*
X476D01*
X481D02*
X499D01*
X512D02*
X531D01*
X548D02*
X587D01*
X607D02*
X633D01*
X638D02*
X656D01*
X678D02*
X710D01*
X738D02*
X776D01*
X802D02*
X841D01*
X857D02*
X877D01*
X889D02*
X910D01*
X915D02*
X950D01*
X955D02*
X977D01*
X163Y670D02*
X183D01*
X185D02*
X206D01*
X259D02*
X286D01*
X299D02*
X321D01*
X345D02*
X367D01*
X452D02*
X474D01*
X481D02*
X499D01*
X512D02*
X531D01*
X550D02*
X586D01*
X609D02*
X632D01*
X638D02*
X656D01*
X679D02*
X709D01*
X739D02*
X774D01*
X803D02*
X839D01*
X857D02*
X877D01*
X888D02*
X910D01*
X915D02*
X950D01*
X955D02*
X977D01*
X163Y671D02*
X183D01*
X184D02*
X206D01*
X261D02*
X287D01*
X299D02*
X321D01*
X345D02*
X367D01*
X453D02*
X473D01*
X481D02*
X499D01*
X512D02*
X531D01*
X552D02*
X584D01*
X610D02*
X630D01*
X638D02*
X656D01*
X681D02*
X708D01*
X742D02*
X772D01*
X805D02*
X838D01*
X857D02*
X877D01*
X888D02*
X910D01*
X916D02*
X949D01*
X956D02*
X977D01*
X163Y672D02*
X183D01*
X184D02*
X205D01*
X241D02*
X251D01*
X263D02*
X287D01*
X299D02*
X321D01*
X345D02*
X367D01*
X454D02*
X471D01*
X481D02*
X499D01*
X512D02*
X531D01*
X553D02*
X583D01*
X611D02*
X628D01*
X638D02*
X656D01*
X684D02*
X707D01*
X745D02*
X769D01*
X807D02*
X836D01*
X857D02*
X877D01*
X888D02*
X909D01*
X916D02*
X949D01*
X956D02*
X977D01*
X163Y673D02*
X183D01*
X184D02*
X205D01*
X229D02*
X252D01*
X265D02*
X287D01*
X299D02*
X321D01*
X345D02*
X367D01*
X456D02*
X467D01*
X555D02*
X581D01*
X613D02*
X624D01*
X689D02*
X704D01*
X749D02*
X765D01*
X809D02*
X834D01*
X888D02*
X909D01*
X916D02*
X949D01*
X956D02*
X977D01*
X164Y674D02*
X184D01*
X184D02*
X205D01*
X229D02*
X252D01*
X265D02*
X287D01*
X299D02*
X321D01*
X345D02*
X367D01*
X462D02*
X464D01*
X559D02*
X576D01*
X619D02*
X621D01*
X694D02*
X697D01*
X756D02*
X760D01*
X812D02*
X830D01*
X888D02*
X909D01*
X916D02*
X949D01*
X956D02*
X978D01*
X164Y675D02*
X204D01*
X230D02*
X253D01*
X265D02*
X286D01*
X299D02*
X321D01*
X345D02*
X367D01*
X887D02*
X909D01*
X917D02*
X949D01*
X956D02*
X978D01*
X164Y676D02*
X204D01*
X230D02*
X253D01*
X265D02*
X286D01*
X299D02*
X321D01*
X345D02*
X367D01*
X887D02*
X908D01*
X917D02*
X948D01*
X957D02*
X978D01*
X165Y677D02*
X204D01*
X230D02*
X253D01*
X264D02*
X286D01*
X299D02*
X321D01*
X345D02*
X367D01*
X887D02*
X908D01*
X917D02*
X948D01*
X957D02*
X978D01*
X165Y678D02*
X204D01*
X230D02*
X254D01*
X264D02*
X286D01*
X299D02*
X321D01*
X345D02*
X367D01*
X887D02*
X908D01*
X917D02*
X948D01*
X957D02*
X978D01*
X165Y679D02*
X203D01*
X231D02*
X255D01*
X264D02*
X285D01*
X299D02*
X321D01*
X345D02*
X367D01*
X512D02*
X531D01*
X857D02*
X877D01*
X887D02*
X908D01*
X917D02*
X948D01*
X957D02*
X979D01*
X166Y680D02*
X203D01*
X231D02*
X256D01*
X264D02*
X285D01*
X299D02*
X321D01*
X345D02*
X367D01*
X512D02*
X531D01*
X857D02*
X877D01*
X886D02*
X907D01*
X918D02*
X947D01*
X958D02*
X979D01*
X166Y680D02*
X203D01*
X231D02*
X258D01*
X261D02*
X285D01*
X299D02*
X321D01*
X345D02*
X367D01*
X512D02*
X531D01*
X857D02*
X877D01*
X886D02*
X907D01*
X918D02*
X947D01*
X958D02*
X979D01*
X166Y681D02*
X202D01*
X232D02*
X285D01*
X299D02*
X321D01*
X345D02*
X367D01*
X512D02*
X531D01*
X857D02*
X877D01*
X886D02*
X907D01*
X918D02*
X947D01*
X958D02*
X979D01*
X167Y682D02*
X202D01*
X232D02*
X284D01*
X299D02*
X321D01*
X345D02*
X367D01*
X512D02*
X531D01*
X857D02*
X877D01*
X886D02*
X907D01*
X918D02*
X947D01*
X958D02*
X979D01*
X167Y683D02*
X202D01*
X233D02*
X284D01*
X299D02*
X321D01*
X345D02*
X367D01*
X512D02*
X531D01*
X857D02*
X877D01*
X885D02*
X906D01*
X919D02*
X946D01*
X959D02*
X980D01*
X167Y684D02*
X201D01*
X234D02*
X283D01*
X299D02*
X321D01*
X345D02*
X367D01*
X512D02*
X531D01*
X857D02*
X877D01*
X885D02*
X906D01*
X919D02*
X946D01*
X959D02*
X980D01*
X168Y685D02*
X201D01*
X235D02*
X282D01*
X299D02*
X321D01*
X345D02*
X367D01*
X512D02*
X531D01*
X857D02*
X877D01*
X885D02*
X906D01*
X919D02*
X946D01*
X959D02*
X980D01*
X168Y686D02*
X201D01*
X236D02*
X281D01*
X299D02*
X321D01*
X345D02*
X367D01*
X512D02*
X531D01*
X857D02*
X877D01*
X885D02*
X906D01*
X919D02*
X946D01*
X959D02*
X980D01*
X168Y687D02*
X200D01*
X236D02*
X281D01*
X299D02*
X321D01*
X345D02*
X367D01*
X512D02*
X531D01*
X857D02*
X877D01*
X885D02*
X906D01*
X920D02*
X945D01*
X960D02*
X980D01*
X168Y688D02*
X200D01*
X237D02*
X280D01*
X299D02*
X321D01*
X345D02*
X367D01*
X512D02*
X531D01*
X857D02*
X877D01*
X884D02*
X905D01*
X920D02*
X945D01*
X960D02*
X981D01*
X169Y689D02*
X200D01*
X239D02*
X278D01*
X299D02*
X321D01*
X345D02*
X367D01*
X512D02*
X531D01*
X857D02*
X877D01*
X884D02*
X905D01*
X920D02*
X945D01*
X960D02*
X981D01*
X169Y690D02*
X199D01*
X241D02*
X276D01*
X299D02*
X321D01*
X345D02*
X367D01*
X512D02*
X531D01*
X857D02*
X877D01*
X884D02*
X905D01*
X920D02*
X945D01*
X960D02*
X981D01*
X169Y691D02*
X199D01*
X243D02*
X274D01*
X299D02*
X321D01*
X345D02*
X367D01*
X512D02*
X531D01*
X857D02*
X877D01*
X884D02*
X905D01*
X920D02*
X945D01*
X960D02*
X981D01*
X170Y692D02*
X199D01*
X245D02*
X269D01*
X299D02*
X321D01*
X345D02*
X367D01*
X512D02*
X531D01*
X857D02*
X877D01*
X884D02*
X904D01*
X921D02*
X944D01*
X961D02*
X981D01*
X251Y693D02*
X263D01*
X1283Y1502D02*
X1252D01*
X1242Y1500*
X1235Y1499*
X1225Y1492*
X1220Y1480*
X1218Y1467*
Y1456*
X1221Y1449*
X1228Y1438*
X1232Y1436*
X1238Y1433*
X1252Y1432*
X1283*
Y1502*
X1261Y1485D02*
Y1448D01*
X1256*
X1250*
X1246Y1449*
X1242Y1455*
X1240Y1459*
Y1466*
X1242Y1476*
X1245Y1481*
X1249Y1484*
X1256Y1485*
X1261*
X1152Y1452D02*
X1191D01*
X1188Y1447*
X1185Y1444*
X1181*
X1176Y1445*
X1173Y1448*
X1154Y1447*
X1158Y1438*
X1165Y1434*
X1172Y1432*
X1181Y1430*
X1191*
X1196Y1433*
X1202Y1437*
X1206Y1443*
X1209Y1449*
X1210Y1456*
X1209Y1467*
X1203Y1476*
X1194Y1482*
X1183Y1484*
X1173Y1482*
X1165Y1480*
X1159Y1476*
X1155Y1470*
X1154Y1463*
X1152Y1455*
Y1452*
X1172Y1462D02*
X1174Y1469D01*
X1181Y1470*
X1185Y1469*
X1188Y1467*
X1191Y1462*
X1172*
X1148Y1445D02*
X1129Y1447D01*
X1126Y1443*
X1121Y1441*
X1114Y1443*
X1112Y1445*
X1114Y1449*
X1116*
X1122Y1451*
X1130Y1452*
X1136Y1454*
X1143Y1459*
X1144Y1463*
X1145Y1467*
X1144Y1473*
X1143Y1477*
X1134Y1482*
X1127Y1484*
X1121*
X1112*
X1107Y1482*
X1100Y1478*
X1094Y1470*
X1114Y1469*
X1116Y1471*
X1121Y1473*
X1125Y1471*
X1126Y1469*
X1125Y1466*
X1122Y1465*
X1118*
X1108Y1463*
X1103Y1462*
X1096Y1456*
X1093Y1452*
Y1448*
Y1444*
X1096Y1438*
X1099Y1436*
X1104Y1433*
X1111Y1430*
X1121*
X1133Y1432*
X1140Y1434*
X1145Y1438*
X1148Y1445*
X1083Y1502D02*
X1064D01*
Y1488*
X1083*
Y1502*
Y1482D02*
X1064D01*
Y1432*
X1083*
Y1482*
X1016D02*
X998D01*
Y1434*
Y1432*
X999Y1423*
X1005Y1416*
X1013Y1412*
X1026Y1411*
X1038Y1412*
X1046Y1415*
X1050Y1420*
X1052Y1427*
Y1430*
X1032Y1429*
X1030Y1426*
X1026Y1425*
X1019Y1426*
X1017Y1429*
Y1433*
Y1440*
X1023Y1436*
X1027Y1433*
X1032*
X1042Y1436*
X1049Y1443*
X1052Y1449*
X1053Y1459*
X1052Y1470*
X1048Y1477*
X1041Y1482*
X1032Y1484*
X1023Y1481*
X1016Y1476*
Y1482*
X1034Y1458D02*
Y1452D01*
X1031Y1449*
X1028Y1447*
X1026*
X1023*
X1020Y1449*
X1017Y1454*
Y1458*
Y1463*
X1020Y1467*
X1023Y1469*
X1026Y1470*
X1030Y1469*
X1031Y1467*
X1034Y1463*
Y1458*
X987Y1482D02*
X969D01*
Y1474*
X961Y1481*
X951Y1484*
X943Y1482*
X937Y1478*
X935Y1473*
X933Y1465*
Y1432*
X953*
Y1460*
Y1463*
X954Y1466*
X959Y1469*
X965Y1466*
X968Y1462*
Y1456*
Y1432*
X987*
Y1482*
X866Y1452D02*
X904D01*
X902Y1447*
X899Y1444*
X895*
X889Y1445*
X886Y1448*
X867Y1447*
X871Y1438*
X878Y1434*
X885Y1432*
X895Y1430*
X904*
X910Y1433*
X915Y1437*
X919Y1443*
X922Y1449*
X924Y1456*
X922Y1467*
X917Y1476*
X907Y1482*
X896Y1484*
X886Y1482*
X878Y1480*
X873Y1476*
X868Y1470*
X867Y1463*
X866Y1455*
Y1452*
X885Y1462D02*
X888Y1469D01*
X895Y1470*
X899Y1469*
X902Y1467*
X904Y1462*
X885*
X804Y1502D02*
Y1432D01*
X822*
Y1438*
X826Y1434*
X828Y1433*
X838Y1430*
X846Y1432*
X853Y1438*
X857Y1447*
X859Y1458*
X857Y1469*
X853Y1477*
X846Y1482*
X838Y1484*
X830Y1482*
X823Y1478*
Y1502*
X804*
X823Y1458D02*
Y1463D01*
X826Y1467*
X828Y1469*
X831Y1470*
X834Y1469*
X837Y1467*
X840Y1463*
Y1456*
Y1451*
X837Y1447*
X834Y1444*
X831*
X828*
X826Y1447*
X823Y1451*
Y1458*
X758Y1502D02*
X739D01*
Y1488*
X758*
Y1502*
Y1482D02*
X739D01*
Y1432*
X758*
Y1482*
X727D02*
X709D01*
Y1474*
X700Y1481*
X691Y1484*
X682Y1482*
X677Y1478*
X674Y1473*
X673Y1465*
Y1432*
X692*
Y1460*
Y1463*
X693Y1466*
X699Y1469*
X704Y1466*
X707Y1462*
Y1456*
Y1432*
X727*
Y1482*
X662D02*
X642D01*
Y1463*
X662*
Y1482*
Y1451D02*
X642D01*
Y1432*
X662*
Y1451*
X1020Y1412D02*
X1031D01*
X1013Y1412D02*
X1039D01*
X1011Y1413D02*
X1041D01*
X1009Y1414D02*
X1044D01*
X1007Y1415D02*
X1046D01*
X1005Y1416D02*
X1047D01*
X1004Y1417D02*
X1048D01*
X1003Y1418D02*
X1049D01*
X1003Y1419D02*
X1049D01*
X1002Y1420D02*
X1050D01*
X1001Y1421D02*
X1050D01*
X1000Y1422D02*
X1051D01*
X1000Y1423D02*
X1051D01*
X999Y1424D02*
X1051D01*
X999Y1425D02*
X1051D01*
X999Y1426D02*
X1021D01*
X1028D02*
X1051D01*
X999Y1426D02*
X1018D01*
X1030D02*
X1052D01*
X999Y1427D02*
X1018D01*
X1031D02*
X1052D01*
X998Y1428D02*
X1017D01*
X1032D02*
X1052D01*
X998Y1429D02*
X1017D01*
X1040D02*
X1052D01*
X838Y1430D02*
X839D01*
X894D02*
X904D01*
X998D02*
X1017D01*
X1111D02*
X1122D01*
X1180D02*
X1191D01*
X834Y1431D02*
X844D01*
X887D02*
X906D01*
X998D02*
X1017D01*
X1108D02*
X1130D01*
X1174D02*
X1193D01*
X642Y1432D02*
X662D01*
X673D02*
X692D01*
X707D02*
X727D01*
X739D02*
X758D01*
X804D02*
X822D01*
X831D02*
X847D01*
X883D02*
X908D01*
X933D02*
X953D01*
X968D02*
X987D01*
X998D02*
X1017D01*
X1064D02*
X1083D01*
X1106D02*
X1135D01*
X1170D02*
X1195D01*
X1245D02*
X1283D01*
X642Y1433D02*
X662D01*
X673D02*
X692D01*
X707D02*
X727D01*
X739D02*
X758D01*
X804D02*
X822D01*
X828D02*
X848D01*
X881D02*
X910D01*
X933D02*
X953D01*
X968D02*
X987D01*
X998D02*
X1017D01*
X1027D02*
X1033D01*
X1064D02*
X1083D01*
X1104D02*
X1137D01*
X1168D02*
X1197D01*
X1237D02*
X1283D01*
X642Y1434D02*
X662D01*
X673D02*
X692D01*
X707D02*
X727D01*
X739D02*
X758D01*
X804D02*
X822D01*
X826D02*
X849D01*
X879D02*
X911D01*
X933D02*
X953D01*
X968D02*
X987D01*
X998D02*
X1017D01*
X1025D02*
X1036D01*
X1064D02*
X1083D01*
X1102D02*
X1139D01*
X1165D02*
X1198D01*
X1236D02*
X1283D01*
X642Y1435D02*
X662D01*
X673D02*
X692D01*
X707D02*
X727D01*
X739D02*
X758D01*
X804D02*
X822D01*
X825D02*
X850D01*
X877D02*
X913D01*
X933D02*
X953D01*
X968D02*
X987D01*
X998D02*
X1017D01*
X1024D02*
X1040D01*
X1064D02*
X1083D01*
X1100D02*
X1141D01*
X1164D02*
X1199D01*
X1234D02*
X1283D01*
X642Y1436D02*
X662D01*
X673D02*
X692D01*
X707D02*
X727D01*
X739D02*
X758D01*
X804D02*
X822D01*
X824D02*
X851D01*
X875D02*
X914D01*
X933D02*
X953D01*
X968D02*
X987D01*
X998D02*
X1017D01*
X1022D02*
X1042D01*
X1064D02*
X1083D01*
X1098D02*
X1142D01*
X1162D02*
X1200D01*
X1232D02*
X1283D01*
X642Y1437D02*
X662D01*
X673D02*
X692D01*
X707D02*
X727D01*
X739D02*
X758D01*
X804D02*
X822D01*
X823D02*
X852D01*
X874D02*
X915D01*
X933D02*
X953D01*
X968D02*
X987D01*
X998D02*
X1017D01*
X1021D02*
X1043D01*
X1064D02*
X1083D01*
X1097D02*
X1143D01*
X1160D02*
X1202D01*
X1230D02*
X1283D01*
X642Y1438D02*
X662D01*
X673D02*
X692D01*
X707D02*
X727D01*
X739D02*
X758D01*
X804D02*
X822D01*
X822D02*
X853D01*
X872D02*
X916D01*
X933D02*
X953D01*
X968D02*
X987D01*
X998D02*
X1017D01*
X1020D02*
X1044D01*
X1064D02*
X1083D01*
X1096D02*
X1145D01*
X1159D02*
X1202D01*
X1229D02*
X1283D01*
X642Y1439D02*
X662D01*
X673D02*
X692D01*
X707D02*
X727D01*
X739D02*
X758D01*
X804D02*
X853D01*
X871D02*
X917D01*
X933D02*
X953D01*
X968D02*
X987D01*
X998D02*
X1017D01*
X1019D02*
X1045D01*
X1064D02*
X1083D01*
X1096D02*
X1146D01*
X1158D02*
X1203D01*
X1228D02*
X1283D01*
X642Y1440D02*
X662D01*
X673D02*
X692D01*
X707D02*
X727D01*
X739D02*
X758D01*
X804D02*
X854D01*
X871D02*
X917D01*
X933D02*
X953D01*
X968D02*
X987D01*
X998D02*
X1017D01*
X1017D02*
X1046D01*
X1064D02*
X1083D01*
X1095D02*
X1146D01*
X1157D02*
X1204D01*
X1227D02*
X1283D01*
X642Y1441D02*
X662D01*
X673D02*
X692D01*
X707D02*
X727D01*
X739D02*
X758D01*
X804D02*
X854D01*
X870D02*
X918D01*
X933D02*
X953D01*
X968D02*
X987D01*
X998D02*
X1047D01*
X1064D02*
X1083D01*
X1095D02*
X1146D01*
X1157D02*
X1205D01*
X1227D02*
X1283D01*
X642Y1441D02*
X662D01*
X673D02*
X692D01*
X707D02*
X727D01*
X739D02*
X758D01*
X804D02*
X855D01*
X870D02*
X919D01*
X933D02*
X953D01*
X968D02*
X987D01*
X998D02*
X1048D01*
X1064D02*
X1083D01*
X1094D02*
X1119D01*
X1122D02*
X1147D01*
X1156D02*
X1205D01*
X1226D02*
X1283D01*
X642Y1442D02*
X662D01*
X673D02*
X692D01*
X707D02*
X727D01*
X739D02*
X758D01*
X804D02*
X855D01*
X869D02*
X919D01*
X933D02*
X953D01*
X968D02*
X987D01*
X998D02*
X1049D01*
X1064D02*
X1083D01*
X1094D02*
X1114D01*
X1126D02*
X1147D01*
X1156D02*
X1206D01*
X1226D02*
X1283D01*
X642Y1443D02*
X662D01*
X673D02*
X692D01*
X707D02*
X727D01*
X739D02*
X758D01*
X804D02*
X856D01*
X869D02*
X920D01*
X933D02*
X953D01*
X968D02*
X987D01*
X998D02*
X1049D01*
X1064D02*
X1083D01*
X1093D02*
X1113D01*
X1127D02*
X1147D01*
X1155D02*
X1206D01*
X1225D02*
X1283D01*
X642Y1444D02*
X662D01*
X673D02*
X692D01*
X707D02*
X727D01*
X739D02*
X758D01*
X804D02*
X828D01*
X834D02*
X856D01*
X868D02*
X893D01*
X899D02*
X920D01*
X933D02*
X953D01*
X968D02*
X987D01*
X998D02*
X1050D01*
X1064D02*
X1083D01*
X1093D02*
X1113D01*
X1127D02*
X1148D01*
X1155D02*
X1180D01*
X1186D02*
X1207D01*
X1224D02*
X1283D01*
X642Y1445D02*
X662D01*
X673D02*
X692D01*
X707D02*
X727D01*
X739D02*
X758D01*
X804D02*
X827D01*
X835D02*
X857D01*
X868D02*
X889D01*
X900D02*
X921D01*
X933D02*
X953D01*
X968D02*
X987D01*
X998D02*
X1050D01*
X1064D02*
X1083D01*
X1093D02*
X1112D01*
X1128D02*
X1148D01*
X1154D02*
X1176D01*
X1187D02*
X1207D01*
X1224D02*
X1283D01*
X642Y1446D02*
X662D01*
X673D02*
X692D01*
X707D02*
X727D01*
X739D02*
X758D01*
X804D02*
X826D01*
X836D02*
X857D01*
X867D02*
X888D01*
X901D02*
X921D01*
X933D02*
X953D01*
X968D02*
X987D01*
X998D02*
X1050D01*
X1064D02*
X1083D01*
X1093D02*
X1113D01*
X1129D02*
X1136D01*
X1154D02*
X1175D01*
X1188D02*
X1208D01*
X1223D02*
X1283D01*
X642Y1447D02*
X662D01*
X673D02*
X692D01*
X707D02*
X727D01*
X739D02*
X758D01*
X804D02*
X825D01*
X837D02*
X857D01*
X873D02*
X887D01*
X902D02*
X921D01*
X933D02*
X953D01*
X968D02*
X987D01*
X998D02*
X1022D01*
X1029D02*
X1051D01*
X1064D02*
X1083D01*
X1093D02*
X1113D01*
X1160D02*
X1174D01*
X1188D02*
X1208D01*
X1223D02*
X1283D01*
X642Y1448D02*
X662D01*
X673D02*
X692D01*
X707D02*
X727D01*
X739D02*
X758D01*
X804D02*
X825D01*
X838D02*
X858D01*
X902D02*
X922D01*
X933D02*
X953D01*
X968D02*
X987D01*
X998D02*
X1021D01*
X1030D02*
X1051D01*
X1064D02*
X1083D01*
X1093D02*
X1113D01*
X1189D02*
X1208D01*
X1222D02*
X1250D01*
X1261D02*
X1283D01*
X642Y1449D02*
X662D01*
X673D02*
X692D01*
X707D02*
X727D01*
X739D02*
X758D01*
X804D02*
X824D01*
X838D02*
X858D01*
X903D02*
X922D01*
X933D02*
X953D01*
X968D02*
X987D01*
X998D02*
X1020D01*
X1031D02*
X1052D01*
X1064D02*
X1083D01*
X1093D02*
X1114D01*
X1189D02*
X1209D01*
X1221D02*
X1247D01*
X1261D02*
X1283D01*
X642Y1450D02*
X662D01*
X673D02*
X692D01*
X707D02*
X727D01*
X739D02*
X758D01*
X804D02*
X824D01*
X839D02*
X858D01*
X903D02*
X922D01*
X933D02*
X953D01*
X968D02*
X987D01*
X998D02*
X1020D01*
X1032D02*
X1052D01*
X1064D02*
X1083D01*
X1093D02*
X1118D01*
X1190D02*
X1209D01*
X1221D02*
X1246D01*
X1261D02*
X1283D01*
X673Y1451D02*
X692D01*
X707D02*
X727D01*
X739D02*
X758D01*
X804D02*
X823D01*
X840D02*
X858D01*
X904D02*
X922D01*
X933D02*
X953D01*
X968D02*
X987D01*
X998D02*
X1019D01*
X1032D02*
X1052D01*
X1064D02*
X1083D01*
X1093D02*
X1122D01*
X1190D02*
X1209D01*
X1221D02*
X1245D01*
X1261D02*
X1283D01*
X673Y1452D02*
X692D01*
X707D02*
X727D01*
X739D02*
X758D01*
X804D02*
X823D01*
X840D02*
X858D01*
X904D02*
X923D01*
X933D02*
X953D01*
X968D02*
X987D01*
X998D02*
X1018D01*
X1033D02*
X1052D01*
X1064D02*
X1083D01*
X1093D02*
X1128D01*
X1191D02*
X1209D01*
X1220D02*
X1244D01*
X1261D02*
X1283D01*
X673Y1453D02*
X692D01*
X707D02*
X727D01*
X739D02*
X758D01*
X804D02*
X823D01*
X840D02*
X858D01*
X866D02*
X923D01*
X933D02*
X953D01*
X968D02*
X987D01*
X998D02*
X1018D01*
X1034D02*
X1052D01*
X1064D02*
X1083D01*
X1093D02*
X1132D01*
X1152D02*
X1209D01*
X1220D02*
X1244D01*
X1261D02*
X1283D01*
X673Y1454D02*
X692D01*
X707D02*
X727D01*
X739D02*
X758D01*
X804D02*
X823D01*
X840D02*
X858D01*
X866D02*
X923D01*
X933D02*
X953D01*
X968D02*
X987D01*
X998D02*
X1017D01*
X1034D02*
X1052D01*
X1064D02*
X1083D01*
X1094D02*
X1136D01*
X1152D02*
X1210D01*
X1220D02*
X1243D01*
X1261D02*
X1283D01*
X673Y1455D02*
X692D01*
X707D02*
X727D01*
X739D02*
X758D01*
X804D02*
X823D01*
X840D02*
X858D01*
X866D02*
X923D01*
X933D02*
X953D01*
X968D02*
X987D01*
X998D02*
X1017D01*
X1034D02*
X1052D01*
X1064D02*
X1083D01*
X1095D02*
X1137D01*
X1152D02*
X1210D01*
X1219D02*
X1242D01*
X1261D02*
X1283D01*
X673Y1456D02*
X692D01*
X707D02*
X727D01*
X739D02*
X758D01*
X804D02*
X823D01*
X840D02*
X859D01*
X866D02*
X923D01*
X933D02*
X953D01*
X968D02*
X987D01*
X998D02*
X1017D01*
X1034D02*
X1053D01*
X1064D02*
X1083D01*
X1095D02*
X1138D01*
X1152D02*
X1210D01*
X1219D02*
X1242D01*
X1261D02*
X1283D01*
X673Y1456D02*
X692D01*
X707D02*
X727D01*
X739D02*
X758D01*
X804D02*
X823D01*
X840D02*
X859D01*
X866D02*
X924D01*
X933D02*
X953D01*
X968D02*
X987D01*
X998D02*
X1017D01*
X1034D02*
X1053D01*
X1064D02*
X1083D01*
X1096D02*
X1139D01*
X1153D02*
X1210D01*
X1218D02*
X1241D01*
X1261D02*
X1283D01*
X673Y1457D02*
X692D01*
X707D02*
X727D01*
X739D02*
X758D01*
X804D02*
X823D01*
X840D02*
X859D01*
X866D02*
X923D01*
X933D02*
X953D01*
X968D02*
X987D01*
X998D02*
X1017D01*
X1034D02*
X1053D01*
X1064D02*
X1083D01*
X1097D02*
X1141D01*
X1153D02*
X1210D01*
X1218D02*
X1241D01*
X1261D02*
X1283D01*
X673Y1458D02*
X692D01*
X707D02*
X727D01*
X739D02*
X758D01*
X804D02*
X823D01*
X840D02*
X859D01*
X866D02*
X923D01*
X933D02*
X953D01*
X968D02*
X987D01*
X998D02*
X1017D01*
X1034D02*
X1053D01*
X1064D02*
X1083D01*
X1098D02*
X1142D01*
X1153D02*
X1210D01*
X1218D02*
X1241D01*
X1261D02*
X1283D01*
X673Y1459D02*
X692D01*
X707D02*
X727D01*
X739D02*
X758D01*
X804D02*
X823D01*
X840D02*
X859D01*
X866D02*
X923D01*
X933D02*
X953D01*
X968D02*
X987D01*
X998D02*
X1017D01*
X1034D02*
X1053D01*
X1064D02*
X1083D01*
X1100D02*
X1143D01*
X1153D02*
X1210D01*
X1218D02*
X1240D01*
X1261D02*
X1283D01*
X673Y1460D02*
X692D01*
X707D02*
X727D01*
X739D02*
X758D01*
X804D02*
X823D01*
X840D02*
X858D01*
X867D02*
X923D01*
X933D02*
X953D01*
X968D02*
X987D01*
X998D02*
X1017D01*
X1034D02*
X1053D01*
X1064D02*
X1083D01*
X1101D02*
X1143D01*
X1153D02*
X1210D01*
X1218D02*
X1240D01*
X1261D02*
X1283D01*
X673Y1461D02*
X692D01*
X707D02*
X727D01*
X739D02*
X758D01*
X804D02*
X823D01*
X840D02*
X858D01*
X867D02*
X923D01*
X933D02*
X953D01*
X968D02*
X987D01*
X998D02*
X1017D01*
X1034D02*
X1053D01*
X1064D02*
X1083D01*
X1102D02*
X1143D01*
X1153D02*
X1210D01*
X1218D02*
X1240D01*
X1261D02*
X1283D01*
X673Y1462D02*
X692D01*
X707D02*
X727D01*
X739D02*
X758D01*
X804D02*
X823D01*
X840D02*
X858D01*
X867D02*
X885D01*
X904D02*
X923D01*
X933D02*
X953D01*
X967D02*
X987D01*
X998D02*
X1017D01*
X1034D02*
X1053D01*
X1064D02*
X1083D01*
X1104D02*
X1144D01*
X1153D02*
X1172D01*
X1191D02*
X1209D01*
X1218D02*
X1240D01*
X1261D02*
X1283D01*
X673Y1463D02*
X692D01*
X706D02*
X727D01*
X739D02*
X758D01*
X804D02*
X823D01*
X840D02*
X858D01*
X867D02*
X885D01*
X904D02*
X923D01*
X933D02*
X953D01*
X967D02*
X987D01*
X998D02*
X1017D01*
X1034D02*
X1053D01*
X1064D02*
X1083D01*
X1108D02*
X1144D01*
X1154D02*
X1172D01*
X1190D02*
X1209D01*
X1218D02*
X1240D01*
X1261D02*
X1283D01*
X642Y1464D02*
X662D01*
X673D02*
X692D01*
X706D02*
X727D01*
X739D02*
X758D01*
X804D02*
X823D01*
X839D02*
X858D01*
X867D02*
X886D01*
X903D02*
X923D01*
X933D02*
X953D01*
X966D02*
X987D01*
X998D02*
X1018D01*
X1033D02*
X1052D01*
X1064D02*
X1083D01*
X1114D02*
X1144D01*
X1154D02*
X1172D01*
X1190D02*
X1209D01*
X1218D02*
X1240D01*
X1261D02*
X1283D01*
X642Y1465D02*
X662D01*
X673D02*
X693D01*
X705D02*
X727D01*
X739D02*
X758D01*
X804D02*
X824D01*
X838D02*
X858D01*
X867D02*
X886D01*
X903D02*
X922D01*
X933D02*
X953D01*
X966D02*
X987D01*
X998D02*
X1018D01*
X1033D02*
X1052D01*
X1064D02*
X1083D01*
X1123D02*
X1145D01*
X1154D02*
X1173D01*
X1189D02*
X1209D01*
X1218D02*
X1240D01*
X1261D02*
X1283D01*
X642Y1466D02*
X662D01*
X673D02*
X693D01*
X705D02*
X727D01*
X739D02*
X758D01*
X804D02*
X825D01*
X838D02*
X858D01*
X868D02*
X887D01*
X902D02*
X922D01*
X933D02*
X954D01*
X965D02*
X987D01*
X998D02*
X1019D01*
X1032D02*
X1052D01*
X1064D02*
X1083D01*
X1125D02*
X1145D01*
X1154D02*
X1173D01*
X1189D02*
X1209D01*
X1218D02*
X1240D01*
X1261D02*
X1283D01*
X642Y1467D02*
X662D01*
X673D02*
X695D01*
X703D02*
X727D01*
X739D02*
X758D01*
X804D02*
X825D01*
X837D02*
X858D01*
X868D02*
X887D01*
X902D02*
X922D01*
X934D02*
X956D01*
X963D02*
X987D01*
X998D02*
X1020D01*
X1031D02*
X1052D01*
X1064D02*
X1083D01*
X1125D02*
X1145D01*
X1154D02*
X1174D01*
X1188D02*
X1209D01*
X1218D02*
X1241D01*
X1261D02*
X1283D01*
X642Y1468D02*
X662D01*
X673D02*
X697D01*
X701D02*
X727D01*
X739D02*
X758D01*
X804D02*
X827D01*
X836D02*
X858D01*
X868D02*
X887D01*
X901D02*
X922D01*
X934D02*
X957D01*
X961D02*
X987D01*
X998D02*
X1021D01*
X1031D02*
X1052D01*
X1064D02*
X1083D01*
X1126D02*
X1145D01*
X1155D02*
X1174D01*
X1187D02*
X1209D01*
X1218D02*
X1241D01*
X1261D02*
X1283D01*
X642Y1469D02*
X662D01*
X673D02*
X699D01*
X699D02*
X727D01*
X739D02*
X758D01*
X804D02*
X828D01*
X834D02*
X857D01*
X868D02*
X888D01*
X899D02*
X921D01*
X934D02*
X959D01*
X960D02*
X987D01*
X998D02*
X1023D01*
X1030D02*
X1052D01*
X1064D02*
X1083D01*
X1126D02*
X1145D01*
X1155D02*
X1174D01*
X1185D02*
X1208D01*
X1219D02*
X1241D01*
X1261D02*
X1283D01*
X642Y1470D02*
X662D01*
X674D02*
X727D01*
X739D02*
X758D01*
X804D02*
X830D01*
X832D02*
X857D01*
X868D02*
X892D01*
X896D02*
X921D01*
X934D02*
X987D01*
X998D02*
X1025D01*
X1027D02*
X1052D01*
X1064D02*
X1083D01*
X1101D02*
X1115D01*
X1126D02*
X1145D01*
X1155D02*
X1179D01*
X1183D02*
X1207D01*
X1219D02*
X1241D01*
X1261D02*
X1283D01*
X642Y1471D02*
X662D01*
X674D02*
X727D01*
X739D02*
X758D01*
X804D02*
X857D01*
X869D02*
X920D01*
X934D02*
X987D01*
X998D02*
X1051D01*
X1064D02*
X1083D01*
X1095D02*
X1116D01*
X1125D02*
X1145D01*
X1155D02*
X1207D01*
X1219D02*
X1241D01*
X1261D02*
X1283D01*
X642Y1471D02*
X662D01*
X674D02*
X727D01*
X739D02*
X758D01*
X804D02*
X856D01*
X869D02*
X919D01*
X934D02*
X987D01*
X998D02*
X1051D01*
X1064D02*
X1083D01*
X1095D02*
X1116D01*
X1125D02*
X1144D01*
X1156D02*
X1206D01*
X1219D02*
X1241D01*
X1261D02*
X1283D01*
X642Y1472D02*
X662D01*
X674D02*
X727D01*
X739D02*
X758D01*
X804D02*
X856D01*
X870D02*
X919D01*
X935D02*
X987D01*
X998D02*
X1050D01*
X1064D02*
X1083D01*
X1096D02*
X1119D01*
X1122D02*
X1144D01*
X1157D02*
X1205D01*
X1219D02*
X1241D01*
X1261D02*
X1283D01*
X642Y1473D02*
X662D01*
X674D02*
X727D01*
X739D02*
X758D01*
X804D02*
X855D01*
X871D02*
X918D01*
X935D02*
X987D01*
X998D02*
X1050D01*
X1064D02*
X1083D01*
X1097D02*
X1144D01*
X1157D02*
X1205D01*
X1219D02*
X1242D01*
X1261D02*
X1283D01*
X642Y1474D02*
X662D01*
X675D02*
X709D01*
X709D02*
X727D01*
X739D02*
X758D01*
X804D02*
X855D01*
X872D02*
X918D01*
X935D02*
X969D01*
X969D02*
X987D01*
X998D02*
X1049D01*
X1064D02*
X1083D01*
X1097D02*
X1144D01*
X1158D02*
X1204D01*
X1219D02*
X1242D01*
X1261D02*
X1283D01*
X642Y1475D02*
X662D01*
X675D02*
X707D01*
X709D02*
X727D01*
X739D02*
X758D01*
X804D02*
X854D01*
X872D02*
X917D01*
X936D02*
X968D01*
X969D02*
X987D01*
X998D02*
X1049D01*
X1064D02*
X1083D01*
X1098D02*
X1143D01*
X1159D02*
X1204D01*
X1219D02*
X1242D01*
X1261D02*
X1283D01*
X642Y1476D02*
X662D01*
X676D02*
X706D01*
X709D02*
X727D01*
X739D02*
X758D01*
X804D02*
X854D01*
X873D02*
X916D01*
X936D02*
X967D01*
X969D02*
X987D01*
X998D02*
X1016D01*
X1017D02*
X1048D01*
X1064D02*
X1083D01*
X1098D02*
X1143D01*
X1160D02*
X1203D01*
X1219D02*
X1242D01*
X1261D02*
X1283D01*
X642Y1477D02*
X662D01*
X676D02*
X705D01*
X709D02*
X727D01*
X739D02*
X758D01*
X804D02*
X853D01*
X875D02*
X915D01*
X937D02*
X966D01*
X969D02*
X987D01*
X998D02*
X1016D01*
X1018D02*
X1047D01*
X1064D02*
X1083D01*
X1099D02*
X1142D01*
X1161D02*
X1201D01*
X1220D02*
X1243D01*
X1261D02*
X1283D01*
X642Y1478D02*
X662D01*
X677D02*
X704D01*
X709D02*
X727D01*
X739D02*
X758D01*
X804D02*
X852D01*
X876D02*
X913D01*
X937D02*
X964D01*
X969D02*
X987D01*
X998D02*
X1016D01*
X1019D02*
X1046D01*
X1064D02*
X1083D01*
X1100D02*
X1141D01*
X1162D02*
X1200D01*
X1220D02*
X1243D01*
X1261D02*
X1283D01*
X642Y1479D02*
X662D01*
X678D02*
X703D01*
X709D02*
X727D01*
X739D02*
X758D01*
X804D02*
X823D01*
X824D02*
X851D01*
X877D02*
X912D01*
X938D02*
X963D01*
X969D02*
X987D01*
X998D02*
X1016D01*
X1020D02*
X1045D01*
X1064D02*
X1083D01*
X1101D02*
X1140D01*
X1164D02*
X1199D01*
X1220D02*
X1244D01*
X1261D02*
X1283D01*
X642Y1480D02*
X662D01*
X679D02*
X702D01*
X709D02*
X727D01*
X739D02*
X758D01*
X804D02*
X823D01*
X826D02*
X850D01*
X879D02*
X911D01*
X939D02*
X962D01*
X969D02*
X987D01*
X998D02*
X1016D01*
X1021D02*
X1044D01*
X1064D02*
X1083D01*
X1103D02*
X1138D01*
X1165D02*
X1197D01*
X1220D02*
X1244D01*
X1261D02*
X1283D01*
X642Y1481D02*
X662D01*
X680D02*
X701D01*
X709D02*
X727D01*
X739D02*
X758D01*
X804D02*
X823D01*
X827D02*
X848D01*
X881D02*
X909D01*
X941D02*
X961D01*
X969D02*
X987D01*
X998D02*
X1016D01*
X1022D02*
X1043D01*
X1064D02*
X1083D01*
X1104D02*
X1137D01*
X1168D02*
X1196D01*
X1220D02*
X1244D01*
X1261D02*
X1283D01*
X642Y1482D02*
X662D01*
X681D02*
X698D01*
X709D02*
X727D01*
X739D02*
X758D01*
X804D02*
X823D01*
X829D02*
X847D01*
X884D02*
X908D01*
X942D02*
X958D01*
X969D02*
X987D01*
X998D02*
X1016D01*
X1025D02*
X1042D01*
X1064D02*
X1083D01*
X1106D02*
X1135D01*
X1171D02*
X1195D01*
X1221D02*
X1246D01*
X1261D02*
X1283D01*
X684Y1483D02*
X695D01*
X804D02*
X823D01*
X831D02*
X845D01*
X888D02*
X905D01*
X944D02*
X955D01*
X1028D02*
X1039D01*
X1108D02*
X1133D01*
X1175D02*
X1192D01*
X1221D02*
X1247D01*
X1261D02*
X1283D01*
X689Y1484D02*
X691D01*
X804D02*
X823D01*
X837D02*
X839D01*
X894D02*
X898D01*
X950D02*
X952D01*
X1032D02*
X1034D01*
X1111D02*
X1129D01*
X1181D02*
X1184D01*
X1222D02*
X1248D01*
X1261D02*
X1283D01*
X804Y1485D02*
X823D01*
X1222D02*
X1252D01*
X1261D02*
X1283D01*
X804Y1486D02*
X823D01*
X1222D02*
X1283D01*
X804Y1486D02*
X823D01*
X1223D02*
X1283D01*
X804Y1487D02*
X823D01*
X1223D02*
X1283D01*
X739Y1488D02*
X758D01*
X804D02*
X823D01*
X1064D02*
X1083D01*
X1224D02*
X1283D01*
X739Y1489D02*
X758D01*
X804D02*
X823D01*
X1064D02*
X1083D01*
X1224D02*
X1283D01*
X739Y1490D02*
X758D01*
X804D02*
X823D01*
X1064D02*
X1083D01*
X1224D02*
X1283D01*
X739Y1491D02*
X758D01*
X804D02*
X823D01*
X1064D02*
X1083D01*
X1225D02*
X1283D01*
X739Y1492D02*
X758D01*
X804D02*
X823D01*
X1064D02*
X1083D01*
X1225D02*
X1283D01*
X739Y1493D02*
X758D01*
X804D02*
X823D01*
X1064D02*
X1083D01*
X1227D02*
X1283D01*
X739Y1494D02*
X758D01*
X804D02*
X823D01*
X1064D02*
X1083D01*
X1228D02*
X1283D01*
X739Y1495D02*
X758D01*
X804D02*
X823D01*
X1064D02*
X1083D01*
X1229D02*
X1283D01*
X739Y1496D02*
X758D01*
X804D02*
X823D01*
X1064D02*
X1083D01*
X1231D02*
X1283D01*
X739Y1497D02*
X758D01*
X804D02*
X823D01*
X1064D02*
X1083D01*
X1232D02*
X1283D01*
X739Y1498D02*
X758D01*
X804D02*
X823D01*
X1064D02*
X1083D01*
X1233D02*
X1283D01*
X739Y1499D02*
X758D01*
X804D02*
X823D01*
X1064D02*
X1083D01*
X1234D02*
X1283D01*
X739Y1500D02*
X758D01*
X804D02*
X823D01*
X1064D02*
X1083D01*
X1238D02*
X1283D01*
X739Y1501D02*
X758D01*
X804D02*
X823D01*
X1064D02*
X1083D01*
X1243D02*
X1283D01*
X739Y1501D02*
X758D01*
X804D02*
X823D01*
X1064D02*
X1083D01*
X1249D02*
X1283D01*
D02*
D79*
X235Y795D02*
G75*
G03X264Y762I14J-16D01*
G01*
G75*
G03X235Y795I-14J16*
G01*
X1040Y944D02*
G75*
G03X1068Y911I14J-16D01*
G01*
G75*
G03X1040Y944I-14J16*
G01*
D02*
D84*
X852Y1151D02*
X857Y1150D01*
X855Y1148*
X851Y1147*
X852Y1151*
X875Y1138D02*
X873Y1149D01*
X869Y1152*
X865Y1149*
X862Y1143*
X860Y1137*
X861Y1133*
X866Y1132*
X875Y1138*
X931Y1010D02*
X940Y1025D01*
X941Y1040*
X937Y1056*
X929Y1072*
X918Y1088*
X905Y1101*
X883Y1120*
X887Y1096*
X897Y1069*
X911Y1041*
X927Y1015*
X931Y1010*
X938Y1102D02*
X941Y1098D01*
X942Y1095*
X938Y1092*
X934Y1094*
X934Y1097*
X938Y1102*
X1484Y484D02*
X1488Y500D01*
X1498Y511*
X1512Y520*
X1528Y527*
X1543Y535*
X1556Y545*
X1564Y558*
X1565Y578*
X1569Y595*
X1568Y612*
X1562Y645*
X1560Y660*
X1560Y676*
X1565Y691*
X1575Y706*
X1578Y722*
X1579Y738*
X1580Y771*
X1582Y787*
X1587Y801*
X1596Y814*
X1609Y824*
X1630Y833*
X1647Y846*
X1662Y861*
X1675Y878*
X1701Y911*
X1717Y925*
X1735Y937*
X1769Y957*
X1787Y968*
X1803Y979*
X1816Y993*
X1824Y1008*
X1825Y1026*
X1818Y1047*
X1823Y1064*
X1823Y1081*
X1815Y1114*
X1806Y1147*
X1804Y1163*
X1806Y1178*
X1816Y1184*
X1822Y1191*
X1827Y1198*
X1829Y1206*
X1828Y1222*
X1821Y1239*
X1809Y1255*
X1793Y1270*
X1777Y1282*
X1761Y1290*
X1750Y1293*
X1743Y1298*
X1738Y1307*
X1737Y1317*
X1736Y1339*
X1736Y1360*
X1732Y1437*
X1725Y1435*
X1717Y1436*
X1704Y1444*
X1697Y1448*
X1690Y1449*
X1682Y1447*
X1674Y1440*
X1644Y1443*
X1613Y1452*
X1555Y1475*
X1534Y1483*
X1510Y1493*
X1500Y1496*
X1493Y1494*
X1488Y1487*
X1489Y1472*
X1500Y1453*
X1509Y1429*
X1510Y1420*
X1507Y1416*
X1500Y1418*
X1487Y1428*
X1480Y1430*
X1472Y1428*
X1454Y1417*
X1434Y1405*
X1424Y1401*
X1414Y1400*
X1397Y1378*
X1381Y1359*
X1372Y1351*
X1362Y1345*
X1349Y1342*
X1333Y1340*
X1251Y1317*
X1171Y1286*
X1138Y1281*
X1101Y1276*
X1085Y1272*
X1072Y1265*
X1064Y1254*
X1062Y1238*
X1044Y1234*
X1031Y1226*
X1021Y1214*
X1015Y1200*
X1012Y1185*
X1013Y1169*
X1015Y1152*
X1021Y1136*
X993Y1135*
X989Y1133*
X987Y1130*
X990Y1123*
X997Y1114*
X998Y1103*
X995Y1093*
X984Y1075*
X981Y1067*
X981Y1059*
X987Y1051*
X1000Y1043*
X1011Y1035*
X1020Y1023*
X1034Y995*
X1041Y966*
X1041Y955*
X1039Y947*
X1025Y954*
X1014Y965*
X996Y991*
X986Y1004*
X975Y1014*
X963Y1020*
X947Y1022*
X939Y1005*
X938Y988*
X942Y971*
X950Y953*
X964Y916*
X967Y897*
X964Y879*
X978Y846*
X989Y813*
X996Y779*
X996Y762*
X995Y744*
X1008Y708*
X1017Y671*
X1020Y634*
X1015Y595*
X1007Y566*
X1002Y537*
X1002Y508*
X1009Y479*
X1040Y476*
X1073Y477*
X1106Y478*
X1138Y478*
X1484Y484*
X0Y0D02*
M02*
