999
DXF created by Inkscape
  0
SECTION
  2
HEADER
  9
$ACADVER
  1
AC1014
  9
$HANDSEED
  5
FFFF
  9
$MEASUREMENT
 70
     1
  0
ENDSEC
  0
SECTION
  2
TABLES
  0
TABLE
  2
VPORT
  5
8
330
0
100
AcDbSymbolTable
 70
     4
  0
VPORT
  5
2E
330
8
100
AcDbSymbolTableRecord
100
AcDbViewportTableRecord
  2
*ACTIVE
 70
     0
 10
0.0
 20
0.0
 11
1.0
 21
1.0
 12
210.0
 22
148.5
 13
0.0
 23
0.0
 14
10.0
 24
10.0
 15
10.0
 25
10.0
 16
0.0
 26
0.0
 36
1.0
 17
0.0
 27
0.0
 37
0.0
 40
341.0
 41
1.24
 42
50.0
 43
0.0
 44
0.0
 50
0.0
 51
0.0
 71
     0
 72
   100
 73
     1
 74
     3
 75
     0
 76
     0
 77
     0
 78
     0
  0
ENDTAB
  0
TABLE
  2
LTYPE
  5
5
330
0
100
AcDbSymbolTable
 70
     1
  0
LTYPE
  5
14
330
5
100
AcDbSymbolTableRecord
100
AcDbLinetypeTableRecord
  2
BYBLOCK
 70
     0
  3

 72
    65
 73
     0
 40
0.0
  0
LTYPE
  5
15
330
5
100
AcDbSymbolTableRecord
100
AcDbLinetypeTableRecord
  2
BYLAYER
 70
     0
  3

 72
    65
 73
     0
 40
0.0
  0
LTYPE
  5
16
330
5
100
AcDbSymbolTableRecord
100
AcDbLinetypeTableRecord
  2
CONTINUOUS
 70
     0
  3
Solid line
 72
    65
 73
     0
 40
0.0
  0
ENDTAB
  0
TABLE
  2
LAYER
  5
2
330
0
100
AcDbSymbolTable
 70
1
  0
LAYER
  5
10
330
2
100
AcDbSymbolTableRecord
100
AcDbLayerTableRecord
  2
0
 70
     0
 62
     7
  6
CONTINUOUS
  0
ENDTAB
  0
TABLE
  2
STYLE
  5
3
330
0
100
AcDbSymbolTable
 70
     1
  0
STYLE
  5
11
330
3
100
AcDbSymbolTableRecord
100
AcDbTextStyleTableRecord
  2
STANDARD
 70
     0
 40
0.0
 41
1.0
 50
0.0
 71
     0
 42
2.5
  3
txt
  4

  0
ENDTAB
  0
TABLE
  2
VIEW
  5
6
330
0
100
AcDbSymbolTable
 70
     0
  0
ENDTAB
  0
TABLE
  2
UCS
  5
7
330
0
100
AcDbSymbolTable
 70
     0
  0
ENDTAB
  0
TABLE
  2
APPID
  5
9
330
0
100
AcDbSymbolTable
 70
     2
  0
APPID
  5
12
330
9
100
AcDbSymbolTableRecord
100
AcDbRegAppTableRecord
  2
ACAD
 70
     0
  0
ENDTAB
  0
TABLE
  2
DIMSTYLE
  5
A
330
0
100
AcDbSymbolTable
 70
     1
  0
DIMSTYLE
105
27
330
A
100
AcDbSymbolTableRecord
100
AcDbDimStyleTableRecord
  2
ISO-25
 70
     0
  3

  4

  5

  6

  7

 40
1.0
 41
2.5
 42
0.625
 43
3.75
 44
1.25
 45
0.0
 46
0.0
 47
0.0
 48
0.0
140
2.5
141
2.5
142
0.0
143
0.03937007874016
144
1.0
145
0.0
146
1.0
147
0.625
 71
     0
 72
     0
 73
     0
 74
     0
 75
     0
 76
     0
 77
     1
 78
     8
170
     0
171
     3
172
     1
173
     0
174
     0
175
     0
176
     0
177
     0
178
     0
270
     2
271
     2
272
     2
273
     2
274
     3
340
11
275
     0
280
     0
281
     0
282
     0
283
     0
284
     8
285
     0
286
     0
287
     3
288
     0
  0
ENDTAB
  0
TABLE
  2
BLOCK_RECORD
  5
1
330
0
100
AcDbSymbolTable
 70
     1
  0
BLOCK_RECORD
  5
1F
330
1
100
AcDbSymbolTableRecord
100
AcDbBlockTableRecord
  2
*MODEL_SPACE
  0
BLOCK_RECORD
  5
1B
330
1
100
AcDbSymbolTableRecord
100
AcDbBlockTableRecord
  2
*PAPER_SPACE
  0
ENDTAB
  0
ENDSEC
  0
SECTION
  2
BLOCKS
  0
BLOCK
  5
20
330
1F
100
AcDbEntity
  8
0
100
AcDbBlockBegin
  2
*MODEL_SPACE
 70
     0
 10
0.0
 20
0.0
 30
0.0
  3
*MODEL_SPACE
  1

  0
ENDBLK
  5
21
330
1F
100
AcDbEntity
  8
0
100
AcDbBlockEnd
  0
BLOCK
  5
1C
330
1B
100
AcDbEntity
 67
     1
  8
0
100
AcDbBlockBegin
  2
*PAPER_SPACE
  1

  0
ENDBLK
  5
1D
330
1B
100
AcDbEntity
 67
     1
  8
0
100
AcDbBlockEnd
  0
ENDSEC
  0
SECTION
  2
ENTITIES
  0
LWPOLYLINE
  5
100
100
AcDbEntity
  8
0
 62
7
100
AcDbPolyline
 90
80
 70
0
 10
42.992604
 20
11.965093
 30
0.0
 10
38.353153
 20
12.827847
 30
0.0
 10
38.078551
 20
13.064067
 30
0.0
 10
36.656433
 20
16.381871
 30
0.0
 10
36.679011
 20
16.740576
 30
0.0
 10
39.382136
 20
20.680398
 30
0.0
 10
39.352502
 20
21.001002
 30
0.0
 10
35.976278
 20
24.377227
 30
0.0
 10
35.655956
 20
24.406860
 30
0.0
 10
31.646989
 20
21.655758
 30
0.0
 10
31.286591
 20
21.629793
 30
0.0
 10
28.070387
 20
22.946360
 30
0.0
 10
27.833320
 20
23.217858
 30
0.0
 10
26.940087
 20
28.016482
 30
0.0
 10
26.692578
 20
28.222222
 30
0.0
 10
21.917378
 20
28.222222
 30
0.0
 10
21.670151
 20
28.016482
 30
0.0
 10
20.777200
 20
23.217858
 30
0.0
 10
20.540133
 20
22.946360
 30
0.0
 10
17.323647
 20
21.629793
 30
0.0
 10
16.963249
 20
21.655758
 30
0.0
 10
12.954564
 20
24.406860
 30
0.0
 10
12.633960
 20
24.377227
 30
0.0
 10
9.257453
 20
21.001002
 30
0.0
 10
9.227820
 20
20.680398
 30
0.0
 10
11.931227
 20
16.740576
 30
0.0
 10
11.953522
 20
16.381871
 30
0.0
 10
10.531122
 20
13.064067
 30
0.0
 10
10.256520
 20
12.827847
 30
0.0
 10
5.617351
 20
11.965093
 30
0.0
 10
5.411611
 20
11.717302
 30
0.0
 10
5.411893
 20
6.942384
 30
0.0
 10
5.617633
 20
6.694593
 30
0.0
 10
10.143067
 20
5.852442
 30
0.0
 10
10.411742
 20
5.614529
 30
0.0
 10
11.824547
 20
2.085340
 30
0.0
 10
11.797736
 20
1.724942
 30
0.0
 10
9.227256
 20
-2.020993
 30
0.0
 10
9.256889
 20
-2.341880
 30
0.0
 10
12.633678
 20
-5.718104
 30
0.0
 10
12.954282
 20
-5.747738
 30
0.0
 10
16.633896
 20
-3.222131
 30
0.0
 10
16.986673
 20
-3.209996
 30
0.0
 10
18.609451
 20
-4.076418
 30
0.0
 10
18.876151
 20
-3.978204
 30
0.0
 10
22.222178
 20
4.106616
 30
0.0
 10
22.123964
 20
4.408876
 30
0.0
 10
21.717847
 20
4.657513
 30
0.0
 10
21.461024
 20
4.854222
 30
0.0
 10
19.693149
 20
6.729236
 30
0.0
 10
19.024036
 20
9.302327
 30
0.0
 10
19.439048
 20
11.357822
 30
0.0
 10
20.570790
 20
13.036338
 30
0.0
 10
22.249320
 20
14.168014
 30
0.0
 10
24.304696
 20
14.582987
 30
0.0
 10
26.360027
 20
14.168014
 30
0.0
 10
28.038460
 20
13.036338
 30
0.0
 10
29.170105
 20
11.357822
 30
0.0
 10
29.585073
 20
9.302327
 30
0.0
 10
28.916066
 20
6.729236
 30
0.0
 10
27.148084
 20
4.854222
 30
0.0
 10
26.891827
 20
4.657513
 30
0.0
 10
26.485709
 20
4.408876
 30
0.0
 10
26.387496
 20
4.106616
 30
0.0
 10
29.733240
 20
-3.978487
 30
0.0
 10
29.999940
 20
-4.076700
 30
0.0
 10
31.622718
 20
-3.210278
 30
0.0
 10
31.975496
 20
-3.222413
 30
0.0
 10
35.655391
 20
-5.748020
 30
0.0
 10
35.975713
 20
-5.718387
 30
0.0
 10
39.352502
 20
-2.342162
 30
0.0
 10
39.382136
 20
-2.021276
 30
0.0
 10
36.811373
 20
1.724660
 30
0.0
 10
36.784844
 20
2.085058
 30
0.0
 10
38.197649
 20
5.614247
 30
0.0
 10
38.466042
 20
5.852160
 30
0.0
 10
42.991476
 20
6.694311
 30
0.0
 10
43.197216
 20
6.942102
 30
0.0
 10
43.197780
 20
11.717020
 30
0.0
 10
42.992604
 20
11.965093
 30
0.0
  0
LWPOLYLINE
  5
101
100
AcDbEntity
  8
0
 62
7
100
AcDbPolyline
 90
21
 70
0
 10
12.868487
 20
-22.798193
 30
0.0
 10
13.888156
 20
-22.798193
 30
0.0
 10
13.888156
 20
-19.339842
 30
0.0
 10
13.302156
 20
-18.036893
 30
0.0
 10
11.779109
 20
-17.670780
 30
0.0
 10
10.785792
 20
-17.838067
 30
0.0
 10
10.069971
 20
-18.410484
 30
0.0
 10
10.869507
 20
-19.020084
 30
0.0
 10
11.829062
 20
-18.629771
 30
0.0
 10
12.622354
 20
-18.774939
 30
0.0
 10
12.868487
 20
-19.279729
 30
0.0
 10
12.868487
 20
-19.809460
 30
0.0
 10
11.459069
 20
-19.809460
 30
0.0
 10
10.226040
 20
-20.255653
 30
0.0
 10
9.810044
 20
-21.308907
 30
0.0
 10
10.281003
 20
-22.413489
 30
0.0
 10
11.599051
 20
-22.858307
 30
0.0
 10
12.848449
 20
-22.348331
 30
0.0
 10
12.868487
 20
-22.348331
 30
0.0
 10
12.868487
 20
-22.798193
 30
0.0
 10
12.868487
 20
-22.798193
 30
0.0
  0
LWPOLYLINE
  5
102
100
AcDbEntity
  8
0
 62
7
100
AcDbPolyline
 90
10
 70
0
 10
12.868487
 20
-21.018782
 30
0.0
 10
12.617379
 20
-21.754853
 30
0.0
 10
11.729156
 20
-21.898469
 30
0.0
 10
10.990580
 20
-21.706029
 30
0.0
 10
10.769318
 20
-21.258953
 30
0.0
 10
10.984301
 20
-20.815124
 30
0.0
 10
11.649287
 20
-20.648789
 30
0.0
 10
12.868487
 20
-20.648789
 30
0.0
 10
12.868487
 20
-21.018782
 30
0.0
 10
12.868487
 20
-21.018782
 30
0.0
  0
LWPOLYLINE
  5
103
100
AcDbEntity
  8
0
 62
7
100
AcDbPolyline
 90
14
 70
0
 10
15.008013
 20
-22.798193
 30
0.0
 10
16.027400
 20
-22.798193
 30
0.0
 10
16.027400
 20
-19.749347
 30
0.0
 10
16.334846
 20
-18.942438
 30
0.0
 10
17.017153
 20
-18.689884
 30
0.0
 10
17.686867
 20
-18.940216
 30
0.0
 10
18.426289
 20
-18.060529
 30
0.0
 10
17.366827
 20
-17.670780
 30
0.0
 10
16.047438
 20
-18.270502
 30
0.0
 10
16.027400
 20
-18.270502
 30
0.0
 10
16.027400
 20
-17.730893
 30
0.0
 10
15.008013
 20
-17.730893
 30
0.0
 10
15.008013
 20
-22.798193
 30
0.0
 10
15.008013
 20
-22.798193
 30
0.0
  0
LWPOLYLINE
  5
104
100
AcDbEntity
  8
0
 62
7
100
AcDbPolyline
 90
13
 70
0
 10
21.475700
 20
-22.798193
 30
0.0
 10
22.495087
 20
-22.798193
 30
0.0
 10
22.495087
 20
-15.681396
 30
0.0
 10
21.475700
 20
-15.681396
 30
0.0
 10
21.475700
 20
-18.270502
 30
0.0
 10
20.166189
 20
-17.670780
 30
0.0
 10
18.807007
 20
-18.330616
 30
0.0
 10
18.447173
 20
-20.259887
 30
0.0
 10
18.807007
 20
-22.198471
 30
0.0
 10
20.166189
 20
-22.858307
 30
0.0
 10
21.475700
 20
-22.268462
 30
0.0
 10
21.475700
 20
-22.798193
 30
0.0
 10
21.475700
 20
-22.798193
 30
0.0
  0
LWPOLYLINE
  5
105
100
AcDbEntity
  8
0
 62
7
100
AcDbPolyline
 90
9
 70
0
 10
20.476069
 20
-18.689884
 30
0.0
 10
21.332014
 20
-19.201201
 30
0.0
 10
21.475700
 20
-20.259887
 30
0.0
 10
21.332014
 20
-21.326651
 30
0.0
 10
20.476069
 20
-21.838638
 30
0.0
 10
19.611481
 20
-21.345278
 30
0.0
 10
19.466560
 20
-20.259887
 30
0.0
 10
19.611481
 20
-19.182362
 30
0.0
 10
20.476069
 20
-18.689884
 30
0.0
  0
LWPOLYLINE
  5
106
100
AcDbEntity
  8
0
 62
7
100
AcDbPolyline
 90
21
 70
0
 10
33.354716
 20
-22.798193
 30
0.0
 10
34.374384
 20
-22.798193
 30
0.0
 10
34.374384
 20
-19.339842
 30
0.0
 10
33.788279
 20
-18.036893
 30
0.0
 10
32.265338
 20
-17.670780
 30
0.0
 10
31.271986
 20
-17.838067
 30
0.0
 10
30.555918
 20
-18.410484
 30
0.0
 10
31.355736
 20
-19.020084
 30
0.0
 10
32.314727
 20
-18.629771
 30
0.0
 10
33.108265
 20
-18.774939
 30
0.0
 10
33.354433
 20
-19.279729
 30
0.0
 10
33.354433
 20
-19.809460
 30
0.0
 10
31.945016
 20
-19.809460
 30
0.0
 10
30.711951
 20
-20.255653
 30
0.0
 10
30.295709
 20
-21.308907
 30
0.0
 10
30.766808
 20
-22.413489
 30
0.0
 10
32.084998
 20
-22.858307
 30
0.0
 10
33.334678
 20
-22.348331
 30
0.0
 10
33.354433
 20
-22.348331
 30
0.0
 10
33.354433
 20
-22.798193
 30
0.0
 10
33.354716
 20
-22.798193
 30
0.0
  0
LWPOLYLINE
  5
107
100
AcDbEntity
  8
0
 62
7
100
AcDbPolyline
 90
10
 70
0
 10
33.354716
 20
-21.018782
 30
0.0
 10
33.103608
 20
-21.754853
 30
0.0
 10
32.215384
 20
-21.898469
 30
0.0
 10
31.477056
 20
-21.706029
 30
0.0
 10
31.255829
 20
-21.258953
 30
0.0
 10
31.470776
 20
-20.815124
 30
0.0
 10
32.135516
 20
-20.648789
 30
0.0
 10
33.354716
 20
-20.648789
 30
0.0
 10
33.354716
 20
-21.018782
 30
0.0
 10
33.354716
 20
-21.018782
 30
0.0
  0
LWPOLYLINE
  5
108
100
AcDbEntity
  8
0
 62
7
100
AcDbPolyline
 90
14
 70
0
 10
35.494524
 20
-22.798193
 30
0.0
 10
36.513629
 20
-22.798193
 30
0.0
 10
36.513629
 20
-19.749347
 30
0.0
 10
36.820828
 20
-18.942438
 30
0.0
 10
37.503100
 20
-18.689884
 30
0.0
 10
38.172813
 20
-18.940216
 30
0.0
 10
38.912518
 20
-18.060529
 30
0.0
 10
37.853056
 20
-17.670780
 30
0.0
 10
36.533949
 20
-18.270502
 30
0.0
 10
36.513629
 20
-18.270502
 30
0.0
 10
36.513629
 20
-17.730893
 30
0.0
 10
35.494524
 20
-17.730893
 30
0.0
 10
35.494524
 20
-22.798193
 30
0.0
 10
35.494524
 20
-22.798193
 30
0.0
  0
LWPOLYLINE
  5
109
100
AcDbEntity
  8
0
 62
7
100
AcDbPolyline
 90
18
 70
0
 10
43.108880
 20
-20.649353
 30
0.0
 10
43.108880
 20
-19.809178
 30
0.0
 10
42.484393
 20
-18.248877
 30
0.0
 10
41.020436
 20
-17.670498
 30
0.0
 10
39.608584
 20
-18.236353
 30
0.0
 10
39.120079
 20
-19.040669
 30
0.0
 10
38.931427
 20
-20.278796
 30
0.0
 10
39.136629
 20
-21.558934
 30
0.0
 10
39.666051
 20
-22.348084
 30
0.0
 10
41.180456
 20
-22.858024
 30
0.0
 10
42.162271
 20
-22.665619
 30
0.0
 10
43.009256
 20
-22.038451
 30
0.0
 10
42.269551
 20
-21.408531
 30
0.0
 10
41.160418
 20
-21.898469
 30
0.0
 10
40.293290
 20
-21.584849
 30
0.0
 10
39.951096
 20
-20.649353
 30
0.0
 10
43.108880
 20
-20.649353
 30
0.0
 10
43.108880
 20
-20.649353
 30
0.0
  0
LWPOLYLINE
  5
10a
100
AcDbEntity
  8
0
 62
7
100
AcDbPolyline
 90
7
 70
0
 10
39.951096
 20
-19.809460
 30
0.0
 10
40.268278
 20
-18.931008
 30
0.0
 10
41.020436
 20
-18.629771
 30
0.0
 10
41.768889
 20
-18.931008
 30
0.0
 10
42.089776
 20
-19.809460
 30
0.0
 10
39.951096
 20
-19.809460
 30
0.0
 10
39.951096
 20
-19.809460
 30
0.0
  0
LWPOLYLINE
  5
10b
100
AcDbEntity
  8
0
 62
7
100
AcDbPolyline
 90
17
 70
0
 10
0.000000
 20
-12.255500
 30
0.0
 10
0.128587
 20
-13.481050
 30
0.0
 10
0.549487
 20
-14.204527
 30
0.0
 10
1.128113
 20
-14.645428
 30
0.0
 10
2.089009
 20
-14.853920
 30
0.0
 10
3.049658
 20
-14.645428
 30
0.0
 10
3.628249
 20
-14.204527
 30
0.0
 10
4.049289
 20
-13.480944
 30
0.0
 10
4.178018
 20
-12.255500
 30
0.0
 10
4.049289
 20
-11.038487
 30
0.0
 10
3.628249
 20
-10.316351
 30
0.0
 10
3.049658
 20
-9.875167
 30
0.0
 10
2.089009
 20
-9.666393
 30
0.0
 10
1.128113
 20
-9.875167
 30
0.0
 10
0.549487
 20
-10.316351
 30
0.0
 10
0.128587
 20
-11.038593
 30
0.0
 10
0.000000
 20
-12.255500
 30
0.0
  0
LWPOLYLINE
  5
10c
100
AcDbEntity
  8
0
 62
7
100
AcDbPolyline
 90
9
 70
0
 10
3.158349
 20
-12.265378
 30
0.0
 10
2.908582
 20
-13.464822
 30
0.0
 10
2.089009
 20
-13.834816
 30
0.0
 10
1.269436
 20
-13.464822
 30
0.0
 10
1.019387
 20
-12.255500
 30
0.0
 10
1.269436
 20
-11.056056
 30
0.0
 10
2.089009
 20
-10.686062
 30
0.0
 10
2.908582
 20
-11.056056
 30
0.0
 10
3.158349
 20
-12.265378
 30
0.0
  0
LWPOLYLINE
  5
10d
100
AcDbEntity
  8
0
 62
7
100
AcDbPolyline
 90
18
 70
0
 10
13.961251
 20
-12.645249
 30
0.0
 10
13.961251
 20
-11.805638
 30
0.0
 10
13.336623
 20
-10.244843
 30
0.0
 10
11.872524
 20
-9.666393
 30
0.0
 10
10.460567
 20
-10.232531
 30
0.0
 10
9.972128
 20
-11.037041
 30
0.0
 10
9.783516
 20
-12.275256
 30
0.0
 10
9.988713
 20
-13.555067
 30
0.0
 10
10.518105
 20
-14.344050
 30
0.0
 10
12.032262
 20
-14.853920
 30
0.0
 10
13.014325
 20
-14.661515
 30
0.0
 10
13.861344
 20
-14.034347
 30
0.0
 10
13.121640
 20
-13.404991
 30
0.0
 10
12.012507
 20
-13.894929
 30
0.0
 10
11.145238
 20
-13.581239
 30
0.0
 10
10.802902
 20
-12.645249
 30
0.0
 10
13.961251
 20
-12.645249
 30
0.0
 10
13.961251
 20
-12.645249
 30
0.0
  0
LWPOLYLINE
  5
10e
100
AcDbEntity
  8
0
 62
7
100
AcDbPolyline
 90
7
 70
0
 10
10.802902
 20
-11.805920
 30
0.0
 10
11.120332
 20
-10.927256
 30
0.0
 10
11.872524
 20
-10.626231
 30
0.0
 10
12.620872
 20
-10.927256
 30
0.0
 10
12.941864
 20
-11.805920
 30
0.0
 10
10.802902
 20
-11.805920
 30
0.0
 10
10.802902
 20
-11.805920
 30
0.0
  0
LWPOLYLINE
  5
10f
100
AcDbEntity
  8
0
 62
7
100
AcDbPolyline
 90
18
 70
0
 10
14.831342
 20
-14.793807
 30
0.0
 10
15.850729
 20
-14.793807
 30
0.0
 10
15.850729
 20
-11.776004
 30
0.0
 10
16.138102
 20
-10.972412
 30
0.0
 10
16.860238
 20
-10.686344
 30
0.0
 10
17.573731
 20
-10.972412
 30
0.0
 10
17.859869
 20
-11.776004
 30
0.0
 10
17.859869
 20
-14.793807
 30
0.0
 10
18.879256
 20
-14.793807
 30
0.0
 10
18.879256
 20
-11.425767
 30
0.0
 10
18.330827
 20
-10.114915
 30
0.0
 10
17.190156
 20
-9.666393
 30
0.0
 10
15.871049
 20
-10.266116
 30
0.0
 10
15.850729
 20
-10.266116
 30
0.0
 10
15.850729
 20
-9.726507
 30
0.0
 10
14.831342
 20
-9.726507
 30
0.0
 10
14.831342
 20
-14.793807
 30
0.0
 10
14.831342
 20
-14.793807
 30
0.0
  0
LWPOLYLINE
  5
110
100
AcDbEntity
  8
0
 62
7
100
AcDbPolyline
 90
26
 70
0
 10
21.635720
 20
-13.944600
 30
0.0
 10
22.686504
 20
-14.628001
 30
0.0
 10
23.864711
 20
-14.854202
 30
0.0
 10
25.356432
 20
-14.445721
 30
0.0
 10
25.963598
 20
-13.294924
 30
0.0
 10
25.622673
 20
-12.258146
 30
0.0
 10
24.494349
 20
-11.775722
 30
0.0
 10
23.654738
 20
-11.716173
 30
0.0
 10
22.985307
 20
-11.236113
 30
0.0
 10
23.176406
 20
-10.800292
 30
0.0
 10
23.854551
 20
-10.626513
 30
0.0
 10
25.214298
 20
-11.096131
 30
0.0
 10
25.843653
 20
-10.356991
 30
0.0
 10
24.995329
 20
-9.854494
 30
0.0
 10
23.854269
 20
-9.666958
 30
0.0
 10
22.508810
 20
-10.060517
 30
0.0
 10
21.965356
 20
-11.226236
 30
0.0
 10
22.380152
 20
-12.245622
 30
0.0
 10
23.424444
 20
-12.665569
 30
0.0
 10
24.324169
 20
-12.745438
 30
0.0
 10
24.943929
 20
-13.245253
 30
0.0
 10
24.661389
 20
-13.731134
 30
0.0
 10
23.944298
 20
-13.894647
 30
0.0
 10
22.345227
 20
-13.245253
 30
0.0
 10
21.635720
 20
-13.944600
 30
0.0
 10
21.635720
 20
-13.944600
 30
0.0
  0
LWPOLYLINE
  5
111
100
AcDbEntity
  8
0
 62
7
100
AcDbPolyline
 90
17
 70
0
 10
26.543282
 20
-12.255500
 30
0.0
 10
26.672152
 20
-13.481050
 30
0.0
 10
27.093333
 20
-14.204527
 30
0.0
 10
27.671783
 20
-14.645428
 30
0.0
 10
28.632291
 20
-14.853920
 30
0.0
 10
29.593293
 20
-14.645428
 30
0.0
 10
30.171813
 20
-14.204527
 30
0.0
 10
30.592713
 20
-13.480944
 30
0.0
 10
30.721300
 20
-12.255500
 30
0.0
 10
30.592713
 20
-11.038487
 30
0.0
 10
30.171813
 20
-10.316351
 30
0.0
 10
29.593293
 20
-9.875167
 30
0.0
 10
28.632291
 20
-9.666393
 30
0.0
 10
27.671783
 20
-9.875167
 30
0.0
 10
27.093333
 20
-10.316351
 30
0.0
 10
26.672152
 20
-11.038593
 30
0.0
 10
26.543282
 20
-12.255500
 30
0.0
  0
LWPOLYLINE
  5
112
100
AcDbEntity
  8
0
 62
7
100
AcDbPolyline
 90
9
 70
0
 10
29.701631
 20
-12.265378
 30
0.0
 10
29.451864
 20
-13.464822
 30
0.0
 10
28.632291
 20
-13.834816
 30
0.0
 10
27.813282
 20
-13.464822
 30
0.0
 10
27.562951
 20
-12.255500
 30
0.0
 10
27.813282
 20
-11.056056
 30
0.0
 10
28.632291
 20
-10.686062
 30
0.0
 10
29.451864
 20
-11.056056
 30
0.0
 10
29.701631
 20
-12.265378
 30
0.0
  0
LWPOLYLINE
  5
113
100
AcDbEntity
  8
0
 62
7
100
AcDbPolyline
 90
18
 70
0
 10
31.591673
 20
-13.095111
 30
0.0
 10
32.141478
 20
-14.405469
 30
0.0
 10
33.290933
 20
-14.853920
 30
0.0
 10
34.600162
 20
-14.254198
 30
0.0
 10
34.619918
 20
-14.254198
 30
0.0
 10
34.619918
 20
-14.794371
 30
0.0
 10
35.639022
 20
-14.794371
 30
0.0
 10
35.639022
 20
-9.726507
 30
0.0
 10
34.619918
 20
-9.726507
 30
0.0
 10
34.619918
 20
-12.744873
 30
0.0
 10
34.333744
 20
-13.548254
 30
0.0
 10
33.620004
 20
-13.834533
 30
0.0
 10
32.898115
 20
-13.548254
 30
0.0
 10
32.610778
 20
-12.744873
 30
0.0
 10
32.610778
 20
-9.726507
 30
0.0
 10
31.591673
 20
-9.726507
 30
0.0
 10
31.591673
 20
-13.095111
 30
0.0
 10
31.591673
 20
-13.095111
 30
0.0
  0
LWPOLYLINE
  5
114
100
AcDbEntity
  8
0
 62
7
100
AcDbPolyline
 90
14
 70
0
 10
36.757187
 20
-14.793807
 30
0.0
 10
37.776856
 20
-14.793807
 30
0.0
 10
37.776856
 20
-11.745524
 30
0.0
 10
38.084054
 20
-10.938404
 30
0.0
 10
38.766327
 20
-10.686062
 30
0.0
 10
39.436040
 20
-10.935829
 30
0.0
 10
40.175744
 20
-10.056142
 30
0.0
 10
39.116282
 20
-9.666393
 30
0.0
 10
37.796611
 20
-10.266116
 30
0.0
 10
37.776856
 20
-10.266116
 30
0.0
 10
37.776856
 20
-9.726507
 30
0.0
 10
36.757187
 20
-9.726507
 30
0.0
 10
36.757187
 20
-14.793807
 30
0.0
 10
36.757187
 20
-14.793807
 30
0.0
  0
LWPOLYLINE
  5
115
100
AcDbEntity
  8
0
 62
7
100
AcDbPolyline
 90
20
 70
0
 10
43.422429
 20
-13.305084
 30
0.0
 10
42.393447
 20
-13.834816
 30
0.0
 10
41.422567
 20
-13.462247
 30
0.0
 10
41.073776
 20
-12.264813
 30
0.0
 10
41.422461
 20
-11.059513
 30
0.0
 10
42.393447
 20
-10.686062
 30
0.0
 10
43.422429
 20
-11.215793
 30
0.0
 10
44.172011
 20
-10.546080
 30
0.0
 10
43.386269
 20
-9.914996
 30
0.0
 10
42.353089
 20
-9.666393
 30
0.0
 10
40.765271
 20
-10.268585
 30
0.0
 10
40.249135
 20
-11.074665
 30
0.0
 10
40.054389
 20
-12.264813
 30
0.0
 10
40.249135
 20
-13.449816
 30
0.0
 10
40.765271
 20
-14.253104
 30
0.0
 10
42.353089
 20
-14.853920
 30
0.0
 10
43.386481
 20
-14.605282
 30
0.0
 10
44.172011
 20
-13.974798
 30
0.0
 10
43.422429
 20
-13.305084
 30
0.0
 10
43.422429
 20
-13.305084
 30
0.0
  0
LWPOLYLINE
  5
116
100
AcDbEntity
  8
0
 62
7
100
AcDbPolyline
 90
18
 70
0
 10
48.609391
 20
-12.645249
 30
0.0
 10
48.609391
 20
-11.805638
 30
0.0
 10
47.984410
 20
-10.244843
 30
0.0
 10
46.520382
 20
-9.666393
 30
0.0
 10
45.108319
 20
-10.232531
 30
0.0
 10
44.619946
 20
-11.037041
 30
0.0
 10
44.431373
 20
-12.275256
 30
0.0
 10
44.636575
 20
-13.555067
 30
0.0
 10
45.165998
 20
-14.344050
 30
0.0
 10
46.680402
 20
-14.853920
 30
0.0
 10
47.662430
 20
-14.661515
 30
0.0
 10
48.509202
 20
-14.034347
 30
0.0
 10
47.769498
 20
-13.404991
 30
0.0
 10
46.660364
 20
-13.894929
 30
0.0
 10
45.793237
 20
-13.581239
 30
0.0
 10
45.451042
 20
-12.645249
 30
0.0
 10
48.609391
 20
-12.645249
 30
0.0
 10
48.609391
 20
-12.645249
 30
0.0
  0
LWPOLYLINE
  5
117
100
AcDbEntity
  8
0
 62
7
100
AcDbPolyline
 90
7
 70
0
 10
45.451042
 20
-11.805920
 30
0.0
 10
45.768225
 20
-10.927256
 30
0.0
 10
46.520382
 20
-10.626231
 30
0.0
 10
47.268624
 20
-10.927256
 30
0.0
 10
47.589722
 20
-11.805920
 30
0.0
 10
45.451042
 20
-11.805920
 30
0.0
 10
45.451042
 20
-11.805920
 30
0.0
  0
LWPOLYLINE
  5
118
100
AcDbEntity
  8
0
 62
7
100
AcDbPolyline
 90
9
 70
0
 10
7.067127
 20
-13.834816
 30
0.0
 10
7.931714
 20
-13.342408
 30
0.0
 10
8.076636
 20
-12.265378
 30
0.0
 10
7.931714
 20
-11.179492
 30
0.0
 10
7.067127
 20
-10.686062
 30
0.0
 10
6.211288
 20
-11.198331
 30
0.0
 10
6.067496
 20
-12.265378
 30
0.0
 10
6.211182
 20
-13.323782
 30
0.0
 10
7.067127
 20
-13.834816
 30
0.0
  0
LWPOLYLINE
  5
119
100
AcDbEntity
  8
0
 62
7
100
AcDbPolyline
 90
24
 70
0
 10
5.044158
 20
-22.798193
 30
0.0
 10
5.044158
 20
-9.726789
 30
0.0
 10
6.067496
 20
-9.726789
 30
0.0
 10
6.067496
 20
-10.256520
 30
0.0
 10
7.377007
 20
-9.666676
 30
0.0
 10
8.736471
 20
-10.326511
 30
0.0
 10
9.096022
 20
-12.265660
 30
0.0
 10
8.736471
 20
-14.194367
 30
0.0
 10
7.377007
 20
-14.854202
 30
0.0
 10
6.067496
 20
-14.254480
 30
0.0
 10
6.063827
 20
-18.270502
 30
0.0
 10
7.402971
 20
-17.670780
 30
0.0
 10
8.543643
 20
-18.119231
 30
0.0
 10
9.092071
 20
-19.429589
 30
0.0
 10
9.092071
 20
-22.798193
 30
0.0
 10
8.072684
 20
-22.798193
 30
0.0
 10
8.072684
 20
-19.779827
 30
0.0
 10
7.786546
 20
-18.976234
 30
0.0
 10
7.073053
 20
-18.690167
 30
0.0
 10
6.351058
 20
-18.976234
 30
0.0
 10
6.063827
 20
-19.779827
 30
0.0
 10
6.063827
 20
-22.798193
 30
0.0
 10
5.044158
 20
-22.798193
 30
0.0
 10
5.044158
 20
-22.798193
 30
0.0
  0
ENDSEC
  0
SECTION
  2
OBJECTS
  0
DICTIONARY
  5
C
330
0
100
AcDbDictionary
  3
ACAD_GROUP
350
D
  3
ACAD_MLINESTYLE
350
17
  0
DICTIONARY
  5
D
330
C
100
AcDbDictionary
  0
DICTIONARY
  5
1A
330
C
100
AcDbDictionary
  0
DICTIONARY
  5
17
330
C
100
AcDbDictionary
  3
STANDARD
350
18
  0
DICTIONARY
  5
19
330
C
100
AcDbDictionary
  0
ENDSEC
  0
EOF
