<?xml version="1.0" encoding="UTF-8" standalone="no"?>
<!-- Created with Inkscape (http://www.inkscape.org/) -->

<svg
   xmlns:dc="http://purl.org/dc/elements/1.1/"
   xmlns:cc="http://creativecommons.org/ns#"
   xmlns:rdf="http://www.w3.org/1999/02/22-rdf-syntax-ns#"
   xmlns:svg="http://www.w3.org/2000/svg"
   xmlns="http://www.w3.org/2000/svg"
   xmlns:xlink="http://www.w3.org/1999/xlink"
   xmlns:sodipodi="http://sodipodi.sourceforge.net/DTD/sodipodi-0.dtd"
   xmlns:inkscape="http://www.inkscape.org/namespaces/inkscape"
   version="1.0"
   width="780"
   height="900"
   id="svg2"
   inkscape:version="0.48.1 "
   sodipodi:docname="wi_bottom.dxf">
  <sodipodi:namedview
     pagecolor="#ffffff"
     bordercolor="#666666"
     borderopacity="1"
     objecttolerance="10"
     gridtolerance="10"
     guidetolerance="10"
     inkscape:pageopacity="0"
     inkscape:pageshadow="2"
     inkscape:window-width="708"
     inkscape:window-height="480"
     id="namedview46"
     showgrid="false"
     inkscape:zoom="0.32333333"
     inkscape:cx="402.30458"
     inkscape:cy="444.35444"
     inkscape:window-x="0"
     inkscape:window-y="0"
     inkscape:window-maximized="0"
     inkscape:current-layer="layer1" />
  <metadata
     id="metadata48">
    <rdf:RDF>
      <cc:Work
         rdf:about="">
        <dc:format>image/svg+xml</dc:format>
        <dc:type
           rdf:resource="http://purl.org/dc/dcmitype/StillImage" />
        <dc:title></dc:title>
      </cc:Work>
    </rdf:RDF>
  </metadata>
  <defs
     id="defs4">
    <linearGradient
       id="linearGradient9119">
      <stop
         style="stop-color:#07b114;stop-opacity:1"
         offset="0"
         id="stop9121" />
      <stop
         style="stop-color:#20b718;stop-opacity:1"
         offset="1"
         id="stop9123" />
    </linearGradient>
    <linearGradient
       x1="572.86169"
       y1="738.72839"
       x2="284.63126"
       y2="392.06387"
       id="linearGradient9125"
       xlink:href="#linearGradient9119"
       gradientUnits="userSpaceOnUse" />
    <linearGradient
       x1="572.86169"
       y1="738.72839"
       x2="284.63126"
       y2="392.06387"
       id="linearGradient9127"
       xlink:href="#linearGradient9119"
       gradientUnits="userSpaceOnUse" />
    <linearGradient
       x1="572.86169"
       y1="738.72839"
       x2="284.63126"
       y2="392.06387"
       id="linearGradient9129"
       xlink:href="#linearGradient9119"
       gradientUnits="userSpaceOnUse" />
    <linearGradient
       x1="572.86169"
       y1="738.72839"
       x2="284.63126"
       y2="392.06387"
       id="linearGradient9131"
       xlink:href="#linearGradient9119"
       gradientUnits="userSpaceOnUse" />
    <linearGradient
       x1="572.86169"
       y1="738.72839"
       x2="284.63126"
       y2="392.06387"
       id="linearGradient9133"
       xlink:href="#linearGradient9119"
       gradientUnits="userSpaceOnUse" />
    <linearGradient
       x1="572.86169"
       y1="738.72839"
       x2="284.63126"
       y2="392.06387"
       id="linearGradient9135"
       xlink:href="#linearGradient9119"
       gradientUnits="userSpaceOnUse" />
    <linearGradient
       x1="572.86169"
       y1="738.72839"
       x2="284.63126"
       y2="392.06387"
       id="linearGradient9137"
       xlink:href="#linearGradient9119"
       gradientUnits="userSpaceOnUse" />
    <linearGradient
       x1="572.86169"
       y1="738.72839"
       x2="284.63126"
       y2="392.06387"
       id="linearGradient9139"
       xlink:href="#linearGradient9119"
       gradientUnits="userSpaceOnUse" />
    <linearGradient
       x1="572.86169"
       y1="738.72839"
       x2="284.63126"
       y2="392.06387"
       id="linearGradient9141"
       xlink:href="#linearGradient9119"
       gradientUnits="userSpaceOnUse" />
    <linearGradient
       x1="572.86169"
       y1="738.72839"
       x2="284.63126"
       y2="392.06387"
       id="linearGradient9143"
       xlink:href="#linearGradient9119"
       gradientUnits="userSpaceOnUse" />
    <linearGradient
       x1="572.86169"
       y1="738.72839"
       x2="284.63126"
       y2="392.06387"
       id="linearGradient9145"
       xlink:href="#linearGradient9119"
       gradientUnits="userSpaceOnUse" />
    <linearGradient
       x1="572.86169"
       y1="738.72839"
       x2="284.63126"
       y2="392.06387"
       id="linearGradient9147"
       xlink:href="#linearGradient9119"
       gradientUnits="userSpaceOnUse" />
    <linearGradient
       x1="572.86169"
       y1="738.72839"
       x2="284.63126"
       y2="392.06387"
       id="linearGradient9149"
       xlink:href="#linearGradient9119"
       gradientUnits="userSpaceOnUse" />
    <linearGradient
       x1="572.86169"
       y1="738.72839"
       x2="284.63126"
       y2="392.06387"
       id="linearGradient9151"
       xlink:href="#linearGradient9119"
       gradientUnits="userSpaceOnUse" />
    <linearGradient
       x1="572.86169"
       y1="738.72839"
       x2="284.63126"
       y2="392.06387"
       id="linearGradient9153"
       xlink:href="#linearGradient9119"
       gradientUnits="userSpaceOnUse" />
    <linearGradient
       x1="572.86169"
       y1="738.72839"
       x2="284.63126"
       y2="392.06387"
       id="linearGradient9155"
       xlink:href="#linearGradient9119"
       gradientUnits="userSpaceOnUse" />
    <linearGradient
       x1="572.86169"
       y1="738.72839"
       x2="284.63126"
       y2="392.06387"
       id="linearGradient9157"
       xlink:href="#linearGradient9119"
       gradientUnits="userSpaceOnUse" />
    <linearGradient
       x1="572.86169"
       y1="738.72839"
       x2="284.63126"
       y2="392.06387"
       id="linearGradient9159"
       xlink:href="#linearGradient9119"
       gradientUnits="userSpaceOnUse" />
    <linearGradient
       x1="517.65814"
       y1="718.28265"
       x2="280.54211"
       y2="328.68198"
       id="linearGradient9161"
       xlink:href="#linearGradient9119"
       gradientUnits="userSpaceOnUse" />
    <linearGradient
       inkscape:collect="always"
       xlink:href="#linearGradient9119"
       id="linearGradient3233"
       gradientUnits="userSpaceOnUse"
       x1="572.86169"
       y1="738.72839"
       x2="284.63126"
       y2="392.06387" />
    <linearGradient
       inkscape:collect="always"
       xlink:href="#linearGradient9119"
       id="linearGradient3238"
       gradientUnits="userSpaceOnUse"
       x1="572.86169"
       y1="738.72839"
       x2="284.63126"
       y2="392.06387" />
    <linearGradient
       inkscape:collect="always"
       xlink:href="#linearGradient9119"
       id="linearGradient3243"
       gradientUnits="userSpaceOnUse"
       x1="572.86169"
       y1="738.72839"
       x2="284.63126"
       y2="392.06387" />
    <linearGradient
       inkscape:collect="always"
       xlink:href="#linearGradient9119"
       id="linearGradient3248"
       gradientUnits="userSpaceOnUse"
       x1="572.86169"
       y1="738.72839"
       x2="284.63126"
       y2="392.06387" />
    <linearGradient
       inkscape:collect="always"
       xlink:href="#linearGradient9119"
       id="linearGradient3253"
       gradientUnits="userSpaceOnUse"
       x1="572.86169"
       y1="738.72839"
       x2="284.63126"
       y2="392.06387" />
    <linearGradient
       inkscape:collect="always"
       xlink:href="#linearGradient9119"
       id="linearGradient3258"
       gradientUnits="userSpaceOnUse"
       x1="572.86169"
       y1="738.72839"
       x2="284.63126"
       y2="392.06387" />
    <linearGradient
       inkscape:collect="always"
       xlink:href="#linearGradient9119"
       id="linearGradient3263"
       gradientUnits="userSpaceOnUse"
       x1="572.86169"
       y1="738.72839"
       x2="284.63126"
       y2="392.06387" />
    <linearGradient
       inkscape:collect="always"
       xlink:href="#linearGradient9119"
       id="linearGradient3268"
       gradientUnits="userSpaceOnUse"
       x1="572.86169"
       y1="738.72839"
       x2="284.63126"
       y2="392.06387" />
    <linearGradient
       inkscape:collect="always"
       xlink:href="#linearGradient9119"
       id="linearGradient3273"
       gradientUnits="userSpaceOnUse"
       x1="572.86169"
       y1="738.72839"
       x2="284.63126"
       y2="392.06387" />
    <linearGradient
       inkscape:collect="always"
       xlink:href="#linearGradient9119"
       id="linearGradient3278"
       gradientUnits="userSpaceOnUse"
       x1="572.86169"
       y1="738.72839"
       x2="284.63126"
       y2="392.06387" />
    <linearGradient
       inkscape:collect="always"
       xlink:href="#linearGradient9119"
       id="linearGradient3283"
       gradientUnits="userSpaceOnUse"
       x1="572.86169"
       y1="738.72839"
       x2="284.63126"
       y2="392.06387" />
    <linearGradient
       inkscape:collect="always"
       xlink:href="#linearGradient9119"
       id="linearGradient3288"
       gradientUnits="userSpaceOnUse"
       x1="572.86169"
       y1="738.72839"
       x2="284.63126"
       y2="392.06387" />
    <linearGradient
       inkscape:collect="always"
       xlink:href="#linearGradient9119"
       id="linearGradient3293"
       gradientUnits="userSpaceOnUse"
       x1="572.86169"
       y1="738.72839"
       x2="284.63126"
       y2="392.06387" />
    <linearGradient
       inkscape:collect="always"
       xlink:href="#linearGradient9119"
       id="linearGradient3298"
       gradientUnits="userSpaceOnUse"
       x1="572.86169"
       y1="738.72839"
       x2="284.63126"
       y2="392.06387" />
  </defs>
  <g
     id="layer1">
    <path
       inkscape:connector-curvature="0"
       id="path1996"
       d="m 502.51379,809.64912 3.04705,-11.07223 7.03239,-7.85777 9.58462,-5.81411 10.70376,-4.94122 10.38978,-5.23914 8.6427,-6.70783 5.46252,-9.34732 0.84922,-13.1576 2.26543,-11.77916 -0.30759,-11.52253 -3.99223,-22.32793 -1.51365,-10.83181 0.25533,-10.62796 3.1098,-10.43732 7.04976,-10.25986 1.7797,-10.34197 0.6127,-11.09022 0.69852,-22.73089 1.57284,-10.79353 3.3799,-9.8475 5.93048,-8.4779 9.22457,-6.68473 14.18691,-6.3331 11.70215,-8.79429 9.96059,-10.49516 8.96227,-11.43571 17.90242,-22.65172 10.42659,-9.69537 12.40114,-7.5946 23.18467,-13.81243 12.14855,-7.27936 11.02619,-7.99302 8.78397,-9.05533 5.42187,-10.46632 0.93991,-12.22597 -4.66191,-14.33429 3.10648,-11.73913 0.0747,-11.57224 -5.24551,-22.67041 -6.27175,-22.08268 -1.20805,-10.83758 1.31056,-10.7106 6.46953,-3.94912 4.69627,-4.48196 3.06278,-4.92384 1.56905,-5.27474 -0.784,-11.23838 -5.08171,-11.55049 -8.26128,-11.1349 -10.32272,-9.99162 -11.26603,-8.12064 -11.09121,-5.52196 -7.4412,-1.70427 -4.84393,-3.94464 -2.78755,-5.67601 -1.27206,-6.89833 -0.16125,-15.42753 -0.59003,-14.2085 -2.10812,-52.57892 -5.28824,1.65023 -4.97352,-0.90755 -9.43331,-5.43689 -4.67501,-2.50358 -4.79075,-1.00981 -5.01408,1.49683 -5.34504,5.01636 -21.03928,-2.33467 -20.60331,-5.80261 -39.90547,-15.73941 -14.24729,-5.52296 -16.00273,-7.17656 -6.91767,-1.56656 -5.26614,1.19021 -2.91781,5.00371 0.12729,9.87393 8.08961,13.42131 5.89489,16.23346 0.56818,6.03017 -1.84797,2.96388 -4.88664,-1.35886 -8.54779,-6.93805 -5.24299,-1.35884 -5.60225,1.26243 -12.15926,7.29133 -13.22717,8.48453 -6.93714,2.7539 -7.11185,0.72924 -11.20087,14.70624 -10.7647,12.96747 -6.19687,5.20379 -7.26153,4.01561 -8.71743,2.57627 -10.56456,0.88577 -56.43004,16.01529 -54.58609,20.94134 -22.16833,3.65626 -25.14461,3.07757 -11.15246,3.03373 -8.8534,4.94338 -5.53995,7.53783 -1.21213,10.81705 -11.99651,2.68621 -9.18619,5.49359 -6.56963,7.74695 -4.14686,9.44631 -1.91786,10.59166 0.11736,11.18301 1.9588,11.22033 3.60645,10.70366 -18.96071,0.78673 -2.91501,1.26064 -0.94544,2.54236 1.64389,4.25217 4.85299,6.39005 0.71139,7.48274 -2.07394,6.88563 -7.16526,12.36027 -2.42199,5.66482 0.1313,5.44807 4.01927,5.3264 9.24188,5.29984 6.9815,5.62942 6.28459,7.85937 9.76489,19.40019 4.83652,19.29467 0.12412,7.72749 -1.64316,5.44478 -9.24199,-4.99548 -7.62056,-7.3131 -12.81528,-17.73252 -6.41395,-8.49616 -7.23097,-6.96723 -8.65761,-4.47669 -10.69386,-1.02449 -5.54714,11.24675 -0.57354,11.65215 2.91068,11.99256 4.90549,12.26795 9.83779,25.10208 1.9535,12.70413 -2.00932,12.71951 9.66289,22.17907 7.73277,22.37322 4.25533,23.05802 0.3401,11.93915 -1.10951,12.29436 9.41308,24.51833 6.19336,25.08988 1.91214,25.60392 -3.43055,26.06048 -5.33033,19.81549 -3.5527,19.92932 -0.14473,19.97863 4.89358,19.96345 21.1846,1.7875 22.11678,-0.47128 22.45219,-0.97346 22.19084,0.28096 235.46431,-4.06094 0,0"
       style="fill:none;stroke:#072d00;stroke-width:3.47900009;stroke-linecap:butt;stroke-linejoin:miter;stroke-miterlimit:4;stroke-opacity:1;stroke-dasharray:none" />
    <path
       inkscape:connector-curvature="0"
       id="path2886"
       d="m 125.60209,450.43221 6.02292,-9.5998 1.12501,-10.58785 -2.76657,-11.04504 -5.65181,-10.97135 -7.53074,-10.36679 -8.40333,-9.23137 -15.399145,-12.93298 2.750144,16.50236 6.701151,18.4294 9.41409,18.82117 10.88896,17.67769 2.84932,3.30456 0,0 0,0"
       style="fill:none;stroke:#072d00;stroke-width:3.47900009;stroke-linecap:butt;stroke-linejoin:miter;stroke-miterlimit:4;stroke-opacity:1;stroke-dasharray:none" />
    <path
       inkscape:connector-curvature="0"
       id="path3773"
       d="m 130.30059,388.21759 2.46533,2.529 0.40277,1.9637 -2.6658,1.91695 -2.76695,-1.28788 0.27633,-2.04233 2.28832,-3.07944 0,0"
       style="fill:none;stroke:#072d00;stroke-width:3.47900009;stroke-linecap:butt;stroke-linejoin:miter;stroke-miterlimit:4;stroke-opacity:1;stroke-dasharray:none" />
    <path
       inkscape:connector-curvature="0"
       id="path4662"
       d="m 87.528095,363.26693 -1.465895,-7.14265 -2.431971,-1.8894 -2.705596,1.75761 -2.286768,3.79836 -1.17549,4.23287 0.628241,3.06114 3.124423,0.28315 6.313056,-4.10108 0,0"
       style="fill:none;stroke:#072d00;stroke-width:3.47900009;stroke-linecap:butt;stroke-linejoin:miter;stroke-miterlimit:4;stroke-opacity:1;stroke-dasharray:none" />
    <path
       inkscape:connector-curvature="0"
       id="path5549"
       d="m 72.136395,354.35598 3.255812,0.60393 -1.718072,1.89852 -2.486942,0.6473 0.949202,-3.14975 0,0"
       style="fill:none;stroke:#072d00;stroke-width:3.47900009;stroke-linecap:butt;stroke-linejoin:miter;stroke-miterlimit:4;stroke-opacity:1;stroke-dasharray:none" />
  </g>
</svg>
