999
DXF created by Inkscape
  0
SECTION
  2
HEADER
  9
$ACADVER
  1
AC1014
  9
$HANDSEED
  5
FFFF
  9
$MEASUREMENT
 70
     1
  0
ENDSEC
  0
SECTION
  2
TABLES
  0
TABLE
  2
VPORT
  5
8
330
0
100
AcDbSymbolTable
 70
     4
  0
VPORT
  5
2E
330
8
100
AcDbSymbolTableRecord
100
AcDbViewportTableRecord
  2
*ACTIVE
 70
     0
 10
0.0
 20
0.0
 11
1.0
 21
1.0
 12
210.0
 22
148.5
 13
0.0
 23
0.0
 14
10.0
 24
10.0
 15
10.0
 25
10.0
 16
0.0
 26
0.0
 36
1.0
 17
0.0
 27
0.0
 37
0.0
 40
341.0
 41
1.24
 42
50.0
 43
0.0
 44
0.0
 50
0.0
 51
0.0
 71
     0
 72
   100
 73
     1
 74
     3
 75
     0
 76
     0
 77
     0
 78
     0
  0
ENDTAB
  0
TABLE
  2
LTYPE
  5
5
330
0
100
AcDbSymbolTable
 70
     1
  0
LTYPE
  5
14
330
5
100
AcDbSymbolTableRecord
100
AcDbLinetypeTableRecord
  2
BYBLOCK
 70
     0
  3

 72
    65
 73
     0
 40
0.0
  0
LTYPE
  5
15
330
5
100
AcDbSymbolTableRecord
100
AcDbLinetypeTableRecord
  2
BYLAYER
 70
     0
  3

 72
    65
 73
     0
 40
0.0
  0
LTYPE
  5
16
330
5
100
AcDbSymbolTableRecord
100
AcDbLinetypeTableRecord
  2
CONTINUOUS
 70
     0
  3
Solid line
 72
    65
 73
     0
 40
0.0
  0
ENDTAB
  0
TABLE
  2
LAYER
  5
2
100
AcDbSymbolTable
 70
1
  0
LAYER
  5
50
100
AcDbSymbolTableRecord
100
AcDbLayerTableRecord
  2
0
 70
0
  6
CONTINUOUS
  0
ENDTAB
  0
TABLE
  2
STYLE
  5
3
330
0
100
AcDbSymbolTable
 70
     1
  0
STYLE
  5
11
330
3
100
AcDbSymbolTableRecord
100
AcDbTextStyleTableRecord
  2
STANDARD
 70
     0
 40
0.0
 41
1.0
 50
0.0
 71
     0
 42
2.5
  3
txt
  4

  0
ENDTAB
  0
TABLE
  2
VIEW
  5
6
330
0
100
AcDbSymbolTable
 70
     0
  0
ENDTAB
  0
TABLE
  2
UCS
  5
7
330
0
100
AcDbSymbolTable
 70
     0
  0
ENDTAB
  0
TABLE
  2
APPID
  5
9
330
0
100
AcDbSymbolTable
 70
     2
  0
APPID
  5
12
330
9
100
AcDbSymbolTableRecord
100
AcDbRegAppTableRecord
  2
ACAD
 70
     0
  0
ENDTAB
  0
TABLE
  2
DIMSTYLE
  5
A
330
0
100
AcDbSymbolTable
 70
     1
  0
DIMSTYLE
105
27
330
A
100
AcDbSymbolTableRecord
100
AcDbDimStyleTableRecord
  2
ISO-25
 70
     0
  3

  4

  5

  6

  7

 40
1.0
 41
2.5
 42
0.625
 43
3.75
 44
1.25
 45
0.0
 46
0.0
 47
0.0
 48
0.0
140
2.5
141
2.5
142
0.0
143
0.03937007874016
144
1.0
145
0.0
146
1.0
147
0.625
 71
     0
 72
     0
 73
     0
 74
     0
 75
     0
 76
     0
 77
     1
 78
     8
170
     0
171
     3
172
     1
173
     0
174
     0
175
     0
176
     0
177
     0
178
     0
270
     2
271
     2
272
     2
273
     2
274
     3
340
11
275
     0
280
     0
281
     0
282
     0
283
     0
284
     8
285
     0
286
     0
287
     3
288
     0
  0
ENDTAB
  0
TABLE
  2
BLOCK_RECORD
  5
1
330
0
100
AcDbSymbolTable
 70
     1
  0
BLOCK_RECORD
  5
1F
330
1
100
AcDbSymbolTableRecord
100
AcDbBlockTableRecord
  2
*MODEL_SPACE
  0
BLOCK_RECORD
  5
1B
330
1
100
AcDbSymbolTableRecord
100
AcDbBlockTableRecord
  2
*PAPER_SPACE
  0
ENDTAB
  0
ENDSEC
  0
SECTION
  2
BLOCKS
  0
BLOCK
  5
20
330
1F
100
AcDbEntity
  8
0
100
AcDbBlockBegin
  2
*MODEL_SPACE
 70
     0
 10
0.0
 20
0.0
 30
0.0
  3
*MODEL_SPACE
  1

  0
ENDBLK
  5
21
330
1F
100
AcDbEntity
  8
0
100
AcDbBlockEnd
  0
BLOCK
  5
1C
330
1B
100
AcDbEntity
 67
     1
  8
0
100
AcDbBlockBegin
  2
*PAPER_SPACE
  1

  0
ENDBLK
  5
1D
330
1B
100
AcDbEntity
 67
     1
  8
0
100
AcDbBlockEnd
  0
ENDSEC
  0
SECTION
  2
ENTITIES
  0
SPLINE
  5
100
100
AcDbEntity
  8
0
 62
3
100
AcDbSpline
 70
8
 71
3
 72
8
 73
4
 74
0
 40
0
 40
0
 40
0
 40
0
 40
1
 40
1
 40
1
 40
1
 10
86.618010
 20
25.499026
 30
0.0
 10
87.725273
 20
35.601831
 30
0.0
 10
70.591497
 20
30.386455
 30
0.0
 10
72.267767
 20
41.118384
 30
0.0
  0
SPLINE
  5
101
100
AcDbEntity
  8
0
 62
3
100
AcDbSpline
 70
8
 71
3
 72
8
 73
4
 74
0
 40
0
 40
0
 40
0
 40
0
 40
1
 40
1
 40
1
 40
1
 10
72.267767
 20
41.118384
 30
0.0
 10
67.606565
 20
47.659711
 30
0.0
 10
71.391043
 20
54.882872
 30
0.0
 10
72.934057
 20
61.063900
 30
0.0
  0
SPLINE
  5
102
100
AcDbEntity
  8
0
 62
3
100
AcDbSpline
 70
8
 71
3
 72
8
 73
4
 74
0
 40
0
 40
0
 40
0
 40
0
 40
1
 40
1
 40
1
 40
1
 10
72.934057
 20
61.063900
 30
0.0
 10
68.956281
 20
63.895413
 30
0.0
 10
68.791322
 20
69.065501
 30
0.0
 10
68.396369
 20
73.550464
 30
0.0
  0
SPLINE
  5
103
100
AcDbEntity
  8
0
 62
3
100
AcDbSpline
 70
8
 71
3
 72
8
 73
4
 74
0
 40
0
 40
0
 40
0
 40
0
 40
1
 40
1
 40
1
 40
1
 10
68.396369
 20
73.550464
 30
0.0
 10
67.678712
 20
80.210795
 30
0.0
 10
69.260266
 20
87.838116
 30
0.0
 10
62.409665
 20
90.943687
 30
0.0
  0
SPLINE
  5
104
100
AcDbEntity
  8
0
 62
3
100
AcDbSpline
 70
8
 71
3
 72
8
 73
4
 74
0
 40
0
 40
0
 40
0
 40
0
 40
1
 40
1
 40
1
 40
1
 10
62.409665
 20
90.943687
 30
0.0
 10
57.062093
 20
93.863352
 30
0.0
 10
52.462969
 20
96.369322
 30
0.0
 10
49.179345
 20
101.145306
 30
0.0
  0
SPLINE
  5
105
100
AcDbEntity
  8
0
 62
3
100
AcDbSpline
 70
8
 71
3
 72
8
 73
4
 74
0
 40
0
 40
0
 40
0
 40
0
 40
1
 40
1
 40
1
 40
1
 10
49.179345
 20
101.145306
 30
0.0
 10
48.133429
 20
106.873353
 30
0.0
 10
44.587056
 20
108.942827
 30
0.0
 10
39.439652
 20
110.808349
 30
0.0
  0
SPLINE
  5
106
100
AcDbEntity
  8
0
 62
3
100
AcDbSpline
 70
8
 71
3
 72
8
 73
4
 74
0
 40
0
 40
0
 40
0
 40
0
 40
1
 40
1
 40
1
 40
1
 10
39.439652
 20
110.808349
 30
0.0
 10
36.726647
 20
116.485741
 30
0.0
 10
30.479752
 20
116.160911
 30
0.0
 10
26.417525
 20
119.442854
 30
0.0
  0
SPLINE
  5
107
100
AcDbEntity
  8
0
 62
3
100
AcDbSpline
 70
8
 71
3
 72
8
 73
4
 74
0
 40
0
 40
0
 40
0
 40
0
 40
1
 40
1
 40
1
 40
1
 10
26.417525
 20
119.442854
 30
0.0
 10
24.982633
 20
123.122047
 30
0.0
 10
17.892375
 20
124.392419
 30
0.0
 10
21.393351
 20
128.744664
 30
0.0
  0
SPLINE
  5
108
100
AcDbEntity
  8
0
 62
3
100
AcDbSpline
 70
8
 71
3
 72
8
 73
4
 74
0
 40
0
 40
0
 40
0
 40
0
 40
1
 40
1
 40
1
 40
1
 10
21.393351
 20
128.744664
 30
0.0
 10
22.739562
 20
132.353473
 30
0.0
 10
22.402712
 20
135.284326
 30
0.0
 10
20.982758
 20
139.449962
 30
0.0
  0
SPLINE
  5
109
100
AcDbEntity
  8
0
 62
3
100
AcDbSpline
 70
8
 71
3
 72
8
 73
4
 74
0
 40
0
 40
0
 40
0
 40
0
 40
1
 40
1
 40
1
 40
1
 10
20.982758
 20
139.449962
 30
0.0
 10
23.865418
 20
143.011011
 30
0.0
 10
20.744911
 20
149.466884
 30
0.0
 10
24.103270
 20
151.917078
 30
0.0
  0
SPLINE
  5
10a
100
AcDbEntity
  8
0
 62
3
100
AcDbSpline
 70
8
 71
3
 72
8
 73
4
 74
0
 40
0
 40
0
 40
0
 40
0
 40
1
 40
1
 40
1
 40
1
 10
24.103270
 20
151.917078
 30
0.0
 10
27.897238
 20
154.209081
 30
0.0
 10
24.803011
 20
161.629942
 30
0.0
 10
20.572163
 20
161.704136
 30
0.0
  0
SPLINE
  5
10b
100
AcDbEntity
  8
0
 62
3
100
AcDbSpline
 70
8
 71
3
 72
8
 73
4
 74
0
 40
0
 40
0
 40
0
 40
0
 40
1
 40
1
 40
1
 40
1
 10
20.572163
 20
161.704136
 30
0.0
 10
16.720665
 20
167.101049
 30
0.0
 10
23.716189
 20
170.534347
 30
0.0
 10
24.252576
 20
174.761014
 30
0.0
  0
SPLINE
  5
10c
100
AcDbEntity
  8
0
 62
3
100
AcDbSpline
 70
8
 71
3
 72
8
 73
4
 74
0
 40
0
 40
0
 40
0
 40
0
 40
1
 40
1
 40
1
 40
1
 10
24.252576
 20
174.761014
 30
0.0
 10
27.134032
 20
177.526106
 30
0.0
 10
30.060468
 20
178.587702
 30
0.0
 10
33.300568
 20
180.681029
 30
0.0
  0
SPLINE
  5
10d
100
AcDbEntity
  8
0
 62
3
100
AcDbSpline
 70
8
 71
3
 72
8
 73
4
 74
0
 40
0
 40
0
 40
0
 40
0
 40
1
 40
1
 40
1
 40
1
 10
33.300568
 20
180.681029
 30
0.0
 10
37.606526
 20
180.380620
 30
0.0
 10
37.873282
 20
183.941077
 30
0.0
 10
37.883451
 20
188.152332
 30
0.0
  0
SPLINE
  5
10e
100
AcDbEntity
  8
0
 62
3
100
AcDbSpline
 70
8
 71
3
 72
8
 73
4
 74
0
 40
0
 40
0
 40
0
 40
0
 40
1
 40
1
 40
1
 40
1
 10
37.883451
 20
188.152332
 30
0.0
 10
38.162436
 20
195.110526
 30
0.0
 10
38.441418
 20
202.068724
 30
0.0
 10
38.720403
 20
209.026921
 30
0.0
  0
SPLINE
  5
10f
100
AcDbEntity
  8
0
 62
3
100
AcDbSpline
 70
8
 71
3
 72
8
 73
4
 74
0
 40
0
 40
0
 40
0
 40
0
 40
1
 40
1
 40
1
 40
1
 10
38.720403
 20
209.026921
 30
0.0
 10
42.313773
 20
205.146470
 30
0.0
 10
44.744059
 20
215.115552
 30
0.0
 10
47.753465
 20
210.333353
 30
0.0
  0
SPLINE
  5
110
100
AcDbEntity
  8
0
 62
3
100
AcDbSpline
 70
8
 71
3
 72
8
 73
4
 74
0
 40
0
 40
0
 40
0
 40
0
 40
1
 40
1
 40
1
 40
1
 10
47.753465
 20
210.333353
 30
0.0
 10
53.205826
 20
207.096831
 30
0.0
 10
60.409918
 20
212.657958
 30
0.0
 10
66.088331
 20
213.229907
 30
0.0
  0
SPLINE
  5
111
100
AcDbEntity
  8
0
 62
3
100
AcDbSpline
 70
8
 71
3
 72
8
 73
4
 74
0
 40
0
 40
0
 40
0
 40
0
 40
1
 40
1
 40
1
 40
1
 10
66.088331
 20
213.229907
 30
0.0
 10
68.964200
 20
214.106935
 30
0.0
 10
74.244330
 20
217.405548
 30
0.0
 10
76.155028
 20
217.110872
 30
0.0
  0
SPLINE
  5
112
100
AcDbEntity
  8
0
 62
3
100
AcDbSpline
 70
8
 71
3
 72
8
 73
4
 74
0
 40
0
 40
0
 40
0
 40
0
 40
1
 40
1
 40
1
 40
1
 10
76.155028
 20
217.110872
 30
0.0
 10
77.488477
 20
217.710422
 30
0.0
 10
82.038859
 20
220.033263
 30
0.0
 10
81.123539
 20
219.836732
 30
0.0
  0
SPLINE
  5
113
100
AcDbEntity
  8
0
 62
3
100
AcDbSpline
 70
8
 71
3
 72
8
 73
4
 74
0
 40
0
 40
0
 40
0
 40
0
 40
1
 40
1
 40
1
 40
1
 10
81.123539
 20
219.836732
 30
0.0
 10
84.090668
 20
223.275655
 30
0.0
 10
88.667804
 20
216.904691
 30
0.0
 10
84.468013
 20
214.760302
 30
0.0
  0
SPLINE
  5
114
100
AcDbEntity
  8
0
 62
3
100
AcDbSpline
 70
8
 71
3
 72
8
 73
4
 74
0
 40
0
 40
0
 40
0
 40
0
 40
1
 40
1
 40
1
 40
1
 10
84.468013
 20
214.760302
 30
0.0
 10
83.847898
 20
211.613042
 30
0.0
 10
80.821544
 20
206.707698
 30
0.0
 10
81.086204
 20
204.226708
 30
0.0
  0
SPLINE
  5
115
100
AcDbEntity
  8
0
 62
3
100
AcDbSpline
 70
8
 71
3
 72
8
 73
4
 74
0
 40
0
 40
0
 40
0
 40
0
 40
1
 40
1
 40
1
 40
1
 10
81.086204
 20
204.226708
 30
0.0
 10
84.885194
 20
205.684521
 30
0.0
 10
87.749324
 20
209.234374
 30
0.0
 10
87.872206
 20
208.369970
 30
0.0
  0
SPLINE
  5
116
100
AcDbEntity
  8
0
 62
3
100
AcDbSpline
 70
8
 71
3
 72
8
 73
4
 74
0
 40
0
 40
0
 40
0
 40
0
 40
1
 40
1
 40
1
 40
1
 10
87.872206
 20
208.369970
 30
0.0
 10
90.028923
 20
204.374437
 30
0.0
 10
95.634469
 20
203.093501
 30
0.0
 10
98.861177
 20
202.576867
 30
0.0
  0
SPLINE
  5
117
100
AcDbEntity
  8
0
 62
3
100
AcDbSpline
 70
8
 71
3
 72
8
 73
4
 74
0
 40
0
 40
0
 40
0
 40
0
 40
1
 40
1
 40
1
 40
1
 10
98.861177
 20
202.576867
 30
0.0
 10
102.142739
 20
200.523571
 30
0.0
 10
104.526263
 20
197.503457
 30
0.0
 10
105.191789
 20
193.260125
 30
0.0
  0
SPLINE
  5
118
100
AcDbEntity
  8
0
 62
3
100
AcDbSpline
 70
8
 71
3
 72
8
 73
4
 74
0
 40
0
 40
0
 40
0
 40
0
 40
1
 40
1
 40
1
 40
1
 10
105.191789
 20
193.260125
 30
0.0
 10
116.113913
 20
190.033540
 30
0.0
 10
127.299150
 20
187.449166
 30
0.0
 10
138.057345
 20
183.822467
 30
0.0
  0
SPLINE
  5
119
100
AcDbEntity
  8
0
 62
3
100
AcDbSpline
 70
8
 71
3
 72
8
 73
4
 74
0
 40
0
 40
0
 40
0
 40
0
 40
1
 40
1
 40
1
 40
1
 10
138.057345
 20
183.822467
 30
0.0
 10
140.984639
 20
181.997677
 30
0.0
 10
143.842655
 20
180.690766
 30
0.0
 10
146.818522
 20
179.941959
 30
0.0
  0
SPLINE
  5
11a
100
AcDbEntity
  8
0
 62
3
100
AcDbSpline
 70
8
 71
3
 72
8
 73
4
 74
0
 40
0
 40
0
 40
0
 40
0
 40
1
 40
1
 40
1
 40
1
 10
146.818522
 20
179.941959
 30
0.0
 10
150.634254
 20
178.377717
 30
0.0
 10
155.118085
 20
180.552798
 30
0.0
 10
158.568954
 20
177.642636
 30
0.0
  0
SPLINE
  5
11b
100
AcDbEntity
  8
0
 62
3
100
AcDbSpline
 70
8
 71
3
 72
8
 73
4
 74
0
 40
0
 40
0
 40
0
 40
0
 40
1
 40
1
 40
1
 40
1
 10
158.568954
 20
177.642636
 30
0.0
 10
161.674497
 20
176.693271
 30
0.0
 10
167.340006
 20
177.642822
 30
0.0
 10
168.094629
 20
173.868294
 30
0.0
  0
SPLINE
  5
11c
100
AcDbEntity
  8
0
 62
3
100
AcDbSpline
 70
8
 71
3
 72
8
 73
4
 74
0
 40
0
 40
0
 40
0
 40
0
 40
1
 40
1
 40
1
 40
1
 10
168.094629
 20
173.868294
 30
0.0
 10
166.309274
 20
171.138071
 30
0.0
 10
167.772797
 20
169.304437
 30
0.0
 10
171.442930
 20
169.684584
 30
0.0
  0
SPLINE
  5
11d
100
AcDbEntity
  8
0
 62
3
100
AcDbSpline
 70
8
 71
3
 72
8
 73
4
 74
0
 40
0
 40
0
 40
0
 40
0
 40
1
 40
1
 40
1
 40
1
 10
171.442930
 20
169.684584
 30
0.0
 10
174.718006
 20
167.759922
 30
0.0
 10
177.074957
 20
165.377247
 30
0.0
 10
177.635439
 20
161.845978
 30
0.0
  0
SPLINE
  5
11e
100
AcDbEntity
  8
0
 62
3
100
AcDbSpline
 70
8
 71
3
 72
8
 73
4
 74
0
 40
0
 40
0
 40
0
 40
0
 40
1
 40
1
 40
1
 40
1
 10
177.635439
 20
161.845978
 30
0.0
 10
177.032412
 20
158.661377
 30
0.0
 10
177.177576
 20
156.813504
 30
0.0
 10
175.664597
 20
152.588959
 30
0.0
  0
SPLINE
  5
11f
100
AcDbEntity
  8
0
 62
3
100
AcDbSpline
 70
8
 71
3
 72
8
 73
4
 74
0
 40
0
 40
0
 40
0
 40
0
 40
1
 40
1
 40
1
 40
1
 10
175.664597
 20
152.588959
 30
0.0
 10
174.304658
 20
147.105393
 30
0.0
 10
184.880146
 20
155.277803
 30
0.0
 10
181.300927
 20
148.296387
 30
0.0
  0
SPLINE
  5
120
100
AcDbEntity
  8
0
 62
3
100
AcDbSpline
 70
8
 71
3
 72
8
 73
4
 74
0
 40
0
 40
0
 40
0
 40
0
 40
1
 40
1
 40
1
 40
1
 10
181.300927
 20
148.296387
 30
0.0
 10
177.691590
 20
144.349628
 30
0.0
 10
181.300955
 20
140.322128
 30
0.0
 10
184.145205
 20
138.832203
 30
0.0
  0
SPLINE
  5
121
100
AcDbEntity
  8
0
 62
3
100
AcDbSpline
 70
8
 71
3
 72
8
 73
4
 74
0
 40
0
 40
0
 40
0
 40
0
 40
1
 40
1
 40
1
 40
1
 10
184.145205
 20
138.832203
 30
0.0
 10
183.026530
 20
133.050822
 30
0.0
 10
176.118190
 20
133.147579
 30
0.0
 10
175.067358
 20
127.684586
 30
0.0
  0
SPLINE
  5
122
100
AcDbEntity
  8
0
 62
3
100
AcDbSpline
 70
8
 71
3
 72
8
 73
4
 74
0
 40
0
 40
0
 40
0
 40
0
 40
1
 40
1
 40
1
 40
1
 10
175.067358
 20
127.684586
 30
0.0
 10
171.623239
 20
122.220397
 30
0.0
 10
172.037959
 20
117.852929
 30
0.0
 10
170.946490
 20
114.246976
 30
0.0
  0
SPLINE
  5
123
100
AcDbEntity
  8
0
 62
3
100
AcDbSpline
 70
8
 71
3
 72
8
 73
4
 74
0
 40
0
 40
0
 40
0
 40
0
 40
1
 40
1
 40
1
 40
1
 10
170.946490
 20
114.246976
 30
0.0
 10
177.609796
 20
116.338768
 30
0.0
 10
179.755614
 20
123.258239
 30
0.0
 10
184.742444
 20
128.222093
 30
0.0
  0
SPLINE
  5
124
100
AcDbEntity
  8
0
 62
3
100
AcDbSpline
 70
8
 71
3
 72
8
 73
4
 74
0
 40
0
 40
0
 40
0
 40
0
 40
1
 40
1
 40
1
 40
1
 10
184.742444
 20
128.222093
 30
0.0
 10
187.436560
 20
128.264333
 30
0.0
 10
188.922835
 20
131.397733
 30
0.0
 10
191.729984
 20
127.087359
 30
0.0
  0
SPLINE
  5
125
100
AcDbEntity
  8
0
 62
3
100
AcDbSpline
 70
8
 71
3
 72
8
 73
4
 74
0
 40
0
 40
0
 40
0
 40
0
 40
1
 40
1
 40
1
 40
1
 10
191.729984
 20
127.087359
 30
0.0
 10
193.333779
 20
119.897231
 30
0.0
 10
184.466413
 20
111.070376
 30
0.0
 10
186.661030
 20
102.757819
 30
0.0
  0
SPLINE
  5
126
100
AcDbEntity
  8
0
 62
3
100
AcDbSpline
 70
8
 71
3
 72
8
 73
4
 74
0
 40
0
 40
0
 40
0
 40
0
 40
1
 40
1
 40
1
 40
1
 10
186.661030
 20
102.757819
 30
0.0
 10
186.781319
 20
96.084489
 30
0.0
 10
178.846192
 20
90.650828
 30
0.0
 10
180.860449
 20
82.474497
 30
0.0
  0
SPLINE
  5
127
100
AcDbEntity
  8
0
 62
3
100
AcDbSpline
 70
8
 71
3
 72
8
 73
4
 74
0
 40
0
 40
0
 40
0
 40
0
 40
1
 40
1
 40
1
 40
1
 10
180.860449
 20
82.474497
 30
0.0
 10
183.110578
 20
73.222801
 30
0.0
 10
173.517283
 20
64.386745
 30
0.0
 10
175.948269
 20
55.076700
 30
0.0
  0
SPLINE
  5
128
100
AcDbEntity
  8
0
 62
3
100
AcDbSpline
 70
8
 71
3
 72
8
 73
4
 74
0
 40
0
 40
0
 40
0
 40
0
 40
1
 40
1
 40
1
 40
1
 10
175.948269
 20
55.076700
 30
0.0
 10
176.355121
 20
48.731825
 30
0.0
 10
176.839476
 20
42.909927
 30
0.0
 10
179.761188
 20
37.241074
 30
0.0
  0
SPLINE
  5
129
100
AcDbEntity
  8
0
 62
3
100
AcDbSpline
 70
8
 71
3
 72
8
 73
4
 74
0
 40
0
 40
0
 40
0
 40
0
 40
1
 40
1
 40
1
 40
1
 10
179.761188
 20
37.241074
 30
0.0
 10
177.611583
 20
31.289998
 30
0.0
 10
182.443597
 20
20.767497
 30
0.0
 10
171.680889
 20
24.273668
 30
0.0
  0
SPLINE
  5
12a
100
AcDbEntity
  8
0
 62
3
100
AcDbSpline
 70
8
 71
3
 72
8
 73
4
 74
0
 40
0
 40
0
 40
0
 40
0
 40
1
 40
1
 40
1
 40
1
 10
171.680889
 20
24.273668
 30
0.0
 10
143.321667
 20
24.227180
 30
0.0
 10
114.971071
 20
25.032137
 30
0.0
 10
86.618010
 20
25.499026
 30
0.0
  0
LINE
  5
12b
100
AcDbEntity
  8
0
 62
3
100
AcDbLine
 10
86.618010
 20
25.499026
 30
0.0
 11
86.618010
 21
25.499026
 31
0.0
  0
SPLINE
  5
12c
100
AcDbEntity
  8
0
 62
3
100
AcDbSpline
 70
8
 71
3
 72
8
 73
4
 74
0
 40
0
 40
0
 40
0
 40
0
 40
1
 40
1
 40
1
 40
1
 10
192.990868
 20
126.878021
 30
0.0
 10
187.476946
 20
129.942344
 30
0.0
 10
192.581900
 20
136.101142
 30
0.0
 10
194.379757
 20
140.018206
 30
0.0
  0
SPLINE
  5
12d
100
AcDbEntity
  8
0
 62
3
100
AcDbSpline
 70
8
 71
3
 72
8
 73
4
 74
0
 40
0
 40
0
 40
0
 40
0
 40
1
 40
1
 40
1
 40
1
 10
194.379757
 20
140.018206
 30
0.0
 10
195.617019
 20
144.349069
 30
0.0
 10
197.733446
 20
141.148331
 30
0.0
 10
199.712413
 20
146.814063
 30
0.0
  0
SPLINE
  5
12e
100
AcDbEntity
  8
0
 62
3
100
AcDbSpline
 70
8
 71
3
 72
8
 73
4
 74
0
 40
0
 40
0
 40
0
 40
0
 40
1
 40
1
 40
1
 40
1
 10
199.712413
 20
146.814063
 30
0.0
 10
202.584600
 20
151.897893
 30
0.0
 10
204.019892
 20
142.999166
 30
0.0
 10
201.267063
 20
145.442316
 30
0.0
  0
SPLINE
  5
12f
100
AcDbEntity
  8
0
 62
3
100
AcDbSpline
 70
8
 71
3
 72
8
 73
4
 74
0
 40
0
 40
0
 40
0
 40
0
 40
1
 40
1
 40
1
 40
1
 10
201.267063
 20
145.442316
 30
0.0
 10
201.256367
 20
139.890655
 30
0.0
 10
201.065878
 20
140.430685
 30
0.0
 10
197.252553
 20
135.473581
 30
0.0
  0
SPLINE
  5
130
100
AcDbEntity
  8
0
 62
3
100
AcDbSpline
 70
8
 71
3
 72
8
 73
4
 74
0
 40
0
 40
0
 40
0
 40
0
 40
1
 40
1
 40
1
 40
1
 10
197.252553
 20
135.473581
 30
0.0
 10
197.714695
 20
130.775072
 30
0.0
 10
195.087864
 20
129.511137
 30
0.0
 10
192.990868
 20
126.878021
 30
0.0
  0
LINE
  5
131
100
AcDbEntity
  8
0
 62
3
100
AcDbLine
 10
192.990868
 20
126.878021
 30
0.0
 11
192.990868
 21
126.878021
 31
0.0
  0
SPLINE
  5
132
100
AcDbEntity
  8
0
 62
3
100
AcDbSpline
 70
8
 71
3
 72
8
 73
4
 74
0
 40
0
 40
0
 40
0
 40
0
 40
1
 40
1
 40
1
 40
1
 10
191.664847
 20
144.436369
 30
0.0
 10
188.839444
 20
142.448071
 30
0.0
 10
194.252875
 20
141.195733
 30
0.0
 10
191.664847
 20
144.436369
 30
0.0
  0
LINE
  5
133
100
AcDbEntity
  8
0
 62
3
100
AcDbLine
 10
191.664847
 20
144.436369
 30
0.0
 11
191.664847
 21
144.436369
 31
0.0
  0
SPLINE
  5
134
100
AcDbEntity
  8
0
 62
3
100
AcDbSpline
 70
8
 71
3
 72
8
 73
4
 74
0
 40
0
 40
0
 40
0
 40
0
 40
1
 40
1
 40
1
 40
1
 10
203.736197
 20
151.478000
 30
0.0
 10
202.070267
 20
155.878248
 30
0.0
 10
209.046829
 20
152.563810
 30
0.0
 10
206.045319
 20
151.059332
 30
0.0
  0
SPLINE
  5
135
100
AcDbEntity
  8
0
 62
3
100
AcDbSpline
 70
8
 71
3
 72
8
 73
4
 74
0
 40
0
 40
0
 40
0
 40
0
 40
1
 40
1
 40
1
 40
1
 10
206.045319
 20
151.059332
 30
0.0
 10
207.395617
 20
149.151162
 30
0.0
 10
202.644203
 20
151.210453
 30
0.0
 10
203.736197
 20
151.478000
 30
0.0
  0
LINE
  5
136
100
AcDbEntity
  8
0
 62
3
100
AcDbLine
 10
203.736197
 20
151.478000
 30
0.0
 11
203.736197
 21
151.478000
 31
0.0
  0
SPLINE
  5
137
100
AcDbEntity
  8
0
 62
3
100
AcDbSpline
 70
8
 71
3
 72
8
 73
4
 74
0
 40
0
 40
0
 40
0
 40
0
 40
1
 40
1
 40
1
 40
1
 10
208.080077
 20
153.992868
 30
0.0
 10
205.293682
 20
154.376724
 30
0.0
 10
209.569804
 20
151.530451
 30
0.0
 10
208.080077
 20
153.992868
 30
0.0
  0
LINE
  5
138
100
AcDbEntity
  8
0
 62
3
100
AcDbLine
 10
208.080077
 20
153.992868
 30
0.0
 11
208.080077
 21
153.992868
 31
0.0
  0
ENDSEC
  0
SECTION
  2
OBJECTS
  0
DICTIONARY
  5
C
330
0
100
AcDbDictionary
  3
ACAD_GROUP
350
D
  3
ACAD_MLINESTYLE
350
17
  0
DICTIONARY
  5
D
330
C
100
AcDbDictionary
  0
DICTIONARY
  5
1A
330
C
100
AcDbDictionary
  0
DICTIONARY
  5
17
330
C
100
AcDbDictionary
  3
STANDARD
350
18
  0
DICTIONARY
  5
19
330
C
100
AcDbDictionary
  0
ENDSEC
  0
EOF
