<?xml version="1.0" encoding="UTF-8" standalone="no"?>
<!-- Created with Inkscape (http://www.inkscape.org/) -->
<svg
   xmlns:svg="http://www.w3.org/2000/svg"
   xmlns="http://www.w3.org/2000/svg"
   xmlns:xlink="http://www.w3.org/1999/xlink"
   version="1.0"
   width="780"
   height="900"
   id="svg2">
  <defs
     id="defs4">
    <linearGradient
       id="linearGradient9119">
      <stop
         style="stop-color:#07b114;stop-opacity:1"
         offset="0"
         id="stop9121" />
      <stop
         style="stop-color:#20b718;stop-opacity:1"
         offset="1"
         id="stop9123" />
    </linearGradient>
    <linearGradient
       x1="572.86169"
       y1="738.72839"
       x2="284.63126"
       y2="392.06387"
       id="linearGradient9125"
       xlink:href="#linearGradient9119"
       gradientUnits="userSpaceOnUse" />
    <linearGradient
       x1="572.86169"
       y1="738.72839"
       x2="284.63126"
       y2="392.06387"
       id="linearGradient9127"
       xlink:href="#linearGradient9119"
       gradientUnits="userSpaceOnUse" />
    <linearGradient
       x1="572.86169"
       y1="738.72839"
       x2="284.63126"
       y2="392.06387"
       id="linearGradient9129"
       xlink:href="#linearGradient9119"
       gradientUnits="userSpaceOnUse" />
    <linearGradient
       x1="572.86169"
       y1="738.72839"
       x2="284.63126"
       y2="392.06387"
       id="linearGradient9131"
       xlink:href="#linearGradient9119"
       gradientUnits="userSpaceOnUse" />
    <linearGradient
       x1="572.86169"
       y1="738.72839"
       x2="284.63126"
       y2="392.06387"
       id="linearGradient9133"
       xlink:href="#linearGradient9119"
       gradientUnits="userSpaceOnUse" />
    <linearGradient
       x1="572.86169"
       y1="738.72839"
       x2="284.63126"
       y2="392.06387"
       id="linearGradient9135"
       xlink:href="#linearGradient9119"
       gradientUnits="userSpaceOnUse" />
    <linearGradient
       x1="572.86169"
       y1="738.72839"
       x2="284.63126"
       y2="392.06387"
       id="linearGradient9137"
       xlink:href="#linearGradient9119"
       gradientUnits="userSpaceOnUse" />
    <linearGradient
       x1="572.86169"
       y1="738.72839"
       x2="284.63126"
       y2="392.06387"
       id="linearGradient9139"
       xlink:href="#linearGradient9119"
       gradientUnits="userSpaceOnUse" />
    <linearGradient
       x1="572.86169"
       y1="738.72839"
       x2="284.63126"
       y2="392.06387"
       id="linearGradient9141"
       xlink:href="#linearGradient9119"
       gradientUnits="userSpaceOnUse" />
    <linearGradient
       x1="572.86169"
       y1="738.72839"
       x2="284.63126"
       y2="392.06387"
       id="linearGradient9143"
       xlink:href="#linearGradient9119"
       gradientUnits="userSpaceOnUse" />
    <linearGradient
       x1="572.86169"
       y1="738.72839"
       x2="284.63126"
       y2="392.06387"
       id="linearGradient9145"
       xlink:href="#linearGradient9119"
       gradientUnits="userSpaceOnUse" />
    <linearGradient
       x1="572.86169"
       y1="738.72839"
       x2="284.63126"
       y2="392.06387"
       id="linearGradient9147"
       xlink:href="#linearGradient9119"
       gradientUnits="userSpaceOnUse" />
    <linearGradient
       x1="572.86169"
       y1="738.72839"
       x2="284.63126"
       y2="392.06387"
       id="linearGradient9149"
       xlink:href="#linearGradient9119"
       gradientUnits="userSpaceOnUse" />
    <linearGradient
       x1="572.86169"
       y1="738.72839"
       x2="284.63126"
       y2="392.06387"
       id="linearGradient9151"
       xlink:href="#linearGradient9119"
       gradientUnits="userSpaceOnUse" />
    <linearGradient
       x1="572.86169"
       y1="738.72839"
       x2="284.63126"
       y2="392.06387"
       id="linearGradient9153"
       xlink:href="#linearGradient9119"
       gradientUnits="userSpaceOnUse" />
    <linearGradient
       x1="572.86169"
       y1="738.72839"
       x2="284.63126"
       y2="392.06387"
       id="linearGradient9155"
       xlink:href="#linearGradient9119"
       gradientUnits="userSpaceOnUse" />
    <linearGradient
       x1="572.86169"
       y1="738.72839"
       x2="284.63126"
       y2="392.06387"
       id="linearGradient9157"
       xlink:href="#linearGradient9119"
       gradientUnits="userSpaceOnUse" />
    <linearGradient
       x1="572.86169"
       y1="738.72839"
       x2="284.63126"
       y2="392.06387"
       id="linearGradient9159"
       xlink:href="#linearGradient9119"
       gradientUnits="userSpaceOnUse" />
    <linearGradient
       x1="517.65814"
       y1="718.28265"
       x2="280.54211"
       y2="328.68198"
       id="linearGradient9161"
       xlink:href="#linearGradient9119"
       gradientUnits="userSpaceOnUse" />
  </defs>
  <g
     id="layer1">
    <path
       d="M 306.91421,809.64912 C 306.91421,809.64912 307.76071,804.99358 306.70261,803.72388 C 305.64451,802.45417 303.31681,796.95217 303.74001,795.04762 C 304.16321,793.14309 297.60311,788.48752 297.60311,788.48752 C 297.60311,788.48752 284.90621,782.98552 278.98091,782.77391 C 273.05571,782.56227 262.68651,776.21381 261.84001,774.30926 C 260.99361,772.40473 254.85671,762.88201 256.12641,757.80322 C 257.39611,752.72444 252.31731,749.12696 252.31731,749.12696 C 252.31731,749.12696 247.87341,726.90729 248.29661,723.73306 C 248.71991,720.55883 247.02691,714.63359 247.02691,714.63359 C 247.02691,714.63359 248.93151,704.89923 250.62441,702.78309 C 252.31731,700.66693 256.54961,696.223 256.54961,696.223 L 259.51231,689.45129 C 259.51231,689.45129 258.87741,678.02402 252.74061,677.17756 C 246.60371,676.3311 244.69921,662.78769 244.69921,662.78769 L 245.12241,653.68818 L 242.15981,649.24425 L 242.37141,638.24022 C 242.37141,638.24022 239.62041,624.27359 241.10171,622.79228 C 242.58301,621.31097 241.94811,617.7135 241.94811,617.7135 C 241.94811,617.7135 238.03421,598.54584 237.39941,597.48777 C 236.76451,596.4297 238.4536,592.21671 238.4536,592.21671 C 238.4588,588.05754 235.09401,589.19446 232.63701,589.14534 C 232.63701,589.14534 216.34261,572.6393 214.86131,572.21607 C 213.38001,571.79284 201.95271,569.04183 201.95271,569.04183 L 192.43004,559.3075 C 192.43004,559.3075 192.0068,552.53579 186.71641,554.86356 C 181.42601,557.19134 177.61692,547.03378 177.61692,547.03378 C 177.61692,547.03378 170.84521,536.45298 171.05683,535.3949 C 171.26844,534.33682 168.30582,529.25804 168.30582,529.25804 L 168.51744,524.17926 L 164.70835,521.85148 C 164.70835,521.85148 164.49674,515.29139 159.84119,517.19593 C 155.18564,519.10047 149.04877,510.63584 149.04877,510.63584 L 136.98667,506.40352 C 136.98667,506.40352 126.8291,496.8808 126.19426,492.01364 C 125.55941,487.14647 110.74629,485.03031 110.74629,485.03031 L 101.22358,483.76062 C 101.22358,483.76062 100.58873,479.5283 97.202876,479.5283 C 93.817016,479.5283 92.547326,474.02629 92.547326,474.02629 L 87.891776,470.85205 L 78.792286,459.42479 L 73.925126,458.57832 C 73.925126,458.57832 69.057956,455.6157 72.655426,450.11369 C 76.252896,444.61168 76.252896,441.64905 76.252896,441.64905 L 78.792286,440.37936 C 78.792286,440.37936 76.041276,437.41674 76.464516,434.66573 C 76.887746,431.91472 80.485216,425.98947 80.485216,425.98947 L 79.003906,422.39201 L 77.099366,423.23847 L 77.734206,413.0809 C 77.734206,413.0809 73.925126,408.42535 74.348356,405.88596 C 74.771586,403.34657 79.638756,400.80718 79.638756,399.32587 C 79.638756,397.84456 79.638756,392.13093 79.638756,392.13093 C 79.638756,392.13093 76.464516,387.05215 77.734206,384.08953 C 79.003906,381.1269 77.734206,370.96934 77.734206,370.96934 L 87.045306,363.56278 C 87.045306,363.56278 82.812996,360.60016 86.622076,357.63754 C 90.431166,354.67491 94.451866,352.13552 93.817016,350.01937 C 93.182166,347.90321 91.066006,345.57543 90.431166,344.72897 C 89.796316,343.8825 86.833696,342.82442 87.256926,340.07342 C 87.680156,337.32241 85.563996,333.09009 85.563996,333.09009 L 81.543296,329.28101 C 81.543296,329.28101 80.061986,326.10677 77.310976,328.01131 C 74.559966,329.91585 70.539266,324.62546 70.539266,324.62546 C 70.539266,324.62546 67.576646,316.58405 68.846336,313.40981 C 70.116036,310.23557 71.385736,308.96588 70.962496,308.11941 C 70.539266,307.27295 69.481186,304.94518 70.750886,303.25225 C 72.020576,301.55932 77.310976,299.01993 77.310976,299.01993 C 77.310976,299.01993 80.696836,291.40176 82.389756,292.03661 C 84.082686,292.67145 80.696836,287.38106 80.696836,287.38106 C 80.696836,287.38106 84.717536,285.05328 85.140766,283.78359 C 85.563996,282.51389 85.987226,278.7048 87.680156,278.7048 C 89.373086,278.7048 93.817016,273.62602 95.509946,274.26087 C 97.202876,274.89572 96.144796,271.08663 96.144796,271.08663 L 106.72559,267.06593 C 106.72559,267.06593 106.93721,263.46846 110.11145,264.31492 C 113.28568,265.16139 115.40185,263.04523 115.40185,263.04523 C 115.40185,263.04523 120.0574,256.48513 122.17355,256.69675 C 124.28971,256.90836 126.19426,258.38968 126.19426,258.38968 L 131.06142,257.96645 C 131.06142,257.96645 128.52203,251.19473 131.48465,250.55989 C 134.44728,249.92504 133.60081,249.07858 133.60081,249.07858 L 137.19828,159.35343 L 139.31444,158.29535 L 140.79575,161.46959 L 148.62554,162.31605 C 148.62554,162.31605 149.89524,159.35343 151.79978,159.35343 C 153.70432,159.35343 157.09018,155.96758 156.0321,154.69788 C 154.97402,153.42819 161.3225,146.65648 162.59219,148.13779 C 163.86189,149.6191 174.44268,160.1999 176.13561,160.1999 C 177.82854,160.1999 182.06086,157.6605 183.33055,158.08374 C 184.60025,158.50697 188.62095,156.17919 190.94872,156.81404 C 193.2765,157.44889 198.14366,153.6398 200.25981,154.48627 C 202.37601,155.33273 207.24311,151.31203 210.20581,151.73526 C 213.16841,152.15849 213.38001,148.98425 213.38001,148.98425 C 213.38001,148.98425 214.86131,148.56102 219.51691,148.77264 C 224.17241,148.98425 229.67441,145.17517 231.79061,145.81001 C 233.90671,146.44486 234.96481,142.63578 234.96481,142.63578 L 236.65771,144.96355 L 239.62041,144.54032 C 239.62041,144.54032 241.10171,140.09638 244.06431,139.88477 C 247.02691,139.67315 250.20121,137.55699 251.89411,137.55699 C 253.58701,137.55699 256.97291,129.93882 258.24261,130.78529 C 259.51231,131.63175 258.87741,135.0176 258.87741,135.0176 C 258.87741,135.0176 261.62841,133.95952 263.74461,133.95952 C 265.86071,133.95952 270.51631,134.59437 270.51631,134.59437 L 269.66981,129.7272 C 269.66981,129.7272 271.36281,127.82266 272.42081,128.88074 C 273.47891,129.93882 275.38351,129.7272 275.38351,129.7272 L 276.65321,125.91812 C 276.65321,125.91812 282.57841,124.64842 282.79001,122.53226 C 283.00161,120.41611 285.11781,121.89742 285.11781,121.89742 L 286.36101,123.63994 C 286.36101,123.63994 285.65341,120.50208 287.44561,121.05095 C 289.50901,121.68292 293.37081,117.6651 293.37081,117.6651 L 297.17991,116.3954 C 297.17991,116.3954 296.54511,120.62772 298.44961,120.83934 C 300.35411,121.05095 302.47031,121.47418 302.47031,121.47418 C 302.47031,121.47418 304.16321,123.80196 303.95161,125.49489 C 303.74001,127.18781 306.27941,127.82266 306.27941,127.82266 C 306.27941,127.82266 305.00971,128.24589 305.00971,129.7272 C 305.00971,131.20852 303.74001,133.74791 303.52841,135.86407 C 303.31681,137.98023 300.35411,139.0383 299.29611,139.0383 C 298.23801,139.0383 301.41221,141.36608 299.93091,143.48224 C 298.44961,145.5984 295.06371,145.81001 295.06371,146.86809 C 295.06371,147.92617 294.21731,149.19587 292.73601,150.25395 C 291.25471,151.31203 296.75671,158.50697 294.85211,160.1999 C 292.94761,161.89282 288.71531,164.43221 288.92691,165.49029 C 289.13851,166.54837 287.23401,172.05039 286.17591,171.83877 C 285.11781,171.62715 284.90621,176.70594 284.90621,176.70594 C 284.90621,176.70594 289.35011,176.2827 290.83141,175.22463 C 292.31271,174.16654 295.27541,170.78069 298.87281,170.99231 C 302.47031,171.20392 305.64451,165.70191 307.54911,166.54837 C 309.45361,167.39484 311.99301,166.9716 311.99301,166.9716 L 307.33751,161.46959 C 307.33751,161.46959 309.45361,159.14181 311.35821,161.68121 C 313.26271,164.2206 314.74401,167.60645 316.01371,168.87615 C 317.28341,170.14584 316.86021,170.78069 318.76471,172.262 C 320.66931,173.74331 327.44101,176.2827 327.44101,176.2827 L 332.73141,176.07109 L 338.44501,179.45694 L 342.25411,180.09179 C 342.25411,180.09179 342.04251,184.53572 345.00511,183.90088 C 347.96771,183.26603 348.39091,181.78472 350.29551,182.20795 C 352.20001,182.63118 354.73941,186.8635 354.73941,186.8635 C 354.73941,186.8635 357.49041,185.80542 357.49041,188.34481 C 357.49041,190.8842 362.99241,188.55643 363.62731,191.73066 C 364.26211,194.9049 367.01311,196.1746 365.95511,197.86753 C 364.89701,199.56045 369.76421,205.27408 369.76421,205.27408 C 369.76421,205.27408 373.15001,208.87155 372.51521,210.35287 C 371.88031,211.83418 372.72681,215.22003 372.72681,215.22003 L 485.72971,246.7508 L 509.43071,259.87099 L 512.60491,258.81291 L 515.35591,261.3523 L 518.74181,261.56391 L 520.22311,262.41038 L 521.28111,263.68007 L 526.35991,263.25684 C 526.35991,263.25684 533.13161,266.43108 535.03621,266.43108 C 536.94071,266.43108 541.80791,264.73815 542.01951,263.89169 C 542.23111,263.04523 548.15641,263.89169 548.15641,263.89169 C 548.15641,263.89169 553.02351,264.73815 552.60031,266.43108 C 552.17711,268.12401 557.04421,266.21946 558.31391,268.75885 C 559.58361,271.29825 564.45081,270.45178 564.45081,270.45178 C 564.45081,270.45178 566.99021,267.91239 568.68311,269.60532 C 570.37601,271.29825 578.20581,274.04925 578.20581,274.04925 C 578.20581,274.04925 580.74521,273.83764 582.01491,275.74218 C 583.28461,277.64672 585.18911,274.47249 585.18911,274.47249 C 585.18911,274.47249 589.84471,273.62602 590.69121,275.31895 C 591.53761,277.01188 594.28861,275.74218 594.50021,278.06996 C 594.71191,280.39773 594.50021,282.30227 594.50021,282.30227 L 597.67451,286.95782 C 597.67451,286.95782 594.71191,290.76691 593.01891,290.76691 C 591.32601,290.76691 590.26791,295.84569 592.59571,296.05731 C 594.92351,296.26892 599.15581,299.44316 599.15581,299.44316 C 599.15581,299.44316 602.96491,298.5967 604.02301,297.327 C 605.08101,296.05731 608.25531,298.17347 607.62041,300.28963 C 606.98561,302.40579 611.64111,306.00326 613.96891,304.31033 C 616.29671,302.6174 620.10581,303.46386 620.31741,305.15679 C 620.52901,306.84972 619.04771,306.6381 621.16381,308.75426 C 623.28001,310.87042 628.78201,317.2189 628.78201,317.2189 C 628.78201,317.2189 627.51231,318.91183 626.03101,318.06536 C 624.54971,317.2189 625.81941,324.41384 625.81941,324.41384 L 629.41691,326.53 L 630.47501,333.09009 C 630.47501,333.09009 628.99361,335.8411 627.72391,334.35979 C 626.45421,332.87848 624.12651,334.14817 625.39621,336.89918 C 626.66591,339.65019 628.14721,340.49665 628.14721,340.49665 C 628.14721,340.49665 627.30071,343.8825 628.14721,345.57543 C 628.99361,347.26836 627.08911,350.86583 624.33811,352.34714 C 621.58711,353.82845 622.43361,359.33046 622.43361,359.33046 L 620.52901,362.08147 C 620.52901,362.08147 621.79871,365.04409 622.64521,366.5254 C 623.49161,368.00672 628.14721,363.56278 630.05171,365.67894 C 631.95631,367.7951 635.13051,367.37187 635.13051,367.37187 C 635.13051,367.37187 636.40021,366.73702 637.03511,365.04409 C 637.66991,363.35117 639.36281,363.56278 640.20931,363.7744 C 641.05571,363.98601 641.69061,360.81177 643.17191,362.71632 C 644.65321,364.62086 643.80681,364.40925 644.65321,365.46733 C 645.49971,366.5254 645.71131,370.12288 644.01841,371.60419 C 642.32551,373.0855 642.32551,376.04812 641.26741,377.31782 C 640.20931,378.58751 638.72801,378.16428 638.93961,381.33852 C 639.15121,384.51276 640.20931,383.66629 638.30471,385.14761 C 636.40021,386.62892 637.45831,390.22639 637.45831,390.22639 C 637.45831,390.22639 635.13051,390.22639 635.55371,392.13093 C 635.97701,394.03547 639.57441,395.94002 639.99771,397.84456 C 640.42091,399.7491 646.55771,405.46273 646.55771,405.46273 L 652.48301,405.0395 C 652.48301,405.0395 654.17591,407.36728 650.79011,409.90667 C 647.40421,412.44606 648.67391,422.81524 648.67391,422.81524 C 648.67391,422.81524 641.69061,427.04756 637.45831,426.83594 C 633.22591,426.62432 624.76131,432.54957 625.18461,434.2425 C 625.60781,435.93542 627.72391,439.10966 626.03101,440.37936 C 624.33811,441.64905 623.06841,445.45814 623.28001,446.72783 C 623.49161,447.99753 620.31741,447.5743 620.31741,447.5743 C 620.31741,447.5743 613.96891,462.38741 612.06441,462.81064 C 610.15981,463.23387 608.89011,478.2586 607.62041,478.47022 C 606.35071,478.68184 611.21791,483.33739 611.21791,483.33739 C 611.21791,483.33739 611.42951,487.35809 609.94821,485.87678 C 608.46691,484.39547 606.13911,484.8187 606.35071,486.08839 C 606.56231,487.35809 603.17651,485.66516 604.02301,488.20455 C 604.86941,490.74394 605.71591,495.18788 605.71591,495.18788 C 605.71591,495.18788 608.89011,493.28333 611.64111,494.55303 C 614.39211,495.82272 618.20121,489.89748 618.83611,485.87678 C 619.47091,481.85608 629.20531,478.04699 629.20531,478.04699 C 629.20531,478.04699 632.37951,479.10507 633.22591,478.68184 C 634.07241,478.2586 639.57441,466.1965 639.36281,463.65711 C 639.15121,461.11772 647.19261,455.6157 647.19261,453.49954 C 647.19261,451.38338 652.90621,444.61168 654.59921,445.66975 C 656.29211,446.72783 657.56181,443.97683 657.56181,443.97683 C 657.56181,443.97683 656.92691,446.72783 658.19661,447.15107 C 659.46631,447.5743 658.61991,446.3046 660.10121,444.18844 C 661.58251,442.07228 663.27541,441.43744 665.39161,442.91875 C 667.50771,444.40006 670.25871,437.41674 670.25871,437.41674 C 670.25871,437.41674 671.10521,439.32128 671.10521,442.2839 C 671.10521,445.24652 674.91431,447.78591 674.91431,447.78591 C 674.91431,447.78591 677.87691,448.20914 679.35821,449.69046 C 680.83951,451.17177 682.74411,450.11369 682.53251,452.65308 C 682.32091,455.19247 677.87691,473.60305 673.22141,479.31668 C 668.56581,485.03031 667.71941,496.24596 667.71941,496.24596 C 667.71941,496.24596 665.39161,500.26666 665.39161,503.65251 C 665.39161,507.03837 662.64061,511.90553 662.64061,514.86816 C 662.64061,517.83078 658.83151,525.44895 659.46631,528.62319 C 660.10121,531.79743 662.64061,540.47368 663.48701,541.74338 C 664.33351,543.01307 661.79411,552.11256 660.10121,553.38225 C 658.40821,554.65195 648.03911,560.78881 647.82751,565.23274 C 647.61581,569.67668 645.92291,573.69738 645.07641,574.75546 C 644.23001,575.81354 644.23001,578.56454 644.44161,580.25747 C 644.65321,581.9504 643.17191,583.43171 642.53711,585.12464 C 641.90221,586.81757 641.26741,587.24081 641.26741,590.20343 C 641.26741,593.16605 639.99771,605.01655 640.84411,607.76753 C 641.69061,610.51855 644.65321,613.69278 643.59511,616.23218 C 642.53711,618.77156 642.11381,628.50589 642.11381,628.50589 C 642.11381,628.50589 639.78601,632.52661 639.36281,634.85438 C 638.93961,637.18215 633.86081,642.68415 633.64921,643.95386 C 633.43761,645.22356 633.22591,663.2109 629.84011,667.23162 C 626.45421,671.25231 624.54971,673.79169 624.54971,677.81241 C 624.54971,681.8331 622.01031,688.3932 620.74061,689.02805 C 619.47091,689.6629 622.43361,703.84116 622.43361,703.84116 C 622.43361,703.84116 624.76131,705.11087 623.49161,708.07349 C 622.22191,711.03611 624.33811,718.44267 624.97291,719.50074 C 625.60781,720.55883 625.39621,724.57952 624.12651,725.00276 C 622.85681,725.42598 623.70331,732.40932 624.76131,732.62093 C 625.81941,732.83254 628.99361,736.64162 628.35881,737.91132 C 627.72391,739.18103 630.05171,741.93201 630.05171,741.93201 C 630.05171,741.93201 630.47501,749.76181 628.99361,750.60828 C 627.51231,751.45474 630.68661,758.86129 633.43761,761.82392 C 636.18861,764.78654 638.09311,767.32594 636.18861,770.07693 C 634.28401,772.82795 636.82341,774.30926 636.82341,774.30926 C 636.82341,774.30926 635.55371,783.19713 633.64921,784.46683 C 631.74461,785.73653 634.91891,813.66981 634.91891,813.66981 L 633.86081,813.88145 C 524.87861,814.64785 415.89641,811.44384 306.91421,809.64912 z "
       style="fill:url(#linearGradient9161);fill-opacity:1;fill-rule:evenodd;stroke:#072d00;stroke-width:3.47900009;stroke-linecap:butt;stroke-linejoin:miter;stroke-miterlimit:4;stroke-dasharray:none;stroke-opacity:1"
       id="path1996" />
    <path
       d="M 683.82591,450.43221 L 674.91491,442.49336 C 674.91491,442.49336 677.02121,436.33671 674.91491,434.55452 C 672.80871,432.77233 681.07161,418.83885 681.07161,418.83885 C 681.07161,418.83885 683.17781,411.22403 685.93211,410.41395 C 688.68641,409.60386 689.49651,397.93862 689.49651,397.93862 C 689.49651,397.93862 692.73681,393.72617 691.92681,392.75407 C 691.11671,391.78196 696.78731,394.53626 696.46321,395.99441 C 696.13921,397.45257 697.27331,398.42467 697.92141,397.7766 C 698.56941,397.12853 695.97721,392.26802 698.73151,390.97188 C 701.48581,389.67574 703.91601,387.73153 703.91601,387.73153 C 703.91601,387.73153 704.07811,381.25084 704.56411,380.44076 C 705.05021,379.63067 706.99441,380.44076 707.64241,379.79269 C 708.29051,379.14462 708.77651,371.20577 709.91071,372.17788 C 711.04481,373.14998 713.79911,375.90428 713.79911,375.90428 L 719.63171,374.93217 C 719.63171,374.93217 718.49761,378.65857 719.14561,380.27874 C 719.79371,381.89891 719.14561,384.49119 719.14561,384.49119 C 719.14561,384.49119 719.30771,388.3796 718.33561,388.05557 C 717.36351,387.73153 715.41931,383.84312 715.41931,383.84312 C 715.41931,383.84312 712.98901,379.79269 712.50291,380.60277 C 712.01691,381.41286 712.17891,383.6811 713.15101,384.65321 C 714.12311,385.62531 713.63701,395.02231 712.82701,395.02231 C 712.01691,395.02231 713.96111,398.74871 713.96111,398.74871 C 713.96111,398.74871 711.53081,394.86029 710.88281,395.34634 C 710.23471,395.8324 711.20681,400.53089 711.85491,401.34098 C 712.50291,402.15107 711.85491,407.98369 711.04481,406.84957 C 710.23471,405.71545 708.12851,403.93326 707.96651,404.90536 C 707.80441,405.87747 708.93861,409.76588 708.93861,409.76588 C 708.93861,409.76588 706.50831,411.22403 705.86021,409.9279 C 705.21221,408.63176 703.91601,414.30236 703.91601,414.30236 C 703.91601,414.30236 697.59731,419.3249 698.40741,422.72726 C 699.21751,426.12962 699.21751,430.01804 699.21751,430.01804 C 699.21751,430.01804 698.24541,431.31417 697.11131,432.61031 C 695.97721,433.90645 693.87101,434.55452 694.35701,435.85066 C 694.84311,437.14679 696.94931,439.41503 695.00511,440.38714 C 693.06091,441.35924 691.76471,439.90109 691.27871,442.33135 C 690.79261,444.76161 689.17241,445.73371 688.03831,444.76161 C 686.90421,443.7895 686.25611,444.43757 686.74221,445.73371 C 687.22821,447.02984 685.12201,451.56633 683.82591,450.43221 z "
       style="fill:url(#linearGradient9159);fill-opacity:1;fill-rule:evenodd;stroke:#072d00;stroke-width:3.47900009;stroke-linecap:butt;stroke-linejoin:miter;stroke-miterlimit:4;stroke-dasharray:none;stroke-opacity:1"
       id="path2886" />
    <path
       d="M 679.12741,388.21759 C 679.12741,388.21759 677.02121,390.48583 675.88701,390.48583 C 674.75291,390.48583 677.99331,395.8324 677.99331,395.8324 C 677.99331,395.8324 681.88171,396.31845 682.04371,394.86029 C 682.20571,393.40214 680.74761,394.05021 680.58551,392.26802 C 680.42351,390.48583 679.61341,388.54162 679.12741,388.21759 z "
       style="fill:url(#linearGradient9157);fill-opacity:1;fill-rule:evenodd;stroke:#072d00;stroke-width:3.47900009;stroke-linecap:butt;stroke-linejoin:miter;stroke-miterlimit:4;stroke-dasharray:none;stroke-opacity:1"
       id="path3773" />
    <path
       d="M 721.89991,363.26693 C 721.89991,363.26693 721.89991,360.51263 721.08981,359.70255 C 720.27981,358.89246 722.71001,358.2444 722.71001,358.2444 L 723.19611,353.70791 C 723.19611,353.70791 724.16821,357.75834 725.62631,357.27229 C 727.08451,356.78624 730.97291,355.32808 731.78301,357.92036 C 732.59311,360.51263 733.72721,360.1886 733.72721,360.1886 C 733.72721,360.1886 731.45901,360.99869 731.45901,362.45684 C 731.45901,363.915 732.26901,364.8871 732.26901,364.8871 C 732.26901,364.8871 729.51481,363.75298 729.83881,365.69719 C 730.16281,367.64139 731.29691,368.12745 731.29691,368.12745 C 731.29691,368.12745 727.73261,367.15534 726.76041,367.31736 C 725.78831,367.47938 724.97831,363.26693 724.00621,364.72508 C 723.03411,366.18324 721.89991,367.15534 721.89991,367.15534 C 721.89991,367.15534 720.76581,363.915 721.89991,363.26693 z "
       style="fill:url(#linearGradient9155);fill-opacity:1;fill-rule:evenodd;stroke:#072d00;stroke-width:3.47900009;stroke-linecap:butt;stroke-linejoin:miter;stroke-miterlimit:4;stroke-dasharray:none;stroke-opacity:1"
       id="path4662" />
    <path
       d="M 737.29161,354.35598 C 737.29161,354.35598 732.10701,353.54589 734.53731,356.30019 C 736.96751,359.05448 738.42571,357.43431 738.42571,357.43431 L 737.29161,354.35598 z "
       style="fill:url(#linearGradient9153);fill-opacity:1;fill-rule:evenodd;stroke:#072d00;stroke-width:3.47900009;stroke-linecap:butt;stroke-linejoin:miter;stroke-miterlimit:4;stroke-dasharray:none;stroke-opacity:1"
       id="path5549" />
    <path
       d="M 282.02311,115.21852 C 282.02311,115.21852 282.18511,112.46423 283.80531,112.62625 C 285.42551,112.78826 286.72161,110.03397 287.04561,111.16809 C 287.36971,112.30221 286.72161,114.73247 287.20771,115.38054 C 287.69371,116.02861 284.29131,114.40844 283.64331,115.21852 C 282.99521,116.02861 281.86111,115.21852 282.02311,115.21852 z "
       style="fill:url(#linearGradient9151);fill-opacity:1;fill-rule:evenodd;stroke:#072d00;stroke-width:3.47900009;stroke-linecap:butt;stroke-linejoin:miter;stroke-miterlimit:4;stroke-dasharray:none;stroke-opacity:1"
       id="path6436" />
    <path
       d="M 308.26991,116.02861 C 308.26991,116.02861 306.48771,119.91702 305.51561,119.91702 C 304.54351,119.91702 307.78391,122.83333 309.24201,123.4814 C 310.70021,124.12947 314.42661,124.12947 314.26451,122.34728 C 314.10251,120.56509 313.29241,118.45887 312.15831,118.7829 C 311.02421,119.10694 308.91801,115.54256 308.26991,116.02861 z "
       style="fill:url(#linearGradient9149);fill-opacity:1;fill-rule:evenodd;stroke:#072d00;stroke-width:3.47900009;stroke-linecap:butt;stroke-linejoin:miter;stroke-miterlimit:4;stroke-dasharray:none;stroke-opacity:1"
       id="path6438" />
    <path
       d="M 306.48771,110.35801 L 308.26991,109.22388 C 308.26991,109.22388 305.67761,103.22925 305.51561,105.01144 C 305.35361,106.79363 306.81171,110.52002 306.48771,110.35801 z "
       style="fill:url(#linearGradient9147);fill-opacity:1;fill-rule:evenodd;stroke:#072d00;stroke-width:3.47900009;stroke-linecap:butt;stroke-linejoin:miter;stroke-miterlimit:4;stroke-dasharray:none;stroke-opacity:1"
       id="path6440" />
    <path
       d="M 311.99631,111.49213 C 311.99631,110.35801 311.83431,107.92775 313.45451,108.89985 C 315.07461,109.87195 315.39871,110.52002 314.26451,111.49213 C 313.13041,112.46423 312.64441,113.76037 312.15831,112.95028 C 311.67231,112.14019 311.51021,111.16809 311.99631,111.49213 z "
       style="fill:url(#linearGradient9145);fill-opacity:1;fill-rule:evenodd;stroke:#072d00;stroke-width:3.47900009;stroke-linecap:butt;stroke-linejoin:miter;stroke-miterlimit:4;stroke-dasharray:none;stroke-opacity:1"
       id="path6442" />
    <path
       d="M 310.86221,131.58226 L 310.05211,129.15201 C 310.05211,129.15201 305.35361,133.52647 306.97381,135.14664 C 308.59391,136.76682 311.02421,131.9063 310.86221,131.58226 z "
       style="fill:url(#linearGradient9143);fill-opacity:1;fill-rule:evenodd;stroke:#072d00;stroke-width:3.47900009;stroke-linecap:butt;stroke-linejoin:miter;stroke-miterlimit:4;stroke-dasharray:none;stroke-opacity:1"
       id="path6444" />
    <path
       d="M 314.91261,135.47068 C 316.85681,135.14664 319.77311,133.85051 319.77311,132.55437 C 319.77311,131.25823 320.74521,130.93419 321.71731,131.74428 C 322.68941,132.55437 327.22591,133.36445 325.76781,134.33656 C 324.30961,135.30866 323.66151,136.28077 322.85151,135.6327 C 322.04141,134.98463 318.96301,138.06295 318.96301,138.06295 C 318.96301,138.06295 318.15301,138.54901 316.20871,138.38699 C 314.26451,138.22497 313.29241,136.28077 314.91261,135.47068 z "
       style="fill:url(#linearGradient9141);fill-opacity:1;fill-rule:evenodd;stroke:#072d00;stroke-width:3.47900009;stroke-linecap:butt;stroke-linejoin:miter;stroke-miterlimit:4;stroke-dasharray:none;stroke-opacity:1"
       id="path6446" />
    <path
       d="M 313.13041,138.38699 C 315.56071,141.62733 316.20871,141.46532 317.50491,141.46532 C 318.80101,141.46532 318.96301,143.08549 317.66691,144.21961 C 316.37081,145.35373 315.39871,145.67776 312.15831,145.83978 C 308.91801,146.0018 308.43191,146.32584 307.94591,147.94601 C 307.45981,149.56618 304.70551,152.48249 304.21951,150.37627 C 303.73341,148.27004 303.40941,146.32584 304.38151,145.35373 C 305.35361,144.38163 306.48771,143.73356 304.86751,143.73356 C 303.24741,143.73356 302.76131,142.59944 305.67761,141.95137 C 308.59391,141.3033 309.72811,140.00716 310.53811,139.03506 C 311.34821,138.06295 312.48241,137.5769 313.13041,138.38699 z "
       style="fill:url(#linearGradient9139);fill-opacity:1;fill-rule:evenodd;stroke:#072d00;stroke-width:3.47900009;stroke-linecap:butt;stroke-linejoin:miter;stroke-miterlimit:4;stroke-dasharray:none;stroke-opacity:1"
       id="path6448" />
    <path
       d="M 334.03061,130.28613 C 334.84071,131.42025 334.67871,132.39235 334.67871,132.39235 C 334.67871,132.39235 339.86331,128.34192 339.86331,127.2078 C 339.86331,126.07368 339.70121,124.93956 339.70121,124.93956 C 339.70121,124.93956 338.40511,126.07368 337.27101,127.36982 C 336.13691,128.66596 333.22061,130.28613 333.22061,130.28613 L 334.03061,130.28613 z "
       style="fill:url(#linearGradient9137);fill-opacity:1;fill-rule:evenodd;stroke:#072d00;stroke-width:3.47900009;stroke-linecap:butt;stroke-linejoin:miter;stroke-miterlimit:4;stroke-dasharray:none;stroke-opacity:1"
       id="path6450" />
    <path
       d="M 338.24311,110.84406 C 338.24311,110.84406 339.70121,105.49749 338.89121,104.03933 C 338.08111,102.58118 342.77961,98.044693 342.77961,98.044693 L 344.07571,98.530753 C 344.07571,98.530753 345.69591,96.748563 346.01991,97.882683 C 346.34401,99.016803 346.01991,100.79899 345.20981,101.60907 C 344.39971,102.41916 344.88581,105.01144 345.53391,105.98354 C 346.18191,106.95564 339.05321,111.65414 338.24311,110.84406 z "
       style="fill:url(#linearGradient9125);fill-opacity:1;fill-rule:evenodd;stroke:#072d00;stroke-width:3.47900009;stroke-linecap:butt;stroke-linejoin:miter;stroke-miterlimit:4;stroke-dasharray:none;stroke-opacity:1"
       id="path6452" />
    <path
       d="M 317.50491,123.15737 C 317.50491,123.15737 318.96301,118.29685 320.58321,118.62089 C 322.20341,118.94492 323.98561,116.51466 325.28171,117.16273 C 326.57791,117.8108 326.90191,115.54256 328.03601,116.35264 C 329.17011,117.16273 331.92441,114.73247 332.08641,116.02861 C 332.24851,117.32475 331.43841,120.56509 330.30421,121.05114 C 329.17011,121.5372 329.17011,125.74964 328.36001,123.96745 C 327.55001,122.18526 325.28171,122.02325 324.95771,123.31938 C 324.63361,124.61552 323.33751,123.15737 320.74521,123.64342 C 318.15301,124.12947 319.28711,126.2357 318.47701,125.74964 C 317.66691,125.26359 316.04671,123.4814 317.50491,123.15737 z "
       style="fill:url(#linearGradient9135);fill-opacity:1;fill-rule:evenodd;stroke:#072d00;stroke-width:3.47900009;stroke-linecap:butt;stroke-linejoin:miter;stroke-miterlimit:4;stroke-dasharray:none;stroke-opacity:1"
       id="path7339" />
    <path
       d="M 318.47701,113.1123 C 318.47701,113.1123 315.56071,114.89449 315.88471,116.19063 C 316.20871,117.48677 319.28711,116.51466 319.61111,115.86659 C 319.93511,115.21852 318.31501,112.62625 318.47701,113.1123 z "
       style="fill:url(#linearGradient9133);fill-opacity:1;fill-rule:evenodd;stroke:#072d00;stroke-width:3.47900009;stroke-linecap:butt;stroke-linejoin:miter;stroke-miterlimit:4;stroke-dasharray:none;stroke-opacity:1"
       id="path7341" />
    <path
       d="M 322.20341,109.06187 C 322.20341,109.06187 319.93511,109.22388 320.58321,110.52002 C 321.23131,111.81616 322.68941,112.14019 322.68941,112.14019 C 322.68941,112.14019 324.30961,110.03397 322.20341,109.06187 z "
       style="fill:url(#linearGradient9131);fill-opacity:1;fill-rule:evenodd;stroke:#072d00;stroke-width:3.47900009;stroke-linecap:butt;stroke-linejoin:miter;stroke-miterlimit:4;stroke-dasharray:none;stroke-opacity:1"
       id="path7343" />
    <path
       d="M 326.73991,105.6595 C 325.60571,106.79363 325.28171,105.82152 326.25381,107.60371 C 327.22591,109.3859 327.71201,109.54792 327.22591,111.00607 C 326.73991,112.46423 329.33211,112.62625 329.65621,111.65414 C 329.98021,110.68204 330.30421,109.3859 329.49421,108.25178 C 328.68411,107.11766 327.87401,104.6874 326.73991,105.6595 z "
       style="fill:url(#linearGradient9129);fill-opacity:1;fill-rule:evenodd;stroke:#072d00;stroke-width:3.47900009;stroke-linecap:butt;stroke-linejoin:miter;stroke-miterlimit:4;stroke-dasharray:none;stroke-opacity:1"
       id="path7345" />
    <path
       d="M 315.39871,102.09512 C 313.29241,104.36337 311.51021,106.30757 313.13041,106.95564 C 314.75061,107.60371 316.04671,106.30757 316.37081,105.17345 C 316.69481,104.03933 315.88471,102.25714 315.39871,102.09512 z "
       style="fill:url(#linearGradient9127);fill-opacity:1;fill-rule:evenodd;stroke:#072d00;stroke-width:3.47900009;stroke-linecap:butt;stroke-linejoin:miter;stroke-miterlimit:4;stroke-dasharray:none;stroke-opacity:1"
       id="path7347" />
  </g>
</svg>
