999
DXF created by Inkscape
  0
SECTION
  2
HEADER
  9
$ACADVER
  1
AC1014
  9
$HANDSEED
  5
FFFF
  9
$MEASUREMENT
 70
     1
  0
ENDSEC
  0
SECTION
  2
TABLES
  0
TABLE
  2
VPORT
  5
8
330
0
100
AcDbSymbolTable
 70
     4
  0
VPORT
  5
2E
330
8
100
AcDbSymbolTableRecord
100
AcDbViewportTableRecord
  2
*ACTIVE
 70
     0
 10
0.0
 20
0.0
 11
1.0
 21
1.0
 12
210.0
 22
148.5
 13
0.0
 23
0.0
 14
10.0
 24
10.0
 15
10.0
 25
10.0
 16
0.0
 26
0.0
 36
1.0
 17
0.0
 27
0.0
 37
0.0
 40
341.0
 41
1.24
 42
50.0
 43
0.0
 44
0.0
 50
0.0
 51
0.0
 71
     0
 72
   100
 73
     1
 74
     3
 75
     0
 76
     0
 77
     0
 78
     0
  0
ENDTAB
  0
TABLE
  2
LTYPE
  5
5
330
0
100
AcDbSymbolTable
 70
     1
  0
LTYPE
  5
14
330
5
100
AcDbSymbolTableRecord
100
AcDbLinetypeTableRecord
  2
BYBLOCK
 70
     0
  3

 72
    65
 73
     0
 40
0.0
  0
LTYPE
  5
15
330
5
100
AcDbSymbolTableRecord
100
AcDbLinetypeTableRecord
  2
BYLAYER
 70
     0
  3

 72
    65
 73
     0
 40
0.0
  0
LTYPE
  5
16
330
5
100
AcDbSymbolTableRecord
100
AcDbLinetypeTableRecord
  2
CONTINUOUS
 70
     0
  3
Solid line
 72
    65
 73
     0
 40
0.0
  0
ENDTAB
  0
TABLE
  2
LAYER
  5
2
330
0
100
AcDbSymbolTable
 70
1
  0
LAYER
  5
10
330
2
100
AcDbSymbolTableRecord
100
AcDbLayerTableRecord
  2
0
 70
     0
 62
     7
  6
CONTINUOUS
  0
ENDTAB
  0
TABLE
  2
STYLE
  5
3
330
0
100
AcDbSymbolTable
 70
     1
  0
STYLE
  5
11
330
3
100
AcDbSymbolTableRecord
100
AcDbTextStyleTableRecord
  2
STANDARD
 70
     0
 40
0.0
 41
1.0
 50
0.0
 71
     0
 42
2.5
  3
txt
  4

  0
ENDTAB
  0
TABLE
  2
VIEW
  5
6
330
0
100
AcDbSymbolTable
 70
     0
  0
ENDTAB
  0
TABLE
  2
UCS
  5
7
330
0
100
AcDbSymbolTable
 70
     0
  0
ENDTAB
  0
TABLE
  2
APPID
  5
9
330
0
100
AcDbSymbolTable
 70
     2
  0
APPID
  5
12
330
9
100
AcDbSymbolTableRecord
100
AcDbRegAppTableRecord
  2
ACAD
 70
     0
  0
ENDTAB
  0
TABLE
  2
DIMSTYLE
  5
A
330
0
100
AcDbSymbolTable
 70
     1
  0
DIMSTYLE
105
27
330
A
100
AcDbSymbolTableRecord
100
AcDbDimStyleTableRecord
  2
ISO-25
 70
     0
  3

  4

  5

  6

  7

 40
1.0
 41
2.5
 42
0.625
 43
3.75
 44
1.25
 45
0.0
 46
0.0
 47
0.0
 48
0.0
140
2.5
141
2.5
142
0.0
143
0.03937007874016
144
1.0
145
0.0
146
1.0
147
0.625
 71
     0
 72
     0
 73
     0
 74
     0
 75
     0
 76
     0
 77
     1
 78
     8
170
     0
171
     3
172
     1
173
     0
174
     0
175
     0
176
     0
177
     0
178
     0
270
     2
271
     2
272
     2
273
     2
274
     3
340
11
275
     0
280
     0
281
     0
282
     0
283
     0
284
     8
285
     0
286
     0
287
     3
288
     0
  0
ENDTAB
  0
TABLE
  2
BLOCK_RECORD
  5
1
330
0
100
AcDbSymbolTable
 70
     1
  0
BLOCK_RECORD
  5
1F
330
1
100
AcDbSymbolTableRecord
100
AcDbBlockTableRecord
  2
*MODEL_SPACE
  0
BLOCK_RECORD
  5
1B
330
1
100
AcDbSymbolTableRecord
100
AcDbBlockTableRecord
  2
*PAPER_SPACE
  0
ENDTAB
  0
ENDSEC
  0
SECTION
  2
BLOCKS
  0
BLOCK
  5
20
330
1F
100
AcDbEntity
  8
0
100
AcDbBlockBegin
  2
*MODEL_SPACE
 70
     0
 10
0.0
 20
0.0
 30
0.0
  3
*MODEL_SPACE
  1

  0
ENDBLK
  5
21
330
1F
100
AcDbEntity
  8
0
100
AcDbBlockEnd
  0
BLOCK
  5
1C
330
1B
100
AcDbEntity
 67
     1
  8
0
100
AcDbBlockBegin
  2
*PAPER_SPACE
  1

  0
ENDBLK
  5
1D
330
1B
100
AcDbEntity
 67
     1
  8
0
100
AcDbBlockEnd
  0
ENDSEC
  0
SECTION
  2
ENTITIES
  0
LWPOLYLINE
  5
100
100
AcDbEntity
  8
0
 62
3
100
AcDbPolyline
 90
162
 70
0
 10
86.618010
 20
25.499026
 30
0.0
 10
85.758067
 20
28.623855
 30
0.0
 10
83.773370
 20
30.841493
 30
0.0
 10
81.068376
 20
32.482363
 30
0.0
 10
78.047538
 20
33.876886
 30
0.0
 10
75.115311
 20
35.355487
 30
0.0
 10
72.676148
 20
37.248586
 30
0.0
 10
71.134505
 20
39.886608
 30
0.0
 10
70.894835
 20
43.599975
 30
0.0
 10
70.255482
 20
46.924316
 30
0.0
 10
70.342290
 20
50.176229
 30
0.0
 10
71.468986
 20
56.477669
 30
0.0
 10
71.896171
 20
59.534645
 30
0.0
 10
71.824112
 20
62.534092
 30
0.0
 10
70.946457
 20
65.479734
 30
0.0
 10
68.956857
 20
68.375296
 30
0.0
 10
68.454589
 20
71.294030
 30
0.0
 10
68.281669
 20
74.423936
 30
0.0
 10
68.084532
 20
80.839098
 30
0.0
 10
67.640643
 20
83.885273
 30
0.0
 10
66.686759
 20
86.664457
 30
0.0
 10
65.013046
 20
89.057108
 30
0.0
 10
62.409665
 20
90.943687
 30
0.0
 10
58.271565
 20
92.965238
 30
0.0
 10
54.812499
 20
95.631804
 30
0.0
 10
51.827358
 20
98.745431
 30
0.0
 10
49.111031
 20
102.108166
 30
0.0
 10
43.664375
 20
108.789146
 30
0.0
 10
40.523824
 20
111.711484
 30
0.0
 10
36.831645
 20
114.091116
 30
0.0
 10
30.329946
 20
117.263339
 30
0.0
 10
27.186385
 20
119.209159
 30
0.0
 10
24.437147
 20
121.439890
 30
0.0
 10
22.324329
 20
123.989361
 30
0.0
 10
21.090028
 20
126.891400
 30
0.0
 10
20.976341
 20
130.179838
 30
0.0
 10
22.225366
 20
133.888503
 30
0.0
 10
21.348648
 20
137.201546
 30
0.0
 10
21.327556
 20
140.467489
 30
0.0
 10
22.807954
 20
146.865583
 30
0.0
 10
24.577980
 20
153.097806
 30
0.0
 10
24.918921
 20
156.156410
 30
0.0
 10
24.549049
 20
159.179181
 30
0.0
 10
22.723205
 20
160.293711
 30
0.0
 10
21.397813
 20
161.558620
 30
0.0
 10
20.533429
 20
162.948235
 30
0.0
 10
20.090608
 20
164.436886
 30
0.0
 10
20.311872
 20
167.608607
 30
0.0
 10
21.746043
 20
170.868412
 30
0.0
 10
24.077560
 20
174.010928
 30
0.0
 10
26.990861
 20
176.830784
 30
0.0
 10
30.170384
 20
179.122609
 30
0.0
 10
33.300568
 20
180.681029
 30
0.0
 10
35.407551
 20
181.169874
 30
0.0
 10
36.777030
 20
182.293476
 30
0.0
 10
37.562982
 20
183.907402
 30
0.0
 10
37.919383
 20
185.867217
 30
0.0
 10
37.959438
 20
190.246781
 30
0.0
 10
38.129004
 20
194.276701
 30
0.0
 10
38.720403
 20
209.026921
 30
0.0
 10
40.212865
 20
208.561189
 30
0.0
 10
41.616502
 20
208.817319
 30
0.0
 10
44.278791
 20
210.351731
 30
0.0
 10
45.598184
 20
211.058296
 30
0.0
 10
46.950238
 20
211.343288
 30
0.0
 10
48.365323
 20
210.920849
 30
0.0
 10
49.873812
 20
209.505121
 30
0.0
 10
55.811566
 20
210.164017
 30
0.0
 10
61.626278
 20
211.801643
 30
0.0
 10
72.888486
 20
216.243654
 30
0.0
 10
76.909391
 20
217.802356
 30
0.0
 10
81.425717
 20
219.827740
 30
0.0
 10
83.378035
 20
220.269859
 30
0.0
 10
84.864256
 20
219.933955
 30
0.0
 10
85.687729
 20
218.521797
 30
0.0
 10
85.651803
 20
215.735154
 30
0.0
 10
83.368737
 20
211.947363
 30
0.0
 10
81.705068
 20
207.365919
 30
0.0
 10
81.544713
 20
205.664070
 30
0.0
 10
82.066253
 20
204.827597
 30
0.0
 10
83.445370
 20
205.211099
 30
0.0
 10
85.857746
 20
207.169171
 30
0.0
 10
87.337435
 20
207.552664
 30
0.0
 10
88.918516
 20
207.196381
 30
0.0
 10
92.350128
 20
205.138603
 30
0.0
 10
96.083129
 20
202.744083
 30
0.0
 10
98.040946
 20
201.966869
 30
0.0
 10
100.048066
 20
201.761062
 30
0.0
 10
103.209200
 20
197.610633
 30
0.0
 10
106.247238
 20
193.950926
 30
0.0
 10
107.996133
 20
192.482301
 30
0.0
 10
110.045499
 20
191.349007
 30
0.0
 10
112.505751
 20
190.621926
 30
0.0
 10
115.487303
 20
190.371942
 30
0.0
 10
131.413116
 20
185.852071
 30
0.0
 10
146.818522
 20
179.941959
 30
0.0
 10
153.074918
 20
178.910081
 30
0.0
 10
160.171287
 20
178.041522
 30
0.0
 10
163.318760
 20
177.185338
 30
0.0
 10
165.817385
 20
175.790204
 30
0.0
 10
167.380882
 20
173.662862
 30
0.0
 10
167.722971
 20
170.610050
 30
0.0
 10
171.408835
 20
169.851215
 30
0.0
 10
174.009295
 20
168.190064
 30
0.0
 10
175.696785
 20
165.828600
 30
0.0
 10
176.643739
 20
162.968824
 30
0.0
 10
177.022591
 20
159.812737
 30
0.0
 10
177.005775
 20
156.562341
 30
0.0
 10
176.474876
 20
150.586626
 30
0.0
 10
179.696028
 20
151.402203
 30
0.0
 10
180.599973
 20
151.281985
 30
0.0
 10
181.128060
 20
150.867854
 30
0.0
 10
181.342337
 20
149.332130
 30
0.0
 10
180.910226
 20
147.143584
 30
0.0
 10
180.403091
 20
144.650766
 30
0.0
 10
180.392299
 20
142.202229
 30
0.0
 10
181.449215
 20
140.146524
 30
0.0
 10
182.556616
 20
139.374906
 30
0.0
 10
184.145205
 20
138.832203
 30
0.0
 10
179.596110
 20
133.463862
 30
0.0
 10
175.355696
 20
127.802561
 30
0.0
 10
173.596992
 20
124.756261
 30
0.0
 10
172.210357
 20
121.509774
 30
0.0
 10
171.294090
 20
118.020785
 30
0.0
 10
170.946490
 20
114.246976
 30
0.0
 10
173.796132
 20
115.450640
 30
0.0
 10
176.110285
 20
117.351099
 30
0.0
 10
179.863974
 20
122.239915
 30
0.0
 10
181.669435
 20
124.727030
 30
0.0
 10
183.671258
 20
126.908453
 30
0.0
 10
186.052403
 20
128.533564
 30
0.0
 10
188.995835
 20
129.351741
 30
0.0
 10
190.332788
 20
128.021280
 30
0.0
 10
191.196967
 20
126.607841
 30
0.0
 10
191.742766
 20
123.565249
 30
0.0
 10
191.104758
 20
120.290404
 30
0.0
 10
189.754469
 20
116.849747
 30
0.0
 10
186.803153
 20
109.736762
 30
0.0
 10
186.145179
 20
106.197315
 30
0.0
 10
186.661030
 20
102.757819
 30
0.0
 10
184.585169
 20
96.476474
 30
0.0
 10
182.064074
 20
90.338275
 30
0.0
 10
181.054390
 20
87.230439
 30
0.0
 10
180.434791
 20
84.047490
 30
0.0
 10
180.372405
 20
80.752463
 30
0.0
 10
181.034365
 20
77.308391
 30
0.0
 10
178.638595
 20
70.168380
 30
0.0
 10
176.597464
 20
62.978328
 30
0.0
 10
175.656972
 20
55.661170
 30
0.0
 10
175.832591
 20
51.930843
 30
0.0
 10
176.563119
 20
48.139838
 30
0.0
 10
177.964323
 20
42.430271
 30
0.0
 10
179.063567
 20
36.795297
 30
0.0
 10
179.371922
 20
31.114310
 30
0.0
 10
178.400462
 20
25.266706
 30
0.0
 10
175.770499
 20
24.346636
 30
0.0
 10
172.930701
 20
23.922250
 30
0.0
 10
166.829821
 20
24.028775
 30
0.0
 10
160.514261
 20
24.522780
 30
0.0
 10
154.400462
 20
24.340761
 30
0.0
 10
86.618010
 20
25.499026
 30
0.0
 10
86.618010
 20
25.499026
 30
0.0
  0
LWPOLYLINE
  5
101
100
AcDbEntity
  8
0
 62
3
100
AcDbPolyline
 90
15
 70
0
 10
192.990868
 20
126.878021
 30
0.0
 10
191.291068
 20
129.587298
 30
0.0
 10
190.973565
 20
132.575425
 30
0.0
 10
191.754352
 20
135.692580
 30
0.0
 10
193.349420
 20
138.788939
 30
0.0
 10
195.474761
 20
141.714678
 30
0.0
 10
197.846368
 20
144.319975
 30
0.0
 10
202.192348
 20
147.969949
 30
0.0
 10
201.416196
 20
143.312617
 30
0.0
 10
199.524982
 20
138.111431
 30
0.0
 10
196.868116
 20
132.799677
 30
0.0
 10
193.795009
 20
127.810641
 30
0.0
 10
192.990868
 20
126.878021
 30
0.0
 10
192.990868
 20
126.878021
 30
0.0
 10
192.990868
 20
126.878021
 30
0.0
  0
ENDSEC
  0
SECTION
  2
OBJECTS
  0
DICTIONARY
  5
C
330
0
100
AcDbDictionary
  3
ACAD_GROUP
350
D
  3
ACAD_MLINESTYLE
350
17
  0
DICTIONARY
  5
D
330
C
100
AcDbDictionary
  0
DICTIONARY
  5
1A
330
C
100
AcDbDictionary
  0
DICTIONARY
  5
17
330
C
100
AcDbDictionary
  3
STANDARD
350
18
  0
DICTIONARY
  5
19
330
C
100
AcDbDictionary
  0
ENDSEC
  0
EOF
