999
DXF created by Inkscape
  0
SECTION
  2
HEADER
  9
$ACADVER
  1
AC1014
  9
$HANDSEED
  5
FFFF
  9
$MEASUREMENT
 70
     1
  0
ENDSEC
  0
SECTION
  2
TABLES
  0
TABLE
  2
VPORT
  5
8
330
0
100
AcDbSymbolTable
 70
     4
  0
VPORT
  5
2E
330
8
100
AcDbSymbolTableRecord
100
AcDbViewportTableRecord
  2
*ACTIVE
 70
     0
 10
0.0
 20
0.0
 11
1.0
 21
1.0
 12
210.0
 22
148.5
 13
0.0
 23
0.0
 14
10.0
 24
10.0
 15
10.0
 25
10.0
 16
0.0
 26
0.0
 36
1.0
 17
0.0
 27
0.0
 37
0.0
 40
341.0
 41
1.24
 42
50.0
 43
0.0
 44
0.0
 50
0.0
 51
0.0
 71
     0
 72
   100
 73
     1
 74
     3
 75
     0
 76
     0
 77
     0
 78
     0
  0
ENDTAB
  0
TABLE
  2
LTYPE
  5
5
330
0
100
AcDbSymbolTable
 70
     1
  0
LTYPE
  5
14
330
5
100
AcDbSymbolTableRecord
100
AcDbLinetypeTableRecord
  2
BYBLOCK
 70
     0
  3

 72
    65
 73
     0
 40
0.0
  0
LTYPE
  5
15
330
5
100
AcDbSymbolTableRecord
100
AcDbLinetypeTableRecord
  2
BYLAYER
 70
     0
  3

 72
    65
 73
     0
 40
0.0
  0
LTYPE
  5
16
330
5
100
AcDbSymbolTableRecord
100
AcDbLinetypeTableRecord
  2
CONTINUOUS
 70
     0
  3
Solid line
 72
    65
 73
     0
 40
0.0
  0
ENDTAB
  0
TABLE
  2
LAYER
  5
2
100
AcDbSymbolTable
 70
1
  0
LAYER
  5
50
100
AcDbSymbolTableRecord
100
AcDbLayerTableRecord
  2
0
 70
0
  6
CONTINUOUS
  0
ENDTAB
  0
TABLE
  2
STYLE
  5
3
330
0
100
AcDbSymbolTable
 70
     1
  0
STYLE
  5
11
330
3
100
AcDbSymbolTableRecord
100
AcDbTextStyleTableRecord
  2
STANDARD
 70
     0
 40
0.0
 41
1.0
 50
0.0
 71
     0
 42
2.5
  3
txt
  4

  0
ENDTAB
  0
TABLE
  2
VIEW
  5
6
330
0
100
AcDbSymbolTable
 70
     0
  0
ENDTAB
  0
TABLE
  2
UCS
  5
7
330
0
100
AcDbSymbolTable
 70
     0
  0
ENDTAB
  0
TABLE
  2
APPID
  5
9
330
0
100
AcDbSymbolTable
 70
     2
  0
APPID
  5
12
330
9
100
AcDbSymbolTableRecord
100
AcDbRegAppTableRecord
  2
ACAD
 70
     0
  0
ENDTAB
  0
TABLE
  2
DIMSTYLE
  5
A
330
0
100
AcDbSymbolTable
 70
     1
  0
DIMSTYLE
105
27
330
A
100
AcDbSymbolTableRecord
100
AcDbDimStyleTableRecord
  2
ISO-25
 70
     0
  3

  4

  5

  6

  7

 40
1.0
 41
2.5
 42
0.625
 43
3.75
 44
1.25
 45
0.0
 46
0.0
 47
0.0
 48
0.0
140
2.5
141
2.5
142
0.0
143
0.03937007874016
144
1.0
145
0.0
146
1.0
147
0.625
 71
     0
 72
     0
 73
     0
 74
     0
 75
     0
 76
     0
 77
     1
 78
     8
170
     0
171
     3
172
     1
173
     0
174
     0
175
     0
176
     0
177
     0
178
     0
270
     2
271
     2
272
     2
273
     2
274
     3
340
11
275
     0
280
     0
281
     0
282
     0
283
     0
284
     8
285
     0
286
     0
287
     3
288
     0
  0
ENDTAB
  0
TABLE
  2
BLOCK_RECORD
  5
1
330
0
100
AcDbSymbolTable
 70
     1
  0
BLOCK_RECORD
  5
1F
330
1
100
AcDbSymbolTableRecord
100
AcDbBlockTableRecord
  2
*MODEL_SPACE
  0
BLOCK_RECORD
  5
1B
330
1
100
AcDbSymbolTableRecord
100
AcDbBlockTableRecord
  2
*PAPER_SPACE
  0
ENDTAB
  0
ENDSEC
  0
SECTION
  2
BLOCKS
  0
BLOCK
  5
20
330
1F
100
AcDbEntity
  8
0
100
AcDbBlockBegin
  2
*MODEL_SPACE
 70
     0
 10
0.0
 20
0.0
 30
0.0
  3
*MODEL_SPACE
  1

  0
ENDBLK
  5
21
330
1F
100
AcDbEntity
  8
0
100
AcDbBlockEnd
  0
BLOCK
  5
1C
330
1B
100
AcDbEntity
 67
     1
  8
0
100
AcDbBlockBegin
  2
*PAPER_SPACE
  1

  0
ENDBLK
  5
1D
330
1B
100
AcDbEntity
 67
     1
  8
0
100
AcDbBlockEnd
  0
ENDSEC
  0
SECTION
  2
ENTITIES
  0
LWPOLYLINE
  5
100
100
AcDbEntity
  8
0
 62
3
100
AcDbPolyline
 90
161
 70
0
 10
141.820559
 20
25.499026
 30
0.0
 10
142.680504
 20
28.623855
 30
0.0
 10
144.665200
 20
30.841493
 30
0.0
 10
147.370193
 20
32.482364
 30
0.0
 10
150.391032
 20
33.876886
 30
0.0
 10
153.323259
 20
35.355488
 30
0.0
 10
155.762421
 20
37.248586
 30
0.0
 10
157.304065
 20
39.886608
 30
0.0
 10
157.543734
 20
43.599975
 30
0.0
 10
158.183089
 20
46.924316
 30
0.0
 10
158.096280
 20
50.176230
 30
0.0
 10
156.969584
 20
56.477668
 30
0.0
 10
156.542399
 20
59.534645
 30
0.0
 10
156.614458
 20
62.534092
 30
0.0
 10
157.492113
 20
65.479735
 30
0.0
 10
159.481712
 20
68.375296
 30
0.0
 10
159.983983
 20
71.294030
 30
0.0
 10
160.156900
 20
74.423936
 30
0.0
 10
160.354038
 20
80.839098
 30
0.0
 10
160.797929
 20
83.885272
 30
0.0
 10
161.751812
 20
86.664456
 30
0.0
 10
163.425525
 20
89.057107
 30
0.0
 10
166.028903
 20
90.943687
 30
0.0
 10
170.032765
 20
92.731028
 30
0.0
 10
173.335371
 20
95.212972
 30
0.0
 10
176.146471
 20
98.174940
 30
0.0
 10
178.675823
 20
101.402351
 30
0.0
 10
183.728284
 20
107.795170
 30
0.0
 10
186.670899
 20
110.531419
 30
0.0
 10
190.170776
 20
112.674784
 30
0.0
 10
196.714006
 20
116.572959
 30
0.0
 10
200.142596
 20
118.627356
 30
0.0
 10
203.254432
 20
120.883164
 30
0.0
 10
205.733464
 20
123.438779
 30
0.0
 10
207.263636
 20
126.392607
 30
0.0
 10
207.528899
 20
129.843047
 30
0.0
 10
206.213205
 20
133.888503
 30
0.0
 10
207.089923
 20
137.201546
 30
0.0
 10
207.111005
 20
140.467489
 30
0.0
 10
205.630605
 20
146.865583
 30
0.0
 10
203.860578
 20
153.097806
 30
0.0
 10
203.519639
 20
156.156412
 30
0.0
 10
203.889508
 20
159.179181
 30
0.0
 10
205.715354
 20
160.293710
 30
0.0
 10
207.040745
 20
161.558619
 30
0.0
 10
207.905130
 20
162.948236
 30
0.0
 10
208.347951
 20
164.436885
 30
0.0
 10
208.126688
 20
167.608606
 30
0.0
 10
206.692517
 20
170.868411
 30
0.0
 10
204.361000
 20
174.010927
 30
0.0
 10
201.447699
 20
176.830784
 30
0.0
 10
198.268175
 20
179.122609
 30
0.0
 10
195.137989
 20
180.681029
 30
0.0
 10
193.037917
 20
181.162012
 30
0.0
 10
191.670853
 20
182.275277
 30
0.0
 10
190.884144
 20
183.877173
 30
0.0
 10
190.525140
 20
185.824035
 30
0.0
 10
190.479632
 20
190.178027
 30
0.0
 10
190.313112
 20
194.187981
 30
0.0
 10
189.718154
 20
209.026921
 30
0.0
 10
188.225695
 20
208.561189
 30
0.0
 10
186.822057
 20
208.817320
 30
0.0
 10
184.159768
 20
210.351731
 30
0.0
 10
182.840376
 20
211.058297
 30
0.0
 10
181.488320
 20
211.343288
 30
0.0
 10
180.073235
 20
210.920849
 30
0.0
 10
178.564746
 20
209.505121
 30
0.0
 10
172.626994
 20
210.164017
 30
0.0
 10
166.812282
 20
211.801642
 30
0.0
 10
155.550071
 20
216.243654
 30
0.0
 10
151.529169
 20
217.802356
 30
0.0
 10
147.012843
 20
219.827740
 30
0.0
 10
145.060523
 20
220.269858
 30
0.0
 10
143.574302
 20
219.933955
 30
0.0
 10
142.750831
 20
218.521796
 30
0.0
 10
142.786755
 20
215.735154
 30
0.0
 10
145.069822
 20
211.947362
 30
0.0
 10
146.733491
 20
207.365919
 30
0.0
 10
146.893844
 20
205.664071
 30
0.0
 10
146.372306
 20
204.827598
 30
0.0
 10
144.993188
 20
205.211099
 30
0.0
 10
142.580812
 20
207.169171
 30
0.0
 10
141.101123
 20
207.552665
 30
0.0
 10
139.520044
 20
207.196380
 30
0.0
 10
136.088430
 20
205.138604
 30
0.0
 10
132.355429
 20
202.744081
 30
0.0
 10
130.397614
 20
201.966870
 30
0.0
 10
128.390492
 20
201.761062
 30
0.0
 10
125.229358
 20
197.610634
 30
0.0
 10
122.191320
 20
193.950926
 30
0.0
 10
120.442426
 20
192.482301
 30
0.0
 10
118.393060
 20
191.349006
 30
0.0
 10
115.932808
 20
190.621926
 30
0.0
 10
112.951254
 20
190.371942
 30
0.0
 10
97.025443
 20
185.852071
 30
0.0
 10
81.620035
 20
179.941959
 30
0.0
 10
75.363640
 20
178.910082
 30
0.0
 10
68.267272
 20
178.041523
 30
0.0
 10
65.119800
 20
177.185337
 30
0.0
 10
62.621174
 20
175.790205
 30
0.0
 10
61.057677
 20
173.662862
 30
0.0
 10
60.715587
 20
170.610050
 30
0.0
 10
57.329905
 20
169.851942
 30
0.0
 10
54.737358
 20
168.301529
 30
0.0
 10
52.883263
 20
166.115167
 30
0.0
 10
51.712927
 20
163.449209
 30
0.0
 10
51.171664
 20
160.460007
 30
0.0
 10
51.204786
 20
157.303913
 30
0.0
 10
51.757603
 20
154.137287
 30
0.0
 10
52.775423
 20
151.116476
 30
0.0
 10
47.424289
 20
150.894443
 30
0.0
 10
46.601609
 20
150.538663
 30
0.0
 10
46.334784
 20
149.821152
 30
0.0
 10
46.798727
 20
148.621095
 30
0.0
 10
48.168348
 20
146.817681
 30
0.0
 10
48.369118
 20
144.705886
 30
0.0
 10
47.783806
 20
142.762608
 30
0.0
 10
45.761611
 20
139.274265
 30
0.0
 10
45.078071
 20
137.675527
 30
0.0
 10
45.115127
 20
136.137960
 30
0.0
 10
46.249455
 20
134.634732
 30
0.0
 10
48.857718
 20
133.138999
 30
0.0
 10
50.828053
 20
131.550252
 30
0.0
 10
52.601704
 20
129.332163
 30
0.0
 10
55.357573
 20
123.856998
 30
0.0
 10
56.722546
 20
118.411614
 30
0.0
 10
56.757576
 20
116.230744
 30
0.0
 10
56.293839
 20
114.694106
 30
0.0
 10
53.685544
 20
116.103942
 30
0.0
 10
51.534853
 20
118.167861
 30
0.0
 10
47.918096
 20
123.172372
 30
0.0
 10
46.107937
 20
125.570178
 30
0.0
 10
44.067197
 20
127.536485
 30
0.0
 10
41.623827
 20
128.799906
 30
0.0
 10
38.605782
 20
129.089040
 30
0.0
 10
37.040256
 20
125.914957
 30
0.0
 10
36.878390
 20
122.626461
 30
0.0
 10
37.699848
 20
119.241895
 30
0.0
 10
39.084287
 20
115.779606
 30
0.0
 10
41.860730
 20
108.695242
 30
0.0
 10
42.412051
 20
105.109854
 30
0.0
 10
41.844976
 20
101.520125
 30
0.0
 10
44.572058
 20
95.260699
 30
0.0
 10
46.754418
 20
88.946479
 30
0.0
 10
47.955367
 20
82.438994
 30
0.0
 10
48.051350
 20
79.069500
 30
0.0
 10
47.738222
 20
75.599758
 30
0.0
 10
50.394802
 20
68.680141
 30
0.0
 10
52.142706
 20
61.599219
 30
0.0
 10
52.682354
 20
54.373224
 30
0.0
 10
51.714177
 20
47.018377
 30
0.0
 10
50.209839
 20
41.426006
 30
0.0
 10
49.207189
 20
35.801509
 30
0.0
 10
49.166343
 20
30.163095
 30
0.0
 10
50.547420
 20
24.528966
 30
0.0
 10
56.526184
 20
24.024494
 30
0.0
 10
62.768031
 20
24.157500
 30
0.0
 10
69.104538
 20
24.432232
 30
0.0
 10
75.367286
 20
24.352939
 30
0.0
 10
141.820547
 20
25.499026
 30
0.0
 10
141.820547
 20
25.499026
 30
0.0
  0
LWPOLYLINE
  5
101
100
AcDbEntity
  8
0
 62
3
100
AcDbPolyline
 90
15
 70
0
 10
35.447701
 20
126.878021
 30
0.0
 10
37.147503
 20
129.587298
 30
0.0
 10
37.465006
 20
132.575424
 30
0.0
 10
36.684218
 20
135.692580
 30
0.0
 10
35.089152
 20
138.788939
 30
0.0
 10
32.963810
 20
141.714677
 30
0.0
 10
30.592203
 20
144.319975
 30
0.0
 10
26.246222
 20
147.969949
 30
0.0
 10
27.022374
 20
143.312617
 30
0.0
 10
28.913588
 20
138.111430
 30
0.0
 10
31.570453
 20
132.799678
 30
0.0
 10
34.643560
 20
127.810641
 30
0.0
 10
35.447701
 20
126.878021
 30
0.0
 10
35.447701
 20
126.878021
 30
0.0
 10
35.447701
 20
126.878021
 30
0.0
  0
LWPOLYLINE
  5
102
100
AcDbEntity
  8
0
 62
3
100
AcDbPolyline
 90
8
 70
0
 10
36.773722
 20
144.436369
 30
0.0
 10
37.469493
 20
143.722629
 30
0.0
 10
37.583164
 20
143.168429
 30
0.0
 10
36.830816
 20
142.627423
 30
0.0
 10
36.049921
 20
142.990892
 30
0.0
 10
36.127907
 20
143.567283
 30
0.0
 10
36.773722
 20
144.436369
 30
0.0
 10
36.773722
 20
144.436369
 30
0.0
  0
LWPOLYLINE
  5
103
100
AcDbEntity
  8
0
 62
3
100
AcDbPolyline
 90
10
 70
0
 10
24.702373
 20
151.478000
 30
0.0
 10
24.288665
 20
153.493814
 30
0.0
 10
23.602309
 20
154.027045
 30
0.0
 10
22.838730
 20
153.531008
 30
0.0
 10
22.193353
 20
152.459027
 30
0.0
 10
21.861604
 20
151.264417
 30
0.0
 10
22.038907
 20
150.400495
 30
0.0
 10
22.920689
 20
150.320584
 30
0.0
 10
24.702373
 20
151.478000
 30
0.0
 10
24.702373
 20
151.478000
 30
0.0
  0
LWPOLYLINE
  5
104
100
AcDbEntity
  8
0
 62
3
100
AcDbPolyline
 90
6
 70
0
 10
20.358494
 20
153.992868
 30
0.0
 10
21.277356
 20
153.822425
 30
0.0
 10
20.792478
 20
153.286621
 30
0.0
 10
20.090608
 20
153.103938
 30
0.0
 10
20.358494
 20
153.992868
 30
0.0
 10
20.358494
 20
153.992868
 30
0.0
  0
ENDSEC
  0
SECTION
  2
OBJECTS
  0
DICTIONARY
  5
C
330
0
100
AcDbDictionary
  3
ACAD_GROUP
350
D
  3
ACAD_MLINESTYLE
350
17
  0
DICTIONARY
  5
D
330
C
100
AcDbDictionary
  0
DICTIONARY
  5
1A
330
C
100
AcDbDictionary
  0
DICTIONARY
  5
17
330
C
100
AcDbDictionary
  3
STANDARD
350
18
  0
DICTIONARY
  5
19
330
C
100
AcDbDictionary
  0
ENDSEC
  0
EOF
